M48
; DRILL file {KiCad 8.0.5} date 2024-12-10T19:27:52+0100
; FORMAT={-:-/ absolute / inch / decimal}
; #@! TF.CreationDate,2024-12-10T19:27:52+01:00
; #@! TF.GenerationSoftware,Kicad,Pcbnew,8.0.5
; #@! TF.FileFunction,Plated,1,2,PTH
FMAT,2
INCH
; #@! TA.AperFunction,Plated,PTH,ViaDrill
T1C0.0118
; #@! TA.AperFunction,Plated,PTH,ComponentDrill
T2C0.0236
; #@! TA.AperFunction,Plated,PTH,ComponentDrill
T3C0.0315
; #@! TA.AperFunction,Plated,PTH,ComponentDrill
T4C0.0394
; #@! TA.AperFunction,Plated,PTH,ComponentDrill
T5C0.0420
; #@! TA.AperFunction,Plated,PTH,ComponentDrill
T6C0.0472
; #@! TA.AperFunction,Plated,PTH,ComponentDrill
T7C0.0512
%
G90
G05
T1
X3.6929Y-4.189
X3.7136Y-3.9843
X3.7323Y-4.2126
X3.748Y-5.0079
X3.7638Y-4.0157
X3.7717Y-4.3307
X3.7795Y-4.3701
X3.811Y-4.3622
X3.8317Y-4.2992
X3.8472Y-3.9886
X3.8504Y-4.378
X3.8583Y-4.0394
X3.8583Y-4.1014
X3.8661Y-3.9685
X3.8661Y-4.189
X3.8765Y-4.3692
X3.8976Y-3.8504
X3.9055Y-4.378
X3.9055Y-4.7008
X3.9103Y-4.2276
X3.9134Y-4.5354
X3.9134Y-4.811
X3.9291Y-4.9055
X3.937Y-4.2343
X3.937Y-4.3701
X3.9528Y-3.7953
X3.9528Y-3.8494
X3.953Y-5.0069
X3.9685Y-4.378
X3.9764Y-4.0
X3.9764Y-4.0866
X3.9764Y-4.4724
X3.9843Y-4.5118
X3.9921Y-4.685
X3.9986Y-4.345
X4.0Y-4.1811
X4.0157Y-4.3937
X4.0314Y-3.929
X4.0315Y-3.7638
X4.0315Y-4.5827
X4.0394Y-4.2047
X4.0551Y-4.3701
X4.063Y-4.7717
X4.1024Y-4.3543
X4.1181Y-4.5433
X4.126Y-4.1339
X4.1417Y-3.6821
X4.1573Y-4.3121
X4.1589Y-4.3396
X4.1772Y-3.8661
X4.195Y-4.2963
X4.1969Y-4.8031
X4.2047Y-3.8661
X4.2047Y-3.9921
X4.2205Y-4.3937
X4.2396Y-3.9833
X4.2424Y-3.877
X4.252Y-4.7717
X4.2598Y-3.9606
X4.2677Y-3.8661
X4.2677Y-4.1339
X4.2677Y-4.1654
X4.2756Y-3.6693
X4.2756Y-4.4016
X4.2835Y-4.748
X4.2913Y-4.1969
X4.2992Y-4.5197
X4.2992Y-4.8268
X4.3071Y-3.9528
X4.315Y-4.2756
X4.3307Y-3.6329
X4.3307Y-3.8425
X4.3465Y-3.7795
X4.3622Y-3.5669
X4.3701Y-3.5955
X4.3701Y-3.7402
X4.378Y-3.8504
X4.4567Y-4.9843
X4.4646Y-4.6378
X4.4803Y-4.0157
X4.4882Y-4.7165
X4.4882Y-4.8268
X4.4961Y-3.9685
X4.4961Y-4.1969
X4.5039Y-4.0866
X4.5197Y-3.8031
X4.5276Y-3.685
X4.5354Y-4.6299
X4.5748Y-4.2756
X4.5827Y-4.0709
X4.6063Y-4.2598
X4.6299Y-3.5984
X4.6299Y-3.6457
X4.6299Y-4.8898
X4.6585Y-4.4961
X4.6585Y-4.6063
X4.6693Y-4.9921
X4.6772Y-4.7795
X4.685Y-4.2913
X4.7008Y-4.5984
X4.7165Y-4.2047
X4.7165Y-4.6614
X4.7244Y-4.0709
X4.7244Y-4.7323
X4.7717Y-4.3937
X4.7953Y-3.6063
X4.8031Y-4.5748
X4.8425Y-3.9449
X4.8504Y-4.5433
X4.8661Y-4.4803
X4.874Y-5.0
X4.8868Y-4.7559
X4.8976Y-3.8061
X4.8976Y-4.8976
X4.9449Y-3.9685
X4.9685Y-4.1339
X5.0Y-4.2913
X5.0157Y-3.7638
X5.0394Y-4.4252
X5.0787Y-4.5276
X5.0866Y-4.3937
X5.1181Y-4.0
X5.1339Y-4.8425
X5.189Y-3.6772
X5.2126Y-3.8031
X5.2441Y-4.3622
X5.2835Y-4.0945
X5.315Y-4.7008
X5.3622Y-4.363
X5.3701Y-3.9764
X5.3937Y-4.7559
X5.4173Y-4.2835
X5.4409Y-3.8661
X5.4409Y-4.0945
X5.4409Y-4.3307
X5.5591Y-4.2205
X5.5906Y-4.0945
T3
X3.8898Y-4.5815
X4.189Y-4.5815
T4
X3.6197Y-4.4906
X3.6197Y-4.589
X4.7941Y-3.3484
X4.8197Y-3.5567
X4.8465Y-3.8504
X4.8465Y-4.2504
X4.9197Y-3.5567
X4.9465Y-3.8504
X4.9465Y-4.2504
X5.0303Y-2.0256
X5.0465Y-3.8504
X5.0465Y-4.2504
X5.1465Y-3.8504
X5.1465Y-4.2504
X5.2465Y-3.8504
X5.2465Y-4.2504
X5.2665Y-2.0256
X5.3465Y-3.8504
X5.3465Y-4.2504
X5.5028Y-3.3484
T5
X3.8764Y-4.962
X4.0764Y-4.922
X4.0764Y-5.002
T6
X4.5Y-2.2378
X4.5Y-2.6354
X4.5Y-3.1354
X4.5Y-3.3362
X5.3197Y-3.5567
X5.5197Y-3.5567
X5.5354Y-4.5012
X5.5354Y-4.6012
T7
X3.8665Y-2.0591
X3.8665Y-2.3543
X3.8665Y-2.6496
X3.8665Y-2.9449
X3.8665Y-3.2402
X3.8665Y-3.5354
X4.0634Y-2.0591
X4.0634Y-2.3543
X4.0634Y-2.6496
X4.0634Y-2.9449
X4.0634Y-3.2402
X4.0634Y-3.5354
T2
G00X3.6378Y-3.8091
M15
G01X3.6063Y-3.8091
M16
G05
G00X3.6378Y-4.1492
M15
G01X3.6063Y-4.1492
M16
G05
G00X3.8083Y-3.8091
M15
G01X3.765Y-3.8091
M16
G05
G00X3.8083Y-4.1492
M15
G01X3.765Y-4.1492
M16
G05
M30
