%TF.GenerationSoftware,KiCad,Pcbnew,8.0.5*%
%TF.CreationDate,2024-12-10T19:27:58+01:00*%
%TF.ProjectId,OpenReflowPlate,4f70656e-5265-4666-9c6f-77506c617465,rev?*%
%TF.SameCoordinates,Original*%
%TF.FileFunction,Copper,L2,Bot*%
%TF.FilePolarity,Positive*%
%FSLAX46Y46*%
G04 Gerber Fmt 4.6, Leading zero omitted, Abs format (unit mm)*
G04 Created by KiCad (PCBNEW 8.0.5) date 2024-12-10 19:27:58*
%MOMM*%
%LPD*%
G01*
G04 APERTURE LIST*
G04 Aperture macros list*
%AMRoundRect*
0 Rectangle with rounded corners*
0 $1 Rounding radius*
0 $2 $3 $4 $5 $6 $7 $8 $9 X,Y pos of 4 corners*
0 Add a 4 corners polygon primitive as box body*
4,1,4,$2,$3,$4,$5,$6,$7,$8,$9,$2,$3,0*
0 Add four circle primitives for the rounded corners*
1,1,$1+$1,$2,$3*
1,1,$1+$1,$4,$5*
1,1,$1+$1,$6,$7*
1,1,$1+$1,$8,$9*
0 Add four rect primitives between the rounded corners*
20,1,$1+$1,$2,$3,$4,$5,0*
20,1,$1+$1,$4,$5,$6,$7,0*
20,1,$1+$1,$6,$7,$8,$9,0*
20,1,$1+$1,$8,$9,$2,$3,0*%
%AMFreePoly0*
4,1,19,0.500000,-0.750000,0.000000,-0.750000,0.000000,-0.744911,-0.071157,-0.744911,-0.207708,-0.704816,-0.327430,-0.627875,-0.420627,-0.520320,-0.479746,-0.390866,-0.500000,-0.250000,-0.500000,0.250000,-0.479746,0.390866,-0.420627,0.520320,-0.327430,0.627875,-0.207708,0.704816,-0.071157,0.744911,0.000000,0.744911,0.000000,0.750000,0.500000,0.750000,0.500000,-0.750000,0.500000,-0.750000,
$1*%
%AMFreePoly1*
4,1,19,0.000000,0.744911,0.071157,0.744911,0.207708,0.704816,0.327430,0.627875,0.420627,0.520320,0.479746,0.390866,0.500000,0.250000,0.500000,-0.250000,0.479746,-0.390866,0.420627,-0.520320,0.327430,-0.627875,0.207708,-0.704816,0.071157,-0.744911,0.000000,-0.744911,0.000000,-0.750000,-0.500000,-0.750000,-0.500000,0.750000,0.000000,0.750000,0.000000,0.744911,0.000000,0.744911,
$1*%
G04 Aperture macros list end*
%TA.AperFunction,ComponentPad*%
%ADD10R,1.800000X1.800000*%
%TD*%
%TA.AperFunction,ComponentPad*%
%ADD11C,1.800000*%
%TD*%
%TA.AperFunction,ComponentPad*%
%ADD12C,1.500000*%
%TD*%
%TA.AperFunction,ComponentPad*%
%ADD13R,1.500000X1.500000*%
%TD*%
%TA.AperFunction,ComponentPad*%
%ADD14C,1.950000*%
%TD*%
%TA.AperFunction,ComponentPad*%
%ADD15O,2.100000X1.000000*%
%TD*%
%TA.AperFunction,ComponentPad*%
%ADD16O,1.800000X1.000000*%
%TD*%
%TA.AperFunction,ComponentPad*%
%ADD17C,1.550000*%
%TD*%
%TA.AperFunction,SMDPad,CuDef*%
%ADD18RoundRect,0.250000X0.262500X0.450000X-0.262500X0.450000X-0.262500X-0.450000X0.262500X-0.450000X0*%
%TD*%
%TA.AperFunction,SMDPad,CuDef*%
%ADD19R,1.000000X1.450000*%
%TD*%
%TA.AperFunction,SMDPad,CuDef*%
%ADD20R,0.600000X1.250000*%
%TD*%
%TA.AperFunction,SMDPad,CuDef*%
%ADD21R,1.020000X1.470000*%
%TD*%
%TA.AperFunction,ComponentPad*%
%ADD22C,1.300000*%
%TD*%
%TA.AperFunction,SMDPad,CuDef*%
%ADD23R,1.470000X1.020000*%
%TD*%
%TA.AperFunction,SMDPad,CuDef*%
%ADD24R,1.450000X1.000000*%
%TD*%
%TA.AperFunction,SMDPad,CuDef*%
%ADD25R,1.250000X0.600000*%
%TD*%
%TA.AperFunction,SMDPad,CuDef*%
%ADD26RoundRect,0.075000X0.700000X0.075000X-0.700000X0.075000X-0.700000X-0.075000X0.700000X-0.075000X0*%
%TD*%
%TA.AperFunction,SMDPad,CuDef*%
%ADD27RoundRect,0.075000X0.075000X0.700000X-0.075000X0.700000X-0.075000X-0.700000X0.075000X-0.700000X0*%
%TD*%
%TA.AperFunction,SMDPad,CuDef*%
%ADD28FreePoly0,0.000000*%
%TD*%
%TA.AperFunction,SMDPad,CuDef*%
%ADD29FreePoly1,0.000000*%
%TD*%
%TA.AperFunction,SMDPad,CuDef*%
%ADD30RoundRect,0.250000X0.450000X-0.262500X0.450000X0.262500X-0.450000X0.262500X-0.450000X-0.262500X0*%
%TD*%
%TA.AperFunction,SMDPad,CuDef*%
%ADD31RoundRect,0.250000X-0.450000X0.262500X-0.450000X-0.262500X0.450000X-0.262500X0.450000X0.262500X0*%
%TD*%
%TA.AperFunction,SMDPad,CuDef*%
%ADD32R,0.960000X1.390000*%
%TD*%
%TA.AperFunction,SMDPad,CuDef*%
%ADD33R,1.525000X0.650000*%
%TD*%
%TA.AperFunction,ViaPad*%
%ADD34C,0.600000*%
%TD*%
%TA.AperFunction,Conductor*%
%ADD35C,0.150000*%
%TD*%
%TA.AperFunction,Conductor*%
%ADD36C,0.250000*%
%TD*%
%TA.AperFunction,Conductor*%
%ADD37C,3.000000*%
%TD*%
%TA.AperFunction,Conductor*%
%ADD38C,0.200000*%
%TD*%
G04 APERTURE END LIST*
D10*
%TO.P,K3,1,COM*%
%TO.N,DC_Out2*%
X140200000Y-90340000D03*
D11*
%TO.P,K3,2,NO*%
%TO.N,AC_Vdcin+*%
X135120000Y-90340000D03*
D12*
%TO.P,K3,3,COIL_1*%
%TO.N,Activation_out2*%
X124960000Y-90340000D03*
%TO.P,K3,4,COIL_2*%
%TO.N,GND*%
X122420000Y-90340000D03*
%TD*%
D13*
%TO.P,U1,1,e*%
%TO.N,D_e*%
X123100000Y-107960000D03*
D12*
%TO.P,U1,2,d*%
%TO.N,D_d*%
X125640000Y-107960000D03*
%TO.P,U1,3,DPX*%
%TO.N,D_dp*%
X128180000Y-107960000D03*
%TO.P,U1,4,c*%
%TO.N,D_c*%
X130720000Y-107960000D03*
%TO.P,U1,5,g*%
%TO.N,D_g*%
X133260000Y-107960000D03*
%TO.P,U1,6,CC4*%
%TO.N,CC_4*%
X135800000Y-107960000D03*
%TO.P,U1,7,b*%
%TO.N,D_b*%
X135800000Y-97800000D03*
%TO.P,U1,8,CC3*%
%TO.N,CC_3*%
X133260000Y-97800000D03*
%TO.P,U1,9,CC2*%
%TO.N,CC_2*%
X130720000Y-97800000D03*
%TO.P,U1,10,f*%
%TO.N,D_f*%
X128180000Y-97800000D03*
%TO.P,U1,11,a*%
%TO.N,D_a*%
X125640000Y-97800000D03*
%TO.P,U1,12,CC1*%
%TO.N,CC_1*%
X123100000Y-97800000D03*
%TD*%
%TO.P,PS2,1,AC_1*%
%TO.N,AC_L*%
X133770000Y-51450000D03*
%TO.P,PS2,2,AC_2*%
%TO.N,AC_N*%
X127770000Y-51450000D03*
%TO.P,PS2,3,-VO*%
%TO.N,GND*%
X139770000Y-85050000D03*
%TO.P,PS2,4,+VO*%
%TO.N,AC_Vdcin+*%
X121770000Y-85050000D03*
%TD*%
D14*
%TO.P,J3,1*%
%TO.N,Net-(K1-AC_LOAD_2)*%
X103210000Y-74800000D03*
%TO.P,J3,2*%
%TO.N,AC_N*%
X103210000Y-82300000D03*
%TO.P,J3,3*%
%TO.N,AC_ground*%
X103210000Y-89800000D03*
%TO.P,J3,A1*%
%TO.N,Net-(K1-AC_LOAD_2)*%
X98210000Y-74800000D03*
%TO.P,J3,A2*%
%TO.N,AC_N*%
X98210000Y-82300000D03*
%TO.P,J3,A3*%
%TO.N,AC_ground*%
X98210000Y-89800000D03*
%TD*%
D11*
%TO.P,K1,1,AC_LOAD_1*%
%TO.N,AC_L*%
X114300000Y-56840000D03*
%TO.P,K1,2,AC_LOAD_2*%
%TO.N,Net-(K1-AC_LOAD_2)*%
X114300000Y-66940000D03*
%TO.P,K1,3,+DC_INPUT*%
%TO.N,Activation_out1*%
X114300000Y-79640000D03*
%TO.P,K1,4,_-DC_INPUT*%
%TO.N,GND*%
X114300000Y-84740000D03*
%TD*%
D13*
%TO.P,J2,1,1*%
%TO.N,GND*%
X91940000Y-114060000D03*
D12*
%TO.P,J2,2,2*%
%TO.N,DC_Out2*%
X91940000Y-116560000D03*
%TD*%
D10*
%TO.P,J1,1,1*%
%TO.N,Net-(J1-Pad1)*%
X140600000Y-116870000D03*
D11*
%TO.P,J1,2,2*%
%TO.N,Net-(J1-Pad2)*%
X140600000Y-114330000D03*
%TD*%
D14*
%TO.P,J4,1*%
%TO.N,AC_L*%
X103210000Y-52300000D03*
%TO.P,J4,2*%
%TO.N,AC_N*%
X103210000Y-59800000D03*
%TO.P,J4,3*%
%TO.N,AC_ground*%
X103210000Y-67300000D03*
%TO.P,J4,A1*%
%TO.N,AC_L*%
X98210000Y-52300000D03*
%TO.P,J4,A2*%
%TO.N,AC_N*%
X98210000Y-59800000D03*
%TO.P,J4,A3*%
%TO.N,AC_ground*%
X98210000Y-67300000D03*
%TD*%
D15*
%TO.P,J7,S1*%
%TO.N,GND*%
X96180000Y-96750000D03*
%TO.P,J7,S2*%
X96180000Y-105390000D03*
D16*
%TO.P,J7,S3*%
X92000000Y-96750000D03*
%TO.P,J7,S4*%
X92000000Y-105390000D03*
%TD*%
D17*
%TO.P,J6,7*%
%TO.N,N/C*%
X98460000Y-126035000D03*
%TO.P,J6,8*%
X103540000Y-125019000D03*
%TO.P,J6,9*%
X103540000Y-127051000D03*
%TD*%
D18*
%TO.P,R14,1*%
%TO.N,GND*%
X106612500Y-94700000D03*
%TO.P,R14,2*%
%TO.N,Net-(JP1-B)*%
X104787500Y-94700000D03*
%TD*%
D19*
%TO.P,R9,1*%
%TO.N,C_3*%
X115736800Y-105550400D03*
%TO.P,R9,2*%
%TO.N,Net-(Q3-Pad1)*%
X117636800Y-105550400D03*
%TD*%
%TO.P,R3,1*%
%TO.N,Net-(Q1-Pad3)*%
X137511800Y-99800400D03*
%TO.P,R3,2*%
%TO.N,CC_1*%
X139411800Y-99800400D03*
%TD*%
D20*
%TO.P,Q4,1*%
%TO.N,Net-(Q4-Pad1)*%
X121261800Y-103600400D03*
%TO.P,Q4,2*%
%TO.N,GND*%
X119351800Y-103600400D03*
%TO.P,Q4,3*%
%TO.N,Net-(Q4-Pad3)*%
X120306800Y-101500400D03*
%TD*%
D19*
%TO.P,R1,1*%
%TO.N,C_1*%
X137511800Y-105800400D03*
%TO.P,R1,2*%
%TO.N,Net-(Q1-Pad1)*%
X139411800Y-105800400D03*
%TD*%
D21*
%TO.P,C8,1*%
%TO.N,BUT_RIGHT*%
X133300000Y-122865000D03*
%TO.P,C8,2*%
%TO.N,GND*%
X131700000Y-122865000D03*
%TD*%
D22*
%TO.P,LS1,1,+*%
%TO.N,Net-(LS1-+)*%
X106400000Y-116370000D03*
%TO.P,LS1,2,-*%
%TO.N,GND*%
X98800000Y-116370000D03*
%TD*%
D21*
%TO.P,C11,1*%
%TO.N,BUT_ENTER*%
X123000000Y-122670000D03*
%TO.P,C11,2*%
%TO.N,GND*%
X121400000Y-122670000D03*
%TD*%
D19*
%TO.P,R12,1*%
%TO.N,Net-(Q4-Pad3)*%
X119336800Y-99550400D03*
%TO.P,R12,2*%
%TO.N,CC_4*%
X121236800Y-99550400D03*
%TD*%
D23*
%TO.P,C4,1*%
%TO.N,GND*%
X112800000Y-103400000D03*
%TO.P,C4,2*%
%TO.N,+3V3*%
X112800000Y-105000000D03*
%TD*%
D19*
%TO.P,R11,1*%
%TO.N,C_4*%
X119336800Y-105550400D03*
%TO.P,R11,2*%
%TO.N,Net-(Q4-Pad1)*%
X121236800Y-105550400D03*
%TD*%
D24*
%TO.P,R26,1*%
%TO.N,C_out2*%
X118850000Y-92480000D03*
%TO.P,R26,2*%
%TO.N,Net-(Q7-Pad1)*%
X118850000Y-94380000D03*
%TD*%
%TO.P,R20,1*%
%TO.N,+5V*%
X116950000Y-114620000D03*
%TO.P,R20,2*%
%TO.N,Net-(Q5-Pad3)*%
X116950000Y-116520000D03*
%TD*%
%TO.P,R19,1*%
%TO.N,C_buzzer*%
X110950000Y-114620000D03*
%TO.P,R19,2*%
%TO.N,Net-(Q5-Pad1)*%
X110950000Y-116520000D03*
%TD*%
D20*
%TO.P,Q2,1*%
%TO.N,Net-(Q2-Pad1)*%
X143006800Y-103800400D03*
%TO.P,Q2,2*%
%TO.N,GND*%
X141096800Y-103800400D03*
%TO.P,Q2,3*%
%TO.N,Net-(Q2-Pad3)*%
X142051800Y-101700400D03*
%TD*%
D19*
%TO.P,R24,1*%
%TO.N,Net-(R21-Pad2)*%
X123150000Y-120725000D03*
%TO.P,R24,2*%
%TO.N,+3V3*%
X121250000Y-120725000D03*
%TD*%
D25*
%TO.P,Q7,1*%
%TO.N,Net-(Q7-Pad1)*%
X120900000Y-94385000D03*
%TO.P,Q7,2*%
%TO.N,Activation_out2*%
X120900000Y-92475000D03*
%TO.P,Q7,3*%
%TO.N,+5V*%
X123000000Y-93430000D03*
%TD*%
D26*
%TO.P,U2,1,VBAT*%
%TO.N,+3V3*%
X110875000Y-98650000D03*
%TO.P,U2,2,PC13*%
%TO.N,Net-(U2-PC13)*%
X110875000Y-99150000D03*
%TO.P,U2,3,PC14*%
%TO.N,unconnected-(U2-PC14-Pad3)*%
X110875000Y-99650000D03*
%TO.P,U2,4,PC15*%
%TO.N,unconnected-(U2-PC15-Pad4)*%
X110875000Y-100150000D03*
%TO.P,U2,5,PH0*%
%TO.N,unconnected-(U2-PH0-Pad5)*%
X110875000Y-100650000D03*
%TO.P,U2,6,PH1*%
%TO.N,unconnected-(U2-PH1-Pad6)*%
X110875000Y-101150000D03*
%TO.P,U2,7,NRST*%
%TO.N,reset*%
X110875000Y-101650000D03*
%TO.P,U2,8,PC0*%
%TO.N,LED_OUT1*%
X110875000Y-102150000D03*
%TO.P,U2,9,PC1*%
%TO.N,LED_OUT2*%
X110875000Y-102650000D03*
%TO.P,U2,10,PC2*%
%TO.N,LED_LIFE*%
X110875000Y-103150000D03*
%TO.P,U2,11,PC3*%
%TO.N,unconnected-(U2-PC3-Pad11)*%
X110875000Y-103650000D03*
%TO.P,U2,12,VSSA*%
%TO.N,GND*%
X110875000Y-104150000D03*
%TO.P,U2,13,VDDA*%
%TO.N,+3V3*%
X110875000Y-104650000D03*
%TO.P,U2,14,PA0*%
%TO.N,unconnected-(U2-PA0-Pad14)*%
X110875000Y-105150000D03*
%TO.P,U2,15,PA1*%
%TO.N,unconnected-(U2-PA1-Pad15)*%
X110875000Y-105650000D03*
%TO.P,U2,16,PA2*%
%TO.N,unconnected-(U2-PA2-Pad16)*%
X110875000Y-106150000D03*
D27*
%TO.P,U2,17,PA3*%
%TO.N,unconnected-(U2-PA3-Pad17)*%
X108950000Y-108075000D03*
%TO.P,U2,18,VSS*%
%TO.N,GND*%
X108450000Y-108075000D03*
%TO.P,U2,19,VDD*%
%TO.N,+3V3*%
X107950000Y-108075000D03*
%TO.P,U2,20,PA4*%
%TO.N,SPI1_NSS*%
X107450000Y-108075000D03*
%TO.P,U2,21,PA5*%
%TO.N,SPI_CLK*%
X106950000Y-108075000D03*
%TO.P,U2,22,PA6*%
%TO.N,SPI_MISO*%
X106450000Y-108075000D03*
%TO.P,U2,23,PA7*%
%TO.N,unconnected-(U2-PA7-Pad23)*%
X105950000Y-108075000D03*
%TO.P,U2,24,PC4*%
%TO.N,unconnected-(U2-PC4-Pad24)*%
X105450000Y-108075000D03*
%TO.P,U2,25,PC5*%
%TO.N,unconnected-(U2-PC5-Pad25)*%
X104950000Y-108075000D03*
%TO.P,U2,26,PB0*%
%TO.N,C_1*%
X104450000Y-108075000D03*
%TO.P,U2,27,PB1*%
%TO.N,C_2*%
X103950000Y-108075000D03*
%TO.P,U2,28,PB2*%
%TO.N,C_3*%
X103450000Y-108075000D03*
%TO.P,U2,29,PB10*%
%TO.N,D_g*%
X102950000Y-108075000D03*
%TO.P,U2,30,PB11*%
%TO.N,D_dp*%
X102450000Y-108075000D03*
%TO.P,U2,31,VSS*%
%TO.N,GND*%
X101950000Y-108075000D03*
%TO.P,U2,32,VDD*%
%TO.N,+3V3*%
X101450000Y-108075000D03*
D26*
%TO.P,U2,33,PB12*%
%TO.N,unconnected-(U2-PB12-Pad33)*%
X99525000Y-106150000D03*
%TO.P,U2,34,PB13*%
%TO.N,C_buzzer*%
X99525000Y-105650000D03*
%TO.P,U2,35,PB14*%
%TO.N,C_out1*%
X99525000Y-105150000D03*
%TO.P,U2,36,PB15*%
%TO.N,C_out2*%
X99525000Y-104650000D03*
%TO.P,U2,37,PC6*%
%TO.N,unconnected-(U2-PC6-Pad37)*%
X99525000Y-104150000D03*
%TO.P,U2,38,PC7*%
%TO.N,unconnected-(U2-PC7-Pad38)*%
X99525000Y-103650000D03*
%TO.P,U2,39,PC8*%
%TO.N,unconnected-(U2-PC8-Pad39)*%
X99525000Y-103150000D03*
%TO.P,U2,40,PC9*%
%TO.N,BUT_LEFT*%
X99525000Y-102650000D03*
%TO.P,U2,41,PA8*%
%TO.N,unconnected-(U2-PA8-Pad41)*%
X99525000Y-102150000D03*
%TO.P,U2,42,PA9*%
%TO.N,unconnected-(U2-PA9-Pad42)*%
X99525000Y-101650000D03*
%TO.P,U2,43,PA10*%
%TO.N,unconnected-(U2-PA10-Pad43)*%
X99525000Y-101150000D03*
%TO.P,U2,44,PA11*%
%TO.N,USB_D-*%
X99525000Y-100650000D03*
%TO.P,U2,45,PA12*%
%TO.N,USB_D+*%
X99525000Y-100150000D03*
%TO.P,U2,46,PA13*%
%TO.N,SWDIO*%
X99525000Y-99650000D03*
%TO.P,U2,47,VSS*%
%TO.N,GND*%
X99525000Y-99150000D03*
%TO.P,U2,48,VDDUSB*%
%TO.N,+3V3*%
X99525000Y-98650000D03*
D27*
%TO.P,U2,49,PA14*%
%TO.N,SWCLK*%
X101450000Y-96725000D03*
%TO.P,U2,50,PA15*%
%TO.N,unconnected-(U2-PA15-Pad50)*%
X101950000Y-96725000D03*
%TO.P,U2,51,PC10*%
%TO.N,BUT_RIGHT*%
X102450000Y-96725000D03*
%TO.P,U2,52,PC11*%
%TO.N,BUT_ENTER*%
X102950000Y-96725000D03*
%TO.P,U2,53,PC12*%
%TO.N,BUT_BACK*%
X103450000Y-96725000D03*
%TO.P,U2,54,PD2*%
%TO.N,unconnected-(U2-PD2-Pad54)*%
X103950000Y-96725000D03*
%TO.P,U2,55,PB3*%
%TO.N,C_4*%
X104450000Y-96725000D03*
%TO.P,U2,56,PB4*%
%TO.N,D_a*%
X104950000Y-96725000D03*
%TO.P,U2,57,PB5*%
%TO.N,D_b*%
X105450000Y-96725000D03*
%TO.P,U2,58,PB6*%
%TO.N,D_c*%
X105950000Y-96725000D03*
%TO.P,U2,59,PB7*%
%TO.N,D_d*%
X106450000Y-96725000D03*
%TO.P,U2,60,BOOT0*%
%TO.N,Net-(JP1-B)*%
X106950000Y-96725000D03*
%TO.P,U2,61,PB8*%
%TO.N,D_e*%
X107450000Y-96725000D03*
%TO.P,U2,62,PB9*%
%TO.N,D_f*%
X107950000Y-96725000D03*
%TO.P,U2,63,VSS*%
%TO.N,GND*%
X108450000Y-96725000D03*
%TO.P,U2,64,VDD*%
%TO.N,+3V3*%
X108950000Y-96725000D03*
%TD*%
D19*
%TO.P,R6,1*%
%TO.N,Net-(Q2-Pad3)*%
X141101800Y-99750400D03*
%TO.P,R6,2*%
%TO.N,CC_2*%
X143001800Y-99750400D03*
%TD*%
%TO.P,R5,1*%
%TO.N,C_2*%
X141101800Y-105750400D03*
%TO.P,R5,2*%
%TO.N,Net-(Q2-Pad1)*%
X143001800Y-105750400D03*
%TD*%
%TO.P,R21,1*%
%TO.N,BUT_ENTER*%
X123150000Y-118670000D03*
%TO.P,R21,2*%
%TO.N,Net-(R21-Pad2)*%
X121250000Y-118670000D03*
%TD*%
D28*
%TO.P,JP1,1,A*%
%TO.N,+3V3*%
X101650000Y-94400000D03*
D29*
%TO.P,JP1,2,B*%
%TO.N,Net-(JP1-B)*%
X102950000Y-94400000D03*
%TD*%
D30*
%TO.P,R13,1*%
%TO.N,Net-(U2-PC13)*%
X112900000Y-99012500D03*
%TO.P,R13,2*%
%TO.N,AC_Vdcin+*%
X112900000Y-97187500D03*
%TD*%
D19*
%TO.P,R25,1*%
%TO.N,Net-(R22-Pad2)*%
X117350000Y-118775000D03*
%TO.P,R25,2*%
%TO.N,+3V3*%
X115450000Y-118775000D03*
%TD*%
D31*
%TO.P,R7,1*%
%TO.N,GND*%
X117000000Y-125557500D03*
%TO.P,R7,2*%
%TO.N,Net-(LED3-Pad1)*%
X117000000Y-127382500D03*
%TD*%
D32*
%TO.P,LFB1,1*%
%TO.N,Net-(J1-Pad2)*%
X135091188Y-113235000D03*
%TO.P,LFB1,2*%
%TO.N,Net-(IC1-T-)*%
X133471188Y-113235000D03*
%TD*%
D19*
%TO.P,R17,1*%
%TO.N,Net-(R16-Pad1)*%
X112250000Y-118770000D03*
%TO.P,R17,2*%
%TO.N,BUT_LEFT*%
X110350000Y-118770000D03*
%TD*%
%TO.P,R18,1*%
%TO.N,Net-(R15-Pad2)*%
X133450000Y-118765000D03*
%TO.P,R18,2*%
%TO.N,+3V3*%
X131550000Y-118765000D03*
%TD*%
%TO.P,R22,1*%
%TO.N,BUT_BACK*%
X117350000Y-120870000D03*
%TO.P,R22,2*%
%TO.N,Net-(R22-Pad2)*%
X115450000Y-120870000D03*
%TD*%
D20*
%TO.P,Q1,1*%
%TO.N,Net-(Q1-Pad1)*%
X139406800Y-103850400D03*
%TO.P,Q1,2*%
%TO.N,GND*%
X137496800Y-103850400D03*
%TO.P,Q1,3*%
%TO.N,Net-(Q1-Pad3)*%
X138451800Y-101750400D03*
%TD*%
D31*
%TO.P,R4,1*%
%TO.N,GND*%
X111800000Y-125557500D03*
%TO.P,R4,2*%
%TO.N,Net-(LED2-Pad1)*%
X111800000Y-127382500D03*
%TD*%
D33*
%TO.P,IC1,1,GND*%
%TO.N,GND*%
X131112000Y-111295000D03*
%TO.P,IC1,2,T-*%
%TO.N,Net-(IC1-T-)*%
X131112000Y-112565000D03*
%TO.P,IC1,3,T+*%
%TO.N,Net-(IC1-T+)*%
X131112000Y-113835000D03*
%TO.P,IC1,4,VCC*%
%TO.N,+3V3*%
X131112000Y-115105000D03*
%TO.P,IC1,5,SCK*%
%TO.N,SPI_CLK*%
X125688000Y-115105000D03*
%TO.P,IC1,6,~{CS}*%
%TO.N,SPI1_NSS*%
X125688000Y-113835000D03*
%TO.P,IC1,7,SO*%
%TO.N,SPI_MISO*%
X125688000Y-112565000D03*
%TO.P,IC1,8,DNC*%
%TO.N,unconnected-(IC1-DNC-Pad8)*%
X125688000Y-111295000D03*
%TD*%
D23*
%TO.P,C5,1*%
%TO.N,GND*%
X99000000Y-96600000D03*
%TO.P,C5,2*%
%TO.N,+3V3*%
X99000000Y-95000000D03*
%TD*%
D32*
%TO.P,LFB2,1*%
%TO.N,Net-(J1-Pad1)*%
X135101188Y-115135000D03*
%TO.P,LFB2,2*%
%TO.N,Net-(IC1-T+)*%
X133481188Y-115135000D03*
%TD*%
D31*
%TO.P,R2,1*%
%TO.N,GND*%
X122300000Y-125570000D03*
%TO.P,R2,2*%
%TO.N,Net-(LED1-Pad1)*%
X122300000Y-127395000D03*
%TD*%
D21*
%TO.P,C9,1*%
%TO.N,GND*%
X112100000Y-122770000D03*
%TO.P,C9,2*%
%TO.N,BUT_LEFT*%
X110500000Y-122770000D03*
%TD*%
%TO.P,C1,1*%
%TO.N,+3V3*%
X129290000Y-116900000D03*
%TO.P,C1,2*%
%TO.N,GND*%
X127690000Y-116900000D03*
%TD*%
D19*
%TO.P,R10,1*%
%TO.N,Net-(Q3-Pad3)*%
X115736800Y-99550400D03*
%TO.P,R10,2*%
%TO.N,CC_3*%
X117636800Y-99550400D03*
%TD*%
D24*
%TO.P,R23,1*%
%TO.N,C_out1*%
X116050000Y-94335000D03*
%TO.P,R23,2*%
%TO.N,Net-(Q6-Pad1)*%
X116050000Y-92435000D03*
%TD*%
D21*
%TO.P,C10,1*%
%TO.N,BUT_BACK*%
X117200000Y-122775000D03*
%TO.P,C10,2*%
%TO.N,GND*%
X115600000Y-122775000D03*
%TD*%
D25*
%TO.P,Q5,1*%
%TO.N,Net-(Q5-Pad1)*%
X112900000Y-116525000D03*
%TO.P,Q5,2*%
%TO.N,Net-(LS1-+)*%
X112900000Y-114615000D03*
%TO.P,Q5,3*%
%TO.N,Net-(Q5-Pad3)*%
X115000000Y-115570000D03*
%TD*%
D18*
%TO.P,R8,1*%
%TO.N,GND*%
X93552500Y-107980000D03*
%TO.P,R8,2*%
%TO.N,Net-(LED4-Pad1)*%
X91727500Y-107980000D03*
%TD*%
D19*
%TO.P,R15,1*%
%TO.N,BUT_RIGHT*%
X133450000Y-120870000D03*
%TO.P,R15,2*%
%TO.N,Net-(R15-Pad2)*%
X131550000Y-120870000D03*
%TD*%
D20*
%TO.P,Q3,1*%
%TO.N,Net-(Q3-Pad1)*%
X117651800Y-103600400D03*
%TO.P,Q3,2*%
%TO.N,GND*%
X115741800Y-103600400D03*
%TO.P,Q3,3*%
%TO.N,Net-(Q3-Pad3)*%
X116696800Y-101500400D03*
%TD*%
D21*
%TO.P,C6,1*%
%TO.N,GND*%
X108100000Y-94700000D03*
%TO.P,C6,2*%
%TO.N,+3V3*%
X109700000Y-94700000D03*
%TD*%
%TO.P,C7,1*%
%TO.N,GND*%
X96500000Y-107940000D03*
%TO.P,C7,2*%
%TO.N,+3V3*%
X98100000Y-107940000D03*
%TD*%
D25*
%TO.P,Q6,1*%
%TO.N,Net-(Q6-Pad1)*%
X113950000Y-92430000D03*
%TO.P,Q6,2*%
%TO.N,Activation_out1*%
X113950000Y-94340000D03*
%TO.P,Q6,3*%
%TO.N,+5V*%
X111850000Y-93385000D03*
%TD*%
D19*
%TO.P,R16,1*%
%TO.N,Net-(R16-Pad1)*%
X112250000Y-120770000D03*
%TO.P,R16,2*%
%TO.N,+3V3*%
X110350000Y-120770000D03*
%TD*%
D34*
%TO.N,GND*%
X110000000Y-97600000D03*
X106600000Y-122000000D03*
X109400000Y-100400000D03*
X113800000Y-102000000D03*
X99200000Y-119400000D03*
X116400000Y-103400000D03*
X124400000Y-124400000D03*
X130400000Y-123000000D03*
X138200000Y-104000000D03*
X108400000Y-105800000D03*
X120000000Y-103400000D03*
X99400000Y-122200000D03*
X142000000Y-104000000D03*
X105200000Y-93525000D03*
X138200000Y-110000000D03*
X114000000Y-122600000D03*
%TO.N,LED_LIFE*%
X109600000Y-108600000D03*
%TO.N,+5V*%
X108600000Y-93200000D03*
X100800000Y-111200000D03*
%TO.N,AC_Vdcin+*%
X129200000Y-111600000D03*
X114800000Y-96600000D03*
X102398395Y-99796988D03*
X110400000Y-96000000D03*
%TO.N,+3V3*%
X96800000Y-110800000D03*
X128000000Y-112400000D03*
X100400000Y-97775000D03*
X114200000Y-106600000D03*
X101600000Y-106200000D03*
X114400000Y-103800000D03*
X114000000Y-119800000D03*
X101400000Y-119000000D03*
X111200000Y-97800000D03*
X104800000Y-105000000D03*
X97325000Y-109200000D03*
X129000000Y-115000000D03*
X108800000Y-120600000D03*
X127000000Y-109000000D03*
X120000000Y-120200000D03*
X100400000Y-96400000D03*
X114200000Y-100800000D03*
X111000000Y-95000000D03*
%TO.N,SPI_CLK*%
X123200000Y-115400000D03*
X107200000Y-111600000D03*
%TO.N,SPI1_NSS*%
X108600000Y-111800000D03*
X123600000Y-113800000D03*
%TO.N,SPI_MISO*%
X119000000Y-109000000D03*
X106551807Y-109125000D03*
%TO.N,BUT_RIGHT*%
X136200000Y-110820000D03*
X102400000Y-95600000D03*
X137000000Y-120800000D03*
X117600000Y-91400000D03*
X121800000Y-91600000D03*
X110000000Y-92275000D03*
X111000000Y-91325000D03*
X131800000Y-93400000D03*
%TO.N,BUT_LEFT*%
X109200000Y-122600000D03*
X108000000Y-121200000D03*
X101000000Y-103800000D03*
X98464081Y-110978640D03*
%TO.N,BUT_BACK*%
X118325000Y-117000000D03*
X100000000Y-111000000D03*
X100000000Y-107550000D03*
X104600000Y-115400000D03*
%TO.N,BUT_ENTER*%
X101000000Y-113600000D03*
X99200000Y-111200000D03*
X122000000Y-116200000D03*
X99320897Y-107380224D03*
%TO.N,Net-(R21-Pad2)*%
X119800000Y-118400000D03*
X124125000Y-120800000D03*
%TO.N,Net-(LED1-Pad1)*%
X123800000Y-127000000D03*
%TO.N,LED_OUT1*%
X118800000Y-121400000D03*
X117000000Y-108200000D03*
X108400000Y-105000000D03*
%TO.N,Net-(LED2-Pad1)*%
X113200000Y-126600000D03*
%TO.N,Net-(LED3-Pad1)*%
X118600000Y-126800000D03*
%TO.N,LED_OUT2*%
X118325000Y-114200000D03*
X116200000Y-108600000D03*
X109000000Y-106600000D03*
X119400000Y-116800000D03*
X117600000Y-124200000D03*
%TO.N,Net-(LED4-Pad1)*%
X93800000Y-106400000D03*
%TO.N,USB_D-*%
X98200000Y-100800000D03*
%TO.N,USB_D+*%
X97720002Y-101309511D03*
%TO.N,SWDIO*%
X94800000Y-107000000D03*
X99800000Y-124600000D03*
X96000000Y-111000000D03*
%TO.N,SWCLK*%
X99000000Y-97800000D03*
X102400000Y-116400000D03*
X98000000Y-104175000D03*
X95800000Y-110000000D03*
X103200000Y-121200000D03*
X99400000Y-115200000D03*
X98000000Y-102600000D03*
%TO.N,reset*%
X100406873Y-127175000D03*
X101564124Y-110364124D03*
X102600000Y-106800000D03*
X102000000Y-111600000D03*
X95200000Y-127200000D03*
%TO.N,C_1*%
X105595761Y-109526148D03*
X137600000Y-108800000D03*
%TO.N,CC_1*%
X138200000Y-98200000D03*
%TO.N,C_2*%
X105635877Y-110225000D03*
X141200000Y-107200000D03*
%TO.N,CC_2*%
X132400000Y-96600000D03*
%TO.N,CC_3*%
X127400000Y-95600000D03*
%TO.N,C_4*%
X119800000Y-106800000D03*
X106800000Y-101400000D03*
%TO.N,CC_4*%
X136400000Y-101000000D03*
X123000000Y-100200000D03*
%TO.N,C_buzzer*%
X109200000Y-114800000D03*
X101200000Y-114600000D03*
X97800000Y-111200000D03*
X98200000Y-106400000D03*
%TO.N,C_out1*%
X101000000Y-101600000D03*
X115000000Y-93600000D03*
%TO.N,C_out2*%
X94325000Y-101200000D03*
X117600000Y-92600000D03*
X110800000Y-90600000D03*
X95600000Y-102000000D03*
%TO.N,Net-(R15-Pad2)*%
X135000000Y-119400000D03*
%TO.N,Net-(R16-Pad1)*%
X113400000Y-117800000D03*
%TO.N,Net-(R22-Pad2)*%
X115200000Y-117600000D03*
%TO.N,D_e*%
X107756278Y-98475001D03*
X124400000Y-96675000D03*
%TO.N,D_d*%
X125600000Y-100800000D03*
X106800000Y-98200000D03*
%TO.N,D_dp*%
X121200000Y-111600000D03*
X103000000Y-111000000D03*
%TO.N,D_c*%
X130000000Y-101600000D03*
X106099997Y-98200000D03*
%TO.N,D_g*%
X104200000Y-110600000D03*
X133200000Y-110800000D03*
%TO.N,D_b*%
X134200000Y-104000000D03*
X108200000Y-100600000D03*
%TO.N,D_f*%
X108400000Y-98200000D03*
%TO.N,D_a*%
X126200000Y-105000000D03*
X107686225Y-101175000D03*
%TD*%
D35*
%TO.N,BUT_RIGHT*%
X110000000Y-92275000D02*
X110950000Y-91325000D01*
X110950000Y-91325000D02*
X111000000Y-91325000D01*
%TO.N,GND*%
X116199600Y-103600400D02*
X116400000Y-103400000D01*
D36*
X96500000Y-105710000D02*
X96180000Y-105390000D01*
X99200000Y-118800000D02*
X98800000Y-118400000D01*
X108450000Y-96725000D02*
X108450000Y-97450000D01*
X91940000Y-114060000D02*
X91940000Y-112500000D01*
D35*
X124400000Y-124400000D02*
X123230000Y-125570000D01*
D36*
X124800000Y-87960000D02*
X124800000Y-87400000D01*
D35*
X121400000Y-122670000D02*
X119887500Y-122670000D01*
D36*
X99000000Y-96600000D02*
X96330000Y-96600000D01*
X122420000Y-90340000D02*
X119900000Y-90340000D01*
X96500000Y-109300000D02*
X96500000Y-107940000D01*
D35*
X113830000Y-122770000D02*
X114000000Y-122600000D01*
D36*
X108450000Y-95050000D02*
X108100000Y-94700000D01*
X112050000Y-104150000D02*
X112800000Y-103400000D01*
D35*
X127690000Y-120290000D02*
X130400000Y-123000000D01*
D36*
X108450000Y-105850000D02*
X108400000Y-105800000D01*
D35*
X100200000Y-122000000D02*
X106600000Y-122000000D01*
D36*
X95340000Y-107940000D02*
X95300000Y-107980000D01*
X94250000Y-116370000D02*
X91940000Y-114060000D01*
X109400000Y-100400000D02*
X109400000Y-98200000D01*
X106375000Y-94700000D02*
X105200000Y-93525000D01*
D35*
X127690000Y-114279500D02*
X130674500Y-111295000D01*
D36*
X115741800Y-103600400D02*
X115400400Y-103600400D01*
X108450000Y-108075000D02*
X108450000Y-105850000D01*
X119900000Y-90340000D02*
X114300000Y-84740000D01*
X108450000Y-97450000D02*
X109200000Y-98200000D01*
D35*
X106740000Y-121860000D02*
X113260000Y-121860000D01*
X113260000Y-121860000D02*
X114000000Y-122600000D01*
D36*
X106612500Y-94700000D02*
X108100000Y-94700000D01*
D35*
X99400000Y-122200000D02*
X100000000Y-122200000D01*
D36*
X95300000Y-107980000D02*
X93552500Y-107980000D01*
D35*
X119799600Y-103600400D02*
X120000000Y-103400000D01*
X123230000Y-125570000D02*
X122300000Y-125570000D01*
X111800000Y-125557500D02*
X111800000Y-123070000D01*
X138200000Y-104000000D02*
X137646400Y-104000000D01*
D36*
X109400000Y-98200000D02*
X110000000Y-97600000D01*
D35*
X117000000Y-125557500D02*
X117000000Y-124175000D01*
X119887500Y-122670000D02*
X117000000Y-125557500D01*
X106600000Y-122000000D02*
X106740000Y-121860000D01*
D36*
X99200000Y-119400000D02*
X99200000Y-118800000D01*
X115400400Y-103600400D02*
X113800000Y-102000000D01*
D35*
X115741800Y-103600400D02*
X116199600Y-103600400D01*
D36*
X98800000Y-116370000D02*
X94250000Y-116370000D01*
D35*
X119351800Y-103600400D02*
X119799600Y-103600400D01*
X115600000Y-122775000D02*
X114175000Y-122775000D01*
D36*
X108450000Y-96725000D02*
X108450000Y-95050000D01*
X122420000Y-90340000D02*
X124800000Y-87960000D01*
X101000000Y-110000000D02*
X97200000Y-110000000D01*
X101950000Y-108075000D02*
X101950000Y-109050000D01*
X106612500Y-94700000D02*
X106375000Y-94700000D01*
D35*
X130674500Y-111295000D02*
X131112000Y-111295000D01*
X127690000Y-116900000D02*
X127690000Y-114279500D01*
D36*
X96350001Y-96750000D02*
X96180000Y-96750000D01*
D35*
X122300000Y-123570000D02*
X121400000Y-122670000D01*
D36*
X101950000Y-109050000D02*
X101000000Y-110000000D01*
D35*
X111800000Y-123070000D02*
X112100000Y-122770000D01*
D36*
X96330000Y-96600000D02*
X96180000Y-96750000D01*
X110875000Y-104150000D02*
X112050000Y-104150000D01*
D35*
X141800400Y-103800400D02*
X142000000Y-104000000D01*
D36*
X91940000Y-112500000D02*
X96500000Y-107940000D01*
D35*
X137646400Y-104000000D02*
X137496800Y-103850400D01*
D36*
X112800000Y-103000000D02*
X113800000Y-102000000D01*
D35*
X131700000Y-122865000D02*
X130535000Y-122865000D01*
D36*
X112800000Y-103400000D02*
X112800000Y-103000000D01*
X109200000Y-98200000D02*
X109400000Y-98200000D01*
D35*
X130535000Y-122865000D02*
X130400000Y-123000000D01*
D36*
X96500000Y-107940000D02*
X95340000Y-107940000D01*
D35*
X136905000Y-111295000D02*
X138200000Y-110000000D01*
X114175000Y-122775000D02*
X114000000Y-122600000D01*
D36*
X97200000Y-110000000D02*
X96500000Y-109300000D01*
D35*
X117000000Y-124175000D02*
X115600000Y-122775000D01*
X141096800Y-103800400D02*
X141800400Y-103800400D01*
D36*
X98750001Y-99150000D02*
X96350001Y-96750000D01*
D35*
X112100000Y-122770000D02*
X113830000Y-122770000D01*
X122300000Y-125570000D02*
X122300000Y-123570000D01*
D36*
X98800000Y-118400000D02*
X98800000Y-116370000D01*
D35*
X131112000Y-111295000D02*
X136905000Y-111295000D01*
D36*
X124800000Y-87400000D02*
X127150000Y-85050000D01*
X99525000Y-99150000D02*
X98750001Y-99150000D01*
X96500000Y-107940000D02*
X96500000Y-105710000D01*
X127150000Y-85050000D02*
X139770000Y-85050000D01*
D35*
X100000000Y-122200000D02*
X100200000Y-122000000D01*
X127690000Y-116900000D02*
X127690000Y-120290000D01*
%TO.N,LED_LIFE*%
X109600000Y-103600000D02*
X109600000Y-108600000D01*
X110875000Y-103150000D02*
X110050000Y-103150000D01*
X110050000Y-103150000D02*
X109600000Y-103600000D01*
%TO.N,Net-(JP1-B)*%
X105687500Y-95600000D02*
X104787500Y-94700000D01*
X102950000Y-94400000D02*
X104487500Y-94400000D01*
X106950000Y-96725000D02*
X106950000Y-95950001D01*
X104487500Y-94400000D02*
X104787500Y-94700000D01*
X106950000Y-95950001D02*
X106599999Y-95600000D01*
X106599999Y-95600000D02*
X105687500Y-95600000D01*
D36*
%TO.N,+5V*%
X111850000Y-93385000D02*
X108785000Y-93385000D01*
X102400000Y-112800000D02*
X100800000Y-111200000D01*
X121200000Y-95800000D02*
X121000000Y-95600000D01*
X116950000Y-113350000D02*
X116400000Y-112800000D01*
X111850000Y-94250000D02*
X111850000Y-93385000D01*
X116400000Y-112800000D02*
X102400000Y-112800000D01*
X108785000Y-93385000D02*
X108600000Y-93200000D01*
X121000000Y-95600000D02*
X113200000Y-95600000D01*
X123000000Y-93430000D02*
X123000000Y-94400000D01*
X116950000Y-114620000D02*
X116950000Y-113350000D01*
X113200000Y-95600000D02*
X111850000Y-94250000D01*
X123000000Y-94400000D02*
X121600000Y-95800000D01*
X121600000Y-95800000D02*
X121200000Y-95800000D01*
%TO.N,AC_Vdcin+*%
X112900000Y-97187500D02*
X114212500Y-97187500D01*
X112900000Y-97187500D02*
X111587500Y-97187500D01*
X111587500Y-97187500D02*
X110400000Y-96000000D01*
D35*
X134188248Y-90340000D02*
X135120000Y-90340000D01*
X129200000Y-95328248D02*
X134188248Y-90340000D01*
D36*
X114212500Y-97187500D02*
X114800000Y-96600000D01*
D35*
X129200000Y-111600000D02*
X129200000Y-95328248D01*
%TO.N,Net-(IC1-T-)*%
X131112000Y-112565000D02*
X132801188Y-112565000D01*
X132801188Y-112565000D02*
X133471188Y-113235000D01*
%TO.N,Net-(IC1-T+)*%
X131112000Y-113835000D02*
X132181188Y-113835000D01*
X132181188Y-113835000D02*
X133481188Y-115135000D01*
%TO.N,+3V3*%
X110875000Y-98650000D02*
X110875000Y-98125000D01*
D36*
X131112000Y-115105000D02*
X131085000Y-115105000D01*
D35*
X129290000Y-115290000D02*
X129000000Y-115000000D01*
X109700000Y-94700000D02*
X110700000Y-94700000D01*
D36*
X112800000Y-105000000D02*
X112450000Y-104650000D01*
D35*
X120000000Y-120200000D02*
X120725000Y-120200000D01*
X107950000Y-108075000D02*
X107950000Y-107300001D01*
X113082968Y-97875000D02*
X111275000Y-97875000D01*
D36*
X109700000Y-94700000D02*
X108740000Y-93740000D01*
X127000000Y-111400000D02*
X128000000Y-112400000D01*
X100400000Y-95800000D02*
X99600000Y-95000000D01*
X101450000Y-106350000D02*
X101450000Y-108075000D01*
D35*
X101400000Y-119000000D02*
X101400000Y-115471752D01*
D36*
X104000000Y-93200000D02*
X102200000Y-93200000D01*
X108740000Y-93740000D02*
X108397537Y-93740000D01*
X129685000Y-116900000D02*
X131550000Y-118765000D01*
D35*
X114000000Y-103800000D02*
X114400000Y-103800000D01*
D36*
X107950000Y-108075000D02*
X107950000Y-108849999D01*
D35*
X112800000Y-105000000D02*
X114000000Y-103800000D01*
X110700000Y-94700000D02*
X111000000Y-95000000D01*
D36*
X102000000Y-94050000D02*
X101650000Y-94400000D01*
X98235000Y-108075000D02*
X98100000Y-107940000D01*
D35*
X115025000Y-118775000D02*
X115450000Y-118775000D01*
D36*
X113000000Y-106000000D02*
X112800000Y-105800000D01*
D35*
X129290000Y-116900000D02*
X129290000Y-115290000D01*
X107950000Y-107300001D02*
X106649999Y-106000000D01*
X96800000Y-110871752D02*
X96800000Y-110800000D01*
D36*
X101050000Y-95000000D02*
X99000000Y-95000000D01*
X113600000Y-105000000D02*
X114000000Y-105400000D01*
X102000000Y-93400000D02*
X102000000Y-94050000D01*
X129290000Y-116900000D02*
X129685000Y-116900000D01*
X104200000Y-93000000D02*
X104000000Y-93200000D01*
X110600000Y-110400000D02*
X113000000Y-108000000D01*
X114000000Y-105400000D02*
X114200000Y-105600000D01*
D35*
X105800000Y-106000000D02*
X104800000Y-105000000D01*
X114200000Y-98992032D02*
X113082968Y-97875000D01*
D36*
X107950000Y-108849999D02*
X109500001Y-110400000D01*
X112800000Y-105000000D02*
X113600000Y-105000000D01*
X127000000Y-109000000D02*
X127000000Y-111400000D01*
X113000000Y-108000000D02*
X113000000Y-107000000D01*
X131085000Y-115105000D02*
X129290000Y-116900000D01*
X99525000Y-98650000D02*
X100400000Y-97775000D01*
X102200000Y-93200000D02*
X102000000Y-93400000D01*
D35*
X97325000Y-108715000D02*
X98100000Y-107940000D01*
D36*
X109700000Y-94700000D02*
X109700000Y-95975000D01*
X113000000Y-107000000D02*
X113000000Y-106000000D01*
X99600000Y-95000000D02*
X99000000Y-95000000D01*
X108397537Y-93740000D02*
X107657537Y-93000000D01*
D35*
X97325000Y-109200000D02*
X97325000Y-108715000D01*
D36*
X114200000Y-105600000D02*
X114200000Y-106600000D01*
X101650000Y-94400000D02*
X101050000Y-95000000D01*
X109700000Y-95975000D02*
X108950000Y-96725000D01*
D35*
X111275000Y-97875000D02*
X111200000Y-97800000D01*
X108970000Y-120770000D02*
X110350000Y-120770000D01*
X114000000Y-119800000D02*
X115025000Y-118775000D01*
D36*
X112450000Y-104650000D02*
X110875000Y-104650000D01*
X101600000Y-106200000D02*
X101450000Y-106350000D01*
X109500001Y-110400000D02*
X110600000Y-110400000D01*
D35*
X101400000Y-115471752D02*
X96800000Y-110871752D01*
D36*
X100400000Y-95800000D02*
X100400000Y-96400000D01*
D35*
X106649999Y-106000000D02*
X105800000Y-106000000D01*
D36*
X107657537Y-93000000D02*
X104200000Y-93000000D01*
X112800000Y-105800000D02*
X112800000Y-105000000D01*
D35*
X110875000Y-98125000D02*
X111200000Y-97800000D01*
X114200000Y-100800000D02*
X114200000Y-98992032D01*
X108800000Y-120600000D02*
X108970000Y-120770000D01*
D36*
X101450000Y-108075000D02*
X98235000Y-108075000D01*
D35*
X120725000Y-120200000D02*
X121250000Y-120725000D01*
%TO.N,SPI_CLK*%
X123495000Y-115105000D02*
X125688000Y-115105000D01*
X106950000Y-108849999D02*
X107200000Y-109099999D01*
X123200000Y-115400000D02*
X123495000Y-115105000D01*
X106950000Y-108075000D02*
X106950000Y-108849999D01*
X107200000Y-109099999D02*
X107200000Y-111600000D01*
%TO.N,SPI1_NSS*%
X107450000Y-110650000D02*
X108600000Y-111800000D01*
X123600000Y-113800000D02*
X123635000Y-113835000D01*
X123635000Y-113835000D02*
X125688000Y-113835000D01*
X107450000Y-108075000D02*
X107450000Y-110650000D01*
%TO.N,SPI_MISO*%
X106450000Y-108075000D02*
X106450000Y-109023193D01*
X119200000Y-110271752D02*
X121493248Y-112565000D01*
X119200000Y-109200000D02*
X119200000Y-110271752D01*
X119000000Y-109000000D02*
X119200000Y-109200000D01*
X106450000Y-109023193D02*
X106551807Y-109125000D01*
X121493248Y-112565000D02*
X125688000Y-112565000D01*
%TO.N,BUT_RIGHT*%
X134800000Y-109420000D02*
X136200000Y-110820000D01*
X102450000Y-96725000D02*
X102450000Y-95650000D01*
X131800000Y-93400000D02*
X131800000Y-105191852D01*
X133300000Y-122865000D02*
X133300000Y-121020000D01*
X117600000Y-91400000D02*
X121600000Y-91400000D01*
X134800000Y-108191852D02*
X134800000Y-109420000D01*
X133450000Y-120870000D02*
X136930000Y-120870000D01*
X131800000Y-105191852D02*
X134800000Y-108191852D01*
X121600000Y-91400000D02*
X121800000Y-91600000D01*
X136930000Y-120870000D02*
X137000000Y-120800000D01*
X133300000Y-121020000D02*
X133450000Y-120870000D01*
X102450000Y-95650000D02*
X102400000Y-95600000D01*
%TO.N,BUT_LEFT*%
X109370000Y-122770000D02*
X109200000Y-122600000D01*
X108000000Y-120600000D02*
X108000000Y-121200000D01*
X110500000Y-122770000D02*
X109370000Y-122770000D01*
X100155632Y-102650000D02*
X101000000Y-103494368D01*
X98464081Y-111735833D02*
X100853248Y-114125000D01*
X100853248Y-114125000D02*
X101525000Y-114125000D01*
X108000000Y-120470000D02*
X109700000Y-118770000D01*
X99525000Y-102650000D02*
X100155632Y-102650000D01*
X101525000Y-114125000D02*
X108000000Y-120600000D01*
X98464081Y-110978640D02*
X98464081Y-111735833D01*
X108000000Y-121200000D02*
X108000000Y-120470000D01*
X109700000Y-118770000D02*
X110350000Y-118770000D01*
X101000000Y-103494368D02*
X101000000Y-103800000D01*
%TO.N,BUT_BACK*%
X101150000Y-106850000D02*
X101125000Y-106825000D01*
X117200000Y-122775000D02*
X117200000Y-121020000D01*
X117200000Y-121020000D02*
X117350000Y-120870000D01*
X100450000Y-107550000D02*
X101150000Y-106850000D01*
X103450000Y-103678248D02*
X103450000Y-96725000D01*
X101125000Y-106003248D02*
X103450000Y-103678248D01*
X104200000Y-115400000D02*
X104600000Y-115400000D01*
X100000000Y-111000000D02*
X100325000Y-111325000D01*
X100325000Y-111525000D02*
X104200000Y-115400000D01*
X100325000Y-111325000D02*
X100325000Y-111525000D01*
X101125000Y-106825000D02*
X101125000Y-106003248D01*
X118325000Y-117000000D02*
X118325000Y-119895000D01*
X118325000Y-119895000D02*
X117350000Y-120870000D01*
X100000000Y-107550000D02*
X100450000Y-107550000D01*
%TO.N,BUT_ENTER*%
X124600000Y-121600000D02*
X124600000Y-120400000D01*
X99380224Y-107380224D02*
X99320897Y-107380224D01*
X122000000Y-116200000D02*
X123150000Y-117350000D01*
X124400000Y-119920000D02*
X123150000Y-118670000D01*
X99400000Y-107400000D02*
X99380224Y-107380224D01*
X123150000Y-117350000D02*
X123150000Y-118670000D01*
X99725000Y-107075000D02*
X99400000Y-107400000D01*
X99200000Y-111800000D02*
X101000000Y-113600000D01*
X100525000Y-107075000D02*
X99725000Y-107075000D01*
X99200000Y-111200000D02*
X99200000Y-111800000D01*
X100800000Y-106800000D02*
X100525000Y-107075000D01*
X124600000Y-120400000D02*
X124400000Y-120200000D01*
X102950000Y-96725000D02*
X102950000Y-103824694D01*
X123530000Y-122670000D02*
X124600000Y-121600000D01*
X124400000Y-120200000D02*
X124400000Y-119920000D01*
X123000000Y-122670000D02*
X123530000Y-122670000D01*
X100800000Y-105974694D02*
X100800000Y-106800000D01*
X102950000Y-103824694D02*
X100800000Y-105974694D01*
%TO.N,Net-(R21-Pad2)*%
X120400000Y-118400000D02*
X120670000Y-118670000D01*
X123150000Y-120570000D02*
X121250000Y-118670000D01*
X120670000Y-118670000D02*
X121250000Y-118670000D01*
X124050000Y-120725000D02*
X124125000Y-120800000D01*
X123150000Y-120725000D02*
X123150000Y-120570000D01*
X123150000Y-120725000D02*
X124050000Y-120725000D01*
X119800000Y-118400000D02*
X120400000Y-118400000D01*
%TO.N,Net-(J1-Pad1)*%
X135101188Y-115135000D02*
X138865000Y-115135000D01*
X138865000Y-115135000D02*
X140600000Y-116870000D01*
%TO.N,Net-(J1-Pad2)*%
X139505000Y-113235000D02*
X140600000Y-114330000D01*
X135091188Y-113235000D02*
X139505000Y-113235000D01*
D36*
%TO.N,Net-(LED1-Pad1)*%
X122300000Y-127395000D02*
X123405000Y-127395000D01*
X123405000Y-127395000D02*
X123800000Y-127000000D01*
D35*
%TO.N,LED_OUT1*%
X110875000Y-102150000D02*
X110100001Y-102150000D01*
X110100001Y-102150000D02*
X108400000Y-103850001D01*
X117000000Y-108200000D02*
X117000000Y-108425305D01*
X118800000Y-110225305D02*
X118800000Y-121400000D01*
X108400000Y-103850001D02*
X108400000Y-105000000D01*
X117000000Y-108425305D02*
X118800000Y-110225305D01*
D36*
%TO.N,Net-(LED2-Pad1)*%
X111800000Y-127382500D02*
X112417500Y-127382500D01*
X112417500Y-127382500D02*
X113200000Y-126600000D01*
%TO.N,Net-(LED3-Pad1)*%
X118017500Y-127382500D02*
X118600000Y-126800000D01*
X117000000Y-127382500D02*
X118017500Y-127382500D01*
D35*
%TO.N,LED_OUT2*%
X118400000Y-113800000D02*
X118400000Y-114125000D01*
X110100001Y-102650000D02*
X109000000Y-103750001D01*
X119400000Y-116800000D02*
X119325000Y-116875000D01*
X119325000Y-122475000D02*
X117600000Y-124200000D01*
X118400000Y-110800000D02*
X118400000Y-113800000D01*
X119325000Y-116875000D02*
X119325000Y-122475000D01*
X118025000Y-110425000D02*
X118400000Y-110800000D01*
X118400000Y-114125000D02*
X118325000Y-114200000D01*
X109000000Y-103750001D02*
X109000000Y-106600000D01*
X110875000Y-102650000D02*
X110100001Y-102650000D01*
X116200000Y-108600000D02*
X118025000Y-110425000D01*
%TO.N,Net-(LED4-Pad1)*%
X91727500Y-107980000D02*
X92220000Y-107980000D01*
X92220000Y-107980000D02*
X93800000Y-106400000D01*
D37*
%TO.N,AC_N*%
X108010000Y-55000000D02*
X103210000Y-59800000D01*
X111950000Y-51450000D02*
X108400000Y-55000000D01*
X108400000Y-55000000D02*
X108010000Y-55000000D01*
X109400000Y-76110000D02*
X103210000Y-82300000D01*
X127770000Y-51450000D02*
X111950000Y-51450000D01*
X103210000Y-59800000D02*
X104800000Y-59800000D01*
X109400000Y-64400000D02*
X109400000Y-76110000D01*
X104800000Y-59800000D02*
X109400000Y-64400000D01*
D38*
%TO.N,USB_D-*%
X98200000Y-100800000D02*
X99375000Y-100800000D01*
X99375000Y-100800000D02*
X99525000Y-100650000D01*
%TO.N,USB_D+*%
X99525000Y-100150000D02*
X98142893Y-100150000D01*
X97700000Y-100592893D02*
X97700000Y-101289509D01*
X97700000Y-101289509D02*
X97720002Y-101309511D01*
X98142893Y-100150000D02*
X97700000Y-100592893D01*
D35*
%TO.N,SWDIO*%
X99525000Y-99650000D02*
X95550000Y-99650000D01*
X95550000Y-99650000D02*
X94800000Y-100400000D01*
X98800000Y-123600000D02*
X99800000Y-124600000D01*
X96000000Y-111000000D02*
X100000000Y-115000000D01*
X98800000Y-122000000D02*
X98800000Y-123600000D01*
X94800000Y-100400000D02*
X94800000Y-107000000D01*
X100000000Y-115000000D02*
X100000000Y-120800000D01*
X100000000Y-120800000D02*
X98800000Y-122000000D01*
%TO.N,SWCLK*%
X95525000Y-110275000D02*
X95800000Y-110000000D01*
X100200000Y-97200000D02*
X100975000Y-97200000D01*
X100975000Y-97200000D02*
X101450000Y-96725000D01*
X99600000Y-97800000D02*
X100200000Y-97200000D01*
X98000000Y-104175000D02*
X98000000Y-102600000D01*
X103200000Y-121200000D02*
X103200000Y-117200000D01*
X95525000Y-111325000D02*
X95525000Y-110275000D01*
X99000000Y-97800000D02*
X99600000Y-97800000D01*
X103200000Y-117200000D02*
X102400000Y-116400000D01*
X99400000Y-115200000D02*
X95525000Y-111325000D01*
%TO.N,reset*%
X107478248Y-101650000D02*
X102600000Y-106528248D01*
X95200000Y-127200000D02*
X95400000Y-127200000D01*
X99786873Y-127795000D02*
X100406873Y-127175000D01*
X101564124Y-110364124D02*
X101564124Y-111164124D01*
X99000000Y-127795000D02*
X99786873Y-127795000D01*
X102600000Y-106528248D02*
X102600000Y-106800000D01*
X95400000Y-127200000D02*
X95995000Y-127795000D01*
X101564124Y-111164124D02*
X102000000Y-111600000D01*
X110875000Y-101650000D02*
X107478248Y-101650000D01*
X95995000Y-127795000D02*
X99000000Y-127795000D01*
D36*
%TO.N,Activation_out1*%
X112000000Y-81940000D02*
X114300000Y-79640000D01*
X113950000Y-94340000D02*
X113950000Y-93790000D01*
X113950000Y-93790000D02*
X112800000Y-92640000D01*
X112800000Y-92640000D02*
X112800000Y-88800000D01*
X112800000Y-88800000D02*
X112000000Y-88000000D01*
X112000000Y-88000000D02*
X112000000Y-81940000D01*
%TO.N,Activation_out2*%
X122825000Y-92475000D02*
X124960000Y-90340000D01*
X120900000Y-92475000D02*
X122825000Y-92475000D01*
%TO.N,Net-(LS1-+)*%
X106400000Y-113600000D02*
X105400000Y-114600000D01*
X105400000Y-114600000D02*
X105400000Y-115400000D01*
X111885000Y-113600000D02*
X106400000Y-113600000D01*
X105430000Y-115400000D02*
X106400000Y-116370000D01*
X105400000Y-115400000D02*
X105430000Y-115400000D01*
X112900000Y-114615000D02*
X111885000Y-113600000D01*
D35*
%TO.N,Net-(Q1-Pad1)*%
X139406800Y-105795400D02*
X139411800Y-105800400D01*
X139406800Y-103850400D02*
X139406800Y-105795400D01*
%TO.N,Net-(Q1-Pad3)*%
X138451800Y-101750400D02*
X138451800Y-100740400D01*
X138451800Y-100740400D02*
X137511800Y-99800400D01*
%TO.N,Net-(Q2-Pad1)*%
X143006800Y-105745400D02*
X143001800Y-105750400D01*
X143006800Y-103800400D02*
X143006800Y-105745400D01*
%TO.N,Net-(Q2-Pad3)*%
X142051800Y-101700400D02*
X142051800Y-100700400D01*
X142051800Y-100700400D02*
X141101800Y-99750400D01*
%TO.N,Net-(Q3-Pad1)*%
X117651800Y-103600400D02*
X117651800Y-105535400D01*
X117651800Y-105535400D02*
X117636800Y-105550400D01*
%TO.N,Net-(Q3-Pad3)*%
X116696800Y-101500400D02*
X116696800Y-100510400D01*
X116696800Y-100510400D02*
X115736800Y-99550400D01*
%TO.N,Net-(Q4-Pad1)*%
X121261800Y-103600400D02*
X121261800Y-105525400D01*
X121261800Y-105525400D02*
X121236800Y-105550400D01*
%TO.N,Net-(Q4-Pad3)*%
X120306800Y-100520400D02*
X119336800Y-99550400D01*
X120306800Y-101500400D02*
X120306800Y-100520400D01*
%TO.N,Net-(Q5-Pad1)*%
X112895000Y-116520000D02*
X112900000Y-116525000D01*
X110950000Y-116520000D02*
X112895000Y-116520000D01*
%TO.N,Net-(Q5-Pad3)*%
X116000000Y-115570000D02*
X116950000Y-116520000D01*
X115000000Y-115570000D02*
X116000000Y-115570000D01*
D36*
%TO.N,Net-(Q6-Pad1)*%
X116045000Y-92430000D02*
X116050000Y-92435000D01*
X113950000Y-92430000D02*
X116045000Y-92430000D01*
%TO.N,Net-(Q7-Pad1)*%
X120895000Y-94380000D02*
X120900000Y-94385000D01*
X118850000Y-94380000D02*
X120895000Y-94380000D01*
D35*
%TO.N,C_1*%
X137511800Y-108111800D02*
X137511800Y-105800400D01*
X104450000Y-108075000D02*
X104450000Y-108849999D01*
X105126149Y-109526148D02*
X105595761Y-109526148D01*
X137600000Y-108800000D02*
X137600000Y-108200000D01*
X104450000Y-108849999D02*
X105126149Y-109526148D01*
X137600000Y-108200000D02*
X137511800Y-108111800D01*
%TO.N,CC_1*%
X139411800Y-99800400D02*
X139411800Y-99411800D01*
X139411800Y-99411800D02*
X138200000Y-98200000D01*
%TO.N,C_2*%
X105200000Y-110200000D02*
X105225000Y-110225000D01*
X141101800Y-105750400D02*
X141101800Y-107101800D01*
X103950000Y-108950000D02*
X105200000Y-110200000D01*
X103950000Y-108075000D02*
X103950000Y-108950000D01*
X141101800Y-107101800D02*
X141200000Y-107200000D01*
X105225000Y-110225000D02*
X105635877Y-110225000D01*
%TO.N,CC_2*%
X132800000Y-96600000D02*
X132400000Y-96600000D01*
X143001800Y-99750400D02*
X140800000Y-97548600D01*
X140800000Y-97200000D02*
X140200000Y-96600000D01*
X140200000Y-96600000D02*
X132800000Y-96600000D01*
X140800000Y-97548600D02*
X140800000Y-97200000D01*
%TO.N,C_3*%
X103450000Y-108849999D02*
X103450000Y-108075000D01*
X107000001Y-112400000D02*
X103450000Y-108849999D01*
X115736800Y-105550400D02*
X115736800Y-105775400D01*
X115736800Y-105775400D02*
X109112200Y-112400000D01*
X109112200Y-112400000D02*
X107000001Y-112400000D01*
%TO.N,CC_3*%
X121800000Y-97000000D02*
X123200000Y-95600000D01*
X120187200Y-97000000D02*
X121800000Y-97000000D01*
X123200000Y-95600000D02*
X127400000Y-95600000D01*
X117636800Y-99550400D02*
X120187200Y-97000000D01*
%TO.N,C_4*%
X104450000Y-99050000D02*
X106800000Y-101400000D01*
X104450000Y-96725000D02*
X104450000Y-99050000D01*
X119800000Y-106013600D02*
X119336800Y-105550400D01*
X119800000Y-106800000D02*
X119800000Y-106013600D01*
%TO.N,CC_4*%
X122350400Y-99550400D02*
X123000000Y-100200000D01*
X136400000Y-107360000D02*
X135800000Y-107960000D01*
X136400000Y-101000000D02*
X136400000Y-107360000D01*
X121236800Y-99550400D02*
X122350400Y-99550400D01*
%TO.N,Net-(U2-PC13)*%
X112762500Y-99150000D02*
X112900000Y-99012500D01*
X110875000Y-99150000D02*
X112762500Y-99150000D01*
%TO.N,C_buzzer*%
X99525000Y-105650000D02*
X98750001Y-105650000D01*
X98200000Y-106200001D02*
X98200000Y-106400000D01*
X97800000Y-111425306D02*
X97800000Y-111200000D01*
X98750001Y-105650000D02*
X98200000Y-106200001D01*
X100974694Y-114600000D02*
X97800000Y-111425306D01*
X101200000Y-114600000D02*
X100974694Y-114600000D01*
X109200000Y-114800000D02*
X109380000Y-114620000D01*
X109380000Y-114620000D02*
X110950000Y-114620000D01*
%TO.N,C_out1*%
X101600000Y-102200000D02*
X101000000Y-101600000D01*
X101600000Y-103871752D02*
X101600000Y-103400000D01*
X100321752Y-105150000D02*
X101600000Y-103871752D01*
X115315000Y-93600000D02*
X116050000Y-94335000D01*
X99525000Y-105150000D02*
X98750001Y-105150000D01*
X115000000Y-93600000D02*
X115315000Y-93600000D01*
X101600000Y-103400000D02*
X101600000Y-102200000D01*
X99525000Y-105150000D02*
X100321752Y-105150000D01*
%TO.N,C_out2*%
X97450000Y-104650000D02*
X95600000Y-102800000D01*
X98600000Y-92600000D02*
X108800000Y-92600000D01*
X118730000Y-92600000D02*
X118850000Y-92480000D01*
X117600000Y-92600000D02*
X118730000Y-92600000D01*
X94325000Y-96875000D02*
X98600000Y-92600000D01*
X95600000Y-102800000D02*
X95600000Y-102000000D01*
X108800000Y-92600000D02*
X110800000Y-90600000D01*
X99525000Y-104650000D02*
X97450000Y-104650000D01*
X94325000Y-101200000D02*
X94325000Y-96875000D01*
%TO.N,Net-(R15-Pad2)*%
X131550000Y-120665000D02*
X133450000Y-118765000D01*
X131550000Y-120870000D02*
X131550000Y-120665000D01*
X134365000Y-118765000D02*
X135000000Y-119400000D01*
X133450000Y-118765000D02*
X134365000Y-118765000D01*
%TO.N,Net-(R16-Pad1)*%
X112250000Y-118770000D02*
X112250000Y-120770000D01*
X112250000Y-118770000D02*
X112430000Y-118770000D01*
X112430000Y-118770000D02*
X113400000Y-117800000D01*
%TO.N,Net-(R22-Pad2)*%
X116175000Y-117600000D02*
X115200000Y-117600000D01*
X115450000Y-120870000D02*
X117350000Y-118970000D01*
X117350000Y-118775000D02*
X116175000Y-117600000D01*
X117350000Y-118970000D02*
X117350000Y-118775000D01*
%TO.N,D_e*%
X107450000Y-98168723D02*
X107756278Y-98475001D01*
X124400000Y-106660000D02*
X123100000Y-107960000D01*
X107450000Y-96725000D02*
X107450000Y-98168723D01*
X124400000Y-96675000D02*
X124400000Y-106660000D01*
%TO.N,D_d*%
X125640000Y-107960000D02*
X125640000Y-100840000D01*
X106450000Y-97850000D02*
X106800000Y-98200000D01*
X125640000Y-100840000D02*
X125600000Y-100800000D01*
X106450000Y-96725000D02*
X106450000Y-97850000D01*
%TO.N,D_dp*%
X121200000Y-111600000D02*
X123308148Y-111600000D01*
X102450000Y-110450000D02*
X103000000Y-111000000D01*
X126948148Y-107960000D02*
X128180000Y-107960000D01*
X123308148Y-111600000D02*
X126948148Y-107960000D01*
X102450000Y-108075000D02*
X102450000Y-110450000D01*
%TO.N,D_c*%
X105950000Y-98050003D02*
X106099997Y-98200000D01*
X130000000Y-101600000D02*
X130000000Y-101800000D01*
X105950000Y-96725000D02*
X105950000Y-98050003D01*
X130720000Y-102520000D02*
X130720000Y-107960000D01*
X130000000Y-101800000D02*
X130720000Y-102520000D01*
%TO.N,D_g*%
X133260000Y-110140000D02*
X133260000Y-107960000D01*
X102950000Y-109350000D02*
X104200000Y-110600000D01*
X133200000Y-110200000D02*
X133260000Y-110140000D01*
X102950000Y-108075000D02*
X102950000Y-109350000D01*
X133200000Y-110800000D02*
X133200000Y-110200000D01*
%TO.N,D_b*%
X105450000Y-96725000D02*
X105450000Y-98221755D01*
X134200000Y-104000000D02*
X135800000Y-102400000D01*
X105450000Y-98221755D02*
X107828245Y-100600000D01*
X135800000Y-102400000D02*
X135800000Y-97800000D01*
X107828245Y-100600000D02*
X108200000Y-100600000D01*
%TO.N,D_f*%
X107950000Y-96725000D02*
X107950000Y-97750000D01*
X107950000Y-97750000D02*
X108400000Y-98200000D01*
%TO.N,D_a*%
X126200000Y-98360000D02*
X125640000Y-97800000D01*
X104950000Y-98438775D02*
X107686225Y-101175000D01*
X126200000Y-105000000D02*
X126200000Y-98360000D01*
X104950000Y-96725000D02*
X104950000Y-98438775D01*
%TD*%
%TA.AperFunction,Conductor*%
%TO.N,GND*%
G36*
X96683797Y-93489685D02*
G01*
X96729552Y-93542489D01*
X96739496Y-93611647D01*
X96710471Y-93675203D01*
X96704439Y-93681681D01*
X93864487Y-96521632D01*
X93864485Y-96521635D01*
X93788719Y-96652863D01*
X93749500Y-96799234D01*
X93749500Y-100592060D01*
X93729815Y-100659099D01*
X93713181Y-100679741D01*
X93695184Y-100697737D01*
X93599211Y-100850476D01*
X93539631Y-101020745D01*
X93539630Y-101020750D01*
X93519435Y-101199996D01*
X93519435Y-101200003D01*
X93539630Y-101379249D01*
X93539631Y-101379254D01*
X93599211Y-101549523D01*
X93662646Y-101650478D01*
X93695184Y-101702262D01*
X93822738Y-101829816D01*
X93975478Y-101925789D01*
X94141455Y-101983867D01*
X94198230Y-102024588D01*
X94223978Y-102089540D01*
X94224500Y-102100908D01*
X94224500Y-105525684D01*
X94204815Y-105592723D01*
X94152011Y-105638478D01*
X94082853Y-105648422D01*
X94059546Y-105642726D01*
X93979257Y-105614632D01*
X93979249Y-105614630D01*
X93800004Y-105594435D01*
X93799996Y-105594435D01*
X93620750Y-105614630D01*
X93620742Y-105614632D01*
X93491477Y-105659864D01*
X93421698Y-105663425D01*
X93380805Y-105640000D01*
X92661201Y-105640000D01*
X92594162Y-105620315D01*
X92594063Y-105620201D01*
X92640060Y-105574205D01*
X92679556Y-105505796D01*
X92700000Y-105429496D01*
X92700000Y-105350504D01*
X92679556Y-105274204D01*
X92640060Y-105205795D01*
X92596714Y-105162449D01*
X92609690Y-105151206D01*
X92661201Y-105140000D01*
X93369862Y-105140000D01*
X93361569Y-105098309D01*
X93361569Y-105098307D01*
X93286192Y-104916328D01*
X93286185Y-104916315D01*
X93176751Y-104752537D01*
X93176748Y-104752533D01*
X93037466Y-104613251D01*
X93037462Y-104613248D01*
X92873684Y-104503814D01*
X92873671Y-104503807D01*
X92691693Y-104428430D01*
X92691683Y-104428427D01*
X92637009Y-104417552D01*
X92575099Y-104385167D01*
X92540524Y-104324451D01*
X92537201Y-104295935D01*
X92537201Y-104244117D01*
X91399721Y-104244117D01*
X91399721Y-104308735D01*
X91380036Y-104375774D01*
X91327232Y-104421529D01*
X91311723Y-104427393D01*
X91308315Y-104428426D01*
X91126328Y-104503807D01*
X91126315Y-104503814D01*
X90962537Y-104613248D01*
X90962533Y-104613251D01*
X90823251Y-104752533D01*
X90823248Y-104752537D01*
X90713814Y-104916315D01*
X90713807Y-104916328D01*
X90638430Y-105098307D01*
X90638430Y-105098309D01*
X90630138Y-105140000D01*
X91275721Y-105140000D01*
X91342760Y-105159685D01*
X91372141Y-105193593D01*
X91359940Y-105205795D01*
X91320444Y-105274204D01*
X91300000Y-105350504D01*
X91300000Y-105429496D01*
X91320444Y-105505796D01*
X91359940Y-105574205D01*
X91374002Y-105588267D01*
X91327232Y-105628794D01*
X91275721Y-105640000D01*
X90630138Y-105640000D01*
X90638430Y-105681690D01*
X90638430Y-105681692D01*
X90713807Y-105863671D01*
X90713814Y-105863684D01*
X90823248Y-106027462D01*
X90823251Y-106027466D01*
X90962533Y-106166748D01*
X90962537Y-106166751D01*
X91126315Y-106276185D01*
X91126328Y-106276192D01*
X91308307Y-106351569D01*
X91311715Y-106352603D01*
X91313281Y-106353629D01*
X91313939Y-106353902D01*
X91313887Y-106354026D01*
X91370154Y-106390900D01*
X91398611Y-106454712D01*
X91399721Y-106471264D01*
X91399721Y-106495141D01*
X92537201Y-106495141D01*
X92537201Y-106484064D01*
X92556886Y-106417025D01*
X92609690Y-106371270D01*
X92637011Y-106362446D01*
X92691688Y-106351570D01*
X92701047Y-106347694D01*
X92770516Y-106340224D01*
X92832996Y-106371497D01*
X92868650Y-106431586D01*
X92866157Y-106501411D01*
X92836183Y-106549935D01*
X92521908Y-106864210D01*
X92460585Y-106897695D01*
X92390893Y-106892711D01*
X92369131Y-106882068D01*
X92315501Y-106848990D01*
X92309334Y-106845186D01*
X92142797Y-106790001D01*
X92142795Y-106790000D01*
X92040010Y-106779500D01*
X91414998Y-106779500D01*
X91414980Y-106779501D01*
X91312203Y-106790000D01*
X91312200Y-106790001D01*
X91145668Y-106845185D01*
X91145663Y-106845187D01*
X90996342Y-106937289D01*
X90872289Y-107061342D01*
X90780187Y-107210663D01*
X90780186Y-107210666D01*
X90725001Y-107377203D01*
X90725001Y-107377204D01*
X90725000Y-107377204D01*
X90714500Y-107479983D01*
X90714500Y-108480001D01*
X90714501Y-108480019D01*
X90725000Y-108582796D01*
X90725001Y-108582799D01*
X90780185Y-108749331D01*
X90780187Y-108749336D01*
X90791009Y-108766881D01*
X90872288Y-108898656D01*
X90996344Y-109022712D01*
X91145666Y-109114814D01*
X91312203Y-109169999D01*
X91414991Y-109180500D01*
X92040008Y-109180499D01*
X92040016Y-109180498D01*
X92040019Y-109180498D01*
X92096302Y-109174748D01*
X92142797Y-109169999D01*
X92309334Y-109114814D01*
X92458656Y-109022712D01*
X92552675Y-108928692D01*
X92613994Y-108895210D01*
X92683686Y-108900194D01*
X92728034Y-108928695D01*
X92821654Y-109022315D01*
X92970875Y-109114356D01*
X92970880Y-109114358D01*
X93137302Y-109169505D01*
X93137309Y-109169506D01*
X93240019Y-109179999D01*
X93802500Y-109179999D01*
X93864972Y-109179999D01*
X93864986Y-109179998D01*
X93967697Y-109169505D01*
X94134119Y-109114358D01*
X94134124Y-109114356D01*
X94283345Y-109022315D01*
X94407315Y-108898345D01*
X94499356Y-108749124D01*
X94499358Y-108749119D01*
X94554505Y-108582697D01*
X94554506Y-108582690D01*
X94564999Y-108479986D01*
X94565000Y-108479973D01*
X94565000Y-108230000D01*
X93802500Y-108230000D01*
X93802500Y-109179999D01*
X93240019Y-109179999D01*
X93302499Y-109179998D01*
X93302500Y-109179998D01*
X93302500Y-107854000D01*
X93322185Y-107786961D01*
X93374989Y-107741206D01*
X93426500Y-107730000D01*
X94441442Y-107730000D01*
X94482397Y-107736958D01*
X94620745Y-107785368D01*
X94620750Y-107785369D01*
X94799996Y-107805565D01*
X94800000Y-107805565D01*
X94800004Y-107805565D01*
X94979249Y-107785369D01*
X94979252Y-107785368D01*
X94979255Y-107785368D01*
X95149522Y-107725789D01*
X95175152Y-107709685D01*
X95264281Y-107653681D01*
X95300027Y-107631219D01*
X95367264Y-107612219D01*
X95434099Y-107632586D01*
X95452774Y-107654587D01*
X95453681Y-107653681D01*
X95490000Y-107690000D01*
X96626000Y-107690000D01*
X96693039Y-107709685D01*
X96738794Y-107762489D01*
X96750000Y-107814000D01*
X96750000Y-108066000D01*
X96730315Y-108133039D01*
X96677511Y-108178794D01*
X96626000Y-108190000D01*
X95490000Y-108190000D01*
X95490000Y-108722844D01*
X95496401Y-108782372D01*
X95496403Y-108782379D01*
X95546645Y-108917086D01*
X95546649Y-108917093D01*
X95637124Y-109037951D01*
X95661542Y-109103415D01*
X95646691Y-109171688D01*
X95597286Y-109221094D01*
X95578813Y-109229303D01*
X95450480Y-109274209D01*
X95297737Y-109370184D01*
X95170184Y-109497737D01*
X95074211Y-109650476D01*
X95014631Y-109820745D01*
X95014630Y-109820750D01*
X94994435Y-109999996D01*
X94994435Y-110006962D01*
X94993207Y-110006962D01*
X94988053Y-110044273D01*
X94990822Y-110045015D01*
X94973557Y-110109451D01*
X94949500Y-110199234D01*
X94949500Y-111249233D01*
X94949500Y-111249234D01*
X94949500Y-111400766D01*
X94962643Y-111449816D01*
X94988719Y-111547136D01*
X95022454Y-111605565D01*
X95064485Y-111678365D01*
X95064487Y-111678367D01*
X98465667Y-115079547D01*
X98499152Y-115140870D01*
X98494168Y-115210562D01*
X98452296Y-115266495D01*
X98422780Y-115282855D01*
X98285207Y-115336150D01*
X98285201Y-115336154D01*
X98182992Y-115399438D01*
X98182991Y-115399439D01*
X98753553Y-115970000D01*
X98747339Y-115970000D01*
X98645606Y-115997259D01*
X98554394Y-116049920D01*
X98479920Y-116124394D01*
X98427259Y-116215606D01*
X98400000Y-116317339D01*
X98400000Y-116323552D01*
X97826836Y-115750388D01*
X97818059Y-115762010D01*
X97723066Y-115952783D01*
X97723058Y-115952803D01*
X97664738Y-116157780D01*
X97664737Y-116157783D01*
X97645073Y-116369999D01*
X97645073Y-116370000D01*
X97664737Y-116582216D01*
X97664738Y-116582219D01*
X97723058Y-116787196D01*
X97723064Y-116787211D01*
X97818061Y-116977991D01*
X97818064Y-116977996D01*
X97826836Y-116989610D01*
X98400000Y-116416446D01*
X98400000Y-116422661D01*
X98427259Y-116524394D01*
X98479920Y-116615606D01*
X98554394Y-116690080D01*
X98645606Y-116742741D01*
X98747339Y-116770000D01*
X98753551Y-116770000D01*
X98182991Y-117340559D01*
X98285204Y-117403847D01*
X98285208Y-117403849D01*
X98483936Y-117480836D01*
X98483941Y-117480837D01*
X98693439Y-117520000D01*
X98906561Y-117520000D01*
X99116058Y-117480837D01*
X99116059Y-117480837D01*
X99255706Y-117426738D01*
X99325329Y-117420876D01*
X99387069Y-117453586D01*
X99421324Y-117514482D01*
X99424500Y-117542365D01*
X99424500Y-120510257D01*
X99404815Y-120577296D01*
X99388181Y-120597938D01*
X98429193Y-121556925D01*
X98429194Y-121556926D01*
X98339485Y-121646635D01*
X98263719Y-121777863D01*
X98242855Y-121855730D01*
X98224500Y-121924234D01*
X98224500Y-123524234D01*
X98224500Y-123675766D01*
X98241344Y-123738628D01*
X98263719Y-123822136D01*
X98289937Y-123867546D01*
X98339485Y-123953365D01*
X98339487Y-123953367D01*
X98964808Y-124578688D01*
X98998293Y-124640011D01*
X99000347Y-124652482D01*
X99004011Y-124684994D01*
X98991958Y-124753817D01*
X98944610Y-124805197D01*
X98877000Y-124822823D01*
X98848698Y-124818656D01*
X98682339Y-124774081D01*
X98682329Y-124774079D01*
X98460001Y-124754628D01*
X98459999Y-124754628D01*
X98237670Y-124774079D01*
X98237660Y-124774081D01*
X98022094Y-124831841D01*
X98022087Y-124831843D01*
X98022087Y-124831844D01*
X97819814Y-124926165D01*
X97636993Y-125054178D01*
X97636991Y-125054179D01*
X97636988Y-125054182D01*
X97479182Y-125211988D01*
X97479179Y-125211991D01*
X97479178Y-125211993D01*
X97351165Y-125394814D01*
X97256845Y-125597085D01*
X97256841Y-125597094D01*
X97199081Y-125812660D01*
X97199079Y-125812670D01*
X97179628Y-126034999D01*
X97179628Y-126035000D01*
X97199079Y-126257329D01*
X97199081Y-126257339D01*
X97256841Y-126472905D01*
X97256843Y-126472909D01*
X97256844Y-126472913D01*
X97351165Y-126675186D01*
X97479178Y-126858007D01*
X97479182Y-126858011D01*
X97628990Y-127007819D01*
X97662475Y-127069142D01*
X97657491Y-127138834D01*
X97615619Y-127194767D01*
X97550155Y-127219184D01*
X97541309Y-127219500D01*
X96284742Y-127219500D01*
X96217703Y-127199815D01*
X96197061Y-127183181D01*
X95978867Y-126964987D01*
X95949506Y-126918259D01*
X95925789Y-126850478D01*
X95925789Y-126850477D01*
X95829815Y-126697737D01*
X95702262Y-126570184D01*
X95549523Y-126474211D01*
X95379254Y-126414631D01*
X95379249Y-126414630D01*
X95200004Y-126394435D01*
X95199996Y-126394435D01*
X95020750Y-126414630D01*
X95020745Y-126414631D01*
X94850476Y-126474211D01*
X94697737Y-126570184D01*
X94570184Y-126697737D01*
X94474211Y-126850476D01*
X94414631Y-127020745D01*
X94414630Y-127020750D01*
X94394435Y-127199996D01*
X94394435Y-127200003D01*
X94414630Y-127379249D01*
X94414631Y-127379254D01*
X94474211Y-127549523D01*
X94555899Y-127679528D01*
X94574899Y-127746765D01*
X94554531Y-127813600D01*
X94501263Y-127858814D01*
X94450905Y-127869500D01*
X94302706Y-127869500D01*
X94297297Y-127869382D01*
X93913249Y-127852614D01*
X93902473Y-127851671D01*
X93524042Y-127801849D01*
X93513389Y-127799971D01*
X93140727Y-127717354D01*
X93130278Y-127714554D01*
X92766244Y-127599775D01*
X92756078Y-127596075D01*
X92403427Y-127450002D01*
X92393623Y-127445430D01*
X92055057Y-127269183D01*
X92045689Y-127263775D01*
X91723755Y-127058681D01*
X91714894Y-127052476D01*
X91412069Y-126820110D01*
X91403782Y-126813156D01*
X91122364Y-126555284D01*
X91114715Y-126547635D01*
X90856843Y-126266217D01*
X90849889Y-126257930D01*
X90617523Y-125955105D01*
X90611318Y-125946244D01*
X90406224Y-125624310D01*
X90400816Y-125614942D01*
X90286224Y-125394814D01*
X90224566Y-125276369D01*
X90219997Y-125266572D01*
X90216245Y-125257513D01*
X90073920Y-124913911D01*
X90070224Y-124903755D01*
X90063284Y-124881743D01*
X89955442Y-124539710D01*
X89952648Y-124529284D01*
X89870025Y-124156597D01*
X89868152Y-124145971D01*
X89818326Y-123767506D01*
X89817386Y-123756771D01*
X89800618Y-123372702D01*
X89800500Y-123367293D01*
X89800500Y-123295935D01*
X89800489Y-123295795D01*
X89799584Y-116559997D01*
X90684723Y-116559997D01*
X90684723Y-116560002D01*
X90686667Y-116582219D01*
X90703731Y-116777274D01*
X90703793Y-116777975D01*
X90703793Y-116777979D01*
X90760422Y-116989322D01*
X90760424Y-116989326D01*
X90760425Y-116989330D01*
X90797049Y-117067870D01*
X90852897Y-117187638D01*
X90866648Y-117207276D01*
X90978402Y-117366877D01*
X91133123Y-117521598D01*
X91312361Y-117647102D01*
X91510670Y-117739575D01*
X91510676Y-117739576D01*
X91510677Y-117739577D01*
X91541364Y-117747799D01*
X91722023Y-117796207D01*
X91904926Y-117812208D01*
X91939998Y-117815277D01*
X91940000Y-117815277D01*
X91940002Y-117815277D01*
X91968254Y-117812805D01*
X92157977Y-117796207D01*
X92369330Y-117739575D01*
X92567639Y-117647102D01*
X92746877Y-117521598D01*
X92901598Y-117366877D01*
X93027102Y-117187639D01*
X93119575Y-116989330D01*
X93176207Y-116777977D01*
X93195277Y-116560000D01*
X93194360Y-116549523D01*
X93191569Y-116517618D01*
X93176207Y-116342023D01*
X93119575Y-116130670D01*
X93027102Y-115932362D01*
X93027100Y-115932359D01*
X93027099Y-115932357D01*
X92901599Y-115753124D01*
X92828551Y-115680076D01*
X92746877Y-115598402D01*
X92697455Y-115563796D01*
X92657150Y-115535574D01*
X92613525Y-115480997D01*
X92606333Y-115411499D01*
X92637855Y-115349144D01*
X92698085Y-115313731D01*
X92728274Y-115310000D01*
X92737828Y-115310000D01*
X92737844Y-115309999D01*
X92797372Y-115303598D01*
X92797379Y-115303596D01*
X92932086Y-115253354D01*
X92932093Y-115253350D01*
X93047187Y-115167190D01*
X93047190Y-115167187D01*
X93133350Y-115052093D01*
X93133354Y-115052086D01*
X93183596Y-114917379D01*
X93183598Y-114917372D01*
X93189999Y-114857844D01*
X93190000Y-114857827D01*
X93190000Y-114310000D01*
X92373012Y-114310000D01*
X92405925Y-114252993D01*
X92440000Y-114125826D01*
X92440000Y-113994174D01*
X92405925Y-113867007D01*
X92373012Y-113810000D01*
X93190000Y-113810000D01*
X93190000Y-113262172D01*
X93189999Y-113262155D01*
X93183598Y-113202627D01*
X93183596Y-113202620D01*
X93133354Y-113067913D01*
X93133350Y-113067906D01*
X93047190Y-112952812D01*
X93047187Y-112952809D01*
X92932093Y-112866649D01*
X92932086Y-112866645D01*
X92797379Y-112816403D01*
X92797372Y-112816401D01*
X92737844Y-112810000D01*
X92190000Y-112810000D01*
X92190000Y-113626988D01*
X92132993Y-113594075D01*
X92005826Y-113560000D01*
X91874174Y-113560000D01*
X91747007Y-113594075D01*
X91690000Y-113626988D01*
X91690000Y-112810000D01*
X91142155Y-112810000D01*
X91082627Y-112816401D01*
X91082620Y-112816403D01*
X90947913Y-112866645D01*
X90947906Y-112866649D01*
X90832812Y-112952809D01*
X90832809Y-112952812D01*
X90746649Y-113067906D01*
X90746645Y-113067913D01*
X90696403Y-113202620D01*
X90696401Y-113202627D01*
X90690000Y-113262155D01*
X90690000Y-113810000D01*
X91506988Y-113810000D01*
X91474075Y-113867007D01*
X91440000Y-113994174D01*
X91440000Y-114125826D01*
X91474075Y-114252993D01*
X91506988Y-114310000D01*
X90690000Y-114310000D01*
X90690000Y-114857844D01*
X90696401Y-114917372D01*
X90696403Y-114917379D01*
X90746645Y-115052086D01*
X90746649Y-115052093D01*
X90832809Y-115167187D01*
X90832812Y-115167190D01*
X90947906Y-115253350D01*
X90947913Y-115253354D01*
X91082620Y-115303596D01*
X91082627Y-115303598D01*
X91142155Y-115309999D01*
X91142172Y-115310000D01*
X91151726Y-115310000D01*
X91218765Y-115329685D01*
X91264520Y-115382489D01*
X91274464Y-115451647D01*
X91245439Y-115515203D01*
X91222849Y-115535575D01*
X91133121Y-115598402D01*
X90978402Y-115753121D01*
X90852900Y-115932357D01*
X90852898Y-115932361D01*
X90760426Y-116130668D01*
X90760422Y-116130677D01*
X90703793Y-116342020D01*
X90703793Y-116342023D01*
X90701345Y-116370000D01*
X90684723Y-116559997D01*
X89799584Y-116559997D01*
X89798344Y-107336796D01*
X89796887Y-96500000D01*
X90630138Y-96500000D01*
X91275721Y-96500000D01*
X91342760Y-96519685D01*
X91372141Y-96553593D01*
X91359940Y-96565795D01*
X91320444Y-96634204D01*
X91300000Y-96710504D01*
X91300000Y-96789496D01*
X91320444Y-96865796D01*
X91359940Y-96934205D01*
X91374002Y-96948267D01*
X91327232Y-96988794D01*
X91275721Y-97000000D01*
X90630138Y-97000000D01*
X90638430Y-97041690D01*
X90638430Y-97041692D01*
X90713807Y-97223671D01*
X90713814Y-97223684D01*
X90823248Y-97387462D01*
X90823251Y-97387466D01*
X90962533Y-97526748D01*
X90962537Y-97526751D01*
X91126315Y-97636185D01*
X91126328Y-97636192D01*
X91308307Y-97711569D01*
X91311715Y-97712603D01*
X91313281Y-97713629D01*
X91313939Y-97713902D01*
X91313887Y-97714026D01*
X91370154Y-97750900D01*
X91398611Y-97814712D01*
X91399721Y-97831264D01*
X91399721Y-97895141D01*
X92537201Y-97895141D01*
X92537201Y-97844064D01*
X92556886Y-97777025D01*
X92609690Y-97731270D01*
X92637011Y-97722446D01*
X92691689Y-97711570D01*
X92691690Y-97711570D01*
X92873671Y-97636192D01*
X92873684Y-97636185D01*
X93037462Y-97526751D01*
X93037466Y-97526748D01*
X93176748Y-97387466D01*
X93176751Y-97387462D01*
X93286185Y-97223684D01*
X93286192Y-97223671D01*
X93361569Y-97041692D01*
X93361569Y-97041690D01*
X93369862Y-97000000D01*
X92661201Y-97000000D01*
X92594162Y-96980315D01*
X92594063Y-96980201D01*
X92640060Y-96934205D01*
X92679556Y-96865796D01*
X92700000Y-96789496D01*
X92700000Y-96710504D01*
X92679556Y-96634204D01*
X92640060Y-96565795D01*
X92596714Y-96522449D01*
X92609690Y-96511206D01*
X92661201Y-96500000D01*
X93369862Y-96500000D01*
X93361569Y-96458309D01*
X93361569Y-96458307D01*
X93286192Y-96276328D01*
X93286185Y-96276315D01*
X93176751Y-96112537D01*
X93176748Y-96112533D01*
X93037466Y-95973251D01*
X93037462Y-95973248D01*
X92873684Y-95863814D01*
X92873671Y-95863807D01*
X92691693Y-95788430D01*
X92691683Y-95788427D01*
X92637009Y-95777552D01*
X92575099Y-95745167D01*
X92540524Y-95684451D01*
X92537201Y-95655935D01*
X92537201Y-95644117D01*
X91399721Y-95644117D01*
X91399721Y-95668735D01*
X91380036Y-95735774D01*
X91327232Y-95781529D01*
X91311723Y-95787393D01*
X91308315Y-95788426D01*
X91126328Y-95863807D01*
X91126315Y-95863814D01*
X90962537Y-95973248D01*
X90962533Y-95973251D01*
X90823251Y-96112533D01*
X90823248Y-96112537D01*
X90713814Y-96276315D01*
X90713807Y-96276328D01*
X90638430Y-96458307D01*
X90638430Y-96458309D01*
X90630138Y-96500000D01*
X89796887Y-96500000D01*
X89796496Y-93594017D01*
X89816172Y-93526975D01*
X89868969Y-93481213D01*
X89920496Y-93470000D01*
X96616758Y-93470000D01*
X96683797Y-93489685D01*
G37*
%TD.AperFunction*%
%TA.AperFunction,Conductor*%
G36*
X142137070Y-106832983D02*
G01*
X142165683Y-106848987D01*
X142250534Y-106912507D01*
X142259468Y-106919195D01*
X142259471Y-106919197D01*
X142394317Y-106969491D01*
X142394316Y-106969491D01*
X142401244Y-106970235D01*
X142453927Y-106975900D01*
X143549672Y-106975899D01*
X143609283Y-106969491D01*
X143632167Y-106960956D01*
X143701859Y-106955972D01*
X143763182Y-106989457D01*
X143796666Y-107050780D01*
X143799500Y-107077138D01*
X143799500Y-123367293D01*
X143799382Y-123372702D01*
X143782614Y-123756750D01*
X143781671Y-123767526D01*
X143731849Y-124145957D01*
X143729971Y-124156610D01*
X143647354Y-124529272D01*
X143644554Y-124539721D01*
X143529775Y-124903755D01*
X143526075Y-124913921D01*
X143380002Y-125266572D01*
X143375430Y-125276376D01*
X143199183Y-125614942D01*
X143193775Y-125624310D01*
X142988681Y-125946244D01*
X142982476Y-125955105D01*
X142750110Y-126257930D01*
X142743156Y-126266217D01*
X142485284Y-126547635D01*
X142477635Y-126555284D01*
X142196217Y-126813156D01*
X142187930Y-126820110D01*
X141885105Y-127052476D01*
X141876244Y-127058681D01*
X141554310Y-127263775D01*
X141544942Y-127269183D01*
X141206376Y-127445430D01*
X141196572Y-127450002D01*
X140843921Y-127596075D01*
X140833755Y-127599775D01*
X140469721Y-127714554D01*
X140459272Y-127717354D01*
X140086610Y-127799971D01*
X140075957Y-127801849D01*
X139697526Y-127851671D01*
X139686750Y-127852614D01*
X139302703Y-127869382D01*
X139297294Y-127869500D01*
X124351221Y-127869500D01*
X124284182Y-127849815D01*
X124238427Y-127797011D01*
X124228483Y-127727853D01*
X124257508Y-127664297D01*
X124285248Y-127640507D01*
X124290399Y-127637269D01*
X124302262Y-127629816D01*
X124429816Y-127502262D01*
X124525789Y-127349522D01*
X124585368Y-127179255D01*
X124585847Y-127175003D01*
X124605565Y-127000003D01*
X124605565Y-126999996D01*
X124585369Y-126820750D01*
X124585368Y-126820745D01*
X124542326Y-126697738D01*
X124525789Y-126650478D01*
X124507106Y-126620745D01*
X124475337Y-126570184D01*
X124429816Y-126497738D01*
X124302262Y-126370184D01*
X124191910Y-126300845D01*
X124149523Y-126274211D01*
X123979254Y-126214631D01*
X123979249Y-126214630D01*
X123800004Y-126194435D01*
X123799996Y-126194435D01*
X123620750Y-126214630D01*
X123613953Y-126216182D01*
X123613446Y-126213962D01*
X123554435Y-126216955D01*
X123493819Y-126182206D01*
X123461612Y-126120202D01*
X123465593Y-126057356D01*
X123489505Y-125985194D01*
X123489506Y-125985190D01*
X123499999Y-125882486D01*
X123500000Y-125882473D01*
X123500000Y-125820000D01*
X121100001Y-125820000D01*
X121100001Y-125882486D01*
X121110494Y-125985197D01*
X121165641Y-126151619D01*
X121165643Y-126151624D01*
X121257684Y-126300845D01*
X121351304Y-126394465D01*
X121384789Y-126455788D01*
X121379805Y-126525480D01*
X121351305Y-126569827D01*
X121257287Y-126663845D01*
X121165187Y-126813163D01*
X121165185Y-126813168D01*
X121152822Y-126850477D01*
X121110001Y-126979703D01*
X121110001Y-126979704D01*
X121110000Y-126979704D01*
X121099500Y-127082483D01*
X121099500Y-127707501D01*
X121099501Y-127707514D01*
X121100387Y-127716183D01*
X121101579Y-127727853D01*
X121102095Y-127732897D01*
X121089326Y-127801590D01*
X121041446Y-127852475D01*
X120978737Y-127869500D01*
X118714451Y-127869500D01*
X118647412Y-127849815D01*
X118601657Y-127797011D01*
X118591713Y-127727853D01*
X118620738Y-127664297D01*
X118626754Y-127657834D01*
X118658379Y-127626209D01*
X118719698Y-127592726D01*
X118732156Y-127590674D01*
X118779255Y-127585368D01*
X118949522Y-127525789D01*
X119102262Y-127429816D01*
X119229816Y-127302262D01*
X119325789Y-127149522D01*
X119385368Y-126979255D01*
X119399029Y-126858011D01*
X119405565Y-126800003D01*
X119405565Y-126799996D01*
X119385369Y-126620750D01*
X119385368Y-126620745D01*
X119378108Y-126599996D01*
X119325789Y-126450478D01*
X119316180Y-126435186D01*
X119229815Y-126297737D01*
X119102262Y-126170184D01*
X118949523Y-126074211D01*
X118779254Y-126014631D01*
X118779249Y-126014630D01*
X118600004Y-125994435D01*
X118599996Y-125994435D01*
X118420750Y-126014630D01*
X118420738Y-126014633D01*
X118360628Y-126035666D01*
X118290849Y-126039227D01*
X118230222Y-126004497D01*
X118197996Y-125942503D01*
X118196317Y-125906018D01*
X118199999Y-125869978D01*
X118200000Y-125869973D01*
X118200000Y-125807500D01*
X115800001Y-125807500D01*
X115800001Y-125869986D01*
X115810494Y-125972697D01*
X115865641Y-126139119D01*
X115865643Y-126139124D01*
X115957684Y-126288345D01*
X116051304Y-126381965D01*
X116084789Y-126443288D01*
X116079805Y-126512980D01*
X116051305Y-126557327D01*
X115957287Y-126651345D01*
X115865187Y-126800663D01*
X115865185Y-126800668D01*
X115848680Y-126850477D01*
X115810001Y-126967203D01*
X115810001Y-126967204D01*
X115810000Y-126967204D01*
X115799500Y-127069983D01*
X115799500Y-127695001D01*
X115799502Y-127695022D01*
X115803371Y-127732900D01*
X115790601Y-127801593D01*
X115742719Y-127852476D01*
X115680013Y-127869500D01*
X113119987Y-127869500D01*
X113052948Y-127849815D01*
X113007193Y-127797011D01*
X112996629Y-127732898D01*
X112996629Y-127732897D01*
X112997259Y-127726730D01*
X113023655Y-127662039D01*
X113032927Y-127651661D01*
X113258379Y-127426209D01*
X113319700Y-127392726D01*
X113332156Y-127390674D01*
X113379255Y-127385368D01*
X113549522Y-127325789D01*
X113702262Y-127229816D01*
X113829816Y-127102262D01*
X113925789Y-126949522D01*
X113985368Y-126779255D01*
X113997094Y-126675185D01*
X114005565Y-126600003D01*
X114005565Y-126599996D01*
X113985369Y-126420750D01*
X113985368Y-126420745D01*
X113971811Y-126382001D01*
X113925789Y-126250478D01*
X113903265Y-126214632D01*
X113863672Y-126151619D01*
X113829816Y-126097738D01*
X113702262Y-125970184D01*
X113658208Y-125942503D01*
X113549523Y-125874211D01*
X113379254Y-125814631D01*
X113379249Y-125814630D01*
X113200004Y-125794435D01*
X113199996Y-125794435D01*
X113067851Y-125809323D01*
X113051365Y-125806435D01*
X113051365Y-125807500D01*
X110600001Y-125807500D01*
X110600001Y-125869986D01*
X110610494Y-125972697D01*
X110665641Y-126139119D01*
X110665643Y-126139124D01*
X110757684Y-126288345D01*
X110851304Y-126381965D01*
X110884789Y-126443288D01*
X110879805Y-126512980D01*
X110851305Y-126557327D01*
X110757287Y-126651345D01*
X110665187Y-126800663D01*
X110665185Y-126800668D01*
X110648680Y-126850477D01*
X110610001Y-126967203D01*
X110610001Y-126967204D01*
X110610000Y-126967204D01*
X110599500Y-127069983D01*
X110599500Y-127695001D01*
X110599502Y-127695022D01*
X110603371Y-127732900D01*
X110590601Y-127801593D01*
X110542719Y-127852476D01*
X110480013Y-127869500D01*
X104760327Y-127869500D01*
X104693288Y-127849815D01*
X104647533Y-127797011D01*
X104637589Y-127727853D01*
X104647945Y-127693096D01*
X104720389Y-127537736D01*
X104743156Y-127488913D01*
X104800920Y-127273334D01*
X104820372Y-127051000D01*
X104800920Y-126828666D01*
X104743156Y-126613087D01*
X104648835Y-126410814D01*
X104520822Y-126227993D01*
X104415510Y-126122681D01*
X104382025Y-126061358D01*
X104387009Y-125991666D01*
X104415510Y-125947319D01*
X104456811Y-125906018D01*
X104520822Y-125842007D01*
X104648835Y-125659186D01*
X104743156Y-125456913D01*
X104799934Y-125245013D01*
X110600000Y-125245013D01*
X110600000Y-125307500D01*
X111550000Y-125307500D01*
X112050000Y-125307500D01*
X112999999Y-125307500D01*
X112999999Y-125245028D01*
X112999998Y-125245013D01*
X112989505Y-125142302D01*
X112934358Y-124975880D01*
X112934356Y-124975875D01*
X112842315Y-124826654D01*
X112718345Y-124702684D01*
X112569124Y-124610643D01*
X112569119Y-124610641D01*
X112402697Y-124555494D01*
X112402690Y-124555493D01*
X112299986Y-124545000D01*
X112050000Y-124545000D01*
X112050000Y-125307500D01*
X111550000Y-125307500D01*
X111550000Y-124545000D01*
X111300029Y-124545000D01*
X111300012Y-124545001D01*
X111197302Y-124555494D01*
X111030880Y-124610641D01*
X111030875Y-124610643D01*
X110881654Y-124702684D01*
X110757684Y-124826654D01*
X110665643Y-124975875D01*
X110665641Y-124975880D01*
X110610494Y-125142302D01*
X110610493Y-125142309D01*
X110600000Y-125245013D01*
X104799934Y-125245013D01*
X104800920Y-125241334D01*
X104820372Y-125019000D01*
X104800920Y-124796666D01*
X104754424Y-124623141D01*
X104743158Y-124581094D01*
X104743157Y-124581093D01*
X104743156Y-124581087D01*
X104648835Y-124378814D01*
X104520822Y-124195993D01*
X104363007Y-124038178D01*
X104180186Y-123910165D01*
X103977913Y-123815844D01*
X103977909Y-123815843D01*
X103977905Y-123815841D01*
X103762339Y-123758081D01*
X103762329Y-123758079D01*
X103540001Y-123738628D01*
X103539999Y-123738628D01*
X103317670Y-123758079D01*
X103317660Y-123758081D01*
X103102094Y-123815841D01*
X103102087Y-123815843D01*
X103102087Y-123815844D01*
X102899814Y-123910165D01*
X102716993Y-124038178D01*
X102716991Y-124038179D01*
X102716988Y-124038182D01*
X102559182Y-124195988D01*
X102559179Y-124195991D01*
X102559178Y-124195993D01*
X102431165Y-124378814D01*
X102351563Y-124549523D01*
X102336845Y-124581085D01*
X102336841Y-124581094D01*
X102279081Y-124796660D01*
X102279079Y-124796670D01*
X102259628Y-125018999D01*
X102259628Y-125019000D01*
X102279079Y-125241329D01*
X102279081Y-125241339D01*
X102336841Y-125456905D01*
X102336843Y-125456909D01*
X102336844Y-125456913D01*
X102431165Y-125659186D01*
X102559178Y-125842007D01*
X102559182Y-125842011D01*
X102664490Y-125947319D01*
X102697975Y-126008642D01*
X102692991Y-126078334D01*
X102664490Y-126122681D01*
X102559182Y-126227988D01*
X102559179Y-126227991D01*
X102559178Y-126227993D01*
X102431165Y-126410814D01*
X102361195Y-126560867D01*
X102336845Y-126613085D01*
X102336841Y-126613094D01*
X102279081Y-126828660D01*
X102279079Y-126828670D01*
X102259628Y-127050999D01*
X102259628Y-127051000D01*
X102279079Y-127273329D01*
X102279081Y-127273339D01*
X102336841Y-127488905D01*
X102336846Y-127488919D01*
X102432055Y-127693096D01*
X102442547Y-127762173D01*
X102414027Y-127825957D01*
X102355550Y-127864196D01*
X102319673Y-127869500D01*
X101140259Y-127869500D01*
X101073220Y-127849815D01*
X101027465Y-127797011D01*
X101017521Y-127727853D01*
X101035265Y-127679528D01*
X101052781Y-127651652D01*
X101132662Y-127524522D01*
X101192241Y-127354255D01*
X101192774Y-127349523D01*
X101212438Y-127175003D01*
X101212438Y-127174996D01*
X101192242Y-126995750D01*
X101192241Y-126995745D01*
X101141410Y-126850478D01*
X101132662Y-126825478D01*
X101036689Y-126672738D01*
X100909135Y-126545184D01*
X100880654Y-126527288D01*
X100756396Y-126449211D01*
X100586127Y-126389631D01*
X100586122Y-126389630D01*
X100406877Y-126369435D01*
X100406869Y-126369435D01*
X100227623Y-126389630D01*
X100227618Y-126389631D01*
X100057349Y-126449211D01*
X99904612Y-126545183D01*
X99875554Y-126574241D01*
X99814230Y-126607725D01*
X99744539Y-126602739D01*
X99688606Y-126560867D01*
X99664190Y-126495402D01*
X99668099Y-126454465D01*
X99669507Y-126449211D01*
X99720920Y-126257334D01*
X99740372Y-126035000D01*
X99720920Y-125812666D01*
X99663156Y-125597087D01*
X99654744Y-125579049D01*
X99644253Y-125509972D01*
X99672773Y-125446188D01*
X99731249Y-125407949D01*
X99781010Y-125403425D01*
X99800000Y-125405565D01*
X99800001Y-125405564D01*
X99800002Y-125405565D01*
X99800004Y-125405565D01*
X99979249Y-125385369D01*
X99979252Y-125385368D01*
X99979255Y-125385368D01*
X100149522Y-125325789D01*
X100302262Y-125229816D01*
X100429816Y-125102262D01*
X100525789Y-124949522D01*
X100585368Y-124779255D01*
X100585951Y-124774080D01*
X100605565Y-124600003D01*
X100605565Y-124599996D01*
X100585369Y-124420750D01*
X100585368Y-124420745D01*
X100525789Y-124250478D01*
X100429816Y-124097738D01*
X100302262Y-123970184D01*
X100268223Y-123948796D01*
X100149521Y-123874210D01*
X100000697Y-123822135D01*
X99979255Y-123814632D01*
X99979254Y-123814631D01*
X99979249Y-123814630D01*
X99852485Y-123800347D01*
X99788071Y-123773280D01*
X99778688Y-123764808D01*
X99411819Y-123397939D01*
X99378334Y-123336616D01*
X99375500Y-123310258D01*
X99375500Y-122289740D01*
X99395185Y-122222701D01*
X99411815Y-122202063D01*
X100343155Y-121270722D01*
X100343160Y-121270719D01*
X100353363Y-121260515D01*
X100353365Y-121260515D01*
X100460515Y-121153365D01*
X100536281Y-121022135D01*
X100551464Y-120965470D01*
X100575500Y-120875767D01*
X100575500Y-120724234D01*
X100575500Y-120724233D01*
X100575500Y-119606940D01*
X100595185Y-119539901D01*
X100647989Y-119494146D01*
X100717147Y-119484202D01*
X100780703Y-119513227D01*
X100787181Y-119519259D01*
X100897738Y-119629816D01*
X101050478Y-119725789D01*
X101118306Y-119749523D01*
X101220745Y-119785368D01*
X101220750Y-119785369D01*
X101399996Y-119805565D01*
X101400000Y-119805565D01*
X101400004Y-119805565D01*
X101579249Y-119785369D01*
X101579252Y-119785368D01*
X101579255Y-119785368D01*
X101749522Y-119725789D01*
X101902262Y-119629816D01*
X102029816Y-119502262D01*
X102125789Y-119349522D01*
X102185368Y-119179255D01*
X102198424Y-119063380D01*
X102205565Y-119000003D01*
X102205565Y-118999996D01*
X102185369Y-118820750D01*
X102185368Y-118820745D01*
X102183267Y-118814742D01*
X102125789Y-118650478D01*
X102103265Y-118614632D01*
X102064097Y-118552296D01*
X102029816Y-118497738D01*
X102011819Y-118479741D01*
X101978334Y-118418418D01*
X101975500Y-118392060D01*
X101975500Y-117274315D01*
X101995185Y-117207276D01*
X102047989Y-117161521D01*
X102117147Y-117151577D01*
X102140455Y-117157274D01*
X102220737Y-117185366D01*
X102220743Y-117185367D01*
X102220745Y-117185368D01*
X102220746Y-117185368D01*
X102220750Y-117185369D01*
X102347512Y-117199651D01*
X102411926Y-117226717D01*
X102421310Y-117235190D01*
X102588181Y-117402061D01*
X102621666Y-117463384D01*
X102624500Y-117489742D01*
X102624500Y-120592060D01*
X102604815Y-120659099D01*
X102588181Y-120679741D01*
X102570184Y-120697737D01*
X102474211Y-120850476D01*
X102414631Y-121020745D01*
X102414630Y-121020750D01*
X102394435Y-121199996D01*
X102394435Y-121200003D01*
X102414630Y-121379249D01*
X102414631Y-121379254D01*
X102474211Y-121549523D01*
X102535231Y-121646635D01*
X102570184Y-121702262D01*
X102697738Y-121829816D01*
X102733913Y-121852546D01*
X102801240Y-121894851D01*
X102850478Y-121925789D01*
X103020745Y-121985368D01*
X103020750Y-121985369D01*
X103199996Y-122005565D01*
X103200000Y-122005565D01*
X103200004Y-122005565D01*
X103379249Y-121985369D01*
X103379252Y-121985368D01*
X103379255Y-121985368D01*
X103549522Y-121925789D01*
X103702262Y-121829816D01*
X103829816Y-121702262D01*
X103925789Y-121549522D01*
X103985368Y-121379255D01*
X103985369Y-121379249D01*
X104005565Y-121200003D01*
X104005565Y-121199996D01*
X103985369Y-121020750D01*
X103985368Y-121020745D01*
X103934638Y-120875767D01*
X103925789Y-120850478D01*
X103915737Y-120834481D01*
X103857723Y-120742152D01*
X103829816Y-120697738D01*
X103811819Y-120679741D01*
X103778334Y-120618418D01*
X103775500Y-120592060D01*
X103775500Y-117488742D01*
X103795185Y-117421703D01*
X103847989Y-117375948D01*
X103917147Y-117366004D01*
X103980703Y-117395029D01*
X103987181Y-117401061D01*
X107266949Y-120680829D01*
X107300434Y-120742152D01*
X107295450Y-120811844D01*
X107284262Y-120834481D01*
X107274209Y-120850479D01*
X107214633Y-121020737D01*
X107214630Y-121020750D01*
X107194435Y-121199996D01*
X107194435Y-121200003D01*
X107214630Y-121379249D01*
X107214631Y-121379254D01*
X107274211Y-121549523D01*
X107335231Y-121646635D01*
X107370184Y-121702262D01*
X107497738Y-121829816D01*
X107533913Y-121852546D01*
X107601240Y-121894851D01*
X107650478Y-121925789D01*
X107820745Y-121985368D01*
X107820750Y-121985369D01*
X107999996Y-122005565D01*
X108000000Y-122005565D01*
X108000004Y-122005565D01*
X108179249Y-121985369D01*
X108179252Y-121985368D01*
X108179255Y-121985368D01*
X108349522Y-121925789D01*
X108474053Y-121847540D01*
X108537559Y-121829593D01*
X108537423Y-121828567D01*
X108567094Y-121765310D01*
X108572261Y-121759816D01*
X108629816Y-121702262D01*
X108725789Y-121549522D01*
X108749449Y-121481903D01*
X108790168Y-121425128D01*
X108852606Y-121399637D01*
X108979255Y-121385368D01*
X109053760Y-121359297D01*
X109073307Y-121352458D01*
X109114261Y-121345500D01*
X109225501Y-121345500D01*
X109292540Y-121365185D01*
X109338295Y-121417989D01*
X109349501Y-121469500D01*
X109349501Y-121542876D01*
X109355908Y-121602483D01*
X109366931Y-121632035D01*
X109371915Y-121701727D01*
X109338430Y-121763050D01*
X109277107Y-121796534D01*
X109236866Y-121798588D01*
X109200004Y-121794435D01*
X109199996Y-121794435D01*
X109020750Y-121814630D01*
X109020745Y-121814631D01*
X108850476Y-121874211D01*
X108725946Y-121952459D01*
X108662440Y-121970404D01*
X108662577Y-121971431D01*
X108632905Y-122034688D01*
X108627707Y-122040215D01*
X108570183Y-122097739D01*
X108474211Y-122250476D01*
X108414631Y-122420745D01*
X108414630Y-122420750D01*
X108394435Y-122599996D01*
X108394435Y-122600003D01*
X108414630Y-122779249D01*
X108414631Y-122779254D01*
X108474211Y-122949523D01*
X108570184Y-123102262D01*
X108697738Y-123229816D01*
X108788080Y-123286582D01*
X108825760Y-123310258D01*
X108850478Y-123325789D01*
X108952877Y-123361620D01*
X109020745Y-123385368D01*
X109020750Y-123385369D01*
X109199996Y-123405565D01*
X109200000Y-123405565D01*
X109200003Y-123405565D01*
X109307566Y-123393445D01*
X109351616Y-123388482D01*
X109420438Y-123400536D01*
X109471818Y-123447885D01*
X109489500Y-123511699D01*
X109489500Y-123552868D01*
X109489501Y-123552876D01*
X109495908Y-123612483D01*
X109546202Y-123747328D01*
X109546206Y-123747335D01*
X109632452Y-123862544D01*
X109632455Y-123862547D01*
X109747664Y-123948793D01*
X109747671Y-123948797D01*
X109882517Y-123999091D01*
X109882516Y-123999091D01*
X109889444Y-123999835D01*
X109942127Y-124005500D01*
X111057872Y-124005499D01*
X111117483Y-123999091D01*
X111252331Y-123948796D01*
X111252335Y-123948792D01*
X111257380Y-123946911D01*
X111327071Y-123941927D01*
X111344048Y-123946911D01*
X111482623Y-123998597D01*
X111482627Y-123998598D01*
X111542155Y-124004999D01*
X111542172Y-124005000D01*
X111850000Y-124005000D01*
X112350000Y-124005000D01*
X112657828Y-124005000D01*
X112657844Y-124004999D01*
X112717372Y-123998598D01*
X112717379Y-123998596D01*
X112852086Y-123948354D01*
X112852093Y-123948350D01*
X112967187Y-123862190D01*
X112967190Y-123862187D01*
X113053350Y-123747093D01*
X113053354Y-123747086D01*
X113103596Y-123612379D01*
X113103598Y-123612372D01*
X113109461Y-123557844D01*
X114590000Y-123557844D01*
X114596401Y-123617372D01*
X114596403Y-123617379D01*
X114646645Y-123752086D01*
X114646649Y-123752093D01*
X114732809Y-123867187D01*
X114732812Y-123867190D01*
X114847906Y-123953350D01*
X114847913Y-123953354D01*
X114982620Y-124003596D01*
X114982627Y-124003598D01*
X115042155Y-124009999D01*
X115042172Y-124010000D01*
X115350000Y-124010000D01*
X115350000Y-123025000D01*
X114590000Y-123025000D01*
X114590000Y-123557844D01*
X113109461Y-123557844D01*
X113109999Y-123552844D01*
X113110000Y-123552827D01*
X113110000Y-123020000D01*
X112350000Y-123020000D01*
X112350000Y-124005000D01*
X111850000Y-124005000D01*
X111850000Y-122644000D01*
X111869685Y-122576961D01*
X111922489Y-122531206D01*
X111974000Y-122520000D01*
X113110000Y-122520000D01*
X113110000Y-121987172D01*
X113109999Y-121987155D01*
X113102769Y-121919913D01*
X113105000Y-121919673D01*
X113108126Y-121861233D01*
X113125799Y-121828162D01*
X113193796Y-121737331D01*
X113244091Y-121602483D01*
X113250500Y-121542873D01*
X113250499Y-120481938D01*
X113270183Y-120414900D01*
X113322987Y-120369145D01*
X113392146Y-120359201D01*
X113455702Y-120388226D01*
X113462180Y-120394258D01*
X113497738Y-120429816D01*
X113650478Y-120525789D01*
X113715457Y-120548526D01*
X113820745Y-120585368D01*
X113820750Y-120585369D01*
X113999996Y-120605565D01*
X114000000Y-120605565D01*
X114000004Y-120605565D01*
X114179249Y-120585369D01*
X114179251Y-120585368D01*
X114179255Y-120585368D01*
X114179258Y-120585366D01*
X114179262Y-120585366D01*
X114284545Y-120548526D01*
X114354324Y-120544964D01*
X114414951Y-120579692D01*
X114447179Y-120641686D01*
X114449500Y-120665567D01*
X114449500Y-121642870D01*
X114449501Y-121642876D01*
X114455908Y-121702483D01*
X114506202Y-121837328D01*
X114506203Y-121837329D01*
X114506204Y-121837331D01*
X114559711Y-121908807D01*
X114565267Y-121916229D01*
X114589684Y-121981693D01*
X114590000Y-121990540D01*
X114590000Y-122525000D01*
X115726000Y-122525000D01*
X115793039Y-122544685D01*
X115838794Y-122597489D01*
X115850000Y-122649000D01*
X115850000Y-124010000D01*
X116157828Y-124010000D01*
X116157844Y-124009999D01*
X116217372Y-124003598D01*
X116217376Y-124003597D01*
X116355951Y-123951911D01*
X116425642Y-123946927D01*
X116442619Y-123951911D01*
X116447665Y-123953793D01*
X116447669Y-123953796D01*
X116569111Y-123999091D01*
X116581192Y-124003597D01*
X116582517Y-124004091D01*
X116642127Y-124010500D01*
X116677029Y-124010499D01*
X116744067Y-124030182D01*
X116789823Y-124082985D01*
X116800250Y-124148381D01*
X116794435Y-124199994D01*
X116794435Y-124200003D01*
X116814631Y-124379253D01*
X116814632Y-124379260D01*
X116814911Y-124380056D01*
X116814938Y-124380601D01*
X116816181Y-124386044D01*
X116815227Y-124386261D01*
X116818467Y-124449836D01*
X116783732Y-124510460D01*
X116721736Y-124542681D01*
X116697867Y-124545000D01*
X116500029Y-124545000D01*
X116500012Y-124545001D01*
X116397302Y-124555494D01*
X116230880Y-124610641D01*
X116230875Y-124610643D01*
X116081654Y-124702684D01*
X115957684Y-124826654D01*
X115865643Y-124975875D01*
X115865641Y-124975880D01*
X115810494Y-125142302D01*
X115810493Y-125142309D01*
X115800000Y-125245013D01*
X115800000Y-125307500D01*
X118199999Y-125307500D01*
X118199999Y-125257513D01*
X121100000Y-125257513D01*
X121100000Y-125320000D01*
X122050000Y-125320000D01*
X122550000Y-125320000D01*
X123499999Y-125320000D01*
X123499999Y-125257528D01*
X123499998Y-125257513D01*
X123489505Y-125154802D01*
X123434358Y-124988380D01*
X123434356Y-124988375D01*
X123342315Y-124839154D01*
X123218345Y-124715184D01*
X123069124Y-124623143D01*
X123069119Y-124623141D01*
X122902697Y-124567994D01*
X122902690Y-124567993D01*
X122799986Y-124557500D01*
X122550000Y-124557500D01*
X122550000Y-125320000D01*
X122050000Y-125320000D01*
X122050000Y-124557500D01*
X121800029Y-124557500D01*
X121800012Y-124557501D01*
X121697302Y-124567994D01*
X121530880Y-124623141D01*
X121530875Y-124623143D01*
X121381654Y-124715184D01*
X121257684Y-124839154D01*
X121165643Y-124988375D01*
X121165641Y-124988380D01*
X121110494Y-125154802D01*
X121110493Y-125154809D01*
X121100000Y-125257513D01*
X118199999Y-125257513D01*
X118199999Y-125245028D01*
X118199998Y-125245013D01*
X118189505Y-125142302D01*
X118134358Y-124975880D01*
X118134353Y-124975869D01*
X118117863Y-124949135D01*
X118099422Y-124881743D01*
X118120344Y-124815079D01*
X118135710Y-124796367D01*
X118229816Y-124702262D01*
X118325789Y-124549522D01*
X118385368Y-124379255D01*
X118399651Y-124252485D01*
X118426717Y-124188072D01*
X118435180Y-124178698D01*
X119161035Y-123452844D01*
X120390000Y-123452844D01*
X120396401Y-123512372D01*
X120396403Y-123512379D01*
X120446645Y-123647086D01*
X120446649Y-123647093D01*
X120532809Y-123762187D01*
X120532812Y-123762190D01*
X120647906Y-123848350D01*
X120647913Y-123848354D01*
X120782620Y-123898596D01*
X120782627Y-123898598D01*
X120842155Y-123904999D01*
X120842172Y-123905000D01*
X121150000Y-123905000D01*
X121150000Y-122920000D01*
X120390000Y-122920000D01*
X120390000Y-123452844D01*
X119161035Y-123452844D01*
X119785514Y-122828366D01*
X119861281Y-122697135D01*
X119900500Y-122550767D01*
X119900500Y-122399234D01*
X119900500Y-121127589D01*
X119920185Y-121060550D01*
X119972989Y-121014795D01*
X120010616Y-121004369D01*
X120111616Y-120992989D01*
X120180438Y-121005043D01*
X120231818Y-121052392D01*
X120249500Y-121116209D01*
X120249500Y-121497869D01*
X120249501Y-121497876D01*
X120255908Y-121557483D01*
X120306202Y-121692328D01*
X120306203Y-121692330D01*
X120368555Y-121775621D01*
X120392972Y-121841085D01*
X120392578Y-121863184D01*
X120390000Y-121887164D01*
X120390000Y-122420000D01*
X121526000Y-122420000D01*
X121593039Y-122439685D01*
X121638794Y-122492489D01*
X121650000Y-122544000D01*
X121650000Y-123905000D01*
X121957828Y-123905000D01*
X121957844Y-123904999D01*
X122017372Y-123898598D01*
X122017376Y-123898597D01*
X122155951Y-123846911D01*
X122225642Y-123841927D01*
X122242619Y-123846911D01*
X122247665Y-123848793D01*
X122247669Y-123848796D01*
X122382517Y-123899091D01*
X122442127Y-123905500D01*
X123557872Y-123905499D01*
X123617483Y-123899091D01*
X123752331Y-123848796D01*
X123867546Y-123762546D01*
X123953412Y-123647844D01*
X130690000Y-123647844D01*
X130696401Y-123707372D01*
X130696403Y-123707379D01*
X130746645Y-123842086D01*
X130746649Y-123842093D01*
X130832809Y-123957187D01*
X130832812Y-123957190D01*
X130947906Y-124043350D01*
X130947913Y-124043354D01*
X131082620Y-124093596D01*
X131082627Y-124093598D01*
X131142155Y-124099999D01*
X131142172Y-124100000D01*
X131450000Y-124100000D01*
X131450000Y-123115000D01*
X130690000Y-123115000D01*
X130690000Y-123647844D01*
X123953412Y-123647844D01*
X123953796Y-123647331D01*
X124004091Y-123512483D01*
X124010500Y-123452873D01*
X124010499Y-123054740D01*
X124030183Y-122987702D01*
X124046813Y-122967065D01*
X125060515Y-121953365D01*
X125094907Y-121893796D01*
X125136281Y-121822135D01*
X125175500Y-121675766D01*
X125175500Y-120324234D01*
X125136281Y-120177865D01*
X125060515Y-120046635D01*
X125011819Y-119997939D01*
X124978334Y-119936616D01*
X124975500Y-119910258D01*
X124975500Y-119844236D01*
X124975500Y-119844234D01*
X124936281Y-119697865D01*
X124860515Y-119566635D01*
X124753365Y-119459485D01*
X124186818Y-118892938D01*
X124153333Y-118831615D01*
X124150499Y-118805257D01*
X124150499Y-117897129D01*
X124150498Y-117897123D01*
X124148344Y-117877086D01*
X124144091Y-117837517D01*
X124137297Y-117819302D01*
X124093797Y-117702671D01*
X124093793Y-117702664D01*
X124078956Y-117682844D01*
X126680000Y-117682844D01*
X126686401Y-117742372D01*
X126686403Y-117742379D01*
X126736645Y-117877086D01*
X126736649Y-117877093D01*
X126822809Y-117992187D01*
X126822812Y-117992190D01*
X126937906Y-118078350D01*
X126937913Y-118078354D01*
X127072620Y-118128596D01*
X127072627Y-118128598D01*
X127132155Y-118134999D01*
X127132172Y-118135000D01*
X127440000Y-118135000D01*
X127440000Y-117150000D01*
X126680000Y-117150000D01*
X126680000Y-117682844D01*
X124078956Y-117682844D01*
X124007547Y-117587455D01*
X124007544Y-117587452D01*
X123892335Y-117501206D01*
X123892330Y-117501203D01*
X123806166Y-117469066D01*
X123750233Y-117427194D01*
X123725816Y-117361730D01*
X123725500Y-117352884D01*
X123725500Y-117274236D01*
X123725500Y-117274234D01*
X123686281Y-117127865D01*
X123686060Y-117127483D01*
X123668887Y-117097738D01*
X123610515Y-116996635D01*
X123503365Y-116889485D01*
X123021700Y-116407820D01*
X122988215Y-116346497D01*
X122993199Y-116276805D01*
X123035071Y-116220872D01*
X123100535Y-116196455D01*
X123123263Y-116196918D01*
X123150269Y-116199961D01*
X123199998Y-116205565D01*
X123200000Y-116205565D01*
X123200004Y-116205565D01*
X123379249Y-116185369D01*
X123379252Y-116185368D01*
X123379255Y-116185368D01*
X123549522Y-116125789D01*
X123702262Y-116029816D01*
X123829816Y-115902262D01*
X123918109Y-115761745D01*
X123929494Y-115743626D01*
X123930843Y-115744473D01*
X123972044Y-115698839D01*
X124036943Y-115680500D01*
X124425749Y-115680500D01*
X124492788Y-115700185D01*
X124525015Y-115730188D01*
X124563206Y-115781204D01*
X124567954Y-115787546D01*
X124567957Y-115787548D01*
X124683164Y-115873793D01*
X124683171Y-115873797D01*
X124818017Y-115924091D01*
X124818016Y-115924091D01*
X124824944Y-115924835D01*
X124877627Y-115930500D01*
X126498372Y-115930499D01*
X126549438Y-115925009D01*
X126618194Y-115937415D01*
X126669332Y-115985025D01*
X126686611Y-116052725D01*
X126685979Y-116061555D01*
X126680000Y-116117155D01*
X126680000Y-116650000D01*
X127440000Y-116650000D01*
X127440000Y-115665000D01*
X127132155Y-115665000D01*
X127081521Y-115670445D01*
X127012761Y-115658040D01*
X126961624Y-115610430D01*
X126944344Y-115542731D01*
X126944976Y-115533900D01*
X126945803Y-115526206D01*
X126951000Y-115477873D01*
X126950999Y-114732128D01*
X126944591Y-114672517D01*
X126944591Y-114672516D01*
X126894297Y-114537670D01*
X126890047Y-114529888D01*
X126893257Y-114528134D01*
X126874861Y-114479001D01*
X126889627Y-114410709D01*
X126890252Y-114409736D01*
X126894297Y-114402329D01*
X126907471Y-114367007D01*
X126944591Y-114267483D01*
X126951000Y-114207873D01*
X126950999Y-113462128D01*
X126944591Y-113402517D01*
X126905877Y-113298719D01*
X126894297Y-113267670D01*
X126890047Y-113259888D01*
X126893257Y-113258134D01*
X126874861Y-113209001D01*
X126889627Y-113140709D01*
X126890252Y-113139736D01*
X126894297Y-113132329D01*
X126918325Y-113067906D01*
X126944591Y-112997483D01*
X126951000Y-112937873D01*
X126950999Y-112534950D01*
X126970683Y-112467913D01*
X127023487Y-112422158D01*
X127092646Y-112412214D01*
X127156202Y-112441239D01*
X127162680Y-112447271D01*
X127173787Y-112458378D01*
X127207272Y-112519701D01*
X127209326Y-112532174D01*
X127214630Y-112579249D01*
X127274210Y-112749521D01*
X127346232Y-112864143D01*
X127370184Y-112902262D01*
X127497738Y-113029816D01*
X127650478Y-113125789D01*
X127777352Y-113170184D01*
X127820745Y-113185368D01*
X127820750Y-113185369D01*
X127999996Y-113205565D01*
X128000000Y-113205565D01*
X128000004Y-113205565D01*
X128179249Y-113185369D01*
X128179252Y-113185368D01*
X128179255Y-113185368D01*
X128349522Y-113125789D01*
X128502262Y-113029816D01*
X128629816Y-112902262D01*
X128725789Y-112749522D01*
X128785368Y-112579255D01*
X128795185Y-112492128D01*
X128797904Y-112467998D01*
X128824970Y-112403584D01*
X128882565Y-112364029D01*
X128952402Y-112361891D01*
X128962074Y-112364838D01*
X128975793Y-112369638D01*
X129020740Y-112385367D01*
X129020750Y-112385369D01*
X129199996Y-112405565D01*
X129200000Y-112405565D01*
X129200004Y-112405565D01*
X129379249Y-112385369D01*
X129379252Y-112385368D01*
X129379255Y-112385368D01*
X129549522Y-112325789D01*
X129568065Y-112314138D01*
X129653403Y-112260516D01*
X129659028Y-112256981D01*
X129726264Y-112237981D01*
X129793099Y-112258348D01*
X129838314Y-112311616D01*
X129849000Y-112361975D01*
X129849000Y-112937870D01*
X129849001Y-112937876D01*
X129855408Y-112997483D01*
X129905702Y-113132328D01*
X129909954Y-113140114D01*
X129906780Y-113141846D01*
X129925159Y-113191302D01*
X129910225Y-113259557D01*
X129909617Y-113260502D01*
X129905702Y-113267671D01*
X129855410Y-113402513D01*
X129855409Y-113402517D01*
X129849000Y-113462127D01*
X129849000Y-113462134D01*
X129849000Y-113462135D01*
X129849000Y-114207870D01*
X129849001Y-114207876D01*
X129855408Y-114267483D01*
X129905702Y-114402328D01*
X129909954Y-114410114D01*
X129906780Y-114411846D01*
X129925159Y-114461302D01*
X129910225Y-114529557D01*
X129909617Y-114530502D01*
X129905700Y-114537674D01*
X129899966Y-114553049D01*
X129858093Y-114608981D01*
X129792628Y-114633395D01*
X129724355Y-114618541D01*
X129678792Y-114575683D01*
X129674416Y-114568719D01*
X129629816Y-114497738D01*
X129502262Y-114370184D01*
X129442317Y-114332518D01*
X129349523Y-114274211D01*
X129179254Y-114214631D01*
X129179249Y-114214630D01*
X129000004Y-114194435D01*
X128999996Y-114194435D01*
X128820750Y-114214630D01*
X128820745Y-114214631D01*
X128650476Y-114274211D01*
X128497737Y-114370184D01*
X128370184Y-114497737D01*
X128274211Y-114650476D01*
X128214631Y-114820745D01*
X128214630Y-114820750D01*
X128194435Y-114999996D01*
X128194435Y-115000003D01*
X128214630Y-115179249D01*
X128214631Y-115179254D01*
X128265208Y-115323793D01*
X128274211Y-115349522D01*
X128352558Y-115474211D01*
X128353072Y-115475028D01*
X128372072Y-115542264D01*
X128351704Y-115609100D01*
X128298437Y-115654314D01*
X128248078Y-115665000D01*
X127940000Y-115665000D01*
X127940000Y-118135000D01*
X128247828Y-118135000D01*
X128247844Y-118134999D01*
X128307372Y-118128598D01*
X128307376Y-118128597D01*
X128445951Y-118076911D01*
X128515642Y-118071927D01*
X128532619Y-118076911D01*
X128537665Y-118078793D01*
X128537669Y-118078796D01*
X128672517Y-118129091D01*
X128732127Y-118135500D01*
X129847872Y-118135499D01*
X129907483Y-118129091D01*
X129921687Y-118123792D01*
X129991377Y-118118807D01*
X130052701Y-118152291D01*
X130513181Y-118612771D01*
X130546666Y-118674094D01*
X130549500Y-118700452D01*
X130549500Y-119537870D01*
X130549501Y-119537876D01*
X130555908Y-119597483D01*
X130606202Y-119732328D01*
X130606203Y-119732330D01*
X130614333Y-119743190D01*
X130638749Y-119808655D01*
X130623897Y-119876928D01*
X130614333Y-119891810D01*
X130606203Y-119902669D01*
X130606202Y-119902671D01*
X130555908Y-120037517D01*
X130549501Y-120097116D01*
X130549500Y-120097135D01*
X130549500Y-121642870D01*
X130549501Y-121642876D01*
X130555908Y-121702483D01*
X130606202Y-121837328D01*
X130606206Y-121837335D01*
X130673299Y-121926959D01*
X130697717Y-121992423D01*
X130695930Y-122014773D01*
X130697231Y-122014913D01*
X130690000Y-122082155D01*
X130690000Y-122615000D01*
X131826000Y-122615000D01*
X131893039Y-122634685D01*
X131938794Y-122687489D01*
X131950000Y-122739000D01*
X131950000Y-124100000D01*
X132257828Y-124100000D01*
X132257844Y-124099999D01*
X132317372Y-124093598D01*
X132317376Y-124093597D01*
X132455951Y-124041911D01*
X132525642Y-124036927D01*
X132542619Y-124041911D01*
X132547665Y-124043793D01*
X132547669Y-124043796D01*
X132682517Y-124094091D01*
X132742127Y-124100500D01*
X133857872Y-124100499D01*
X133917483Y-124094091D01*
X134052331Y-124043796D01*
X134167546Y-123957546D01*
X134253796Y-123842331D01*
X134304091Y-123707483D01*
X134310500Y-123647873D01*
X134310499Y-122082128D01*
X134304091Y-122022517D01*
X134303262Y-122014804D01*
X134306479Y-122014458D01*
X134309421Y-121959499D01*
X134327093Y-121926434D01*
X134393796Y-121837331D01*
X134444091Y-121702483D01*
X134450500Y-121642873D01*
X134450500Y-121569500D01*
X134470185Y-121502461D01*
X134522989Y-121456706D01*
X134574500Y-121445500D01*
X136486975Y-121445500D01*
X136552946Y-121464505D01*
X136650478Y-121525789D01*
X136775397Y-121569500D01*
X136820745Y-121585368D01*
X136820750Y-121585369D01*
X136999996Y-121605565D01*
X137000000Y-121605565D01*
X137000004Y-121605565D01*
X137179249Y-121585369D01*
X137179252Y-121585368D01*
X137179255Y-121585368D01*
X137349522Y-121525789D01*
X137502262Y-121429816D01*
X137629816Y-121302262D01*
X137725789Y-121149522D01*
X137785368Y-120979255D01*
X137785369Y-120979249D01*
X137805565Y-120800003D01*
X137805565Y-120799996D01*
X137785369Y-120620750D01*
X137785368Y-120620745D01*
X137771003Y-120579692D01*
X137725789Y-120450478D01*
X137629816Y-120297738D01*
X137502262Y-120170184D01*
X137431608Y-120125789D01*
X137349523Y-120074211D01*
X137179254Y-120014631D01*
X137179249Y-120014630D01*
X137000004Y-119994435D01*
X136999996Y-119994435D01*
X136820750Y-120014630D01*
X136820745Y-120014631D01*
X136650476Y-120074211D01*
X136497737Y-120170184D01*
X136409741Y-120258181D01*
X136348418Y-120291666D01*
X136322060Y-120294500D01*
X135511434Y-120294500D01*
X135444395Y-120274815D01*
X135398640Y-120222011D01*
X135388696Y-120152853D01*
X135417721Y-120089297D01*
X135445461Y-120065507D01*
X135502260Y-120029817D01*
X135502259Y-120029817D01*
X135502262Y-120029816D01*
X135629816Y-119902262D01*
X135725789Y-119749522D01*
X135785368Y-119579255D01*
X135786790Y-119566635D01*
X135805565Y-119400003D01*
X135805565Y-119399996D01*
X135785369Y-119220750D01*
X135785368Y-119220745D01*
X135776094Y-119194241D01*
X135725789Y-119050478D01*
X135703265Y-119014632D01*
X135686582Y-118988080D01*
X135629816Y-118897738D01*
X135502262Y-118770184D01*
X135433632Y-118727061D01*
X135349521Y-118674210D01*
X135179249Y-118614630D01*
X135052485Y-118600347D01*
X134988071Y-118573280D01*
X134978688Y-118564808D01*
X134718367Y-118304487D01*
X134718365Y-118304485D01*
X134633102Y-118255258D01*
X134587134Y-118228718D01*
X134587135Y-118228718D01*
X134542403Y-118216732D01*
X134482743Y-118180366D01*
X134452215Y-118117518D01*
X134450499Y-118096958D01*
X134450499Y-117992129D01*
X134450498Y-117992123D01*
X134449114Y-117979249D01*
X134445166Y-117942517D01*
X134444091Y-117932516D01*
X134393797Y-117797671D01*
X134393793Y-117797664D01*
X134307547Y-117682455D01*
X134307544Y-117682452D01*
X134192335Y-117596206D01*
X134192328Y-117596202D01*
X134057482Y-117545908D01*
X134057483Y-117545908D01*
X133997883Y-117539501D01*
X133997881Y-117539500D01*
X133997873Y-117539500D01*
X133997864Y-117539500D01*
X132902129Y-117539500D01*
X132902123Y-117539501D01*
X132842516Y-117545908D01*
X132707671Y-117596202D01*
X132707664Y-117596206D01*
X132592455Y-117682452D01*
X132587681Y-117687227D01*
X132526358Y-117720712D01*
X132456666Y-117715728D01*
X132412319Y-117687227D01*
X132407544Y-117682452D01*
X132292335Y-117596206D01*
X132292328Y-117596202D01*
X132157482Y-117545908D01*
X132157483Y-117545908D01*
X132097883Y-117539501D01*
X132097881Y-117539500D01*
X132097873Y-117539500D01*
X132097865Y-117539500D01*
X131260452Y-117539500D01*
X131193413Y-117519815D01*
X131172771Y-117503181D01*
X130459771Y-116790181D01*
X130426286Y-116728858D01*
X130431270Y-116659166D01*
X130459771Y-116614819D01*
X131107772Y-115966818D01*
X131169095Y-115933333D01*
X131195453Y-115930499D01*
X131922371Y-115930499D01*
X131922372Y-115930499D01*
X131981983Y-115924091D01*
X132116831Y-115873796D01*
X132232046Y-115787546D01*
X132277422Y-115726930D01*
X132333354Y-115685060D01*
X132403046Y-115680076D01*
X132464369Y-115713561D01*
X132497854Y-115774884D01*
X132500688Y-115801240D01*
X132500688Y-115877869D01*
X132500689Y-115877876D01*
X132507096Y-115937483D01*
X132557390Y-116072328D01*
X132557394Y-116072335D01*
X132643640Y-116187544D01*
X132643643Y-116187547D01*
X132758852Y-116273793D01*
X132758859Y-116273797D01*
X132893705Y-116324091D01*
X132893704Y-116324091D01*
X132900632Y-116324835D01*
X132953315Y-116330500D01*
X134009060Y-116330499D01*
X134068671Y-116324091D01*
X134203519Y-116273796D01*
X134216877Y-116263795D01*
X134282338Y-116239378D01*
X134350611Y-116254228D01*
X134365489Y-116263789D01*
X134378857Y-116273796D01*
X134386925Y-116276805D01*
X134513705Y-116324091D01*
X134513704Y-116324091D01*
X134520632Y-116324835D01*
X134573315Y-116330500D01*
X135629060Y-116330499D01*
X135688671Y-116324091D01*
X135823519Y-116273796D01*
X135938734Y-116187546D01*
X136024984Y-116072331D01*
X136075279Y-115937483D01*
X136081688Y-115877873D01*
X136081688Y-115834500D01*
X136101373Y-115767461D01*
X136154177Y-115721706D01*
X136205688Y-115710500D01*
X138575258Y-115710500D01*
X138642297Y-115730185D01*
X138662939Y-115746819D01*
X139163181Y-116247061D01*
X139196666Y-116308384D01*
X139199500Y-116334742D01*
X139199500Y-117817870D01*
X139199501Y-117817876D01*
X139205908Y-117877483D01*
X139256202Y-118012328D01*
X139256206Y-118012335D01*
X139342452Y-118127544D01*
X139342455Y-118127547D01*
X139457664Y-118213793D01*
X139457671Y-118213797D01*
X139592517Y-118264091D01*
X139592516Y-118264091D01*
X139599444Y-118264835D01*
X139652127Y-118270500D01*
X141547872Y-118270499D01*
X141607483Y-118264091D01*
X141742331Y-118213796D01*
X141857546Y-118127546D01*
X141943796Y-118012331D01*
X141994091Y-117877483D01*
X142000500Y-117817873D01*
X142000499Y-115922128D01*
X141994091Y-115862517D01*
X141983641Y-115834500D01*
X141943797Y-115727671D01*
X141943793Y-115727664D01*
X141857547Y-115612455D01*
X141857544Y-115612452D01*
X141742335Y-115526206D01*
X141742328Y-115526202D01*
X141662094Y-115496277D01*
X141606160Y-115454406D01*
X141581743Y-115388941D01*
X141596595Y-115320668D01*
X141614190Y-115296121D01*
X141708979Y-115193153D01*
X141835924Y-114998849D01*
X141929157Y-114786300D01*
X141986134Y-114561305D01*
X141987915Y-114539815D01*
X142005300Y-114330006D01*
X142005300Y-114329993D01*
X141986135Y-114098702D01*
X141986133Y-114098691D01*
X141929157Y-113873699D01*
X141835924Y-113661151D01*
X141708983Y-113466852D01*
X141708980Y-113466849D01*
X141708979Y-113466847D01*
X141551784Y-113296087D01*
X141551779Y-113296083D01*
X141551777Y-113296081D01*
X141368634Y-113153535D01*
X141368628Y-113153531D01*
X141164504Y-113043064D01*
X141164495Y-113043061D01*
X140944984Y-112967702D01*
X140773282Y-112939050D01*
X140716049Y-112929500D01*
X140483951Y-112929500D01*
X140455309Y-112934279D01*
X140255018Y-112967701D01*
X140176782Y-112994560D01*
X140106983Y-112997709D01*
X140048839Y-112964959D01*
X139858367Y-112774487D01*
X139858365Y-112774485D01*
X139792750Y-112736602D01*
X139727136Y-112698719D01*
X139653950Y-112679109D01*
X139580766Y-112659500D01*
X139580765Y-112659500D01*
X136195687Y-112659500D01*
X136128648Y-112639815D01*
X136082893Y-112587011D01*
X136071687Y-112535500D01*
X136071687Y-112492129D01*
X136071686Y-112492123D01*
X136065279Y-112432516D01*
X136014985Y-112297671D01*
X136014981Y-112297664D01*
X135928735Y-112182455D01*
X135928732Y-112182452D01*
X135813523Y-112096206D01*
X135813516Y-112096202D01*
X135678670Y-112045908D01*
X135678671Y-112045908D01*
X135619071Y-112039501D01*
X135619069Y-112039500D01*
X135619061Y-112039500D01*
X135619052Y-112039500D01*
X134563317Y-112039500D01*
X134563311Y-112039501D01*
X134503704Y-112045908D01*
X134368859Y-112096202D01*
X134368854Y-112096205D01*
X134355496Y-112106205D01*
X134290031Y-112130620D01*
X134221759Y-112115767D01*
X134206880Y-112106205D01*
X134193521Y-112096205D01*
X134193516Y-112096202D01*
X134058670Y-112045908D01*
X134058671Y-112045908D01*
X133999071Y-112039501D01*
X133999069Y-112039500D01*
X133999061Y-112039500D01*
X133999053Y-112039500D01*
X133074017Y-112039500D01*
X133026566Y-112030062D01*
X133023322Y-112028718D01*
X132907441Y-111997669D01*
X132876954Y-111989500D01*
X132876953Y-111989500D01*
X132448925Y-111989500D01*
X132381886Y-111969815D01*
X132336131Y-111917011D01*
X132326187Y-111847853D01*
X132332743Y-111822166D01*
X132368097Y-111727376D01*
X132368098Y-111727372D01*
X132374499Y-111667844D01*
X132374500Y-111667827D01*
X132374500Y-111405940D01*
X132394185Y-111338901D01*
X132446989Y-111293146D01*
X132516147Y-111283202D01*
X132579703Y-111312227D01*
X132586181Y-111318259D01*
X132697738Y-111429816D01*
X132765687Y-111472511D01*
X132849723Y-111525315D01*
X132850478Y-111525789D01*
X133011860Y-111582259D01*
X133020745Y-111585368D01*
X133020750Y-111585369D01*
X133199996Y-111605565D01*
X133200000Y-111605565D01*
X133200004Y-111605565D01*
X133379249Y-111585369D01*
X133379252Y-111585368D01*
X133379255Y-111585368D01*
X133549522Y-111525789D01*
X133702262Y-111429816D01*
X133829816Y-111302262D01*
X133925789Y-111149522D01*
X133985368Y-110979255D01*
X133985476Y-110978296D01*
X134005565Y-110800003D01*
X134005565Y-110799996D01*
X133985369Y-110620750D01*
X133985368Y-110620745D01*
X133979708Y-110604570D01*
X133925789Y-110450478D01*
X133847184Y-110325380D01*
X133828185Y-110258145D01*
X133832403Y-110227322D01*
X133835500Y-110215766D01*
X133835500Y-110064233D01*
X133835500Y-109148159D01*
X133855185Y-109081120D01*
X133888373Y-109046587D01*
X134029379Y-108947854D01*
X134095583Y-108925528D01*
X134163350Y-108942538D01*
X134211163Y-108993486D01*
X134224500Y-109049430D01*
X134224500Y-109344234D01*
X134224500Y-109495766D01*
X134226241Y-109502262D01*
X134263719Y-109642136D01*
X134298433Y-109702262D01*
X134339485Y-109773365D01*
X134339487Y-109773367D01*
X135364808Y-110798688D01*
X135398293Y-110860011D01*
X135400347Y-110872485D01*
X135414630Y-110999249D01*
X135474210Y-111169521D01*
X135557617Y-111302262D01*
X135570184Y-111322262D01*
X135697738Y-111449816D01*
X135767189Y-111493455D01*
X135818646Y-111525788D01*
X135850478Y-111545789D01*
X135995076Y-111596386D01*
X136020745Y-111605368D01*
X136020750Y-111605369D01*
X136199996Y-111625565D01*
X136200000Y-111625565D01*
X136200004Y-111625565D01*
X136379249Y-111605369D01*
X136379252Y-111605368D01*
X136379255Y-111605368D01*
X136549522Y-111545789D01*
X136702262Y-111449816D01*
X136829816Y-111322262D01*
X136925789Y-111169522D01*
X136985368Y-110999255D01*
X136985404Y-110998938D01*
X137005565Y-110820003D01*
X137005565Y-110819996D01*
X136985369Y-110640750D01*
X136985368Y-110640745D01*
X136977453Y-110618125D01*
X136925789Y-110470478D01*
X136925174Y-110469500D01*
X136849350Y-110348826D01*
X136829816Y-110317738D01*
X136702262Y-110190184D01*
X136670432Y-110170184D01*
X136549521Y-110094210D01*
X136379249Y-110034630D01*
X136252485Y-110020347D01*
X136188071Y-109993280D01*
X136178688Y-109984808D01*
X135612586Y-109418706D01*
X135579101Y-109357383D01*
X135584085Y-109287691D01*
X135625957Y-109231758D01*
X135691421Y-109207341D01*
X135711071Y-109207496D01*
X135778901Y-109213431D01*
X135799999Y-109215277D01*
X135800000Y-109215277D01*
X135800002Y-109215277D01*
X135828254Y-109212805D01*
X136017977Y-109196207D01*
X136229330Y-109139575D01*
X136427639Y-109047102D01*
X136606877Y-108921598D01*
X136606886Y-108921589D01*
X136611027Y-108918116D01*
X136611784Y-108919018D01*
X136667969Y-108888329D01*
X136737661Y-108893304D01*
X136793601Y-108935168D01*
X136811157Y-108973092D01*
X136812332Y-108972682D01*
X136874211Y-109149523D01*
X136943677Y-109260076D01*
X136970184Y-109302262D01*
X137097738Y-109429816D01*
X137188080Y-109486582D01*
X137205833Y-109497737D01*
X137250478Y-109525789D01*
X137384196Y-109572579D01*
X137420745Y-109585368D01*
X137420750Y-109585369D01*
X137599996Y-109605565D01*
X137600000Y-109605565D01*
X137600004Y-109605565D01*
X137779249Y-109585369D01*
X137779252Y-109585368D01*
X137779255Y-109585368D01*
X137949522Y-109525789D01*
X138102262Y-109429816D01*
X138229816Y-109302262D01*
X138325789Y-109149522D01*
X138385368Y-108979255D01*
X138385659Y-108976673D01*
X138405565Y-108800003D01*
X138405565Y-108799996D01*
X138385369Y-108620750D01*
X138385366Y-108620738D01*
X138336122Y-108480008D01*
X138325789Y-108450478D01*
X138307106Y-108420745D01*
X138269965Y-108361635D01*
X138229816Y-108297738D01*
X138211819Y-108279741D01*
X138178334Y-108218418D01*
X138175500Y-108192060D01*
X138175500Y-108124236D01*
X138175500Y-108124234D01*
X138136281Y-107977865D01*
X138103911Y-107921799D01*
X138087300Y-107859801D01*
X138087300Y-107117515D01*
X138106985Y-107050476D01*
X138159789Y-107004721D01*
X138167967Y-107001333D01*
X138171541Y-107000000D01*
X138254131Y-106969196D01*
X138369346Y-106882946D01*
X138369348Y-106882942D01*
X138374119Y-106878173D01*
X138435442Y-106844688D01*
X138505134Y-106849672D01*
X138549481Y-106878173D01*
X138554255Y-106882947D01*
X138669464Y-106969193D01*
X138669471Y-106969197D01*
X138804317Y-107019491D01*
X138804316Y-107019491D01*
X138811244Y-107020235D01*
X138863927Y-107025900D01*
X139959672Y-107025899D01*
X140019283Y-107019491D01*
X140154131Y-106969196D01*
X140215320Y-106923389D01*
X140280783Y-106898972D01*
X140349056Y-106913823D01*
X140398462Y-106963228D01*
X140413315Y-107031500D01*
X140412851Y-107036539D01*
X140394435Y-107199995D01*
X140394435Y-107200003D01*
X140414630Y-107379249D01*
X140414631Y-107379254D01*
X140474211Y-107549523D01*
X140540228Y-107654587D01*
X140570184Y-107702262D01*
X140697738Y-107829816D01*
X140736227Y-107854000D01*
X140844129Y-107921800D01*
X140850478Y-107925789D01*
X140977352Y-107970184D01*
X141020745Y-107985368D01*
X141020750Y-107985369D01*
X141199996Y-108005565D01*
X141200000Y-108005565D01*
X141200004Y-108005565D01*
X141379249Y-107985369D01*
X141379252Y-107985368D01*
X141379255Y-107985368D01*
X141549522Y-107925789D01*
X141702262Y-107829816D01*
X141829816Y-107702262D01*
X141925789Y-107549522D01*
X141985368Y-107379255D01*
X141985599Y-107377204D01*
X142005565Y-107200003D01*
X142005565Y-107199996D01*
X141985369Y-107020753D01*
X141985368Y-107020747D01*
X141985368Y-107020745D01*
X141974332Y-106989208D01*
X141970772Y-106919431D01*
X142005501Y-106858804D01*
X142067495Y-106826577D01*
X142137070Y-106832983D01*
G37*
%TD.AperFunction*%
%TA.AperFunction,Conductor*%
G36*
X132057865Y-108385041D02*
G01*
X132102381Y-108436414D01*
X132172898Y-108587639D01*
X132298402Y-108766877D01*
X132453123Y-108921598D01*
X132631625Y-109046586D01*
X132675248Y-109101161D01*
X132684500Y-109148159D01*
X132684500Y-109908645D01*
X132667889Y-109970643D01*
X132663719Y-109977865D01*
X132624500Y-110124234D01*
X132624500Y-110192060D01*
X132604815Y-110259099D01*
X132588181Y-110279741D01*
X132570184Y-110297737D01*
X132474209Y-110450480D01*
X132434445Y-110564119D01*
X132393724Y-110620895D01*
X132328771Y-110646642D01*
X132260209Y-110633186D01*
X132239095Y-110617713D01*
X132238788Y-110618125D01*
X132116593Y-110526649D01*
X132116586Y-110526645D01*
X131981879Y-110476403D01*
X131981872Y-110476401D01*
X131922344Y-110470000D01*
X131362000Y-110470000D01*
X131362000Y-111421000D01*
X131342315Y-111488039D01*
X131289511Y-111533794D01*
X131238000Y-111545000D01*
X130986000Y-111545000D01*
X130918961Y-111525315D01*
X130873206Y-111472511D01*
X130862000Y-111421000D01*
X130862000Y-110470000D01*
X130301655Y-110470000D01*
X130242127Y-110476401D01*
X130242120Y-110476403D01*
X130107413Y-110526645D01*
X130107406Y-110526649D01*
X129992312Y-110612809D01*
X129987181Y-110617941D01*
X129925858Y-110651426D01*
X129856166Y-110646442D01*
X129800233Y-110604570D01*
X129775816Y-110539106D01*
X129775500Y-110530260D01*
X129775500Y-109063434D01*
X129795185Y-108996395D01*
X129847989Y-108950640D01*
X129917147Y-108940696D01*
X129970621Y-108961859D01*
X130092361Y-109047102D01*
X130290670Y-109139575D01*
X130502023Y-109196207D01*
X130684926Y-109212208D01*
X130719998Y-109215277D01*
X130720000Y-109215277D01*
X130720002Y-109215277D01*
X130748254Y-109212805D01*
X130937977Y-109196207D01*
X131149330Y-109139575D01*
X131347639Y-109047102D01*
X131526877Y-108921598D01*
X131681598Y-108766877D01*
X131807102Y-108587639D01*
X131877618Y-108436414D01*
X131923790Y-108383977D01*
X131990984Y-108364825D01*
X132057865Y-108385041D01*
G37*
%TD.AperFunction*%
%TA.AperFunction,Conductor*%
G36*
X100743045Y-108720185D02*
G01*
X100788800Y-108772989D01*
X100797839Y-108808843D01*
X100798970Y-108808695D01*
X100800557Y-108820750D01*
X100813833Y-108921593D01*
X100814313Y-108925235D01*
X100814313Y-108925236D01*
X100871556Y-109063434D01*
X100872302Y-109065233D01*
X100964549Y-109185451D01*
X101084767Y-109277698D01*
X101224764Y-109335687D01*
X101329513Y-109349477D01*
X101393409Y-109377743D01*
X101431880Y-109436068D01*
X101432711Y-109505932D01*
X101395639Y-109565156D01*
X101354282Y-109589457D01*
X101214604Y-109638333D01*
X101061861Y-109734308D01*
X100934308Y-109861861D01*
X100838335Y-110014600D01*
X100778755Y-110184869D01*
X100778754Y-110184873D01*
X100765638Y-110301289D01*
X100738571Y-110365703D01*
X100680977Y-110405258D01*
X100656302Y-110410625D01*
X100613826Y-110415411D01*
X100613483Y-110412371D01*
X100557117Y-110408711D01*
X100512007Y-110379929D01*
X100502262Y-110370184D01*
X100349523Y-110274211D01*
X100179254Y-110214631D01*
X100179249Y-110214630D01*
X100000004Y-110194435D01*
X99999996Y-110194435D01*
X99820750Y-110214630D01*
X99820745Y-110214631D01*
X99650476Y-110274211D01*
X99497734Y-110370186D01*
X99497732Y-110370187D01*
X99487988Y-110379932D01*
X99426664Y-110413415D01*
X99386418Y-110413248D01*
X99386175Y-110415411D01*
X99200004Y-110394435D01*
X99199997Y-110394435D01*
X99090336Y-110406791D01*
X99021514Y-110394737D01*
X98988771Y-110371252D01*
X98966343Y-110348824D01*
X98813604Y-110252851D01*
X98643335Y-110193271D01*
X98643330Y-110193270D01*
X98464085Y-110173075D01*
X98464077Y-110173075D01*
X98284831Y-110193270D01*
X98284826Y-110193271D01*
X98114557Y-110252851D01*
X97961815Y-110348826D01*
X97946662Y-110363979D01*
X97885338Y-110397463D01*
X97845100Y-110399516D01*
X97800003Y-110394435D01*
X97799996Y-110394435D01*
X97620746Y-110414631D01*
X97620742Y-110414632D01*
X97617767Y-110415673D01*
X97615726Y-110415777D01*
X97613956Y-110416181D01*
X97613885Y-110415870D01*
X97547988Y-110419229D01*
X97487363Y-110384495D01*
X97471828Y-110364600D01*
X97469100Y-110360258D01*
X97429816Y-110297738D01*
X97338687Y-110206609D01*
X97305202Y-110145286D01*
X97310186Y-110075594D01*
X97352058Y-110019661D01*
X97412485Y-109995708D01*
X97504250Y-109985369D01*
X97504253Y-109985368D01*
X97504255Y-109985368D01*
X97674522Y-109925789D01*
X97827262Y-109829816D01*
X97954816Y-109702262D01*
X98050789Y-109549522D01*
X98110368Y-109379255D01*
X98110369Y-109379249D01*
X98120919Y-109285616D01*
X98147985Y-109221202D01*
X98205580Y-109181647D01*
X98244139Y-109175499D01*
X98657871Y-109175499D01*
X98657872Y-109175499D01*
X98717483Y-109169091D01*
X98852331Y-109118796D01*
X98967546Y-109032546D01*
X99053796Y-108917331D01*
X99094315Y-108808695D01*
X99104582Y-108781167D01*
X99146453Y-108725233D01*
X99211917Y-108700816D01*
X99220764Y-108700500D01*
X100676006Y-108700500D01*
X100743045Y-108720185D01*
G37*
%TD.AperFunction*%
%TA.AperFunction,Conductor*%
G36*
X108978298Y-102245185D02*
G01*
X109024053Y-102297989D01*
X109033997Y-102367147D01*
X109004972Y-102430703D01*
X108998940Y-102437181D01*
X107939487Y-103496633D01*
X107939485Y-103496636D01*
X107863719Y-103627864D01*
X107824500Y-103774235D01*
X107824500Y-104392060D01*
X107804815Y-104459099D01*
X107788181Y-104479741D01*
X107770184Y-104497737D01*
X107674211Y-104650476D01*
X107614631Y-104820745D01*
X107614630Y-104820750D01*
X107594435Y-104999996D01*
X107594435Y-105000003D01*
X107614630Y-105179249D01*
X107614631Y-105179254D01*
X107674211Y-105349523D01*
X107688525Y-105372303D01*
X107770184Y-105502262D01*
X107897738Y-105629816D01*
X107970229Y-105675365D01*
X108046322Y-105723178D01*
X108050478Y-105725789D01*
X108177352Y-105770184D01*
X108220745Y-105785368D01*
X108220750Y-105785369D01*
X108279609Y-105792000D01*
X108314382Y-105795918D01*
X108378796Y-105822984D01*
X108418352Y-105880578D01*
X108424500Y-105919138D01*
X108424500Y-105992060D01*
X108404815Y-106059099D01*
X108388181Y-106079741D01*
X108370184Y-106097737D01*
X108274211Y-106250476D01*
X108214631Y-106420745D01*
X108214630Y-106420749D01*
X108210043Y-106461466D01*
X108182976Y-106525880D01*
X108125381Y-106565435D01*
X108055544Y-106567572D01*
X107999142Y-106535263D01*
X107003366Y-105539487D01*
X107003364Y-105539485D01*
X106937749Y-105501602D01*
X106872135Y-105463719D01*
X106798949Y-105444109D01*
X106725765Y-105424500D01*
X106725764Y-105424500D01*
X106089742Y-105424500D01*
X106022703Y-105404815D01*
X106002061Y-105388181D01*
X105635190Y-105021310D01*
X105601705Y-104959987D01*
X105599651Y-104947512D01*
X105585369Y-104820750D01*
X105585368Y-104820745D01*
X105525788Y-104650475D01*
X105488051Y-104590418D01*
X105469050Y-104523181D01*
X105489417Y-104456346D01*
X105505363Y-104436764D01*
X106591728Y-103350400D01*
X107680309Y-102261819D01*
X107741632Y-102228334D01*
X107767990Y-102225500D01*
X108911259Y-102225500D01*
X108978298Y-102245185D01*
G37*
%TD.AperFunction*%
%TA.AperFunction,Conductor*%
G36*
X97176478Y-105156612D02*
G01*
X97227865Y-105186281D01*
X97374233Y-105225500D01*
X97374234Y-105225500D01*
X98061258Y-105225500D01*
X98128297Y-105245185D01*
X98174052Y-105297989D01*
X98183996Y-105367147D01*
X98154971Y-105430703D01*
X98148939Y-105437181D01*
X97964988Y-105621131D01*
X97918264Y-105650491D01*
X97850469Y-105674214D01*
X97850452Y-105674223D01*
X97850439Y-105674225D01*
X97843907Y-105676511D01*
X97843506Y-105675365D01*
X97781508Y-105685564D01*
X97717378Y-105657831D01*
X97700816Y-105641160D01*
X97699864Y-105640000D01*
X96896988Y-105640000D01*
X96914205Y-105630060D01*
X96970060Y-105574205D01*
X97009556Y-105505796D01*
X97030000Y-105429496D01*
X97030000Y-105350504D01*
X97009556Y-105274204D01*
X96970060Y-105205795D01*
X96914205Y-105149940D01*
X96896988Y-105140000D01*
X97114479Y-105140000D01*
X97176478Y-105156612D01*
G37*
%TD.AperFunction*%
%TA.AperFunction,Conductor*%
G36*
X137594339Y-101045584D02*
G01*
X137640094Y-101098388D01*
X137651300Y-101149899D01*
X137651300Y-102423270D01*
X137651301Y-102423276D01*
X137657708Y-102482883D01*
X137708002Y-102617728D01*
X137708004Y-102617731D01*
X137710977Y-102621703D01*
X137722066Y-102636515D01*
X137746484Y-102701979D01*
X137746800Y-102710827D01*
X137746800Y-103600400D01*
X138296800Y-103600400D01*
X138296800Y-103177572D01*
X138296799Y-103177555D01*
X138290398Y-103118027D01*
X138290397Y-103118023D01*
X138262502Y-103043233D01*
X138257518Y-102973541D01*
X138291003Y-102912218D01*
X138352326Y-102878733D01*
X138378678Y-102875899D01*
X138524383Y-102875899D01*
X138591421Y-102895584D01*
X138637176Y-102948388D01*
X138647120Y-103017546D01*
X138640564Y-103043231D01*
X138612709Y-103117914D01*
X138612708Y-103117916D01*
X138606301Y-103177516D01*
X138606300Y-103177535D01*
X138606300Y-104523270D01*
X138606301Y-104523276D01*
X138613538Y-104590596D01*
X138611827Y-104590779D01*
X138608593Y-104651075D01*
X138567724Y-104707745D01*
X138565969Y-104709083D01*
X138554254Y-104717852D01*
X138549481Y-104722626D01*
X138488158Y-104756111D01*
X138418466Y-104751127D01*
X138374119Y-104722626D01*
X138369348Y-104717855D01*
X138339363Y-104695408D01*
X138297493Y-104639474D01*
X138290386Y-104582885D01*
X138296799Y-104523241D01*
X138296800Y-104523227D01*
X138296800Y-104100400D01*
X137370800Y-104100400D01*
X137303761Y-104080715D01*
X137258006Y-104027911D01*
X137246800Y-103976400D01*
X137246800Y-102725400D01*
X137148955Y-102725400D01*
X137112756Y-102729293D01*
X137043996Y-102716888D01*
X136992859Y-102669278D01*
X136975500Y-102606004D01*
X136975500Y-101607940D01*
X136995185Y-101540901D01*
X137011819Y-101520259D01*
X137029816Y-101502262D01*
X137125789Y-101349522D01*
X137185368Y-101179255D01*
X137185368Y-101179253D01*
X137185369Y-101179251D01*
X137190240Y-101136017D01*
X137217306Y-101071603D01*
X137274900Y-101032047D01*
X137313460Y-101025899D01*
X137527300Y-101025899D01*
X137594339Y-101045584D01*
G37*
%TD.AperFunction*%
%TA.AperFunction,Conductor*%
G36*
X140349621Y-100913401D02*
G01*
X140353944Y-100916179D01*
X140359471Y-100919197D01*
X140396085Y-100932853D01*
X140494317Y-100969491D01*
X140553927Y-100975900D01*
X141127300Y-100975899D01*
X141194339Y-100995583D01*
X141240094Y-101048387D01*
X141251300Y-101099899D01*
X141251300Y-102373270D01*
X141251301Y-102373276D01*
X141257708Y-102432883D01*
X141308002Y-102567728D01*
X141308004Y-102567731D01*
X141322066Y-102586515D01*
X141346484Y-102651979D01*
X141346800Y-102660827D01*
X141346800Y-103550400D01*
X141896800Y-103550400D01*
X141896800Y-103127572D01*
X141896799Y-103127555D01*
X141890398Y-103068027D01*
X141890397Y-103068023D01*
X141862502Y-102993233D01*
X141857518Y-102923541D01*
X141891003Y-102862218D01*
X141952326Y-102828733D01*
X141978678Y-102825899D01*
X142124383Y-102825899D01*
X142191421Y-102845584D01*
X142237176Y-102898388D01*
X142247120Y-102967546D01*
X142240564Y-102993231D01*
X142212709Y-103067914D01*
X142212708Y-103067916D01*
X142206301Y-103127516D01*
X142206300Y-103127535D01*
X142206300Y-104473270D01*
X142206301Y-104473276D01*
X142213492Y-104540168D01*
X142201085Y-104608927D01*
X142164513Y-104652688D01*
X142144250Y-104667856D01*
X142139481Y-104672626D01*
X142078158Y-104706111D01*
X142008466Y-104701127D01*
X141964123Y-104672630D01*
X141959349Y-104667856D01*
X141938618Y-104652337D01*
X141896748Y-104596403D01*
X141889641Y-104539814D01*
X141896799Y-104473241D01*
X141896800Y-104473227D01*
X141896800Y-104050400D01*
X140970800Y-104050400D01*
X140903761Y-104030715D01*
X140858006Y-103977911D01*
X140846800Y-103926400D01*
X140846800Y-102675400D01*
X140748955Y-102675400D01*
X140689427Y-102681801D01*
X140689420Y-102681803D01*
X140554713Y-102732045D01*
X140554706Y-102732049D01*
X140439612Y-102818209D01*
X140439609Y-102818212D01*
X140353449Y-102933306D01*
X140353442Y-102933320D01*
X140352956Y-102934623D01*
X140352123Y-102935735D01*
X140349196Y-102941096D01*
X140348424Y-102940674D01*
X140311080Y-102990553D01*
X140245614Y-103014965D01*
X140177342Y-103000107D01*
X140137513Y-102965593D01*
X140064346Y-102867854D01*
X140030017Y-102842155D01*
X139949135Y-102781606D01*
X139949128Y-102781602D01*
X139814282Y-102731308D01*
X139814283Y-102731308D01*
X139754683Y-102724901D01*
X139754681Y-102724900D01*
X139754673Y-102724900D01*
X139754665Y-102724900D01*
X139334218Y-102724900D01*
X139267179Y-102705215D01*
X139221424Y-102652411D01*
X139211480Y-102583253D01*
X139218036Y-102557567D01*
X139230501Y-102524143D01*
X139245891Y-102482883D01*
X139252300Y-102423273D01*
X139252299Y-101149898D01*
X139271984Y-101082860D01*
X139324787Y-101037105D01*
X139376299Y-101025899D01*
X139959671Y-101025899D01*
X139959672Y-101025899D01*
X140019283Y-101019491D01*
X140154131Y-100969196D01*
X140215884Y-100922967D01*
X140281347Y-100898550D01*
X140349621Y-100913401D01*
G37*
%TD.AperFunction*%
%TA.AperFunction,Conductor*%
G36*
X112295704Y-100014845D02*
G01*
X112297199Y-100014997D01*
X112297203Y-100014999D01*
X112399991Y-100025500D01*
X113400008Y-100025499D01*
X113487900Y-100016520D01*
X113556590Y-100029289D01*
X113607475Y-100077170D01*
X113624500Y-100139878D01*
X113624500Y-100192060D01*
X113604815Y-100259099D01*
X113588181Y-100279741D01*
X113570184Y-100297737D01*
X113474211Y-100450476D01*
X113414631Y-100620745D01*
X113414630Y-100620750D01*
X113394435Y-100799996D01*
X113394435Y-100800003D01*
X113414630Y-100979249D01*
X113414631Y-100979254D01*
X113474211Y-101149523D01*
X113537646Y-101250478D01*
X113570184Y-101302262D01*
X113697738Y-101429816D01*
X113788080Y-101486582D01*
X113805833Y-101497737D01*
X113850478Y-101525789D01*
X114003258Y-101579249D01*
X114020745Y-101585368D01*
X114020750Y-101585369D01*
X114199996Y-101605565D01*
X114200000Y-101605565D01*
X114200004Y-101605565D01*
X114379249Y-101585369D01*
X114379252Y-101585368D01*
X114379255Y-101585368D01*
X114549522Y-101525789D01*
X114702262Y-101429816D01*
X114829816Y-101302262D01*
X114925789Y-101149522D01*
X114985368Y-100979255D01*
X114985746Y-100975899D01*
X114996630Y-100879304D01*
X115023696Y-100814890D01*
X115081291Y-100775335D01*
X115133104Y-100769898D01*
X115188927Y-100775900D01*
X115772300Y-100775899D01*
X115839339Y-100795583D01*
X115885094Y-100848387D01*
X115896300Y-100899899D01*
X115896300Y-102173270D01*
X115896301Y-102173276D01*
X115902708Y-102232883D01*
X115953002Y-102367728D01*
X115953004Y-102367731D01*
X115957150Y-102373270D01*
X115967066Y-102386515D01*
X115991484Y-102451979D01*
X115991800Y-102460827D01*
X115991800Y-103350400D01*
X116541800Y-103350400D01*
X116541800Y-102927572D01*
X116541799Y-102927555D01*
X116535398Y-102868027D01*
X116535397Y-102868023D01*
X116507502Y-102793233D01*
X116502518Y-102723541D01*
X116536003Y-102662218D01*
X116597326Y-102628733D01*
X116623678Y-102625899D01*
X116769383Y-102625899D01*
X116836421Y-102645584D01*
X116882176Y-102698388D01*
X116892120Y-102767546D01*
X116885564Y-102793231D01*
X116857709Y-102867914D01*
X116857708Y-102867916D01*
X116851597Y-102924764D01*
X116851301Y-102927523D01*
X116851300Y-102927535D01*
X116851300Y-104273270D01*
X116851301Y-104273276D01*
X116857747Y-104333239D01*
X116845340Y-104401998D01*
X116808771Y-104445756D01*
X116779252Y-104467855D01*
X116774477Y-104472630D01*
X116713153Y-104506112D01*
X116643461Y-104501125D01*
X116599123Y-104472630D01*
X116594351Y-104467858D01*
X116590683Y-104465112D01*
X116582187Y-104458752D01*
X116540318Y-104402820D01*
X116535870Y-104340627D01*
X116534569Y-104340488D01*
X116535344Y-104333275D01*
X116535334Y-104333128D01*
X116535384Y-104332907D01*
X116541799Y-104273244D01*
X116541800Y-104273227D01*
X116541800Y-103850400D01*
X115615800Y-103850400D01*
X115548761Y-103830715D01*
X115503006Y-103777911D01*
X115491800Y-103726400D01*
X115491800Y-102475400D01*
X115393955Y-102475400D01*
X115334427Y-102481801D01*
X115334420Y-102481803D01*
X115199713Y-102532045D01*
X115199706Y-102532049D01*
X115084612Y-102618209D01*
X115084609Y-102618212D01*
X114998449Y-102733306D01*
X114998445Y-102733313D01*
X114948203Y-102868020D01*
X114948201Y-102868027D01*
X114941800Y-102927555D01*
X114941800Y-102970665D01*
X114922115Y-103037704D01*
X114869311Y-103083459D01*
X114800153Y-103093403D01*
X114755841Y-103077134D01*
X114755795Y-103077231D01*
X114754801Y-103076752D01*
X114751834Y-103075663D01*
X114749523Y-103074211D01*
X114579254Y-103014631D01*
X114579249Y-103014630D01*
X114400004Y-102994435D01*
X114399996Y-102994435D01*
X114220750Y-103014630D01*
X114220743Y-103014632D01*
X114199952Y-103021907D01*
X114130173Y-103025467D01*
X114069546Y-102990736D01*
X114037321Y-102928742D01*
X114035000Y-102904864D01*
X114035000Y-102842172D01*
X114034999Y-102842155D01*
X114028598Y-102782627D01*
X114028596Y-102782620D01*
X113978354Y-102647913D01*
X113978350Y-102647906D01*
X113892190Y-102532812D01*
X113892187Y-102532809D01*
X113777093Y-102446649D01*
X113777086Y-102446645D01*
X113642379Y-102396403D01*
X113642372Y-102396401D01*
X113582844Y-102390000D01*
X113050000Y-102390000D01*
X113050000Y-103526000D01*
X113030315Y-103593039D01*
X112977511Y-103638794D01*
X112926000Y-103650000D01*
X112674000Y-103650000D01*
X112606961Y-103630315D01*
X112561206Y-103577511D01*
X112550000Y-103526000D01*
X112550000Y-102390000D01*
X112274500Y-102390000D01*
X112207461Y-102370315D01*
X112161706Y-102317511D01*
X112150500Y-102266000D01*
X112150500Y-102037286D01*
X112150500Y-102037280D01*
X112135687Y-101924764D01*
X112135686Y-101924763D01*
X112134626Y-101916705D01*
X112137689Y-101916301D01*
X112137689Y-101883698D01*
X112134626Y-101883295D01*
X112139453Y-101846632D01*
X112150500Y-101762720D01*
X112150500Y-101537280D01*
X112135687Y-101424764D01*
X112135686Y-101424763D01*
X112134626Y-101416705D01*
X112137689Y-101416301D01*
X112137689Y-101383698D01*
X112134626Y-101383295D01*
X112144339Y-101309514D01*
X112150500Y-101262720D01*
X112150500Y-101037280D01*
X112135687Y-100924764D01*
X112135686Y-100924763D01*
X112134626Y-100916705D01*
X112137689Y-100916301D01*
X112137689Y-100883698D01*
X112134626Y-100883295D01*
X112138946Y-100850478D01*
X112150500Y-100762720D01*
X112150500Y-100537280D01*
X112135687Y-100424764D01*
X112135686Y-100424763D01*
X112134626Y-100416705D01*
X112137689Y-100416301D01*
X112137689Y-100383698D01*
X112134626Y-100383295D01*
X112137547Y-100361108D01*
X112150500Y-100262720D01*
X112150500Y-100136948D01*
X112170185Y-100069909D01*
X112222989Y-100024154D01*
X112290454Y-100014453D01*
X112290469Y-100014311D01*
X112291039Y-100014369D01*
X112292147Y-100014210D01*
X112295704Y-100014845D01*
G37*
%TD.AperFunction*%
%TA.AperFunction,Conductor*%
G36*
X118546225Y-100684657D02*
G01*
X118561105Y-100694220D01*
X118594469Y-100719196D01*
X118594470Y-100719196D01*
X118594470Y-100719197D01*
X118630487Y-100732630D01*
X118729317Y-100769491D01*
X118788927Y-100775900D01*
X119382300Y-100775899D01*
X119449339Y-100795583D01*
X119495094Y-100848387D01*
X119506300Y-100899899D01*
X119506300Y-102173270D01*
X119506301Y-102173276D01*
X119512708Y-102232883D01*
X119563002Y-102367728D01*
X119563004Y-102367731D01*
X119567150Y-102373270D01*
X119577066Y-102386515D01*
X119601484Y-102451979D01*
X119601800Y-102460827D01*
X119601800Y-103350400D01*
X120151800Y-103350400D01*
X120151800Y-102927572D01*
X120151799Y-102927555D01*
X120145398Y-102868027D01*
X120145397Y-102868023D01*
X120117502Y-102793233D01*
X120112518Y-102723541D01*
X120146003Y-102662218D01*
X120207326Y-102628733D01*
X120233678Y-102625899D01*
X120379383Y-102625899D01*
X120446421Y-102645584D01*
X120492176Y-102698388D01*
X120502120Y-102767546D01*
X120495564Y-102793231D01*
X120467709Y-102867914D01*
X120467708Y-102867916D01*
X120461597Y-102924764D01*
X120461301Y-102927523D01*
X120461300Y-102927535D01*
X120461300Y-104273270D01*
X120461301Y-104273276D01*
X120467002Y-104326310D01*
X120454595Y-104395070D01*
X120418025Y-104438828D01*
X120379250Y-104467855D01*
X120374476Y-104472630D01*
X120313152Y-104506112D01*
X120243460Y-104501125D01*
X120199118Y-104472626D01*
X120194344Y-104467852D01*
X120190684Y-104465112D01*
X120148815Y-104409177D01*
X120143833Y-104339485D01*
X120144320Y-104337336D01*
X120145398Y-104332770D01*
X120151799Y-104273244D01*
X120151800Y-104273227D01*
X120151800Y-103850400D01*
X119225800Y-103850400D01*
X119158761Y-103830715D01*
X119113006Y-103777911D01*
X119101800Y-103726400D01*
X119101800Y-102475400D01*
X119003955Y-102475400D01*
X118944427Y-102481801D01*
X118944420Y-102481803D01*
X118809713Y-102532045D01*
X118809706Y-102532049D01*
X118694612Y-102618209D01*
X118694609Y-102618212D01*
X118603131Y-102740411D01*
X118600936Y-102738768D01*
X118561498Y-102778196D01*
X118493222Y-102793038D01*
X118427762Y-102768611D01*
X118402253Y-102739165D01*
X118400912Y-102740169D01*
X118309347Y-102617855D01*
X118309344Y-102617852D01*
X118194135Y-102531606D01*
X118194128Y-102531602D01*
X118059282Y-102481308D01*
X118059283Y-102481308D01*
X117999683Y-102474901D01*
X117999681Y-102474900D01*
X117999673Y-102474900D01*
X117999665Y-102474900D01*
X117579218Y-102474900D01*
X117512179Y-102455215D01*
X117466424Y-102402411D01*
X117456480Y-102333253D01*
X117463036Y-102307567D01*
X117478539Y-102266000D01*
X117490891Y-102232883D01*
X117497300Y-102173273D01*
X117497299Y-100899898D01*
X117516984Y-100832860D01*
X117569787Y-100787105D01*
X117621299Y-100775899D01*
X118184671Y-100775899D01*
X118184672Y-100775899D01*
X118244283Y-100769491D01*
X118278572Y-100756702D01*
X118379129Y-100719197D01*
X118379129Y-100719196D01*
X118379131Y-100719196D01*
X118412489Y-100694223D01*
X118477951Y-100669806D01*
X118546225Y-100684657D01*
G37*
%TD.AperFunction*%
%TA.AperFunction,Conductor*%
G36*
X109978501Y-96683600D02*
G01*
X110001139Y-96694788D01*
X110050479Y-96725790D01*
X110220737Y-96785366D01*
X110220742Y-96785367D01*
X110220745Y-96785368D01*
X110267823Y-96790672D01*
X110332236Y-96817737D01*
X110341621Y-96826211D01*
X110603983Y-97088574D01*
X110637468Y-97149897D01*
X110632484Y-97219589D01*
X110603986Y-97263934D01*
X110570185Y-97297736D01*
X110474211Y-97450476D01*
X110414631Y-97620745D01*
X110414630Y-97620749D01*
X110396440Y-97782194D01*
X110380608Y-97830308D01*
X110338721Y-97902860D01*
X110338719Y-97902864D01*
X110337451Y-97907598D01*
X110301084Y-97967257D01*
X110238236Y-97997784D01*
X110217677Y-97999500D01*
X110137272Y-97999500D01*
X110024764Y-98014313D01*
X110024763Y-98014313D01*
X109884770Y-98072300D01*
X109884767Y-98072301D01*
X109884767Y-98072302D01*
X109764549Y-98164549D01*
X109678709Y-98276418D01*
X109672300Y-98284770D01*
X109614313Y-98424763D01*
X109614313Y-98424764D01*
X109599500Y-98537272D01*
X109599500Y-98762727D01*
X109615374Y-98883292D01*
X109612399Y-98883683D01*
X109612399Y-98916316D01*
X109615374Y-98916708D01*
X109599500Y-99037272D01*
X109599500Y-99262727D01*
X109604729Y-99302440D01*
X109614055Y-99373280D01*
X109615374Y-99383292D01*
X109612399Y-99383683D01*
X109612399Y-99416316D01*
X109615374Y-99416708D01*
X109614313Y-99424762D01*
X109614313Y-99424764D01*
X109611324Y-99447466D01*
X109599500Y-99537272D01*
X109599500Y-99762727D01*
X109604677Y-99802045D01*
X109611930Y-99857139D01*
X109615374Y-99883292D01*
X109612399Y-99883683D01*
X109612399Y-99916316D01*
X109615374Y-99916708D01*
X109599500Y-100037272D01*
X109599500Y-100262727D01*
X109615374Y-100383292D01*
X109612399Y-100383683D01*
X109612399Y-100416316D01*
X109615374Y-100416708D01*
X109614313Y-100424762D01*
X109614313Y-100424764D01*
X109610938Y-100450393D01*
X109599500Y-100537272D01*
X109599500Y-100762727D01*
X109615374Y-100883292D01*
X109612399Y-100883683D01*
X109612399Y-100916316D01*
X109615374Y-100916708D01*
X109614313Y-100924762D01*
X109614313Y-100924764D01*
X109609676Y-100959987D01*
X109608794Y-100966686D01*
X109580527Y-101030582D01*
X109522203Y-101069053D01*
X109485855Y-101074500D01*
X109056820Y-101074500D01*
X108989781Y-101054815D01*
X108944026Y-101002011D01*
X108934082Y-100932853D01*
X108939778Y-100909546D01*
X108978776Y-100798094D01*
X108985368Y-100779255D01*
X108985746Y-100775899D01*
X109005565Y-100600003D01*
X109005565Y-100599996D01*
X108985369Y-100420750D01*
X108985368Y-100420745D01*
X108942326Y-100297738D01*
X108925789Y-100250478D01*
X108921355Y-100243422D01*
X108875337Y-100170184D01*
X108829816Y-100097738D01*
X108702262Y-99970184D01*
X108616508Y-99916301D01*
X108549523Y-99874211D01*
X108379254Y-99814631D01*
X108379249Y-99814630D01*
X108200004Y-99794435D01*
X108199996Y-99794435D01*
X108020746Y-99814631D01*
X108020745Y-99814631D01*
X107972804Y-99831406D01*
X107903025Y-99834967D01*
X107844170Y-99802045D01*
X107518212Y-99476087D01*
X107484727Y-99414764D01*
X107489711Y-99345072D01*
X107531583Y-99289139D01*
X107597047Y-99264722D01*
X107619775Y-99265185D01*
X107666175Y-99270414D01*
X107756275Y-99280566D01*
X107756278Y-99280566D01*
X107756282Y-99280566D01*
X107935527Y-99260370D01*
X107935530Y-99260369D01*
X107935533Y-99260369D01*
X108105800Y-99200790D01*
X108258540Y-99104817D01*
X108321752Y-99041604D01*
X108383072Y-99008120D01*
X108395549Y-99006066D01*
X108399997Y-99005564D01*
X108400000Y-99005565D01*
X108501623Y-98994115D01*
X108579250Y-98985369D01*
X108579253Y-98985368D01*
X108579255Y-98985368D01*
X108749522Y-98925789D01*
X108902262Y-98829816D01*
X109029816Y-98702262D01*
X109125789Y-98549522D01*
X109185368Y-98379255D01*
X109187139Y-98363536D01*
X109205565Y-98200003D01*
X109205565Y-98199996D01*
X109191591Y-98075972D01*
X109203646Y-98007151D01*
X109250995Y-97955771D01*
X109267351Y-97947531D01*
X109315233Y-97927698D01*
X109435451Y-97835451D01*
X109527698Y-97715233D01*
X109585687Y-97575236D01*
X109600500Y-97462720D01*
X109600500Y-97010451D01*
X109620185Y-96943412D01*
X109636815Y-96922774D01*
X109847489Y-96712099D01*
X109908810Y-96678616D01*
X109978501Y-96683600D01*
G37*
%TD.AperFunction*%
%TA.AperFunction,Conductor*%
G36*
X97768660Y-97250445D02*
G01*
X97801980Y-97299360D01*
X97821646Y-97352088D01*
X97821649Y-97352093D01*
X97907809Y-97467187D01*
X97907812Y-97467190D01*
X98022906Y-97553350D01*
X98022915Y-97553355D01*
X98123456Y-97590854D01*
X98179390Y-97632725D01*
X98203808Y-97698189D01*
X98203344Y-97720918D01*
X98194435Y-97799994D01*
X98194435Y-97800003D01*
X98214630Y-97979249D01*
X98214631Y-97979254D01*
X98274212Y-98149526D01*
X98302875Y-98195142D01*
X98321876Y-98262378D01*
X98312443Y-98308566D01*
X98264314Y-98424760D01*
X98264313Y-98424764D01*
X98249500Y-98537272D01*
X98249500Y-98762727D01*
X98265374Y-98883293D01*
X98263593Y-98883527D01*
X98265804Y-98917270D01*
X98259298Y-98966686D01*
X98231031Y-99030582D01*
X98172707Y-99069053D01*
X98136359Y-99074500D01*
X95474233Y-99074500D01*
X95361088Y-99104816D01*
X95361088Y-99104817D01*
X95327865Y-99113719D01*
X95327863Y-99113719D01*
X95327863Y-99113720D01*
X95196635Y-99189485D01*
X95196632Y-99189487D01*
X95112181Y-99273939D01*
X95050858Y-99307424D01*
X94981166Y-99302440D01*
X94925233Y-99260568D01*
X94900816Y-99195104D01*
X94900500Y-99186258D01*
X94900500Y-97697242D01*
X94920185Y-97630203D01*
X94972989Y-97584448D01*
X95042147Y-97574504D01*
X95093391Y-97594140D01*
X95156316Y-97636185D01*
X95156328Y-97636192D01*
X95264197Y-97680872D01*
X95318601Y-97724712D01*
X95340666Y-97791006D01*
X95323387Y-97858706D01*
X95304430Y-97883110D01*
X95299508Y-97888032D01*
X95299504Y-97888037D01*
X95236905Y-97996463D01*
X95231140Y-98017979D01*
X95204500Y-98117399D01*
X95204500Y-98242601D01*
X95236905Y-98363536D01*
X95299505Y-98471964D01*
X95388036Y-98560495D01*
X95496464Y-98623095D01*
X95617399Y-98655500D01*
X95617401Y-98655500D01*
X95742599Y-98655500D01*
X95742601Y-98655500D01*
X95863536Y-98623095D01*
X95971964Y-98560495D01*
X96060495Y-98471964D01*
X96123095Y-98363536D01*
X96155500Y-98242601D01*
X96155500Y-98117399D01*
X96137771Y-98051234D01*
X96139434Y-97981385D01*
X96178596Y-97923522D01*
X96242825Y-97896018D01*
X96257546Y-97895141D01*
X96737201Y-97895141D01*
X96737201Y-97869922D01*
X96756886Y-97802883D01*
X96809690Y-97757128D01*
X96837011Y-97748304D01*
X97021689Y-97711570D01*
X97021693Y-97711569D01*
X97203671Y-97636192D01*
X97203684Y-97636185D01*
X97367462Y-97526751D01*
X97367466Y-97526748D01*
X97506748Y-97387466D01*
X97506754Y-97387458D01*
X97582696Y-97273804D01*
X97636308Y-97228998D01*
X97705633Y-97220291D01*
X97768660Y-97250445D01*
G37*
%TD.AperFunction*%
%TA.AperFunction,Conductor*%
G36*
X143742539Y-79489685D02*
G01*
X143788294Y-79542489D01*
X143799500Y-79594000D01*
X143799500Y-98423661D01*
X143779815Y-98490700D01*
X143727011Y-98536455D01*
X143657853Y-98546399D01*
X143632170Y-98539844D01*
X143609284Y-98531309D01*
X143609283Y-98531308D01*
X143549683Y-98524901D01*
X143549681Y-98524900D01*
X143549673Y-98524900D01*
X143549665Y-98524900D01*
X142641542Y-98524900D01*
X142574503Y-98505215D01*
X142553861Y-98488581D01*
X141411819Y-97346539D01*
X141378334Y-97285216D01*
X141375500Y-97258858D01*
X141375500Y-97124235D01*
X141375500Y-97124234D01*
X141362513Y-97075767D01*
X141336281Y-96977865D01*
X141260515Y-96846635D01*
X140553365Y-96139485D01*
X140487750Y-96101602D01*
X140422136Y-96063719D01*
X140341656Y-96042155D01*
X140275766Y-96024500D01*
X140275765Y-96024500D01*
X133007940Y-96024500D01*
X132940901Y-96004815D01*
X132920259Y-95988181D01*
X132902262Y-95970184D01*
X132749523Y-95874211D01*
X132579254Y-95814631D01*
X132579249Y-95814630D01*
X132485617Y-95804081D01*
X132421203Y-95777015D01*
X132381647Y-95719420D01*
X132375500Y-95680861D01*
X132375500Y-94007940D01*
X132395185Y-93940901D01*
X132411819Y-93920259D01*
X132415067Y-93917011D01*
X132429816Y-93902262D01*
X132525789Y-93749522D01*
X132585368Y-93579255D01*
X132589130Y-93545870D01*
X132605565Y-93400003D01*
X132605565Y-93399996D01*
X132585369Y-93220750D01*
X132585368Y-93220745D01*
X132525788Y-93050476D01*
X132488050Y-92990416D01*
X132469050Y-92923179D01*
X132489418Y-92856344D01*
X132505358Y-92836768D01*
X133980970Y-91361156D01*
X134042291Y-91327673D01*
X134111983Y-91332657D01*
X134159876Y-91364854D01*
X134168216Y-91373913D01*
X134307508Y-91482328D01*
X134337279Y-91505500D01*
X134351374Y-91516470D01*
X134555497Y-91626936D01*
X134669487Y-91666068D01*
X134775015Y-91702297D01*
X134775017Y-91702297D01*
X134775019Y-91702298D01*
X135003951Y-91740500D01*
X135003952Y-91740500D01*
X135236048Y-91740500D01*
X135236049Y-91740500D01*
X135464981Y-91702298D01*
X135684503Y-91626936D01*
X135888626Y-91516470D01*
X135902721Y-91505500D01*
X135993941Y-91434500D01*
X136071784Y-91373913D01*
X136228979Y-91203153D01*
X136355924Y-91008849D01*
X136449157Y-90796300D01*
X136506134Y-90571305D01*
X136506135Y-90571297D01*
X136525300Y-90340006D01*
X136525300Y-90339993D01*
X136506135Y-90108702D01*
X136506133Y-90108691D01*
X136449157Y-89883699D01*
X136355924Y-89671151D01*
X136228983Y-89476852D01*
X136228980Y-89476849D01*
X136228979Y-89476847D01*
X136150996Y-89392135D01*
X138799500Y-89392135D01*
X138799500Y-91287870D01*
X138799501Y-91287876D01*
X138805908Y-91347483D01*
X138856202Y-91482328D01*
X138856206Y-91482335D01*
X138942452Y-91597544D01*
X138942455Y-91597547D01*
X139057664Y-91683793D01*
X139057671Y-91683797D01*
X139192517Y-91734091D01*
X139192516Y-91734091D01*
X139199444Y-91734835D01*
X139252127Y-91740500D01*
X141147872Y-91740499D01*
X141207483Y-91734091D01*
X141342331Y-91683796D01*
X141457546Y-91597546D01*
X141543796Y-91482331D01*
X141594091Y-91347483D01*
X141600500Y-91287873D01*
X141600499Y-89392128D01*
X141594091Y-89332517D01*
X141584233Y-89306087D01*
X141543797Y-89197671D01*
X141543793Y-89197664D01*
X141457547Y-89082455D01*
X141457544Y-89082452D01*
X141342335Y-88996206D01*
X141342328Y-88996202D01*
X141207482Y-88945908D01*
X141207483Y-88945908D01*
X141147883Y-88939501D01*
X141147881Y-88939500D01*
X141147873Y-88939500D01*
X141147864Y-88939500D01*
X139252129Y-88939500D01*
X139252123Y-88939501D01*
X139192516Y-88945908D01*
X139057671Y-88996202D01*
X139057664Y-88996206D01*
X138942455Y-89082452D01*
X138942452Y-89082455D01*
X138856206Y-89197664D01*
X138856202Y-89197671D01*
X138805908Y-89332517D01*
X138799501Y-89392116D01*
X138799501Y-89392123D01*
X138799500Y-89392135D01*
X136150996Y-89392135D01*
X136071784Y-89306087D01*
X136071779Y-89306083D01*
X136071777Y-89306081D01*
X135888634Y-89163535D01*
X135888628Y-89163531D01*
X135684504Y-89053064D01*
X135684495Y-89053061D01*
X135464984Y-88977702D01*
X135274450Y-88945908D01*
X135236049Y-88939500D01*
X135003951Y-88939500D01*
X134965550Y-88945908D01*
X134775015Y-88977702D01*
X134555504Y-89053061D01*
X134555495Y-89053064D01*
X134351371Y-89163531D01*
X134351365Y-89163535D01*
X134168222Y-89306081D01*
X134168219Y-89306084D01*
X134168216Y-89306086D01*
X134168216Y-89306087D01*
X134143886Y-89332517D01*
X134011016Y-89476852D01*
X133884075Y-89671151D01*
X133790842Y-89883700D01*
X133785717Y-89903937D01*
X133753194Y-89961172D01*
X128846635Y-94867733D01*
X128739487Y-94974880D01*
X128739485Y-94974883D01*
X128663719Y-95106111D01*
X128624500Y-95252482D01*
X128624500Y-96462889D01*
X128604815Y-96529928D01*
X128552011Y-96575683D01*
X128482853Y-96585627D01*
X128468408Y-96582664D01*
X128397982Y-96563794D01*
X128397979Y-96563793D01*
X128397977Y-96563793D01*
X128288988Y-96554258D01*
X128180002Y-96544723D01*
X128179998Y-96544723D01*
X128040115Y-96556961D01*
X127962023Y-96563793D01*
X127962020Y-96563793D01*
X127750677Y-96620422D01*
X127750670Y-96620424D01*
X127750670Y-96620425D01*
X127739980Y-96625410D01*
X127552361Y-96712898D01*
X127552357Y-96712900D01*
X127373121Y-96838402D01*
X127218402Y-96993121D01*
X127092900Y-97172357D01*
X127092898Y-97172361D01*
X127022382Y-97323583D01*
X126976209Y-97376022D01*
X126909016Y-97395174D01*
X126842135Y-97374958D01*
X126797618Y-97323583D01*
X126763513Y-97250445D01*
X126727102Y-97172362D01*
X126727100Y-97172359D01*
X126727099Y-97172357D01*
X126601599Y-96993124D01*
X126531245Y-96922770D01*
X126446877Y-96838402D01*
X126286049Y-96725789D01*
X126267638Y-96712897D01*
X126144499Y-96655477D01*
X126069330Y-96620425D01*
X126069326Y-96620424D01*
X126069322Y-96620422D01*
X125857977Y-96563793D01*
X125640002Y-96544723D01*
X125639998Y-96544723D01*
X125500115Y-96556961D01*
X125422023Y-96563793D01*
X125422020Y-96563793D01*
X125337983Y-96586311D01*
X125268133Y-96584648D01*
X125210271Y-96545485D01*
X125188831Y-96501909D01*
X125187668Y-96502317D01*
X125131030Y-96340454D01*
X125127469Y-96270676D01*
X125162198Y-96210048D01*
X125224191Y-96177821D01*
X125248072Y-96175500D01*
X126792060Y-96175500D01*
X126859099Y-96195185D01*
X126879741Y-96211819D01*
X126897738Y-96229816D01*
X126962766Y-96270676D01*
X127042340Y-96320676D01*
X127050478Y-96325789D01*
X127186605Y-96373422D01*
X127220745Y-96385368D01*
X127220750Y-96385369D01*
X127399996Y-96405565D01*
X127400000Y-96405565D01*
X127400004Y-96405565D01*
X127579249Y-96385369D01*
X127579252Y-96385368D01*
X127579255Y-96385368D01*
X127749522Y-96325789D01*
X127902262Y-96229816D01*
X128029816Y-96102262D01*
X128125789Y-95949522D01*
X128185368Y-95779255D01*
X128185560Y-95777552D01*
X128205565Y-95600003D01*
X128205565Y-95599996D01*
X128185369Y-95420750D01*
X128185368Y-95420745D01*
X128125788Y-95250476D01*
X128029815Y-95097737D01*
X127902262Y-94970184D01*
X127749523Y-94874211D01*
X127579254Y-94814631D01*
X127579249Y-94814630D01*
X127400004Y-94794435D01*
X127399996Y-94794435D01*
X127220750Y-94814630D01*
X127220745Y-94814631D01*
X127050476Y-94874211D01*
X126897737Y-94970184D01*
X126879741Y-94988181D01*
X126818418Y-95021666D01*
X126792060Y-95024500D01*
X123559454Y-95024500D01*
X123492415Y-95004815D01*
X123446660Y-94952011D01*
X123436716Y-94882853D01*
X123465741Y-94819297D01*
X123471773Y-94812819D01*
X123485855Y-94798736D01*
X123485858Y-94798733D01*
X123488730Y-94794435D01*
X123527870Y-94735858D01*
X123554312Y-94696286D01*
X123588298Y-94614236D01*
X123601463Y-94582452D01*
X123616479Y-94506961D01*
X123622267Y-94477864D01*
X123622267Y-94477859D01*
X123625500Y-94461607D01*
X123625500Y-94346976D01*
X123645185Y-94279937D01*
X123697989Y-94234182D01*
X123725135Y-94226736D01*
X123724932Y-94225876D01*
X123732479Y-94224092D01*
X123732481Y-94224091D01*
X123732483Y-94224091D01*
X123867331Y-94173796D01*
X123982546Y-94087546D01*
X124068796Y-93972331D01*
X124119091Y-93837483D01*
X124125500Y-93777873D01*
X124125499Y-93082128D01*
X124119091Y-93022517D01*
X124082040Y-92923179D01*
X124068797Y-92887671D01*
X124068793Y-92887664D01*
X123982547Y-92772455D01*
X123982544Y-92772452D01*
X123867335Y-92686206D01*
X123867328Y-92686202D01*
X123779394Y-92653405D01*
X123723460Y-92611534D01*
X123699043Y-92546069D01*
X123713895Y-92477796D01*
X123735043Y-92449545D01*
X124586002Y-91598586D01*
X124647323Y-91565103D01*
X124705774Y-91566493D01*
X124742023Y-91576207D01*
X124897720Y-91589828D01*
X124959998Y-91595277D01*
X124960000Y-91595277D01*
X124960002Y-91595277D01*
X124988254Y-91592805D01*
X125177977Y-91576207D01*
X125389330Y-91519575D01*
X125587639Y-91427102D01*
X125766877Y-91301598D01*
X125921598Y-91146877D01*
X126047102Y-90967639D01*
X126139575Y-90769330D01*
X126196207Y-90557977D01*
X126212805Y-90368254D01*
X126215277Y-90340002D01*
X126215277Y-90339997D01*
X126207445Y-90250476D01*
X126196207Y-90122023D01*
X126153107Y-89961172D01*
X126139577Y-89910677D01*
X126139576Y-89910676D01*
X126139575Y-89910670D01*
X126047102Y-89712362D01*
X126047099Y-89712358D01*
X126047099Y-89712357D01*
X125921599Y-89533124D01*
X125865322Y-89476847D01*
X125766877Y-89378402D01*
X125628978Y-89281844D01*
X125587638Y-89252897D01*
X125469189Y-89197664D01*
X125389330Y-89160425D01*
X125389326Y-89160424D01*
X125389322Y-89160422D01*
X125177977Y-89103793D01*
X124960002Y-89084723D01*
X124959998Y-89084723D01*
X124838724Y-89095333D01*
X124742023Y-89103793D01*
X124742020Y-89103793D01*
X124530677Y-89160422D01*
X124530668Y-89160426D01*
X124332361Y-89252898D01*
X124332357Y-89252900D01*
X124153121Y-89378402D01*
X123998402Y-89533121D01*
X123872900Y-89712357D01*
X123872900Y-89712358D01*
X123872898Y-89712361D01*
X123872898Y-89712362D01*
X123860197Y-89739597D01*
X123802105Y-89864176D01*
X123755932Y-89916615D01*
X123688738Y-89935766D01*
X123621857Y-89915550D01*
X123577341Y-89864175D01*
X123506667Y-89712614D01*
X123506666Y-89712612D01*
X123463124Y-89650428D01*
X123463124Y-89650427D01*
X122902962Y-90210589D01*
X122885925Y-90147007D01*
X122820099Y-90032993D01*
X122727007Y-89939901D01*
X122612993Y-89874075D01*
X122549409Y-89857037D01*
X123109571Y-89296874D01*
X123047387Y-89253333D01*
X122849159Y-89160898D01*
X122849150Y-89160894D01*
X122637894Y-89104289D01*
X122637884Y-89104287D01*
X122420001Y-89085225D01*
X122419999Y-89085225D01*
X122202115Y-89104287D01*
X122202105Y-89104289D01*
X121990849Y-89160894D01*
X121990840Y-89160898D01*
X121792613Y-89253333D01*
X121730428Y-89296874D01*
X122290591Y-89857037D01*
X122227007Y-89874075D01*
X122112993Y-89939901D01*
X122019901Y-90032993D01*
X121954075Y-90147007D01*
X121937037Y-90210591D01*
X121376874Y-89650428D01*
X121333333Y-89712613D01*
X121240898Y-89910840D01*
X121240894Y-89910849D01*
X121184289Y-90122105D01*
X121184287Y-90122115D01*
X121165225Y-90339999D01*
X121165225Y-90340000D01*
X121184287Y-90557884D01*
X121184289Y-90557894D01*
X121213901Y-90668407D01*
X121212238Y-90738257D01*
X121173075Y-90796119D01*
X121108847Y-90823623D01*
X121094126Y-90824500D01*
X118207940Y-90824500D01*
X118140901Y-90804815D01*
X118120259Y-90788181D01*
X118102262Y-90770184D01*
X117949523Y-90674211D01*
X117779254Y-90614631D01*
X117779249Y-90614630D01*
X117600004Y-90594435D01*
X117599996Y-90594435D01*
X117420750Y-90614630D01*
X117420745Y-90614631D01*
X117250476Y-90674211D01*
X117097737Y-90770184D01*
X116970184Y-90897737D01*
X116874211Y-91050476D01*
X116814631Y-91220745D01*
X116814630Y-91220749D01*
X116802954Y-91324384D01*
X116775887Y-91388798D01*
X116718292Y-91428353D01*
X116679734Y-91434500D01*
X115277129Y-91434500D01*
X115277123Y-91434501D01*
X115217516Y-91440908D01*
X115082671Y-91491202D01*
X115082664Y-91491206D01*
X114967456Y-91577451D01*
X114926673Y-91631930D01*
X114870738Y-91673800D01*
X114801046Y-91678783D01*
X114784075Y-91673799D01*
X114682485Y-91635909D01*
X114682483Y-91635908D01*
X114622883Y-91629501D01*
X114622881Y-91629500D01*
X114622873Y-91629500D01*
X114622865Y-91629500D01*
X113549500Y-91629500D01*
X113482461Y-91609815D01*
X113436706Y-91557011D01*
X113425500Y-91505500D01*
X113425500Y-88738393D01*
X113425499Y-88738389D01*
X113401464Y-88617555D01*
X113401463Y-88617548D01*
X113375269Y-88554311D01*
X113354312Y-88503715D01*
X113314508Y-88444145D01*
X113314508Y-88444144D01*
X113314506Y-88444143D01*
X113285858Y-88401267D01*
X113285857Y-88401266D01*
X113285855Y-88401263D01*
X113195637Y-88311045D01*
X113195606Y-88311016D01*
X112661819Y-87777229D01*
X112628334Y-87715906D01*
X112625500Y-87689548D01*
X112625500Y-84739994D01*
X112895202Y-84739994D01*
X112895202Y-84740005D01*
X112914361Y-84971218D01*
X112971317Y-85196135D01*
X113064515Y-85408606D01*
X113148812Y-85537633D01*
X113735387Y-84951058D01*
X113740889Y-84971591D01*
X113819881Y-85108408D01*
X113931592Y-85220119D01*
X114068409Y-85299111D01*
X114088940Y-85304612D01*
X113501201Y-85892351D01*
X113531649Y-85916050D01*
X113735697Y-86026476D01*
X113735706Y-86026479D01*
X113955139Y-86101811D01*
X114183993Y-86140000D01*
X114416007Y-86140000D01*
X114644860Y-86101811D01*
X114864293Y-86026479D01*
X114864301Y-86026476D01*
X115068355Y-85916047D01*
X115098797Y-85892351D01*
X115098798Y-85892350D01*
X114511060Y-85304612D01*
X114531591Y-85299111D01*
X114668408Y-85220119D01*
X114780119Y-85108408D01*
X114859111Y-84971591D01*
X114864612Y-84951059D01*
X115451186Y-85537633D01*
X115535482Y-85408611D01*
X115628682Y-85196135D01*
X115665689Y-85049997D01*
X120514723Y-85049997D01*
X120514723Y-85050002D01*
X120533793Y-85267975D01*
X120533793Y-85267979D01*
X120590422Y-85479322D01*
X120590424Y-85479326D01*
X120590425Y-85479330D01*
X120607490Y-85515925D01*
X120682897Y-85677638D01*
X120682898Y-85677639D01*
X120808402Y-85856877D01*
X120963123Y-86011598D01*
X121142361Y-86137102D01*
X121340670Y-86229575D01*
X121552023Y-86286207D01*
X121734926Y-86302208D01*
X121769998Y-86305277D01*
X121770000Y-86305277D01*
X121770002Y-86305277D01*
X121798254Y-86302805D01*
X121987977Y-86286207D01*
X122199330Y-86229575D01*
X122397639Y-86137102D01*
X122576877Y-86011598D01*
X122731598Y-85856877D01*
X122857102Y-85677639D01*
X122949575Y-85479330D01*
X123006207Y-85267977D01*
X123025277Y-85050000D01*
X123025277Y-85049999D01*
X138515225Y-85049999D01*
X138515225Y-85050000D01*
X138534287Y-85267884D01*
X138534289Y-85267894D01*
X138590894Y-85479150D01*
X138590898Y-85479159D01*
X138683333Y-85677387D01*
X138726874Y-85739571D01*
X139287037Y-85179408D01*
X139304075Y-85242993D01*
X139369901Y-85357007D01*
X139462993Y-85450099D01*
X139577007Y-85515925D01*
X139640590Y-85532962D01*
X139080427Y-86093124D01*
X139142612Y-86136666D01*
X139340840Y-86229101D01*
X139340849Y-86229105D01*
X139552105Y-86285710D01*
X139552115Y-86285712D01*
X139769999Y-86304775D01*
X139770001Y-86304775D01*
X139987884Y-86285712D01*
X139987894Y-86285710D01*
X140199150Y-86229105D01*
X140199164Y-86229100D01*
X140397383Y-86136669D01*
X140397385Y-86136668D01*
X140459571Y-86093124D01*
X139899410Y-85532962D01*
X139962993Y-85515925D01*
X140077007Y-85450099D01*
X140170099Y-85357007D01*
X140235925Y-85242993D01*
X140252962Y-85179409D01*
X140813124Y-85739570D01*
X140856668Y-85677385D01*
X140856669Y-85677383D01*
X140949100Y-85479164D01*
X140949105Y-85479150D01*
X141005710Y-85267894D01*
X141005712Y-85267884D01*
X141024775Y-85050000D01*
X141024775Y-85049999D01*
X141005712Y-84832115D01*
X141005710Y-84832105D01*
X140949105Y-84620849D01*
X140949101Y-84620840D01*
X140856667Y-84422614D01*
X140856666Y-84422612D01*
X140813124Y-84360428D01*
X140813124Y-84360427D01*
X140252962Y-84920589D01*
X140235925Y-84857007D01*
X140170099Y-84742993D01*
X140077007Y-84649901D01*
X139962993Y-84584075D01*
X139899409Y-84567037D01*
X140459571Y-84006874D01*
X140397387Y-83963333D01*
X140199159Y-83870898D01*
X140199150Y-83870894D01*
X139987894Y-83814289D01*
X139987884Y-83814287D01*
X139770001Y-83795225D01*
X139769999Y-83795225D01*
X139552115Y-83814287D01*
X139552105Y-83814289D01*
X139340849Y-83870894D01*
X139340840Y-83870898D01*
X139142613Y-83963333D01*
X139080428Y-84006874D01*
X139640591Y-84567037D01*
X139577007Y-84584075D01*
X139462993Y-84649901D01*
X139369901Y-84742993D01*
X139304075Y-84857007D01*
X139287037Y-84920591D01*
X138726874Y-84360428D01*
X138683333Y-84422613D01*
X138590898Y-84620840D01*
X138590894Y-84620849D01*
X138534289Y-84832105D01*
X138534287Y-84832115D01*
X138515225Y-85049999D01*
X123025277Y-85049999D01*
X123006207Y-84832023D01*
X122960384Y-84661009D01*
X122949577Y-84620677D01*
X122949576Y-84620676D01*
X122949575Y-84620670D01*
X122857102Y-84422362D01*
X122857100Y-84422359D01*
X122857099Y-84422357D01*
X122731599Y-84243124D01*
X122669364Y-84180889D01*
X122576877Y-84088402D01*
X122403389Y-83966924D01*
X122397638Y-83962897D01*
X122298484Y-83916661D01*
X122199330Y-83870425D01*
X122199326Y-83870424D01*
X122199322Y-83870422D01*
X121987977Y-83813793D01*
X121770002Y-83794723D01*
X121769998Y-83794723D01*
X121626435Y-83807283D01*
X121552023Y-83813793D01*
X121552020Y-83813793D01*
X121340677Y-83870422D01*
X121340668Y-83870426D01*
X121142361Y-83962898D01*
X121142357Y-83962900D01*
X120963121Y-84088402D01*
X120808402Y-84243121D01*
X120682900Y-84422357D01*
X120682898Y-84422361D01*
X120590426Y-84620668D01*
X120590422Y-84620677D01*
X120533793Y-84832020D01*
X120533793Y-84832024D01*
X120514723Y-85049997D01*
X115665689Y-85049997D01*
X115685638Y-84971218D01*
X115704798Y-84740005D01*
X115704798Y-84739994D01*
X115685638Y-84508781D01*
X115628682Y-84283864D01*
X115535484Y-84071393D01*
X115451186Y-83942365D01*
X114864612Y-84528939D01*
X114859111Y-84508409D01*
X114780119Y-84371592D01*
X114668408Y-84259881D01*
X114531591Y-84180889D01*
X114511058Y-84175387D01*
X115098797Y-83587647D01*
X115098797Y-83587645D01*
X115068360Y-83563955D01*
X115068354Y-83563951D01*
X114864302Y-83453523D01*
X114864293Y-83453520D01*
X114644860Y-83378188D01*
X114416007Y-83340000D01*
X114183993Y-83340000D01*
X113955139Y-83378188D01*
X113735706Y-83453520D01*
X113735697Y-83453523D01*
X113531650Y-83563949D01*
X113501200Y-83587647D01*
X114088941Y-84175387D01*
X114068409Y-84180889D01*
X113931592Y-84259881D01*
X113819881Y-84371592D01*
X113740889Y-84508409D01*
X113735387Y-84528941D01*
X113148811Y-83942365D01*
X113064516Y-84071390D01*
X112971317Y-84283864D01*
X112914361Y-84508781D01*
X112895202Y-84739994D01*
X112625500Y-84739994D01*
X112625500Y-82250451D01*
X112645185Y-82183412D01*
X112661814Y-82162774D01*
X113801480Y-81023108D01*
X113862801Y-80989625D01*
X113929420Y-80993509D01*
X113955019Y-81002298D01*
X114183951Y-81040500D01*
X114183952Y-81040500D01*
X114416048Y-81040500D01*
X114416049Y-81040500D01*
X114644981Y-81002298D01*
X114864503Y-80926936D01*
X115068626Y-80816470D01*
X115251784Y-80673913D01*
X115408979Y-80503153D01*
X115535924Y-80308849D01*
X115629157Y-80096300D01*
X115686134Y-79871305D01*
X115705300Y-79640000D01*
X115702337Y-79604238D01*
X115716420Y-79535802D01*
X115765266Y-79485844D01*
X115825914Y-79470000D01*
X143675500Y-79470000D01*
X143742539Y-79489685D01*
G37*
%TD.AperFunction*%
%TA.AperFunction,Conductor*%
G36*
X99193039Y-96369685D02*
G01*
X99238794Y-96422489D01*
X99250000Y-96474000D01*
X99250000Y-96726000D01*
X99230315Y-96793039D01*
X99177511Y-96838794D01*
X99126000Y-96850000D01*
X97773000Y-96850000D01*
X97773000Y-96876000D01*
X97753315Y-96943039D01*
X97700511Y-96988794D01*
X97649000Y-97000000D01*
X96896988Y-97000000D01*
X96914205Y-96990060D01*
X96970060Y-96934205D01*
X97009556Y-96865796D01*
X97030000Y-96789496D01*
X97030000Y-96710504D01*
X97009556Y-96634204D01*
X96970060Y-96565795D01*
X96914205Y-96509940D01*
X96896988Y-96500000D01*
X97699863Y-96500000D01*
X97699503Y-96498190D01*
X97705732Y-96428598D01*
X97748595Y-96373422D01*
X97814485Y-96350178D01*
X97821121Y-96350000D01*
X99126000Y-96350000D01*
X99193039Y-96369685D01*
G37*
%TD.AperFunction*%
%TA.AperFunction,Conductor*%
G36*
X108293039Y-94469685D02*
G01*
X108338794Y-94522489D01*
X108350000Y-94574000D01*
X108350000Y-94826000D01*
X108330315Y-94893039D01*
X108277511Y-94938794D01*
X108226000Y-94950000D01*
X106486500Y-94950000D01*
X106419461Y-94930315D01*
X106373706Y-94877511D01*
X106362500Y-94826000D01*
X106362500Y-94574000D01*
X106382185Y-94506961D01*
X106434989Y-94461206D01*
X106486500Y-94450000D01*
X108226000Y-94450000D01*
X108293039Y-94469685D01*
G37*
%TD.AperFunction*%
%TD*%
M02*
