%TF.GenerationSoftware,KiCad,Pcbnew,7.0.1*%
%TF.CreationDate,2024-01-25T20:06:10+01:00*%
%TF.ProjectId,OpenReflowPlate,4f70656e-5265-4666-9c6f-77506c617465,rev?*%
%TF.SameCoordinates,Original*%
%TF.FileFunction,Copper,L1,Top*%
%TF.FilePolarity,Positive*%
%FSLAX46Y46*%
G04 Gerber Fmt 4.6, Leading zero omitted, Abs format (unit mm)*
G04 Created by KiCad (PCBNEW 7.0.1) date 2024-01-25 20:06:11*
%MOMM*%
%LPD*%
G01*
G04 APERTURE LIST*
%TA.AperFunction,ComponentPad*%
%ADD10R,1.500000X1.500000*%
%TD*%
%TA.AperFunction,ComponentPad*%
%ADD11C,1.500000*%
%TD*%
%TA.AperFunction,SMDPad,CuDef*%
%ADD12R,1.550000X1.300000*%
%TD*%
%TA.AperFunction,ComponentPad*%
%ADD13C,1.950000*%
%TD*%
%TA.AperFunction,ComponentPad*%
%ADD14C,1.800000*%
%TD*%
%TA.AperFunction,SMDPad,CuDef*%
%ADD15R,1.400000X0.900000*%
%TD*%
%TA.AperFunction,ComponentPad*%
%ADD16R,1.800000X1.800000*%
%TD*%
%TA.AperFunction,SMDPad,CuDef*%
%ADD17C,0.889000*%
%TD*%
%TA.AperFunction,ComponentPad*%
%ADD18C,1.550000*%
%TD*%
%TA.AperFunction,ComponentPad*%
%ADD19C,1.300000*%
%TD*%
%TA.AperFunction,ComponentPad*%
%ADD20C,2.280000*%
%TD*%
%TA.AperFunction,ComponentPad*%
%ADD21C,2.850000*%
%TD*%
%TA.AperFunction,ViaPad*%
%ADD22C,3.500000*%
%TD*%
%TA.AperFunction,ViaPad*%
%ADD23C,0.600000*%
%TD*%
%TA.AperFunction,ViaPad*%
%ADD24C,5.000000*%
%TD*%
%TA.AperFunction,Conductor*%
%ADD25C,0.250000*%
%TD*%
%TA.AperFunction,Conductor*%
%ADD26C,0.150000*%
%TD*%
%TA.AperFunction,Conductor*%
%ADD27C,3.000000*%
%TD*%
G04 APERTURE END LIST*
D10*
%TO.P,U1,1,e*%
%TO.N,D_e*%
X108300000Y-85240000D03*
D11*
%TO.P,U1,2,d*%
%TO.N,D_d*%
X110840000Y-85240000D03*
%TO.P,U1,3,DPX*%
%TO.N,D_dp*%
X113380000Y-85240000D03*
%TO.P,U1,4,c*%
%TO.N,D_c*%
X115920000Y-85240000D03*
%TO.P,U1,5,g*%
%TO.N,D_g*%
X118460000Y-85240000D03*
%TO.P,U1,6,CC4*%
%TO.N,CC_4*%
X121000000Y-85240000D03*
%TO.P,U1,7,b*%
%TO.N,D_b*%
X121000000Y-70000000D03*
%TO.P,U1,8,CC3*%
%TO.N,CC_3*%
X118460000Y-70000000D03*
%TO.P,U1,9,CC2*%
%TO.N,CC_2*%
X115920000Y-70000000D03*
%TO.P,U1,10,f*%
%TO.N,D_f*%
X113380000Y-70000000D03*
%TO.P,U1,11,a*%
%TO.N,D_a*%
X110840000Y-70000000D03*
%TO.P,U1,12,CC1*%
%TO.N,CC_1*%
X108300000Y-70000000D03*
%TD*%
D12*
%TO.P,S4,1,1*%
%TO.N,Net-(R22-Pad2)*%
X105025000Y-92450000D03*
%TO.P,S4,2,2*%
%TO.N,GND*%
X105025000Y-96950000D03*
%TO.P,S4,3,3*%
%TO.N,Net-(R22-Pad2)*%
X112975000Y-92450000D03*
%TO.P,S4,4,4*%
%TO.N,GND*%
X112975000Y-96950000D03*
%TD*%
D13*
%TO.P,J3,1*%
%TO.N,Net-(K1-AC_LOAD_2)*%
X101000000Y-48500000D03*
%TO.P,J3,2*%
%TO.N,AC_N*%
X101000000Y-56000000D03*
%TO.P,J3,3*%
%TO.N,AC_ground*%
X101000000Y-63500000D03*
%TO.P,J3,A1*%
%TO.N,Net-(K1-AC_LOAD_2)*%
X96000000Y-48500000D03*
%TO.P,J3,A2*%
%TO.N,AC_N*%
X96000000Y-56000000D03*
%TO.P,J3,A3*%
%TO.N,AC_ground*%
X96000000Y-63500000D03*
%TD*%
D14*
%TO.P,K1,1,AC_LOAD_1*%
%TO.N,AC_L*%
X112000000Y-31000000D03*
%TO.P,K1,2,AC_LOAD_2*%
%TO.N,Net-(K1-AC_LOAD_2)*%
X112000000Y-41100000D03*
%TO.P,K1,3,+DC_INPUT*%
%TO.N,Activation_out1*%
X112000000Y-53800000D03*
%TO.P,K1,4,_-DC_INPUT*%
%TO.N,GND*%
X112000000Y-58900000D03*
%TD*%
D15*
%TO.P,LED4,1*%
%TO.N,Net-(LED4-Pad1)*%
X88000000Y-85762500D03*
%TO.P,LED4,2*%
%TO.N,LED_LIFE*%
X88000000Y-83862500D03*
%TD*%
D12*
%TO.P,S1,1,1*%
%TO.N,Net-(R16-Pad1)*%
X94658334Y-92450000D03*
%TO.P,S1,2,2*%
%TO.N,GND*%
X94658334Y-96950000D03*
%TO.P,S1,3,3*%
%TO.N,Net-(R16-Pad1)*%
X102608334Y-92450000D03*
%TO.P,S1,4,4*%
%TO.N,GND*%
X102608334Y-96950000D03*
%TD*%
D14*
%TO.P,K2,1,COM*%
%TO.N,DC_Out2*%
X136240000Y-61975000D03*
%TO.P,K2,2,NO*%
%TO.N,AC_Vdcin+*%
X128620000Y-61975000D03*
D11*
%TO.P,K2,3,COIL_1*%
%TO.N,Activation_out2*%
X121000000Y-61975000D03*
%TO.P,K2,4,COIL_2*%
%TO.N,GND*%
X118460000Y-61975000D03*
%TD*%
D10*
%TO.P,J2,1,1*%
%TO.N,GND*%
X89675000Y-90250000D03*
D11*
%TO.P,J2,2,2*%
%TO.N,DC_Out2*%
X89675000Y-92750000D03*
%TD*%
D16*
%TO.P,J1,1,1*%
%TO.N,Net-(J1-Pad1)*%
X138000000Y-92000000D03*
D14*
%TO.P,J1,2,2*%
%TO.N,Net-(J1-Pad2)*%
X138000000Y-89460000D03*
%TD*%
D12*
%TO.P,S2,1,1*%
%TO.N,Net-(R15-Pad2)*%
X125758334Y-92450000D03*
%TO.P,S2,2,2*%
%TO.N,GND*%
X125758334Y-96950000D03*
%TO.P,S2,3,3*%
%TO.N,Net-(R15-Pad2)*%
X133708334Y-92450000D03*
%TO.P,S2,4,4*%
%TO.N,GND*%
X133708334Y-96950000D03*
%TD*%
D15*
%TO.P,LED1,1*%
%TO.N,Net-(LED1-Pad1)*%
X119700000Y-101362500D03*
%TO.P,LED1,2*%
%TO.N,AC_Vdcin+*%
X119700000Y-99462500D03*
%TD*%
D13*
%TO.P,J4,1*%
%TO.N,AC_L*%
X101000000Y-26000000D03*
%TO.P,J4,2*%
%TO.N,AC_N*%
X101000000Y-33500000D03*
%TO.P,J4,3*%
%TO.N,AC_ground*%
X101000000Y-41000000D03*
%TO.P,J4,A1*%
%TO.N,AC_L*%
X96000000Y-26000000D03*
%TO.P,J4,A2*%
%TO.N,AC_N*%
X96000000Y-33500000D03*
%TO.P,J4,A3*%
%TO.N,AC_ground*%
X96000000Y-41000000D03*
%TD*%
D15*
%TO.P,LED3,1*%
%TO.N,Net-(LED3-Pad1)*%
X114400000Y-101350000D03*
%TO.P,LED3,2*%
%TO.N,LED_OUT2*%
X114400000Y-99450000D03*
%TD*%
D12*
%TO.P,S3,1,1*%
%TO.N,GND*%
X115391666Y-92450000D03*
%TO.P,S3,2,2*%
%TO.N,Net-(C11-Pad2)*%
X115391666Y-96950000D03*
%TO.P,S3,3,3*%
%TO.N,GND*%
X123341666Y-92450000D03*
%TO.P,S3,4,4*%
%TO.N,Net-(C11-Pad2)*%
X123341666Y-96950000D03*
%TD*%
D17*
%TO.P,SWD,1,-MCLR/VPP*%
%TO.N,+3V3*%
X97130000Y-100600000D03*
%TO.P,SWD,2,VDD*%
%TO.N,SWDIO*%
X97130000Y-99330000D03*
%TO.P,SWD,3,GND*%
%TO.N,reset*%
X98400000Y-100600000D03*
%TO.P,SWD,4,PGD_(ICSPDAT)*%
%TO.N,SWCLK*%
X98400000Y-99330000D03*
%TO.P,SWD,5,PGC_(ICSPCLK)*%
%TO.N,GND*%
X99670000Y-100600000D03*
%TO.P,SWD,6,UNUSED/LVP*%
%TO.N,unconnected-(J6-UNUSED{slash}LVP-Pad6)*%
X99670000Y-99330000D03*
D18*
%TO.P,SWD,7*%
%TO.N,N/C*%
X95860000Y-99965000D03*
%TO.P,SWD,8*%
X100940000Y-98949000D03*
%TO.P,SWD,9*%
X100940000Y-100981000D03*
%TD*%
D15*
%TO.P,LED2,1*%
%TO.N,Net-(LED2-Pad1)*%
X109200000Y-101350000D03*
%TO.P,LED2,2*%
%TO.N,LED_OUT1*%
X109200000Y-99450000D03*
%TD*%
D11*
%TO.P,AC/DC 3w,1,AC_1*%
%TO.N,AC_L*%
X129500000Y-25825000D03*
%TO.P,AC/DC 3w,2,AC_2*%
%TO.N,AC_N*%
X124500000Y-25825000D03*
%TO.P,AC/DC 3w,3,-V0*%
%TO.N,GND*%
X134700000Y-55225000D03*
%TO.P,AC/DC 3w,4,+V0*%
%TO.N,AC_Vdcin+*%
X119300000Y-55225000D03*
%TD*%
D19*
%TO.P,Buzzer,1,+*%
%TO.N,Net-(LS1-+)*%
X103800000Y-90300000D03*
%TO.P,Buzzer,2,-*%
%TO.N,GND*%
X96200000Y-90300000D03*
%TD*%
D20*
%TO.P,J5,MH1,MH1*%
%TO.N,GND*%
X135550000Y-72280000D03*
D21*
%TO.P,J5,MH2,MH2*%
X139550000Y-72280000D03*
%TO.P,J5,MH3,MH3*%
X139550000Y-83520000D03*
D20*
%TO.P,J5,MH4,MH4*%
X135550000Y-83520000D03*
%TD*%
D22*
%TO.N,*%
X138000000Y-21000000D03*
X90000000Y-21000000D03*
D23*
%TO.N,GND*%
X100900000Y-89200000D03*
D24*
X91000000Y-98000000D03*
D23*
X105300000Y-75775500D03*
X99500000Y-101500500D03*
D24*
X138000000Y-98000000D03*
D23*
X113000000Y-96705000D03*
X101900000Y-74900000D03*
X122000000Y-94100000D03*
X117100000Y-92600000D03*
X106900000Y-98600000D03*
X100800000Y-97200000D03*
X127700000Y-96800000D03*
%TO.N,LED_LIFE*%
X94905996Y-78858030D03*
X88250500Y-79500000D03*
X90475500Y-79500000D03*
%TO.N,+5V*%
X116300000Y-84100000D03*
X116900000Y-87800000D03*
X125400000Y-82400000D03*
X128200000Y-77400000D03*
%TO.N,AC_Vdcin+*%
X133200000Y-73000000D03*
X121900000Y-99800000D03*
X107300000Y-62900000D03*
X133800000Y-91000000D03*
X107400000Y-65500000D03*
%TO.N,+3V3*%
X94400000Y-100900000D03*
X89479122Y-70279122D03*
X99900000Y-67200000D03*
X87575500Y-82200000D03*
X125600000Y-83500000D03*
X111100000Y-92900000D03*
X92900000Y-68200000D03*
X103200000Y-68700000D03*
X94300000Y-95400000D03*
X96600000Y-66700000D03*
X122300000Y-95100000D03*
X93138221Y-83358174D03*
X107024500Y-95000000D03*
X117600000Y-95900000D03*
X94300000Y-84800000D03*
X131300000Y-83100000D03*
%TO.N,SPI_CLK*%
X106495459Y-87759200D03*
X99600000Y-84500000D03*
%TO.N,SPI1_NSS*%
X121300000Y-89300000D03*
X100200000Y-84000000D03*
%TO.N,SPI_MISO*%
X100829122Y-85370878D03*
X105300000Y-87500000D03*
%TO.N,BUT_RIGHT*%
X108800000Y-67200000D03*
X132000000Y-94900000D03*
X124600000Y-76700000D03*
X96400000Y-69700000D03*
%TO.N,BUT_LEFT*%
X106300000Y-89200000D03*
X90599500Y-80600000D03*
%TO.N,BUT_BACK*%
X117600000Y-89800000D03*
X95200000Y-73400000D03*
X120582694Y-73924500D03*
X121500000Y-76700000D03*
X117100000Y-94600000D03*
X118100000Y-88000000D03*
%TO.N,BUT_ENTER*%
X123300000Y-73500000D03*
X95300000Y-72400000D03*
X119900000Y-97675500D03*
X123600000Y-77000000D03*
X120500000Y-91500000D03*
%TO.N,Net-(C11-Pad2)*%
X119100000Y-97800000D03*
%TO.N,DC_Out2*%
X113600000Y-60700000D03*
%TO.N,Net-(LED1-Pad1)*%
X118000000Y-101000000D03*
%TO.N,LED_OUT1*%
X99200000Y-79700000D03*
X104700000Y-95700000D03*
X103100000Y-83900000D03*
X104200000Y-85000000D03*
X104600000Y-80775500D03*
%TO.N,Net-(LED2-Pad1)*%
X110500000Y-101000000D03*
%TO.N,Net-(LED3-Pad1)*%
X116000000Y-101000000D03*
%TO.N,LED_OUT2*%
X103000000Y-85500000D03*
X109431286Y-91224066D03*
X110600000Y-94200000D03*
X104900000Y-90775500D03*
X103200000Y-81275500D03*
X102200000Y-83824500D03*
X99100000Y-80575500D03*
%TO.N,Net-(LED4-Pad1)*%
X88400000Y-86600000D03*
%TO.N,USB_D-*%
X93500000Y-75000000D03*
X131300000Y-78000000D03*
%TO.N,USB_D+*%
X132500000Y-78200000D03*
X93500000Y-74200000D03*
%TO.N,SWDIO*%
X95300000Y-85700000D03*
X96300000Y-98500000D03*
X91000000Y-81400000D03*
X89400000Y-74600000D03*
X89300000Y-81400000D03*
%TO.N,SWCLK*%
X99000000Y-88800000D03*
X90000000Y-84900000D03*
X99000000Y-97800000D03*
X93600000Y-88500000D03*
X93000000Y-70500000D03*
%TO.N,reset*%
X98100000Y-97600000D03*
X101500000Y-75700000D03*
X97000000Y-85500000D03*
X93100000Y-81300000D03*
X96525500Y-73800000D03*
%TO.N,Activation_out1*%
X111400000Y-66900000D03*
%TO.N,Net-(LS1-+)*%
X109900000Y-88000000D03*
%TO.N,C_1*%
X98300000Y-83800000D03*
X106100000Y-83300000D03*
%TO.N,C_2*%
X96991756Y-81050500D03*
X112800000Y-81900000D03*
%TO.N,C_3*%
X96070878Y-80929122D03*
X116800000Y-80200000D03*
X108500000Y-77600000D03*
X105600000Y-81700000D03*
%TO.N,C_4*%
X119800000Y-82100000D03*
X98375500Y-77400000D03*
%TO.N,CC_4*%
X122800000Y-77224500D03*
%TO.N,C_buzzer*%
X106578358Y-88504104D03*
X93400000Y-80100000D03*
%TO.N,C_out1*%
X114500000Y-66900000D03*
X94300000Y-77700000D03*
%TO.N,C_out2*%
X116100000Y-63100000D03*
X93400000Y-76100000D03*
%TO.N,Net-(R15-Pad2)*%
X133400000Y-93300000D03*
X127800000Y-94800000D03*
%TO.N,Net-(R16-Pad1)*%
X107100000Y-91300000D03*
%TO.N,Net-(R22-Pad2)*%
X111500000Y-94600000D03*
%TO.N,D_e*%
X109500000Y-82100000D03*
X99975000Y-79575000D03*
%TO.N,D_d*%
X110700000Y-82300000D03*
X99300000Y-78900000D03*
%TO.N,D_dp*%
X94800000Y-79600000D03*
%TO.N,D_c*%
X111600000Y-82200000D03*
X98500000Y-78200000D03*
%TO.N,D_g*%
X95500000Y-80100000D03*
%TO.N,D_b*%
X98200000Y-72800000D03*
%TO.N,D_f*%
X100500000Y-72200000D03*
%TO.N,D_a*%
X97700000Y-72100000D03*
%TD*%
D25*
%TO.N,GND*%
X115391666Y-94533334D02*
X112975000Y-96950000D01*
X99500000Y-101500500D02*
X99500000Y-100770000D01*
X123341666Y-94533332D02*
X125758334Y-96950000D01*
X116950000Y-92450000D02*
X117100000Y-92600000D01*
X112975000Y-96950000D02*
X112975000Y-96730000D01*
X133708334Y-96950000D02*
X133708334Y-97991666D01*
X104424500Y-74900000D02*
X105300000Y-75775500D01*
X136950000Y-96950000D02*
X138000000Y-98000000D01*
X102358334Y-97200000D02*
X102608334Y-96950000D01*
X100550000Y-96950000D02*
X100800000Y-97200000D01*
X99500000Y-100770000D02*
X99670000Y-100600000D01*
X132900000Y-98800000D02*
X127608334Y-98800000D01*
X123341666Y-92450000D02*
X123341666Y-94533332D01*
X88200000Y-91725000D02*
X88200000Y-95200000D01*
X122000000Y-94100000D02*
X122000000Y-93791666D01*
X105025000Y-96950000D02*
X106675000Y-98600000D01*
X96200000Y-90300000D02*
X99800000Y-90300000D01*
X122000000Y-93791666D02*
X123341666Y-92450000D01*
X100800000Y-97200000D02*
X102358334Y-97200000D01*
X115391666Y-92450000D02*
X116950000Y-92450000D01*
X133708334Y-96950000D02*
X136950000Y-96950000D01*
X94658334Y-96950000D02*
X92050000Y-96950000D01*
X133708334Y-97991666D02*
X132900000Y-98800000D01*
X106675000Y-98600000D02*
X106900000Y-98600000D01*
X88200000Y-95200000D02*
X91000000Y-98000000D01*
X127700000Y-96800000D02*
X125908334Y-96800000D01*
X101900000Y-74900000D02*
X104424500Y-74900000D01*
X89675000Y-90250000D02*
X88200000Y-91725000D01*
X105025000Y-96950000D02*
X102608334Y-96950000D01*
X112975000Y-96730000D02*
X113000000Y-96705000D01*
X92050000Y-96950000D02*
X91000000Y-98000000D01*
X99800000Y-90300000D02*
X100900000Y-89200000D01*
X115391666Y-92450000D02*
X115391666Y-94533334D01*
X94658334Y-96950000D02*
X100550000Y-96950000D01*
X125908334Y-96800000D02*
X125758334Y-96950000D01*
X99670000Y-100600000D02*
X99670000Y-100930500D01*
X127608334Y-98800000D02*
X125758334Y-96950000D01*
D26*
%TO.N,LED_LIFE*%
X90800000Y-79900000D02*
X90475500Y-79575500D01*
X88100000Y-82700000D02*
X88100000Y-79650500D01*
X94441970Y-78858030D02*
X93899507Y-78858030D01*
X94641970Y-78858030D02*
X94441970Y-78858030D01*
X90475500Y-79575500D02*
X90475500Y-79500000D01*
X92857537Y-79900000D02*
X90800000Y-79900000D01*
X94905996Y-78858030D02*
X94641970Y-78858030D01*
X88100000Y-82700000D02*
X88100000Y-83762500D01*
X88100000Y-79650500D02*
X88250500Y-79500000D01*
X88100000Y-83762500D02*
X88000000Y-83862500D01*
X93899507Y-78858030D02*
X92857537Y-79900000D01*
D25*
%TO.N,+5V*%
X127600000Y-80200000D02*
X127600000Y-78000000D01*
X116900000Y-87800000D02*
X116900000Y-86500000D01*
X116945000Y-84745000D02*
X116300000Y-84100000D01*
X125400000Y-82400000D02*
X127600000Y-80200000D01*
X116945000Y-86455000D02*
X116945000Y-84745000D01*
X116900000Y-86500000D02*
X116945000Y-86455000D01*
X127600000Y-78000000D02*
X128200000Y-77400000D01*
%TO.N,AC_Vdcin+*%
X128620000Y-61975000D02*
X121870000Y-55225000D01*
X133800000Y-73600000D02*
X133800000Y-91000000D01*
X107300000Y-62900000D02*
X107300000Y-65400000D01*
X107300000Y-65400000D02*
X107400000Y-65500000D01*
X121870000Y-55225000D02*
X119300000Y-55225000D01*
X121900000Y-99800000D02*
X120037500Y-99800000D01*
X133200000Y-73000000D02*
X133800000Y-73600000D01*
X120037500Y-99800000D02*
X119700000Y-99462500D01*
%TO.N,+3V3*%
X111000000Y-93000000D02*
X111100000Y-92900000D01*
X107024500Y-95000000D02*
X94700000Y-95000000D01*
X94300000Y-95400000D02*
X92900000Y-94000000D01*
X94400000Y-100900000D02*
X94515000Y-101015000D01*
X89479122Y-70279122D02*
X87600000Y-72158244D01*
X87600000Y-81200000D02*
X87600000Y-82175500D01*
X94300000Y-66800000D02*
X96500000Y-66800000D01*
X99900000Y-67200000D02*
X101700000Y-67200000D01*
X122300000Y-95100000D02*
X118400000Y-95100000D01*
X125600000Y-83500000D02*
X130900000Y-83500000D01*
X93138221Y-83638221D02*
X94300000Y-84800000D01*
X93138221Y-83358174D02*
X93138221Y-83638221D01*
X87600000Y-72158244D02*
X87600000Y-81200000D01*
X92900000Y-83596395D02*
X93138221Y-83358174D01*
X94515000Y-101015000D02*
X96715000Y-101015000D01*
X96500000Y-66800000D02*
X96600000Y-66700000D01*
X92900000Y-68200000D02*
X94300000Y-66800000D01*
X118400000Y-95100000D02*
X117600000Y-95900000D01*
X130900000Y-83500000D02*
X131300000Y-83100000D01*
X92900000Y-94000000D02*
X92900000Y-85100000D01*
X87600000Y-82175500D02*
X87575500Y-82200000D01*
X107024500Y-95000000D02*
X109024500Y-93000000D01*
X109024500Y-93000000D02*
X111000000Y-93000000D01*
X96715000Y-101015000D02*
X97130000Y-100600000D01*
X101700000Y-67200000D02*
X103200000Y-68700000D01*
X92900000Y-85100000D02*
X92900000Y-83596395D01*
X94700000Y-95000000D02*
X94300000Y-95400000D01*
D26*
%TO.N,SPI_CLK*%
X99600000Y-85000000D02*
X99600000Y-84500000D01*
X106154659Y-88100000D02*
X106495459Y-87759200D01*
X102700000Y-88100000D02*
X106154659Y-88100000D01*
X100500000Y-85900000D02*
X99600000Y-85000000D01*
X100500000Y-85900000D02*
X102700000Y-88100000D01*
%TO.N,SPI1_NSS*%
X103100000Y-86900000D02*
X103125000Y-86875000D01*
X109675000Y-86875000D02*
X111500000Y-88700000D01*
X100200000Y-84000000D02*
X103100000Y-86900000D01*
X103125000Y-86875000D02*
X109675000Y-86875000D01*
X111500000Y-88700000D02*
X120700000Y-88700000D01*
X120700000Y-88700000D02*
X121300000Y-89300000D01*
%TO.N,SPI_MISO*%
X102958244Y-87500000D02*
X100829122Y-85370878D01*
X105300000Y-87500000D02*
X102958244Y-87500000D01*
%TO.N,BUT_RIGHT*%
X132000000Y-94800000D02*
X132000000Y-94900000D01*
X124600000Y-87400000D02*
X132000000Y-94800000D01*
X103475736Y-69700000D02*
X105975736Y-67200000D01*
X105975736Y-67200000D02*
X108800000Y-67200000D01*
X124600000Y-76700000D02*
X124600000Y-87400000D01*
X96400000Y-69700000D02*
X103475736Y-69700000D01*
%TO.N,BUT_LEFT*%
X101757537Y-89200000D02*
X106300000Y-89200000D01*
X90599500Y-80600000D02*
X93157537Y-80600000D01*
X93157537Y-80600000D02*
X101757537Y-89200000D01*
%TO.N,BUT_BACK*%
X120582694Y-73924500D02*
X97392463Y-73924500D01*
X120800000Y-82075736D02*
X121500000Y-81375736D01*
X117100000Y-94600000D02*
X117625000Y-94075000D01*
X118100000Y-88000000D02*
X119800000Y-86300000D01*
X96742963Y-73275000D02*
X95325000Y-73275000D01*
X120800000Y-82600000D02*
X120800000Y-82075736D01*
X95325000Y-73275000D02*
X95200000Y-73400000D01*
X121500000Y-81375736D02*
X121500000Y-76700000D01*
X119800000Y-86300000D02*
X119800000Y-83600000D01*
X97392463Y-73924500D02*
X96742963Y-73275000D01*
X119800000Y-83600000D02*
X120800000Y-82600000D01*
X117625000Y-89825000D02*
X117600000Y-89800000D01*
X117625000Y-94075000D02*
X117625000Y-89825000D01*
%TO.N,BUT_ENTER*%
X120500000Y-92505026D02*
X120500000Y-91500000D01*
X122200000Y-89800000D02*
X120500000Y-91500000D01*
X119900000Y-97675500D02*
X118724500Y-96500000D01*
X117805026Y-95200000D02*
X120500000Y-92505026D01*
X117100000Y-95200000D02*
X117805026Y-95200000D01*
X122200000Y-85000000D02*
X122200000Y-89800000D01*
X97057537Y-72400000D02*
X98057537Y-73400000D01*
X116900000Y-95400000D02*
X117100000Y-95200000D01*
X98057537Y-73400000D02*
X123200000Y-73400000D01*
X95300000Y-72400000D02*
X97057537Y-72400000D01*
X118724500Y-96500000D02*
X117457537Y-96500000D01*
X122700000Y-84500000D02*
X122200000Y-85000000D01*
X117457537Y-96500000D02*
X116900000Y-95942463D01*
X123200000Y-73400000D02*
X123300000Y-73500000D01*
X124100000Y-81700000D02*
X124100000Y-83100000D01*
X123600000Y-77000000D02*
X123600000Y-81200000D01*
X116900000Y-95942463D02*
X116900000Y-95400000D01*
X123600000Y-81200000D02*
X124100000Y-81700000D01*
X124100000Y-83100000D02*
X122700000Y-84500000D01*
%TO.N,Net-(C11-Pad2)*%
X118250000Y-96950000D02*
X119100000Y-97800000D01*
X122091666Y-98200000D02*
X120600000Y-98200000D01*
X119500000Y-98200000D02*
X119100000Y-97800000D01*
X120600000Y-98200000D02*
X119500000Y-98200000D01*
X123341666Y-96950000D02*
X122091666Y-98200000D01*
X115391666Y-96950000D02*
X118250000Y-96950000D01*
D27*
%TO.N,AC_ground*%
X94500000Y-41000000D02*
X96000000Y-41000000D01*
X90400000Y-61500000D02*
X90400000Y-45100000D01*
X90400000Y-45100000D02*
X94500000Y-41000000D01*
X96000000Y-41000000D02*
X101000000Y-41000000D01*
X101000000Y-63500000D02*
X96000000Y-63500000D01*
X96000000Y-63500000D02*
X92100000Y-63500000D01*
X92100000Y-63200000D02*
X90400000Y-61500000D01*
X92100000Y-63500000D02*
X92100000Y-63200000D01*
D25*
%TO.N,DC_Out2*%
X89900500Y-81600500D02*
X89900500Y-74999500D01*
X89900500Y-74999500D02*
X98500000Y-66400000D01*
X91500000Y-92200000D02*
X91500000Y-83200000D01*
X113300000Y-60700000D02*
X113600000Y-60700000D01*
X90950000Y-92750000D02*
X91500000Y-92200000D01*
X98500000Y-66400000D02*
X107600000Y-66400000D01*
X91500000Y-83200000D02*
X89900500Y-81600500D01*
X89675000Y-92750000D02*
X90950000Y-92750000D01*
X107600000Y-66400000D02*
X113300000Y-60700000D01*
D27*
%TO.N,Net-(K1-AC_LOAD_2)*%
X104600000Y-48500000D02*
X112000000Y-41100000D01*
X96000000Y-48500000D02*
X101000000Y-48500000D01*
X101000000Y-48500000D02*
X104600000Y-48500000D01*
D25*
%TO.N,Net-(LED1-Pad1)*%
X118362500Y-101362500D02*
X118000000Y-101000000D01*
X119700000Y-101362500D02*
X118362500Y-101362500D01*
D26*
%TO.N,LED_OUT1*%
X101400000Y-79875000D02*
X101175000Y-80100000D01*
X109200000Y-99450000D02*
X109200000Y-99250000D01*
X103400000Y-84200000D02*
X103100000Y-83900000D01*
X99600000Y-80100000D02*
X99200000Y-79700000D01*
X109200000Y-99250000D02*
X105650000Y-95700000D01*
X101175000Y-80100000D02*
X99600000Y-80100000D01*
X105650000Y-95700000D02*
X104700000Y-95700000D01*
X104600000Y-80775500D02*
X103699500Y-79875000D01*
X104200000Y-85000000D02*
X103400000Y-84200000D01*
X103699500Y-79875000D02*
X101400000Y-79875000D01*
D25*
%TO.N,Net-(LED2-Pad1)*%
X109200000Y-101350000D02*
X110150000Y-101350000D01*
X110150000Y-101350000D02*
X110500000Y-101000000D01*
%TO.N,Net-(LED3-Pad1)*%
X115650000Y-101350000D02*
X116000000Y-101000000D01*
X114400000Y-101350000D02*
X115650000Y-101350000D01*
D26*
%TO.N,LED_OUT2*%
X102200000Y-84700000D02*
X102200000Y-83824500D01*
X108982220Y-90775000D02*
X104900500Y-90775000D01*
X113550000Y-99450000D02*
X110600000Y-96500000D01*
X100924500Y-81275500D02*
X100875500Y-81275500D01*
X114400000Y-99450000D02*
X113550000Y-99450000D01*
X100875500Y-81275500D02*
X100175500Y-80575500D01*
X103200000Y-81275500D02*
X100924500Y-81275500D01*
X109431286Y-91224066D02*
X108982220Y-90775000D01*
X100175500Y-80575500D02*
X99100000Y-80575500D01*
X103000000Y-85500000D02*
X102200000Y-84700000D01*
X104900500Y-90775000D02*
X104900000Y-90775500D01*
X110600000Y-96500000D02*
X110600000Y-94200000D01*
%TO.N,Net-(LED4-Pad1)*%
X88400000Y-86600000D02*
X88400000Y-86162500D01*
D27*
%TO.N,AC_N*%
X96000000Y-33500000D02*
X101000000Y-33500000D01*
X124500000Y-28400000D02*
X117200000Y-35700000D01*
X96000000Y-56000000D02*
X101000000Y-56000000D01*
X124500000Y-25825000D02*
X124500000Y-28400000D01*
X117200000Y-35700000D02*
X103200000Y-35700000D01*
X103200000Y-35700000D02*
X101000000Y-33500000D01*
%TO.N,AC_L*%
X96000000Y-26000000D02*
X101000000Y-26000000D01*
X107000000Y-26000000D02*
X112000000Y-31000000D01*
X101000000Y-26000000D02*
X107000000Y-26000000D01*
D26*
%TO.N,USB_D-*%
X93700000Y-74800000D02*
X93500000Y-75000000D01*
X129475000Y-76175000D02*
X119925000Y-76175000D01*
X97400000Y-76700000D02*
X95500000Y-74800000D01*
X131300000Y-78000000D02*
X129475000Y-76175000D01*
X95500000Y-74800000D02*
X93700000Y-74800000D01*
X119400000Y-76700000D02*
X97400000Y-76700000D01*
X119925000Y-76175000D02*
X119400000Y-76700000D01*
%TO.N,USB_D+*%
X93600000Y-74300000D02*
X93500000Y-74200000D01*
X97900000Y-76300000D02*
X95900000Y-74300000D01*
X132500000Y-78200000D02*
X130175000Y-75875000D01*
X119375736Y-76300000D02*
X97900000Y-76300000D01*
X130175000Y-75875000D02*
X119800736Y-75875000D01*
X119800736Y-75875000D02*
X119375736Y-76300000D01*
X95900000Y-74300000D02*
X93600000Y-74300000D01*
%TO.N,SWDIO*%
X92200000Y-81400000D02*
X95300000Y-84500000D01*
X95300000Y-84500000D02*
X95300000Y-85700000D01*
X97130000Y-99330000D02*
X96300000Y-98500000D01*
X89300000Y-81400000D02*
X89300000Y-74700000D01*
X91000000Y-81400000D02*
X92200000Y-81400000D01*
X89300000Y-74700000D02*
X89400000Y-74600000D01*
%TO.N,SWCLK*%
X88775000Y-82475000D02*
X88775000Y-71725000D01*
X88775000Y-71725000D02*
X90000000Y-70500000D01*
X90000000Y-83700000D02*
X88775000Y-82475000D01*
X90000000Y-84900000D02*
X90000000Y-83700000D01*
X99000000Y-88800000D02*
X93900000Y-88800000D01*
X98400000Y-99330000D02*
X98400000Y-98400000D01*
X90000000Y-70500000D02*
X93000000Y-70500000D01*
X98400000Y-98400000D02*
X99000000Y-97800000D01*
X93900000Y-88800000D02*
X93600000Y-88500000D01*
%TO.N,reset*%
X96525500Y-73800000D02*
X96700000Y-73800000D01*
X98600000Y-75700000D02*
X101500000Y-75700000D01*
X93100000Y-81600000D02*
X93100000Y-81300000D01*
X93400000Y-100400000D02*
X96200000Y-97600000D01*
X96200000Y-97600000D02*
X98100000Y-97600000D01*
X98400000Y-100600000D02*
X97275000Y-101725000D01*
X97275000Y-101725000D02*
X93725000Y-101725000D01*
X97000000Y-85500000D02*
X93100000Y-81600000D01*
X93725000Y-101725000D02*
X93400000Y-101400000D01*
X96700000Y-73800000D02*
X98600000Y-75700000D01*
X93400000Y-101400000D02*
X93400000Y-100400000D01*
D25*
%TO.N,Activation_out1*%
X114400000Y-56200000D02*
X114400000Y-65200000D01*
X112700000Y-66900000D02*
X111400000Y-66900000D01*
X112000000Y-53800000D02*
X114400000Y-56200000D01*
X114400000Y-65200000D02*
X112700000Y-66900000D01*
%TO.N,Net-(LS1-+)*%
X104100000Y-90000000D02*
X107900000Y-90000000D01*
X107900000Y-90000000D02*
X109900000Y-88000000D01*
X103800000Y-90300000D02*
X104100000Y-90000000D01*
D26*
%TO.N,C_1*%
X98800000Y-83300000D02*
X106100000Y-83300000D01*
X98300000Y-83800000D02*
X98800000Y-83300000D01*
%TO.N,C_2*%
X107575000Y-81175000D02*
X109400000Y-83000000D01*
X104500000Y-81800000D02*
X105125000Y-81175000D01*
X105125000Y-81175000D02*
X107575000Y-81175000D01*
X100324264Y-81300000D02*
X100824264Y-81800000D01*
X97300000Y-81300000D02*
X100324264Y-81300000D01*
X112000000Y-83000000D02*
X112800000Y-82200000D01*
X109400000Y-83000000D02*
X112000000Y-83000000D01*
X96991756Y-81050500D02*
X97050500Y-81050500D01*
X112800000Y-82200000D02*
X112800000Y-81900000D01*
X100824264Y-81800000D02*
X104500000Y-81800000D01*
X97050500Y-81050500D02*
X97300000Y-81300000D01*
%TO.N,C_3*%
X105200000Y-82100000D02*
X105600000Y-81700000D01*
X96070878Y-80929122D02*
X96841756Y-81700000D01*
X111100000Y-80200000D02*
X116800000Y-80200000D01*
X108500000Y-77600000D02*
X111100000Y-80200000D01*
X100300000Y-81700000D02*
X100700000Y-82100000D01*
X96841756Y-81700000D02*
X100300000Y-81700000D01*
X100700000Y-82100000D02*
X105200000Y-82100000D01*
%TO.N,C_4*%
X119400000Y-81100000D02*
X119800000Y-81500000D01*
X111000000Y-81100000D02*
X119400000Y-81100000D01*
X110500000Y-80600000D02*
X111000000Y-81100000D01*
X119800000Y-81500000D02*
X119800000Y-82100000D01*
X98375500Y-77400000D02*
X107300000Y-77400000D01*
X107300000Y-77400000D02*
X110500000Y-80600000D01*
%TO.N,CC_4*%
X121000000Y-83500000D02*
X121000000Y-85240000D01*
X122800000Y-81700000D02*
X121000000Y-83500000D01*
X122800000Y-77224500D02*
X122800000Y-81700000D01*
%TO.N,C_buzzer*%
X101804104Y-88504104D02*
X106578358Y-88504104D01*
X100700000Y-87400000D02*
X101804104Y-88504104D01*
X93400000Y-80100000D02*
X100700000Y-87400000D01*
%TO.N,C_out1*%
X105800000Y-67800000D02*
X102700000Y-70900000D01*
X92800000Y-77700000D02*
X92400000Y-77300000D01*
X113600000Y-67800000D02*
X105800000Y-67800000D01*
X92400000Y-73300000D02*
X92400000Y-77300000D01*
X114500000Y-66900000D02*
X113600000Y-67800000D01*
X94800000Y-70900000D02*
X92400000Y-73300000D01*
X94300000Y-77700000D02*
X92800000Y-77700000D01*
X102700000Y-70900000D02*
X94800000Y-70900000D01*
%TO.N,C_out2*%
X106700000Y-68200000D02*
X114200000Y-68200000D01*
X92800000Y-75500000D02*
X92800000Y-73500000D01*
X92800000Y-73500000D02*
X95100000Y-71200000D01*
X95100000Y-71200000D02*
X103700000Y-71200000D01*
X114200000Y-68200000D02*
X116100000Y-66300000D01*
X116100000Y-66300000D02*
X116100000Y-63100000D01*
X103700000Y-71200000D02*
X106700000Y-68200000D01*
X93400000Y-76100000D02*
X92800000Y-75500000D01*
%TO.N,Net-(R15-Pad2)*%
X133400000Y-92758334D02*
X133708334Y-92450000D01*
X125758334Y-92758334D02*
X127800000Y-94800000D01*
X133400000Y-93300000D02*
X133400000Y-92758334D01*
X125758334Y-92450000D02*
X125758334Y-92758334D01*
%TO.N,Net-(R16-Pad1)*%
X94658334Y-92450000D02*
X102608334Y-92450000D01*
X103758334Y-91300000D02*
X102608334Y-92450000D01*
X107100000Y-91300000D02*
X103758334Y-91300000D01*
%TO.N,Net-(R22-Pad2)*%
X111500000Y-94600000D02*
X112975000Y-93125000D01*
X112975000Y-93125000D02*
X112975000Y-92450000D01*
X107850000Y-92450000D02*
X108400000Y-91900000D01*
X108400000Y-91900000D02*
X112425000Y-91900000D01*
X112425000Y-91900000D02*
X112975000Y-92450000D01*
X105025000Y-92450000D02*
X107850000Y-92450000D01*
%TO.N,D_e*%
X106975000Y-79575000D02*
X99975000Y-79575000D01*
X109500000Y-82100000D02*
X106975000Y-79575000D01*
%TO.N,D_d*%
X107300000Y-78900000D02*
X99300000Y-78900000D01*
X110700000Y-82300000D02*
X107600000Y-79200000D01*
X107600000Y-79200000D02*
X107300000Y-78900000D01*
%TO.N,D_dp*%
X95000000Y-81100000D02*
X94800000Y-80900000D01*
X94800000Y-80900000D02*
X94800000Y-79600000D01*
X111840000Y-83700000D02*
X108100000Y-83700000D01*
X108100000Y-83700000D02*
X107100000Y-82700000D01*
X97200000Y-82700000D02*
X96600000Y-82700000D01*
X107100000Y-82700000D02*
X97200000Y-82700000D01*
X113380000Y-85240000D02*
X111840000Y-83700000D01*
X96600000Y-82700000D02*
X95000000Y-81100000D01*
%TO.N,D_c*%
X111600000Y-82200000D02*
X107600000Y-78200000D01*
X107600000Y-78200000D02*
X98500000Y-78200000D01*
%TO.N,D_g*%
X107500000Y-82400000D02*
X98600000Y-82400000D01*
X118460000Y-85240000D02*
X116620000Y-83400000D01*
X98600000Y-82400000D02*
X96800000Y-82400000D01*
X96800000Y-82400000D02*
X95500000Y-81100000D01*
X116620000Y-83400000D02*
X108500000Y-83400000D01*
X95500000Y-81100000D02*
X95500000Y-80100000D01*
X108500000Y-83400000D02*
X107500000Y-82400000D01*
%TO.N,D_b*%
X118275000Y-72725000D02*
X99025000Y-72725000D01*
X98950000Y-72800000D02*
X99025000Y-72725000D01*
X98200000Y-72800000D02*
X98950000Y-72800000D01*
X121000000Y-70000000D02*
X118275000Y-72725000D01*
%TO.N,D_f*%
X113380000Y-70000000D02*
X111180000Y-72200000D01*
X111180000Y-72200000D02*
X100500000Y-72200000D01*
%TO.N,D_a*%
X110840000Y-70000000D02*
X109340000Y-71500000D01*
X109340000Y-71500000D02*
X98300000Y-71500000D01*
X98300000Y-71500000D02*
X97700000Y-72100000D01*
%TD*%
%TA.AperFunction,Conductor*%
%TO.N,GND*%
G36*
X141137500Y-52516613D02*
G01*
X141182887Y-52562000D01*
X141199500Y-52624000D01*
X141199500Y-70982624D01*
X141181381Y-71047162D01*
X141132320Y-71092840D01*
X141079975Y-71103575D01*
X139903553Y-72280000D01*
X141079975Y-73456423D01*
X141132320Y-73467159D01*
X141181381Y-73512837D01*
X141199500Y-73577375D01*
X141199500Y-82222624D01*
X141181381Y-82287162D01*
X141132320Y-82332840D01*
X141079975Y-82343575D01*
X139903553Y-83520000D01*
X141079975Y-84696423D01*
X141132320Y-84707159D01*
X141181381Y-84752837D01*
X141199500Y-84817375D01*
X141199500Y-97297294D01*
X141199382Y-97302703D01*
X141182614Y-97686750D01*
X141181671Y-97697526D01*
X141131849Y-98075957D01*
X141129971Y-98086610D01*
X141047354Y-98459272D01*
X141044554Y-98469721D01*
X140929775Y-98833755D01*
X140926075Y-98843921D01*
X140780002Y-99196572D01*
X140775430Y-99206376D01*
X140599183Y-99544942D01*
X140593775Y-99554310D01*
X140388681Y-99876244D01*
X140382476Y-99885105D01*
X140150110Y-100187930D01*
X140143156Y-100196217D01*
X139885284Y-100477635D01*
X139877635Y-100485284D01*
X139596217Y-100743156D01*
X139587930Y-100750110D01*
X139285105Y-100982476D01*
X139276244Y-100988681D01*
X138954310Y-101193775D01*
X138944942Y-101199183D01*
X138606376Y-101375430D01*
X138596572Y-101380002D01*
X138243921Y-101526075D01*
X138233755Y-101529775D01*
X137869721Y-101644554D01*
X137859272Y-101647354D01*
X137486610Y-101729971D01*
X137475957Y-101731849D01*
X137097526Y-101781671D01*
X137086750Y-101782614D01*
X136702703Y-101799382D01*
X136697294Y-101799500D01*
X121024500Y-101799500D01*
X120962500Y-101782887D01*
X120917113Y-101737500D01*
X120900500Y-101675500D01*
X120900499Y-100864630D01*
X120899787Y-100858009D01*
X120894091Y-100805017D01*
X120843796Y-100670169D01*
X120809091Y-100623809D01*
X120784853Y-100560552D01*
X120797475Y-100493996D01*
X120843192Y-100444005D01*
X120908359Y-100425500D01*
X121355145Y-100425500D01*
X121421116Y-100444505D01*
X121550478Y-100525789D01*
X121720745Y-100585368D01*
X121900000Y-100605565D01*
X122079255Y-100585368D01*
X122249522Y-100525789D01*
X122402262Y-100429816D01*
X122529816Y-100302262D01*
X122625789Y-100149522D01*
X122685368Y-99979255D01*
X122705565Y-99800000D01*
X122685368Y-99620745D01*
X122625789Y-99450478D01*
X122529816Y-99297738D01*
X122529815Y-99297737D01*
X122529814Y-99297735D01*
X122402264Y-99170185D01*
X122249519Y-99074209D01*
X122087948Y-99017673D01*
X122034012Y-98980455D01*
X122006578Y-98920942D01*
X122013308Y-98855757D01*
X122052323Y-98803105D01*
X122112724Y-98777692D01*
X122119888Y-98776749D01*
X122121329Y-98776560D01*
X122121342Y-98776559D01*
X122129386Y-98775500D01*
X122241902Y-98760687D01*
X122381899Y-98702698D01*
X122405448Y-98684628D01*
X122471934Y-98633612D01*
X122471934Y-98633610D01*
X122488226Y-98621110D01*
X122488227Y-98621108D01*
X122502117Y-98610451D01*
X122520336Y-98586706D01*
X122531016Y-98574528D01*
X122968726Y-98136818D01*
X123008955Y-98109938D01*
X123056408Y-98100499D01*
X124164536Y-98100499D01*
X124164538Y-98100499D01*
X124224149Y-98094091D01*
X124358997Y-98043796D01*
X124474212Y-97957546D01*
X124474213Y-97957543D01*
X124476105Y-97956128D01*
X124524057Y-97934229D01*
X124576774Y-97934229D01*
X124624726Y-97956128D01*
X124741242Y-98043351D01*
X124875958Y-98093597D01*
X124935510Y-98100000D01*
X125508334Y-98100000D01*
X125508334Y-97200000D01*
X126008334Y-97200000D01*
X126008334Y-98100000D01*
X126581158Y-98100000D01*
X126640709Y-98093597D01*
X126775423Y-98043352D01*
X126890522Y-97957188D01*
X126976686Y-97842089D01*
X127026931Y-97707375D01*
X127033334Y-97647824D01*
X127033334Y-97200000D01*
X132433334Y-97200000D01*
X132433334Y-97647824D01*
X132439736Y-97707375D01*
X132489981Y-97842089D01*
X132576145Y-97957188D01*
X132691244Y-98043352D01*
X132825958Y-98093597D01*
X132885510Y-98100000D01*
X133458334Y-98100000D01*
X133458334Y-97200000D01*
X133958334Y-97200000D01*
X133958334Y-98100000D01*
X134531158Y-98100000D01*
X134590709Y-98093597D01*
X134725423Y-98043352D01*
X134840522Y-97957188D01*
X134926686Y-97842089D01*
X134976931Y-97707375D01*
X134983334Y-97647824D01*
X134983334Y-97200000D01*
X133958334Y-97200000D01*
X133458334Y-97200000D01*
X132433334Y-97200000D01*
X127033334Y-97200000D01*
X126008334Y-97200000D01*
X125508334Y-97200000D01*
X125508334Y-95800000D01*
X126008334Y-95800000D01*
X126008334Y-96700000D01*
X127033334Y-96700000D01*
X132433334Y-96700000D01*
X133458334Y-96700000D01*
X133458334Y-95800000D01*
X133958334Y-95800000D01*
X133958334Y-96700000D01*
X134983334Y-96700000D01*
X134983334Y-96252176D01*
X134976931Y-96192624D01*
X134926686Y-96057910D01*
X134840522Y-95942811D01*
X134725423Y-95856647D01*
X134590709Y-95806402D01*
X134531158Y-95800000D01*
X133958334Y-95800000D01*
X133458334Y-95800000D01*
X132885510Y-95800000D01*
X132825958Y-95806402D01*
X132691244Y-95856647D01*
X132576145Y-95942811D01*
X132489981Y-96057910D01*
X132439736Y-96192624D01*
X132433334Y-96252176D01*
X132433334Y-96700000D01*
X127033334Y-96700000D01*
X127033334Y-96252176D01*
X127026931Y-96192624D01*
X126976686Y-96057910D01*
X126890522Y-95942811D01*
X126775423Y-95856647D01*
X126640709Y-95806402D01*
X126581158Y-95800000D01*
X126008334Y-95800000D01*
X125508334Y-95800000D01*
X124935510Y-95800000D01*
X124875958Y-95806402D01*
X124741242Y-95856648D01*
X124624726Y-95943871D01*
X124576774Y-95965770D01*
X124524058Y-95965770D01*
X124476105Y-95943871D01*
X124358997Y-95856204D01*
X124224149Y-95805909D01*
X124220949Y-95805565D01*
X124164539Y-95799500D01*
X124164535Y-95799500D01*
X123030245Y-95799500D01*
X122967244Y-95782303D01*
X122921717Y-95735481D01*
X122906294Y-95672023D01*
X122925251Y-95609528D01*
X122973854Y-95532176D01*
X123025789Y-95449522D01*
X123085368Y-95279255D01*
X123105565Y-95100000D01*
X123085368Y-94920745D01*
X123025789Y-94750478D01*
X122929816Y-94597738D01*
X122929815Y-94597737D01*
X122929814Y-94597735D01*
X122802264Y-94470185D01*
X122702609Y-94407568D01*
X122649522Y-94374211D01*
X122479255Y-94314632D01*
X122479253Y-94314631D01*
X122479251Y-94314631D01*
X122300000Y-94294434D01*
X122120748Y-94314631D01*
X122120745Y-94314631D01*
X122120745Y-94314632D01*
X121950478Y-94374211D01*
X121950476Y-94374211D01*
X121950476Y-94374212D01*
X121821117Y-94455494D01*
X121755145Y-94474500D01*
X119643768Y-94474500D01*
X119587473Y-94460985D01*
X119543450Y-94423385D01*
X119521295Y-94369898D01*
X119525837Y-94312182D01*
X119556087Y-94262819D01*
X119881144Y-93937762D01*
X120874528Y-92944376D01*
X120886706Y-92933696D01*
X120910451Y-92915477D01*
X120913719Y-92911217D01*
X120921108Y-92901589D01*
X120921109Y-92901588D01*
X120933612Y-92885294D01*
X121002699Y-92795259D01*
X121042156Y-92700000D01*
X122066666Y-92700000D01*
X122066666Y-93147824D01*
X122073068Y-93207375D01*
X122123313Y-93342089D01*
X122209477Y-93457188D01*
X122324576Y-93543352D01*
X122459290Y-93593597D01*
X122518842Y-93600000D01*
X123091666Y-93600000D01*
X123591666Y-93600000D01*
X124164490Y-93600000D01*
X124224041Y-93593597D01*
X124358755Y-93543352D01*
X124475270Y-93456128D01*
X124523223Y-93434228D01*
X124575940Y-93434228D01*
X124623893Y-93456127D01*
X124625787Y-93457545D01*
X124625788Y-93457546D01*
X124741003Y-93543796D01*
X124875851Y-93594091D01*
X124935461Y-93600500D01*
X125735257Y-93600499D01*
X125782710Y-93609938D01*
X125822938Y-93636818D01*
X126964809Y-94778689D01*
X126988848Y-94812568D01*
X127000348Y-94852486D01*
X127014631Y-94979250D01*
X127014631Y-94979251D01*
X127014632Y-94979255D01*
X127074211Y-95149522D01*
X127074212Y-95149523D01*
X127170185Y-95302264D01*
X127297735Y-95429814D01*
X127297737Y-95429815D01*
X127297738Y-95429816D01*
X127450478Y-95525789D01*
X127620745Y-95585368D01*
X127800000Y-95605565D01*
X127979255Y-95585368D01*
X128149522Y-95525789D01*
X128302262Y-95429816D01*
X128429816Y-95302262D01*
X128525789Y-95149522D01*
X128585368Y-94979255D01*
X128605565Y-94800000D01*
X128585368Y-94620745D01*
X128525789Y-94450478D01*
X128429816Y-94297738D01*
X128429815Y-94297737D01*
X128429814Y-94297735D01*
X128302264Y-94170185D01*
X128218989Y-94117860D01*
X128149522Y-94074211D01*
X127979255Y-94014632D01*
X127979251Y-94014631D01*
X127979250Y-94014631D01*
X127852486Y-94000348D01*
X127812568Y-93988848D01*
X127778689Y-93964809D01*
X127068786Y-93254906D01*
X127039529Y-93208473D01*
X127033179Y-93153962D01*
X127033834Y-93147873D01*
X127033833Y-91752128D01*
X127027425Y-91692517D01*
X126977130Y-91557669D01*
X126890880Y-91442454D01*
X126775665Y-91356204D01*
X126640817Y-91305909D01*
X126581207Y-91299500D01*
X126581203Y-91299500D01*
X124935464Y-91299500D01*
X124875849Y-91305909D01*
X124756296Y-91350500D01*
X124741003Y-91356204D01*
X124649207Y-91424923D01*
X124623894Y-91443872D01*
X124575941Y-91465771D01*
X124523225Y-91465771D01*
X124475272Y-91443872D01*
X124358754Y-91356647D01*
X124224041Y-91306402D01*
X124164490Y-91300000D01*
X123591666Y-91300000D01*
X123591666Y-93600000D01*
X123091666Y-93600000D01*
X123091666Y-92700000D01*
X122066666Y-92700000D01*
X121042156Y-92700000D01*
X121045834Y-92691121D01*
X121054506Y-92670185D01*
X121054506Y-92670184D01*
X121054506Y-92670183D01*
X121060687Y-92655262D01*
X121075500Y-92542746D01*
X121080466Y-92505026D01*
X121076560Y-92475363D01*
X121075500Y-92459180D01*
X121075500Y-92200000D01*
X122066666Y-92200000D01*
X123091666Y-92200000D01*
X123091666Y-91300000D01*
X122518842Y-91300000D01*
X122459290Y-91306402D01*
X122324576Y-91356647D01*
X122209477Y-91442811D01*
X122123313Y-91557910D01*
X122073068Y-91692624D01*
X122066666Y-91752176D01*
X122066666Y-92200000D01*
X121075500Y-92200000D01*
X121075500Y-92107941D01*
X121084939Y-92060488D01*
X121111819Y-92020260D01*
X121129814Y-92002264D01*
X121129813Y-92002264D01*
X121129816Y-92002262D01*
X121225789Y-91849522D01*
X121285368Y-91679255D01*
X121299651Y-91552485D01*
X121311151Y-91512568D01*
X121335187Y-91478691D01*
X122574528Y-90239350D01*
X122586706Y-90228670D01*
X122610451Y-90210451D01*
X122621110Y-90196560D01*
X122633610Y-90180269D01*
X122633612Y-90180268D01*
X122702698Y-90090233D01*
X122732016Y-90019451D01*
X122744161Y-89990133D01*
X122760687Y-89950235D01*
X122776561Y-89829662D01*
X122776561Y-89829655D01*
X122780465Y-89800000D01*
X122776561Y-89770345D01*
X122775500Y-89754160D01*
X122775500Y-85289742D01*
X122784939Y-85242289D01*
X122811819Y-85202061D01*
X122967344Y-85046536D01*
X123133612Y-84880268D01*
X123133612Y-84880267D01*
X123812818Y-84201061D01*
X123862182Y-84170811D01*
X123919898Y-84166269D01*
X123973385Y-84188424D01*
X124010985Y-84232447D01*
X124024500Y-84288742D01*
X124024500Y-87354160D01*
X124023439Y-87370345D01*
X124019534Y-87400000D01*
X124023439Y-87429655D01*
X124023439Y-87429662D01*
X124039312Y-87550235D01*
X124068519Y-87620745D01*
X124097302Y-87690233D01*
X124166388Y-87780268D01*
X124166391Y-87780271D01*
X124189549Y-87810452D01*
X124213286Y-87828666D01*
X124225480Y-87839360D01*
X131161493Y-94775373D01*
X131190853Y-94822098D01*
X131197033Y-94876935D01*
X131194434Y-94900001D01*
X131214631Y-95079251D01*
X131214631Y-95079253D01*
X131214632Y-95079255D01*
X131274211Y-95249522D01*
X131274212Y-95249523D01*
X131370185Y-95402264D01*
X131497735Y-95529814D01*
X131497737Y-95529815D01*
X131497738Y-95529816D01*
X131650478Y-95625789D01*
X131820745Y-95685368D01*
X132000000Y-95705565D01*
X132179255Y-95685368D01*
X132349522Y-95625789D01*
X132502262Y-95529816D01*
X132629816Y-95402262D01*
X132725789Y-95249522D01*
X132785368Y-95079255D01*
X132805565Y-94900000D01*
X132785368Y-94720745D01*
X132725789Y-94550478D01*
X132629816Y-94397738D01*
X132629815Y-94397737D01*
X132629814Y-94397735D01*
X132502264Y-94270185D01*
X132349519Y-94174209D01*
X132179256Y-94114631D01*
X132165183Y-94113046D01*
X132125266Y-94101546D01*
X132091387Y-94077507D01*
X125211819Y-87197939D01*
X125184939Y-87157711D01*
X125175500Y-87110258D01*
X125175500Y-84374315D01*
X125189333Y-84317401D01*
X125227745Y-84273186D01*
X125282166Y-84251533D01*
X125340454Y-84257273D01*
X125420745Y-84285368D01*
X125600000Y-84305565D01*
X125779255Y-84285368D01*
X125949522Y-84225789D01*
X126078883Y-84144505D01*
X126144855Y-84125500D01*
X130817256Y-84125500D01*
X130837762Y-84127764D01*
X130840665Y-84127672D01*
X130840667Y-84127673D01*
X130907872Y-84125561D01*
X130911768Y-84125500D01*
X130939349Y-84125500D01*
X130939350Y-84125500D01*
X130943319Y-84124998D01*
X130954965Y-84124080D01*
X130998627Y-84122709D01*
X131017859Y-84117120D01*
X131036918Y-84113174D01*
X131043196Y-84112381D01*
X131056792Y-84110664D01*
X131097407Y-84094582D01*
X131108444Y-84090803D01*
X131150390Y-84078618D01*
X131167629Y-84068422D01*
X131185102Y-84059862D01*
X131203732Y-84052486D01*
X131239064Y-84026814D01*
X131248830Y-84020400D01*
X131286418Y-83998171D01*
X131286417Y-83998171D01*
X131286420Y-83998170D01*
X131300585Y-83984004D01*
X131315373Y-83971373D01*
X131331587Y-83959594D01*
X131352212Y-83934661D01*
X131388750Y-83904640D01*
X131433874Y-83890481D01*
X131441599Y-83889610D01*
X131479255Y-83885368D01*
X131649522Y-83825789D01*
X131802262Y-83729816D01*
X131929816Y-83602262D01*
X132025789Y-83449522D01*
X132085368Y-83279255D01*
X132105565Y-83100000D01*
X132085368Y-82920745D01*
X132025789Y-82750478D01*
X131929816Y-82597738D01*
X131929815Y-82597737D01*
X131929814Y-82597735D01*
X131802264Y-82470185D01*
X131694163Y-82402261D01*
X131649522Y-82374211D01*
X131479255Y-82314632D01*
X131479253Y-82314631D01*
X131479251Y-82314631D01*
X131300000Y-82294434D01*
X131120748Y-82314631D01*
X131120745Y-82314631D01*
X131120745Y-82314632D01*
X130950478Y-82374211D01*
X130950476Y-82374211D01*
X130950476Y-82374212D01*
X130797735Y-82470185D01*
X130670185Y-82597735D01*
X130574209Y-82750480D01*
X130559872Y-82791455D01*
X130533729Y-82834842D01*
X130492417Y-82864154D01*
X130442831Y-82874500D01*
X126256819Y-82874500D01*
X126199905Y-82860667D01*
X126155689Y-82822255D01*
X126134037Y-82767834D01*
X126139776Y-82709547D01*
X126185368Y-82579255D01*
X126190672Y-82532169D01*
X126202171Y-82492257D01*
X126226208Y-82458380D01*
X127983789Y-80700800D01*
X127999885Y-80687906D01*
X128001873Y-80685787D01*
X128001877Y-80685786D01*
X128047948Y-80636723D01*
X128050566Y-80634023D01*
X128070120Y-80614471D01*
X128072581Y-80611298D01*
X128080156Y-80602427D01*
X128110062Y-80570582D01*
X128119712Y-80553027D01*
X128130400Y-80536757D01*
X128142671Y-80520938D01*
X128142673Y-80520936D01*
X128160026Y-80480832D01*
X128165157Y-80470362D01*
X128165392Y-80469935D01*
X128186197Y-80432092D01*
X128191175Y-80412699D01*
X128197481Y-80394282D01*
X128200278Y-80387819D01*
X128205438Y-80375896D01*
X128212272Y-80332745D01*
X128214635Y-80321331D01*
X128225500Y-80279019D01*
X128225500Y-80258984D01*
X128227027Y-80239585D01*
X128229182Y-80225978D01*
X128230160Y-80219804D01*
X128226050Y-80176325D01*
X128225500Y-80164656D01*
X128225500Y-78313505D01*
X128239870Y-78255564D01*
X128279649Y-78211051D01*
X128335617Y-78190285D01*
X128354690Y-78188135D01*
X128379255Y-78185368D01*
X128549522Y-78125789D01*
X128702262Y-78029816D01*
X128829816Y-77902262D01*
X128925789Y-77749522D01*
X128985368Y-77579255D01*
X129005565Y-77400000D01*
X128985368Y-77220745D01*
X128925789Y-77050478D01*
X128869894Y-76961522D01*
X128856668Y-76940472D01*
X128837711Y-76877977D01*
X128853134Y-76814519D01*
X128898661Y-76767697D01*
X128961662Y-76750500D01*
X129185258Y-76750500D01*
X129232711Y-76759939D01*
X129272939Y-76786819D01*
X130464809Y-77978689D01*
X130488848Y-78012568D01*
X130500348Y-78052486D01*
X130509488Y-78133609D01*
X130514632Y-78179255D01*
X130574211Y-78349522D01*
X130574212Y-78349523D01*
X130670185Y-78502264D01*
X130797735Y-78629814D01*
X130797737Y-78629815D01*
X130797738Y-78629816D01*
X130950478Y-78725789D01*
X131120745Y-78785368D01*
X131255186Y-78800515D01*
X131299999Y-78805565D01*
X131299999Y-78805564D01*
X131300000Y-78805565D01*
X131479255Y-78785368D01*
X131649522Y-78725789D01*
X131715755Y-78684171D01*
X131767841Y-78665946D01*
X131822679Y-78672124D01*
X131869406Y-78701485D01*
X131997735Y-78829814D01*
X131997737Y-78829815D01*
X131997738Y-78829816D01*
X132150478Y-78925789D01*
X132320745Y-78985368D01*
X132500000Y-79005565D01*
X132679255Y-78985368D01*
X132849522Y-78925789D01*
X132984528Y-78840958D01*
X133047022Y-78822002D01*
X133110481Y-78837425D01*
X133157303Y-78882952D01*
X133174500Y-78945953D01*
X133174500Y-90455145D01*
X133155494Y-90521117D01*
X133089418Y-90626277D01*
X133074211Y-90650478D01*
X133049254Y-90721801D01*
X133014631Y-90820748D01*
X132994434Y-91000000D01*
X133012644Y-91161616D01*
X133001146Y-91229298D01*
X132955403Y-91280490D01*
X132892063Y-91298742D01*
X132892069Y-91298791D01*
X132891793Y-91298820D01*
X132889436Y-91299500D01*
X132885469Y-91299500D01*
X132825849Y-91305909D01*
X132691003Y-91356204D01*
X132575788Y-91442454D01*
X132489538Y-91557668D01*
X132439243Y-91692516D01*
X132432834Y-91752130D01*
X132432834Y-93147869D01*
X132439243Y-93207484D01*
X132489537Y-93342329D01*
X132489538Y-93342331D01*
X132575788Y-93457546D01*
X132587477Y-93466296D01*
X132587877Y-93466596D01*
X132613585Y-93492568D01*
X132630605Y-93524906D01*
X132674209Y-93649519D01*
X132770185Y-93802264D01*
X132897735Y-93929814D01*
X132897737Y-93929815D01*
X132897738Y-93929816D01*
X133050478Y-94025789D01*
X133220745Y-94085368D01*
X133400000Y-94105565D01*
X133579255Y-94085368D01*
X133749522Y-94025789D01*
X133902262Y-93929816D01*
X134029816Y-93802262D01*
X134100787Y-93689312D01*
X134120131Y-93658527D01*
X134165144Y-93615971D01*
X134225125Y-93600499D01*
X134531204Y-93600499D01*
X134531206Y-93600499D01*
X134590817Y-93594091D01*
X134725665Y-93543796D01*
X134840880Y-93457546D01*
X134927130Y-93342331D01*
X134977425Y-93207483D01*
X134983834Y-93147873D01*
X134983833Y-91752128D01*
X134977425Y-91692517D01*
X134927130Y-91557669D01*
X134840880Y-91442454D01*
X134725665Y-91356204D01*
X134660630Y-91331947D01*
X134608883Y-91295363D01*
X134581971Y-91237987D01*
X134585472Y-91193325D01*
X134583804Y-91193138D01*
X134605565Y-91000000D01*
X134595228Y-90908255D01*
X134585368Y-90820745D01*
X134525789Y-90650478D01*
X134444505Y-90521116D01*
X134425500Y-90455145D01*
X134425500Y-89460000D01*
X136594699Y-89460000D01*
X136613865Y-89691299D01*
X136613865Y-89691301D01*
X136613866Y-89691305D01*
X136670843Y-89916300D01*
X136670844Y-89916303D01*
X136722527Y-90034127D01*
X136764076Y-90128849D01*
X136891021Y-90323153D01*
X136985803Y-90426114D01*
X137014575Y-90478865D01*
X137015168Y-90538951D01*
X136987441Y-90592261D01*
X136937906Y-90626276D01*
X136857671Y-90656202D01*
X136742454Y-90742454D01*
X136656204Y-90857668D01*
X136605909Y-90992516D01*
X136599500Y-91052130D01*
X136599500Y-92947869D01*
X136605909Y-93007484D01*
X136618825Y-93042113D01*
X136656204Y-93142331D01*
X136742454Y-93257546D01*
X136857669Y-93343796D01*
X136992517Y-93394091D01*
X137052127Y-93400500D01*
X138947872Y-93400499D01*
X139007483Y-93394091D01*
X139142331Y-93343796D01*
X139257546Y-93257546D01*
X139343796Y-93142331D01*
X139394091Y-93007483D01*
X139400500Y-92947873D01*
X139400499Y-91052128D01*
X139394091Y-90992517D01*
X139343796Y-90857669D01*
X139257546Y-90742454D01*
X139142331Y-90656204D01*
X139089357Y-90636446D01*
X139062093Y-90626277D01*
X139012558Y-90592261D01*
X138984831Y-90538951D01*
X138985424Y-90478864D01*
X139014196Y-90426114D01*
X139108979Y-90323153D01*
X139235924Y-90128849D01*
X139329157Y-89916300D01*
X139386134Y-89691305D01*
X139405300Y-89460000D01*
X139386134Y-89228695D01*
X139329157Y-89003700D01*
X139235924Y-88791151D01*
X139108979Y-88596847D01*
X138951784Y-88426087D01*
X138768626Y-88283530D01*
X138564503Y-88173064D01*
X138564499Y-88173062D01*
X138564498Y-88173062D01*
X138344984Y-88097702D01*
X138173281Y-88069050D01*
X138116049Y-88059500D01*
X137883951Y-88059500D01*
X137838164Y-88067140D01*
X137655015Y-88097702D01*
X137435501Y-88173062D01*
X137435497Y-88173063D01*
X137435497Y-88173064D01*
X137340452Y-88224500D01*
X137231372Y-88283531D01*
X137048215Y-88426087D01*
X136891020Y-88596848D01*
X136764076Y-88791150D01*
X136670844Y-89003696D01*
X136670842Y-89003700D01*
X136670843Y-89003700D01*
X136641850Y-89118192D01*
X136613865Y-89228700D01*
X136594699Y-89460000D01*
X134425500Y-89460000D01*
X134425500Y-84975760D01*
X134442521Y-84913058D01*
X134488911Y-84867570D01*
X134551935Y-84851784D01*
X134614290Y-84870033D01*
X134803151Y-84985767D01*
X135041645Y-85084555D01*
X135292652Y-85144816D01*
X135550000Y-85165070D01*
X135807347Y-85144816D01*
X136058354Y-85084555D01*
X136150139Y-85046536D01*
X138377014Y-85046536D01*
X138377015Y-85046537D01*
X138506606Y-85143548D01*
X138748281Y-85275512D01*
X139006284Y-85371743D01*
X139275343Y-85430272D01*
X139550000Y-85449917D01*
X139824656Y-85430272D01*
X140093715Y-85371743D01*
X140351718Y-85275512D01*
X140593389Y-85143550D01*
X140722984Y-85046536D01*
X139550000Y-83873553D01*
X138377014Y-85046536D01*
X136150139Y-85046536D01*
X136296848Y-84985767D01*
X136516945Y-84850891D01*
X136522550Y-84846103D01*
X135284128Y-83607681D01*
X135252034Y-83552094D01*
X135252034Y-83520001D01*
X135903553Y-83520001D01*
X136876103Y-84492550D01*
X136880891Y-84486945D01*
X137015767Y-84266848D01*
X137114555Y-84028354D01*
X137174816Y-83777347D01*
X137195070Y-83520000D01*
X137620082Y-83520000D01*
X137639727Y-83794656D01*
X137698256Y-84063715D01*
X137794487Y-84321718D01*
X137926451Y-84563393D01*
X138023461Y-84692983D01*
X138023462Y-84692984D01*
X139196446Y-83520001D01*
X139196446Y-83520000D01*
X138023462Y-82347015D01*
X137926449Y-82476611D01*
X137794487Y-82718281D01*
X137698256Y-82976284D01*
X137639727Y-83245343D01*
X137620082Y-83520000D01*
X137195070Y-83520000D01*
X137174816Y-83262652D01*
X137114555Y-83011645D01*
X137015767Y-82773151D01*
X136880889Y-82553051D01*
X136876103Y-82547447D01*
X135903553Y-83520000D01*
X135903553Y-83520001D01*
X135252034Y-83520001D01*
X135252034Y-83487906D01*
X135284128Y-83432319D01*
X136522551Y-82193895D01*
X136522551Y-82193894D01*
X136516948Y-82189109D01*
X136296848Y-82054232D01*
X136150137Y-81993462D01*
X138377015Y-81993462D01*
X139550000Y-83166446D01*
X140722984Y-81993462D01*
X140722983Y-81993461D01*
X140593393Y-81896451D01*
X140351718Y-81764487D01*
X140093715Y-81668256D01*
X139824656Y-81609727D01*
X139550000Y-81590082D01*
X139275343Y-81609727D01*
X139006284Y-81668256D01*
X138748281Y-81764487D01*
X138506611Y-81896449D01*
X138377015Y-81993462D01*
X136150137Y-81993462D01*
X136058354Y-81955444D01*
X135807347Y-81895183D01*
X135550000Y-81874929D01*
X135292652Y-81895183D01*
X135041645Y-81955444D01*
X134803151Y-82054232D01*
X134614290Y-82169967D01*
X134551935Y-82188216D01*
X134488911Y-82172430D01*
X134442521Y-82126942D01*
X134425500Y-82064240D01*
X134425500Y-73735760D01*
X134442521Y-73673058D01*
X134488911Y-73627570D01*
X134551935Y-73611784D01*
X134614290Y-73630033D01*
X134803151Y-73745767D01*
X135041645Y-73844555D01*
X135292652Y-73904816D01*
X135550000Y-73925070D01*
X135807347Y-73904816D01*
X136058354Y-73844555D01*
X136150139Y-73806536D01*
X138377014Y-73806536D01*
X138377015Y-73806537D01*
X138506606Y-73903548D01*
X138748281Y-74035512D01*
X139006284Y-74131743D01*
X139275343Y-74190272D01*
X139550000Y-74209917D01*
X139824656Y-74190272D01*
X140093715Y-74131743D01*
X140351718Y-74035512D01*
X140593389Y-73903550D01*
X140722984Y-73806536D01*
X139550000Y-72633553D01*
X138377014Y-73806536D01*
X136150139Y-73806536D01*
X136296848Y-73745767D01*
X136516945Y-73610891D01*
X136522550Y-73606103D01*
X135196448Y-72280001D01*
X135903553Y-72280001D01*
X136876103Y-73252550D01*
X136880891Y-73246945D01*
X137015767Y-73026848D01*
X137114555Y-72788354D01*
X137174816Y-72537347D01*
X137195070Y-72280000D01*
X137620082Y-72280000D01*
X137639727Y-72554656D01*
X137698256Y-72823715D01*
X137794487Y-73081718D01*
X137926451Y-73323393D01*
X138023461Y-73452983D01*
X138023462Y-73452984D01*
X139196446Y-72280001D01*
X139196446Y-72280000D01*
X138023462Y-71107015D01*
X137926449Y-71236611D01*
X137794487Y-71478281D01*
X137698256Y-71736284D01*
X137639727Y-72005343D01*
X137620082Y-72280000D01*
X137195070Y-72280000D01*
X137174816Y-72022652D01*
X137114555Y-71771645D01*
X137015767Y-71533151D01*
X136880889Y-71313051D01*
X136876103Y-71307447D01*
X135903553Y-72280000D01*
X135903553Y-72280001D01*
X135196448Y-72280001D01*
X134223895Y-71307448D01*
X134219109Y-71313052D01*
X134084232Y-71533151D01*
X133985444Y-71771645D01*
X133925183Y-72022652D01*
X133904667Y-72283337D01*
X133879917Y-72348449D01*
X133823967Y-72389944D01*
X133754475Y-72394727D01*
X133716424Y-72373905D01*
X133714092Y-72377617D01*
X133642076Y-72332367D01*
X133549522Y-72274211D01*
X133379255Y-72214632D01*
X133379253Y-72214631D01*
X133379251Y-72214631D01*
X133200000Y-72194434D01*
X133020748Y-72214631D01*
X133020745Y-72214631D01*
X133020745Y-72214632D01*
X132850478Y-72274211D01*
X132850476Y-72274211D01*
X132850476Y-72274212D01*
X132697735Y-72370185D01*
X132570185Y-72497735D01*
X132474212Y-72650476D01*
X132414631Y-72820748D01*
X132394434Y-73000000D01*
X132414631Y-73179251D01*
X132414631Y-73179253D01*
X132414632Y-73179255D01*
X132474211Y-73349522D01*
X132529138Y-73436937D01*
X132570185Y-73502264D01*
X132697735Y-73629814D01*
X132697737Y-73629815D01*
X132697738Y-73629816D01*
X132850478Y-73725789D01*
X133020745Y-73785368D01*
X133044337Y-73788026D01*
X133064383Y-73790285D01*
X133120351Y-73811051D01*
X133160130Y-73855564D01*
X133174500Y-73913505D01*
X133174500Y-77454047D01*
X133157303Y-77517048D01*
X133110481Y-77562575D01*
X133047022Y-77577998D01*
X132984528Y-77559041D01*
X132923580Y-77520745D01*
X132849522Y-77474211D01*
X132679255Y-77414632D01*
X132679251Y-77414631D01*
X132679250Y-77414631D01*
X132552486Y-77400348D01*
X132512568Y-77388848D01*
X132478689Y-77364809D01*
X130614360Y-75500480D01*
X130603666Y-75488286D01*
X130585453Y-75464551D01*
X130585451Y-75464550D01*
X130585451Y-75464549D01*
X130555270Y-75441390D01*
X130555268Y-75441388D01*
X130465233Y-75372302D01*
X130465232Y-75372301D01*
X130465230Y-75372300D01*
X130437193Y-75360687D01*
X130437192Y-75360687D01*
X130325235Y-75314312D01*
X130204668Y-75298439D01*
X130204655Y-75298439D01*
X130175000Y-75294534D01*
X130145345Y-75298439D01*
X130129160Y-75299500D01*
X119846582Y-75299500D01*
X119830398Y-75298439D01*
X119800736Y-75294534D01*
X119800735Y-75294534D01*
X119781875Y-75297017D01*
X119763016Y-75299500D01*
X119650500Y-75314313D01*
X119622797Y-75325787D01*
X119622795Y-75325788D01*
X119622795Y-75325789D01*
X119538542Y-75360687D01*
X119510500Y-75372302D01*
X119423749Y-75438870D01*
X119423717Y-75438893D01*
X119390285Y-75464547D01*
X119372070Y-75488285D01*
X119361377Y-75500477D01*
X119173672Y-75688183D01*
X119133447Y-75715061D01*
X119085994Y-75724500D01*
X102419138Y-75724500D01*
X102361196Y-75710130D01*
X102316684Y-75670351D01*
X102295918Y-75614383D01*
X102285368Y-75520748D01*
X102285368Y-75520745D01*
X102225789Y-75350478D01*
X102129816Y-75197738D01*
X102129815Y-75197737D01*
X102129814Y-75197735D01*
X102002264Y-75070185D01*
X101939867Y-75030979D01*
X101849522Y-74974211D01*
X101679255Y-74914632D01*
X101679253Y-74914631D01*
X101679251Y-74914631D01*
X101500000Y-74894434D01*
X101320748Y-74914631D01*
X101320745Y-74914631D01*
X101320745Y-74914632D01*
X101150478Y-74974211D01*
X101150476Y-74974211D01*
X101150476Y-74974212D01*
X100997735Y-75070185D01*
X100979740Y-75088181D01*
X100939512Y-75115061D01*
X100892059Y-75124500D01*
X98889742Y-75124500D01*
X98842289Y-75115061D01*
X98802061Y-75088181D01*
X98425561Y-74711681D01*
X98395311Y-74662318D01*
X98390769Y-74604602D01*
X98412924Y-74551115D01*
X98456947Y-74513515D01*
X98513242Y-74500000D01*
X119974753Y-74500000D01*
X120022206Y-74509439D01*
X120062434Y-74536319D01*
X120080429Y-74554314D01*
X120080431Y-74554315D01*
X120080432Y-74554316D01*
X120233172Y-74650289D01*
X120403439Y-74709868D01*
X120582694Y-74730065D01*
X120761949Y-74709868D01*
X120932216Y-74650289D01*
X121084956Y-74554316D01*
X121212510Y-74426762D01*
X121308483Y-74274022D01*
X121368062Y-74103755D01*
X121370105Y-74085616D01*
X121390872Y-74029648D01*
X121435385Y-73989870D01*
X121493326Y-73975500D01*
X122592060Y-73975500D01*
X122639513Y-73984939D01*
X122679738Y-74011816D01*
X122797738Y-74129816D01*
X122950478Y-74225789D01*
X123120745Y-74285368D01*
X123300000Y-74305565D01*
X123479255Y-74285368D01*
X123649522Y-74225789D01*
X123802262Y-74129816D01*
X123929816Y-74002262D01*
X124025789Y-73849522D01*
X124085368Y-73679255D01*
X124105565Y-73500000D01*
X124085368Y-73320745D01*
X124025789Y-73150478D01*
X123929816Y-72997738D01*
X123929815Y-72997737D01*
X123929814Y-72997735D01*
X123802264Y-72870185D01*
X123708047Y-72810985D01*
X123649522Y-72774211D01*
X123479255Y-72714632D01*
X123479253Y-72714631D01*
X123479251Y-72714631D01*
X123300000Y-72694434D01*
X123120748Y-72714631D01*
X123120745Y-72714631D01*
X123120745Y-72714632D01*
X122950478Y-72774211D01*
X122950476Y-72774211D01*
X122950476Y-72774212D01*
X122900692Y-72805494D01*
X122834720Y-72824500D01*
X119288742Y-72824500D01*
X119232447Y-72810985D01*
X119188424Y-72773385D01*
X119166269Y-72719898D01*
X119170811Y-72662182D01*
X119201061Y-72612819D01*
X119539669Y-72274211D01*
X120570235Y-71243643D01*
X120625821Y-71211551D01*
X120690007Y-71211551D01*
X120782023Y-71236207D01*
X121000000Y-71255277D01*
X121217977Y-71236207D01*
X121429330Y-71179575D01*
X121627639Y-71087102D01*
X121806877Y-70961598D01*
X121814580Y-70953895D01*
X134577448Y-70953895D01*
X135550000Y-71926447D01*
X135550001Y-71926447D01*
X136522551Y-70953895D01*
X136522551Y-70953894D01*
X136516948Y-70949109D01*
X136296848Y-70814232D01*
X136150137Y-70753462D01*
X138377015Y-70753462D01*
X139550000Y-71926446D01*
X140722984Y-70753462D01*
X140722983Y-70753461D01*
X140593393Y-70656451D01*
X140351718Y-70524487D01*
X140093715Y-70428256D01*
X139824656Y-70369727D01*
X139549999Y-70350082D01*
X139275343Y-70369727D01*
X139006284Y-70428256D01*
X138748281Y-70524487D01*
X138506611Y-70656449D01*
X138377015Y-70753462D01*
X136150137Y-70753462D01*
X136058354Y-70715444D01*
X135807347Y-70655183D01*
X135549999Y-70634929D01*
X135292652Y-70655183D01*
X135041645Y-70715444D01*
X134803151Y-70814232D01*
X134583052Y-70949109D01*
X134577448Y-70953895D01*
X121814580Y-70953895D01*
X121961598Y-70806877D01*
X122087102Y-70627639D01*
X122179575Y-70429330D01*
X122236207Y-70217977D01*
X122255277Y-70000000D01*
X122236207Y-69782023D01*
X122179575Y-69570670D01*
X122087102Y-69372362D01*
X121961598Y-69193123D01*
X121806877Y-69038402D01*
X121627639Y-68912898D01*
X121536205Y-68870261D01*
X121429331Y-68820425D01*
X121217974Y-68763792D01*
X121000000Y-68744722D01*
X120782025Y-68763792D01*
X120570668Y-68820425D01*
X120372361Y-68912898D01*
X120193122Y-69038402D01*
X120038402Y-69193122D01*
X119912898Y-69372361D01*
X119842382Y-69523583D01*
X119796625Y-69575759D01*
X119730000Y-69595178D01*
X119663375Y-69575759D01*
X119617618Y-69523583D01*
X119594290Y-69473556D01*
X119547102Y-69372362D01*
X119421598Y-69193123D01*
X119266877Y-69038402D01*
X119087639Y-68912898D01*
X118996205Y-68870261D01*
X118889331Y-68820425D01*
X118677974Y-68763792D01*
X118460000Y-68744722D01*
X118242025Y-68763792D01*
X118030668Y-68820425D01*
X117832361Y-68912898D01*
X117653122Y-69038402D01*
X117498402Y-69193122D01*
X117372898Y-69372361D01*
X117302382Y-69523583D01*
X117256625Y-69575759D01*
X117190000Y-69595178D01*
X117123375Y-69575759D01*
X117077618Y-69523583D01*
X117054290Y-69473556D01*
X117007102Y-69372362D01*
X116881598Y-69193123D01*
X116726877Y-69038402D01*
X116547639Y-68912898D01*
X116456205Y-68870261D01*
X116349331Y-68820425D01*
X116137974Y-68763792D01*
X115920000Y-68744722D01*
X115702025Y-68763792D01*
X115490668Y-68820425D01*
X115292361Y-68912898D01*
X115113122Y-69038402D01*
X114958402Y-69193122D01*
X114832898Y-69372361D01*
X114762382Y-69523583D01*
X114716625Y-69575759D01*
X114650000Y-69595178D01*
X114583375Y-69575759D01*
X114537618Y-69523583D01*
X114514290Y-69473556D01*
X114467102Y-69372362D01*
X114341598Y-69193123D01*
X114186877Y-69038402D01*
X114186876Y-69038401D01*
X114140079Y-69005633D01*
X114101213Y-68961314D01*
X114087203Y-68904057D01*
X114101215Y-68846800D01*
X114140082Y-68802482D01*
X114195021Y-68781119D01*
X114199994Y-68780464D01*
X114200000Y-68780465D01*
X114229670Y-68776558D01*
X114229681Y-68776558D01*
X114237717Y-68775500D01*
X114237720Y-68775500D01*
X114350236Y-68760687D01*
X114490233Y-68702698D01*
X114496134Y-68698170D01*
X114580268Y-68633612D01*
X114580268Y-68633610D01*
X114596560Y-68621110D01*
X114596561Y-68621108D01*
X114610451Y-68610451D01*
X114628670Y-68586706D01*
X114639350Y-68574528D01*
X116474528Y-66739350D01*
X116486706Y-66728670D01*
X116510451Y-66710451D01*
X116522522Y-66694718D01*
X116528570Y-66686838D01*
X116528571Y-66686837D01*
X116533612Y-66680268D01*
X116602699Y-66590233D01*
X116650756Y-66474211D01*
X116660687Y-66450236D01*
X116675500Y-66337720D01*
X116680466Y-66300000D01*
X116676560Y-66270337D01*
X116675500Y-66254154D01*
X116675500Y-63707941D01*
X116684939Y-63660488D01*
X116711819Y-63620260D01*
X116729814Y-63602264D01*
X116729813Y-63602264D01*
X116729816Y-63602262D01*
X116825789Y-63449522D01*
X116885368Y-63279255D01*
X116905565Y-63100000D01*
X116896340Y-63018124D01*
X117770426Y-63018124D01*
X117770427Y-63018125D01*
X117832610Y-63061666D01*
X118030840Y-63154102D01*
X118242113Y-63210712D01*
X118460000Y-63229775D01*
X118677886Y-63210712D01*
X118889159Y-63154102D01*
X119087385Y-63061667D01*
X119149572Y-63018124D01*
X118460001Y-62328553D01*
X118460000Y-62328553D01*
X117770426Y-63018124D01*
X116896340Y-63018124D01*
X116885368Y-62920745D01*
X116825789Y-62750478D01*
X116729816Y-62597738D01*
X116729815Y-62597737D01*
X116729814Y-62597735D01*
X116602264Y-62470185D01*
X116515527Y-62415685D01*
X116449522Y-62374211D01*
X116279255Y-62314632D01*
X116279253Y-62314631D01*
X116279251Y-62314631D01*
X116100000Y-62294434D01*
X115920748Y-62314631D01*
X115920745Y-62314631D01*
X115920745Y-62314632D01*
X115750478Y-62374211D01*
X115750476Y-62374211D01*
X115750476Y-62374212D01*
X115597735Y-62470185D01*
X115470185Y-62597735D01*
X115374212Y-62750476D01*
X115374211Y-62750478D01*
X115343533Y-62838151D01*
X115314631Y-62920748D01*
X115294434Y-63099999D01*
X115314631Y-63279251D01*
X115314631Y-63279253D01*
X115314632Y-63279255D01*
X115374211Y-63449522D01*
X115430979Y-63539867D01*
X115470185Y-63602264D01*
X115488181Y-63620260D01*
X115515061Y-63660488D01*
X115524500Y-63707941D01*
X115524500Y-66010258D01*
X115515061Y-66057711D01*
X115488183Y-66097936D01*
X115292087Y-66294031D01*
X115246779Y-66339340D01*
X115191191Y-66371433D01*
X115127004Y-66371433D01*
X115071418Y-66339340D01*
X115002262Y-66270184D01*
X114849522Y-66174211D01*
X114679255Y-66114632D01*
X114679251Y-66114631D01*
X114679250Y-66114631D01*
X114657144Y-66112140D01*
X114593716Y-66085866D01*
X114553988Y-66029874D01*
X114550139Y-65961327D01*
X114583347Y-65901242D01*
X114783792Y-65700797D01*
X114799885Y-65687906D01*
X114801873Y-65685787D01*
X114801877Y-65685786D01*
X114847948Y-65636723D01*
X114850566Y-65634023D01*
X114870120Y-65614471D01*
X114872581Y-65611298D01*
X114880156Y-65602427D01*
X114910062Y-65570582D01*
X114919712Y-65553027D01*
X114930400Y-65536757D01*
X114942671Y-65520938D01*
X114942673Y-65520936D01*
X114960026Y-65480832D01*
X114965157Y-65470362D01*
X114986197Y-65432092D01*
X114991175Y-65412699D01*
X114997481Y-65394282D01*
X114999018Y-65390728D01*
X115005438Y-65375896D01*
X115012272Y-65332745D01*
X115014635Y-65321331D01*
X115025500Y-65279019D01*
X115025500Y-65258984D01*
X115027027Y-65239585D01*
X115030160Y-65219804D01*
X115026050Y-65176325D01*
X115025500Y-65164656D01*
X115025500Y-61975000D01*
X117205224Y-61975000D01*
X117224287Y-62192886D01*
X117280898Y-62404161D01*
X117373331Y-62602386D01*
X117416873Y-62664571D01*
X117416875Y-62664572D01*
X118106447Y-61975001D01*
X118106447Y-61975000D01*
X118813553Y-61975000D01*
X119503124Y-62664572D01*
X119546668Y-62602384D01*
X119617341Y-62450825D01*
X119663097Y-62398649D01*
X119729722Y-62379229D01*
X119796348Y-62398648D01*
X119842105Y-62450824D01*
X119875040Y-62521452D01*
X119912898Y-62602639D01*
X120038402Y-62781877D01*
X120193123Y-62936598D01*
X120372361Y-63062102D01*
X120570670Y-63154575D01*
X120782023Y-63211207D01*
X121000000Y-63230277D01*
X121217977Y-63211207D01*
X121429330Y-63154575D01*
X121627639Y-63062102D01*
X121806877Y-62936598D01*
X121961598Y-62781877D01*
X122087102Y-62602639D01*
X122179575Y-62404330D01*
X122236207Y-62192977D01*
X122255277Y-61975000D01*
X122236207Y-61757023D01*
X122179575Y-61545670D01*
X122087102Y-61347362D01*
X121961598Y-61168123D01*
X121806877Y-61013402D01*
X121627639Y-60887898D01*
X121536205Y-60845261D01*
X121429331Y-60795425D01*
X121217974Y-60738792D01*
X121000000Y-60719722D01*
X120782025Y-60738792D01*
X120570668Y-60795425D01*
X120372361Y-60887898D01*
X120193122Y-61013402D01*
X120038402Y-61168122D01*
X119912899Y-61347359D01*
X119842105Y-61499176D01*
X119796347Y-61551351D01*
X119729722Y-61570770D01*
X119663098Y-61551350D01*
X119617341Y-61499175D01*
X119546667Y-61347615D01*
X119503123Y-61285428D01*
X118813553Y-61975000D01*
X118106447Y-61975000D01*
X117416875Y-61285427D01*
X117416874Y-61285428D01*
X117373333Y-61347611D01*
X117280897Y-61545840D01*
X117224287Y-61757113D01*
X117205224Y-61975000D01*
X115025500Y-61975000D01*
X115025500Y-60931875D01*
X117770427Y-60931875D01*
X118460000Y-61621447D01*
X118460001Y-61621447D01*
X119149572Y-60931875D01*
X119149571Y-60931873D01*
X119087386Y-60888331D01*
X118889161Y-60795898D01*
X118677886Y-60739287D01*
X118460000Y-60720224D01*
X118242113Y-60739287D01*
X118030840Y-60795897D01*
X117832611Y-60888333D01*
X117770428Y-60931874D01*
X117770427Y-60931875D01*
X115025500Y-60931875D01*
X115025500Y-56282744D01*
X115027764Y-56262236D01*
X115025561Y-56192113D01*
X115025500Y-56188219D01*
X115025500Y-56160654D01*
X115025500Y-56160650D01*
X115024997Y-56156670D01*
X115024081Y-56145028D01*
X115022710Y-56101373D01*
X115017118Y-56082126D01*
X115013174Y-56063085D01*
X115010664Y-56043208D01*
X114994579Y-56002583D01*
X114990808Y-55991568D01*
X114978618Y-55949610D01*
X114968414Y-55932355D01*
X114959861Y-55914895D01*
X114959733Y-55914571D01*
X114952486Y-55896268D01*
X114926808Y-55860925D01*
X114920401Y-55851171D01*
X114898169Y-55813579D01*
X114884006Y-55799416D01*
X114871367Y-55784617D01*
X114859595Y-55768413D01*
X114825941Y-55740573D01*
X114817299Y-55732709D01*
X114309589Y-55224999D01*
X118044722Y-55224999D01*
X118063792Y-55442974D01*
X118120379Y-55654161D01*
X118120425Y-55654330D01*
X118212898Y-55852639D01*
X118338402Y-56031877D01*
X118493123Y-56186598D01*
X118672361Y-56312102D01*
X118870670Y-56404575D01*
X119082023Y-56461207D01*
X119300000Y-56480277D01*
X119517977Y-56461207D01*
X119729330Y-56404575D01*
X119927639Y-56312102D01*
X120106877Y-56186598D01*
X120261598Y-56031877D01*
X120351576Y-55903375D01*
X120395892Y-55864511D01*
X120453149Y-55850500D01*
X121559548Y-55850500D01*
X121607001Y-55859939D01*
X121647229Y-55886819D01*
X127238651Y-61478241D01*
X127270521Y-61533004D01*
X127271176Y-61596362D01*
X127233865Y-61743699D01*
X127214699Y-61974999D01*
X127233865Y-62206299D01*
X127233865Y-62206301D01*
X127233866Y-62206305D01*
X127286889Y-62415685D01*
X127290844Y-62431303D01*
X127383112Y-62641652D01*
X127384076Y-62643849D01*
X127511021Y-62838153D01*
X127668216Y-63008913D01*
X127851374Y-63151470D01*
X128055497Y-63261936D01*
X128105934Y-63279251D01*
X128275015Y-63337297D01*
X128275017Y-63337297D01*
X128275019Y-63337298D01*
X128503951Y-63375500D01*
X128736048Y-63375500D01*
X128736049Y-63375500D01*
X128964981Y-63337298D01*
X129184503Y-63261936D01*
X129388626Y-63151470D01*
X129571784Y-63008913D01*
X129728979Y-62838153D01*
X129855924Y-62643849D01*
X129949157Y-62431300D01*
X130006134Y-62206305D01*
X130025300Y-61975000D01*
X130025300Y-61974999D01*
X134834699Y-61974999D01*
X134853865Y-62206299D01*
X134853865Y-62206301D01*
X134853866Y-62206305D01*
X134906889Y-62415685D01*
X134910844Y-62431303D01*
X135003112Y-62641652D01*
X135004076Y-62643849D01*
X135131021Y-62838153D01*
X135288216Y-63008913D01*
X135471374Y-63151470D01*
X135675497Y-63261936D01*
X135725934Y-63279251D01*
X135895015Y-63337297D01*
X135895017Y-63337297D01*
X135895019Y-63337298D01*
X136123951Y-63375500D01*
X136356048Y-63375500D01*
X136356049Y-63375500D01*
X136584981Y-63337298D01*
X136804503Y-63261936D01*
X137008626Y-63151470D01*
X137191784Y-63008913D01*
X137348979Y-62838153D01*
X137475924Y-62643849D01*
X137569157Y-62431300D01*
X137626134Y-62206305D01*
X137645300Y-61975000D01*
X137626134Y-61743695D01*
X137569157Y-61518700D01*
X137475924Y-61306151D01*
X137348979Y-61111847D01*
X137191784Y-60941087D01*
X137008626Y-60798530D01*
X136804503Y-60688064D01*
X136804499Y-60688062D01*
X136804498Y-60688062D01*
X136584984Y-60612702D01*
X136413282Y-60584050D01*
X136356049Y-60574500D01*
X136123951Y-60574500D01*
X136078164Y-60582140D01*
X135895015Y-60612702D01*
X135675501Y-60688062D01*
X135675497Y-60688063D01*
X135675497Y-60688064D01*
X135616071Y-60720224D01*
X135471372Y-60798531D01*
X135288215Y-60941087D01*
X135131020Y-61111848D01*
X135004076Y-61306150D01*
X134910844Y-61518696D01*
X134853865Y-61743700D01*
X134834699Y-61974999D01*
X130025300Y-61974999D01*
X130006134Y-61743695D01*
X129949157Y-61518700D01*
X129855924Y-61306151D01*
X129728979Y-61111847D01*
X129571784Y-60941087D01*
X129388626Y-60798530D01*
X129184503Y-60688064D01*
X129184499Y-60688062D01*
X129184498Y-60688062D01*
X128964984Y-60612702D01*
X128793282Y-60584050D01*
X128736049Y-60574500D01*
X128503951Y-60574500D01*
X128465795Y-60580866D01*
X128275014Y-60612702D01*
X128249419Y-60621489D01*
X128181208Y-60625016D01*
X128121478Y-60591888D01*
X125253542Y-57723952D01*
X123797715Y-56268124D01*
X134010426Y-56268124D01*
X134010427Y-56268125D01*
X134072610Y-56311666D01*
X134270840Y-56404102D01*
X134482113Y-56460712D01*
X134700000Y-56479775D01*
X134917886Y-56460712D01*
X135129159Y-56404102D01*
X135327385Y-56311667D01*
X135389572Y-56268124D01*
X134700001Y-55578553D01*
X134700000Y-55578553D01*
X134010426Y-56268124D01*
X123797715Y-56268124D01*
X122754591Y-55225000D01*
X133445224Y-55225000D01*
X133464287Y-55442886D01*
X133520898Y-55654161D01*
X133613331Y-55852386D01*
X133656873Y-55914571D01*
X133656875Y-55914572D01*
X134346447Y-55225001D01*
X134346447Y-55225000D01*
X135053553Y-55225000D01*
X135743124Y-55914572D01*
X135786667Y-55852385D01*
X135879102Y-55654159D01*
X135935712Y-55442886D01*
X135954775Y-55225000D01*
X135935712Y-55007113D01*
X135879102Y-54795840D01*
X135786667Y-54597615D01*
X135743123Y-54535428D01*
X135053553Y-55225000D01*
X134346447Y-55225000D01*
X133656875Y-54535427D01*
X133656874Y-54535428D01*
X133613333Y-54597611D01*
X133520897Y-54795840D01*
X133464287Y-55007113D01*
X133445224Y-55225000D01*
X122754591Y-55225000D01*
X122370802Y-54841211D01*
X122357906Y-54825113D01*
X122306775Y-54777098D01*
X122303978Y-54774387D01*
X122284470Y-54754879D01*
X122281290Y-54752412D01*
X122272424Y-54744839D01*
X122240582Y-54714938D01*
X122223024Y-54705285D01*
X122206764Y-54694604D01*
X122190936Y-54682327D01*
X122150851Y-54664980D01*
X122140361Y-54659841D01*
X122102091Y-54638802D01*
X122082691Y-54633821D01*
X122064284Y-54627519D01*
X122045897Y-54619562D01*
X122002758Y-54612729D01*
X121991324Y-54610361D01*
X121949019Y-54599500D01*
X121928984Y-54599500D01*
X121909586Y-54597973D01*
X121902162Y-54596797D01*
X121889805Y-54594840D01*
X121889804Y-54594840D01*
X121860490Y-54597611D01*
X121846325Y-54598950D01*
X121834656Y-54599500D01*
X120453149Y-54599500D01*
X120395892Y-54585489D01*
X120351574Y-54546623D01*
X120343735Y-54535428D01*
X120261598Y-54418123D01*
X120106877Y-54263402D01*
X119990445Y-54181875D01*
X134010427Y-54181875D01*
X134700000Y-54871447D01*
X134700001Y-54871447D01*
X135389572Y-54181875D01*
X135389571Y-54181873D01*
X135327386Y-54138331D01*
X135129161Y-54045898D01*
X134917886Y-53989287D01*
X134700000Y-53970224D01*
X134482113Y-53989287D01*
X134270840Y-54045897D01*
X134072611Y-54138333D01*
X134010428Y-54181874D01*
X134010427Y-54181875D01*
X119990445Y-54181875D01*
X119927639Y-54137898D01*
X119794107Y-54075631D01*
X119729331Y-54045425D01*
X119517974Y-53988792D01*
X119300000Y-53969722D01*
X119082025Y-53988792D01*
X118870668Y-54045425D01*
X118672361Y-54137898D01*
X118493122Y-54263402D01*
X118338402Y-54418122D01*
X118212898Y-54597361D01*
X118120425Y-54795668D01*
X118063792Y-55007025D01*
X118044722Y-55224999D01*
X114309589Y-55224999D01*
X113381347Y-54296757D01*
X113349477Y-54241993D01*
X113348823Y-54178638D01*
X113386134Y-54031305D01*
X113405300Y-53800000D01*
X113386134Y-53568695D01*
X113329157Y-53343700D01*
X113235924Y-53131151D01*
X113108979Y-52936847D01*
X112951784Y-52766087D01*
X112894950Y-52721851D01*
X112857558Y-52673811D01*
X112847537Y-52613761D01*
X112867305Y-52556179D01*
X112912096Y-52514945D01*
X112971114Y-52500000D01*
X141075500Y-52500000D01*
X141137500Y-52516613D01*
G37*
%TD.AperFunction*%
%TA.AperFunction,Conductor*%
G36*
X90814100Y-85336816D02*
G01*
X90858348Y-85382069D01*
X90874500Y-85443264D01*
X90874500Y-88964193D01*
X90855995Y-89029360D01*
X90806004Y-89075077D01*
X90739447Y-89087699D01*
X90676189Y-89063460D01*
X90667088Y-89056647D01*
X90532375Y-89006402D01*
X90472824Y-89000000D01*
X89925000Y-89000000D01*
X89925000Y-90376000D01*
X89908387Y-90438000D01*
X89863000Y-90483387D01*
X89801000Y-90500000D01*
X88425000Y-90500000D01*
X88425000Y-91047824D01*
X88431402Y-91107375D01*
X88481647Y-91242089D01*
X88567811Y-91357188D01*
X88682910Y-91443352D01*
X88817624Y-91493597D01*
X88877176Y-91500000D01*
X88886727Y-91500000D01*
X88946843Y-91515547D01*
X88991885Y-91558290D01*
X89010557Y-91617510D01*
X88998177Y-91678358D01*
X88957850Y-91725575D01*
X88868122Y-91788402D01*
X88713402Y-91943122D01*
X88587898Y-92122361D01*
X88495425Y-92320668D01*
X88438792Y-92532025D01*
X88419722Y-92749999D01*
X88438792Y-92967974D01*
X88495425Y-93179331D01*
X88527526Y-93248171D01*
X88587898Y-93377639D01*
X88713402Y-93556877D01*
X88868123Y-93711598D01*
X89047361Y-93837102D01*
X89245670Y-93929575D01*
X89457023Y-93986207D01*
X89675000Y-94005277D01*
X89892977Y-93986207D01*
X90104330Y-93929575D01*
X90302639Y-93837102D01*
X90481877Y-93711598D01*
X90636598Y-93556877D01*
X90726576Y-93428375D01*
X90770892Y-93389511D01*
X90828149Y-93375500D01*
X90867256Y-93375500D01*
X90887762Y-93377764D01*
X90890665Y-93377672D01*
X90890667Y-93377673D01*
X90957872Y-93375561D01*
X90961768Y-93375500D01*
X90989349Y-93375500D01*
X90989350Y-93375500D01*
X90993319Y-93374998D01*
X91004965Y-93374080D01*
X91048627Y-93372709D01*
X91067859Y-93367120D01*
X91086918Y-93363174D01*
X91093196Y-93362381D01*
X91106792Y-93360664D01*
X91147407Y-93344582D01*
X91158444Y-93340803D01*
X91200390Y-93328618D01*
X91217629Y-93318422D01*
X91235102Y-93309862D01*
X91253732Y-93302486D01*
X91289064Y-93276814D01*
X91298830Y-93270400D01*
X91300622Y-93269340D01*
X91336420Y-93248170D01*
X91350585Y-93234004D01*
X91365373Y-93221373D01*
X91381587Y-93209594D01*
X91409438Y-93175926D01*
X91417279Y-93167309D01*
X91883792Y-92700797D01*
X91899885Y-92687906D01*
X91901873Y-92685787D01*
X91901877Y-92685786D01*
X91947948Y-92636723D01*
X91950566Y-92634023D01*
X91970120Y-92614471D01*
X91972581Y-92611298D01*
X91980156Y-92602427D01*
X92010062Y-92570582D01*
X92019717Y-92553018D01*
X92030394Y-92536764D01*
X92042673Y-92520936D01*
X92042673Y-92520934D01*
X92052278Y-92508554D01*
X92055759Y-92511254D01*
X92078870Y-92482770D01*
X92141926Y-92460285D01*
X92207482Y-92473856D01*
X92256429Y-92519528D01*
X92274500Y-92583988D01*
X92274500Y-93917256D01*
X92272235Y-93937762D01*
X92274439Y-94007873D01*
X92274500Y-94011768D01*
X92274500Y-94039349D01*
X92275003Y-94043334D01*
X92275918Y-94054967D01*
X92277290Y-94098626D01*
X92282879Y-94117860D01*
X92286825Y-94136916D01*
X92289335Y-94156792D01*
X92305414Y-94197404D01*
X92309197Y-94208451D01*
X92321382Y-94250391D01*
X92331580Y-94267635D01*
X92340136Y-94285100D01*
X92347514Y-94303732D01*
X92347515Y-94303733D01*
X92373180Y-94339059D01*
X92379593Y-94348822D01*
X92401826Y-94386416D01*
X92401829Y-94386419D01*
X92401830Y-94386420D01*
X92415995Y-94400585D01*
X92428627Y-94415375D01*
X92440406Y-94431587D01*
X92474058Y-94459426D01*
X92482699Y-94467289D01*
X93473788Y-95458379D01*
X93497827Y-95492258D01*
X93509327Y-95532176D01*
X93514632Y-95579255D01*
X93567316Y-95729816D01*
X93574212Y-95749525D01*
X93580637Y-95759750D01*
X93599383Y-95817716D01*
X93588261Y-95877613D01*
X93549955Y-95924985D01*
X93526146Y-95942808D01*
X93439981Y-96057910D01*
X93389736Y-96192624D01*
X93383334Y-96252176D01*
X93383334Y-96700000D01*
X95933334Y-96700000D01*
X95933334Y-96252176D01*
X95926931Y-96192624D01*
X95876686Y-96057910D01*
X95790522Y-95942810D01*
X95664896Y-95848767D01*
X95626412Y-95801011D01*
X95615523Y-95740654D01*
X95634892Y-95682460D01*
X95679780Y-95640668D01*
X95739207Y-95625500D01*
X101527461Y-95625500D01*
X101586888Y-95640668D01*
X101631776Y-95682460D01*
X101651145Y-95740654D01*
X101640256Y-95801011D01*
X101601772Y-95848767D01*
X101476145Y-95942810D01*
X101389981Y-96057910D01*
X101339736Y-96192624D01*
X101333334Y-96252176D01*
X101333334Y-96700000D01*
X105151000Y-96700000D01*
X105213000Y-96716613D01*
X105258387Y-96762000D01*
X105275000Y-96824000D01*
X105275000Y-98100000D01*
X105847824Y-98100000D01*
X105907375Y-98093597D01*
X106042089Y-98043352D01*
X106157188Y-97957188D01*
X106243352Y-97842089D01*
X106293597Y-97707375D01*
X106300000Y-97647824D01*
X106300000Y-97463242D01*
X106313515Y-97406947D01*
X106351115Y-97362924D01*
X106404602Y-97340769D01*
X106462318Y-97345311D01*
X106511681Y-97375561D01*
X107966164Y-98830044D01*
X107995419Y-98876470D01*
X108001773Y-98930976D01*
X107999500Y-98952124D01*
X107999500Y-99947869D01*
X108005909Y-100007484D01*
X108010571Y-100019982D01*
X108056204Y-100142331D01*
X108110328Y-100214631D01*
X108142454Y-100257546D01*
X108200144Y-100300733D01*
X108236717Y-100344496D01*
X108249833Y-100400000D01*
X108236717Y-100455504D01*
X108200144Y-100499267D01*
X108142454Y-100542453D01*
X108056204Y-100657668D01*
X108008618Y-100785252D01*
X108005909Y-100792517D01*
X107999500Y-100852127D01*
X107999500Y-101271449D01*
X107999501Y-101675500D01*
X107982888Y-101737500D01*
X107937501Y-101782887D01*
X107875501Y-101799500D01*
X102160327Y-101799500D01*
X102100684Y-101784214D01*
X102055747Y-101742125D01*
X102036593Y-101683610D01*
X102047945Y-101623096D01*
X102138144Y-101429661D01*
X102143156Y-101418913D01*
X102200920Y-101203334D01*
X102220372Y-100981000D01*
X102200920Y-100758666D01*
X102143156Y-100543087D01*
X102048835Y-100340814D01*
X101920822Y-100157993D01*
X101815510Y-100052681D01*
X101783416Y-99997094D01*
X101783416Y-99932906D01*
X101815510Y-99877319D01*
X101862559Y-99830270D01*
X101920822Y-99772007D01*
X102048835Y-99589186D01*
X102143156Y-99386913D01*
X102200920Y-99171334D01*
X102220372Y-98949000D01*
X102200920Y-98726666D01*
X102143156Y-98511087D01*
X102048835Y-98308814D01*
X102039248Y-98295122D01*
X102017089Y-98232111D01*
X102030833Y-98166744D01*
X102076495Y-98117991D01*
X102140823Y-98100000D01*
X102358334Y-98100000D01*
X102358334Y-97200000D01*
X102858334Y-97200000D01*
X102858334Y-98100000D01*
X103431158Y-98100000D01*
X103490709Y-98093597D01*
X103625425Y-98043351D01*
X103742355Y-97955817D01*
X103790307Y-97933917D01*
X103843024Y-97933917D01*
X103890977Y-97955816D01*
X104007910Y-98043352D01*
X104142624Y-98093597D01*
X104202176Y-98100000D01*
X104775000Y-98100000D01*
X104775000Y-97200000D01*
X102858334Y-97200000D01*
X102358334Y-97200000D01*
X101333334Y-97200000D01*
X101333334Y-97572299D01*
X101320546Y-97627143D01*
X101284820Y-97670675D01*
X101233525Y-97693916D01*
X101177240Y-97692074D01*
X101162331Y-97688079D01*
X100940000Y-97668627D01*
X100717668Y-97688079D01*
X100502085Y-97745844D01*
X100365854Y-97809370D01*
X100299814Y-97840165D01*
X100132177Y-97957546D01*
X100116993Y-97968178D01*
X99995243Y-98089928D01*
X99943224Y-98121007D01*
X99882689Y-98123726D01*
X99828093Y-98097434D01*
X99792476Y-98048410D01*
X99784342Y-97988362D01*
X99800823Y-97842089D01*
X99805565Y-97800000D01*
X99785368Y-97620745D01*
X99725789Y-97450478D01*
X99629816Y-97297738D01*
X99629815Y-97297737D01*
X99629814Y-97297735D01*
X99502264Y-97170185D01*
X99406107Y-97109766D01*
X99349522Y-97074211D01*
X99179255Y-97014632D01*
X99179253Y-97014631D01*
X99179251Y-97014631D01*
X99000000Y-96994434D01*
X98820744Y-97014631D01*
X98765362Y-97034010D01*
X98696815Y-97037859D01*
X98636728Y-97004649D01*
X98602264Y-96970185D01*
X98507201Y-96910453D01*
X98449522Y-96874211D01*
X98279255Y-96814632D01*
X98279253Y-96814631D01*
X98279251Y-96814631D01*
X98100000Y-96794434D01*
X97920748Y-96814631D01*
X97920745Y-96814631D01*
X97920745Y-96814632D01*
X97750478Y-96874211D01*
X97750476Y-96874211D01*
X97750476Y-96874212D01*
X97597735Y-96970185D01*
X97579740Y-96988181D01*
X97539512Y-97015061D01*
X97492059Y-97024500D01*
X96245840Y-97024500D01*
X96229655Y-97023439D01*
X96200000Y-97019534D01*
X96170345Y-97023439D01*
X96170333Y-97023439D01*
X96049763Y-97039313D01*
X95902302Y-97100392D01*
X95893523Y-97109766D01*
X95823010Y-97163872D01*
X95823001Y-97163877D01*
X95823002Y-97163878D01*
X95809324Y-97174374D01*
X95773695Y-97193419D01*
X95733835Y-97200000D01*
X94908334Y-97200000D01*
X94908334Y-98026423D01*
X94898895Y-98073876D01*
X94872015Y-98114104D01*
X93025477Y-99960641D01*
X93013285Y-99971334D01*
X92989547Y-99989549D01*
X92963914Y-100022953D01*
X92963873Y-100023009D01*
X92909068Y-100094434D01*
X92909066Y-100094435D01*
X92897302Y-100109765D01*
X92839312Y-100249764D01*
X92823439Y-100370338D01*
X92823439Y-100370345D01*
X92819534Y-100400000D01*
X92823439Y-100429655D01*
X92824500Y-100445840D01*
X92824500Y-101354160D01*
X92823439Y-101370345D01*
X92819534Y-101399999D01*
X92823439Y-101429655D01*
X92823439Y-101429661D01*
X92839313Y-101550236D01*
X92871543Y-101628048D01*
X92880385Y-101687655D01*
X92860084Y-101744391D01*
X92815435Y-101784858D01*
X92756982Y-101799500D01*
X91702706Y-101799500D01*
X91697297Y-101799382D01*
X91313249Y-101782614D01*
X91302473Y-101781671D01*
X90924042Y-101731849D01*
X90913389Y-101729971D01*
X90540727Y-101647354D01*
X90530278Y-101644554D01*
X90166244Y-101529775D01*
X90156078Y-101526075D01*
X89803427Y-101380002D01*
X89793623Y-101375430D01*
X89455057Y-101199183D01*
X89445689Y-101193775D01*
X89123755Y-100988681D01*
X89114894Y-100982476D01*
X88812069Y-100750110D01*
X88803782Y-100743156D01*
X88522364Y-100485284D01*
X88514715Y-100477635D01*
X88256843Y-100196217D01*
X88249889Y-100187930D01*
X88017523Y-99885105D01*
X88011318Y-99876244D01*
X87828440Y-99589183D01*
X87806223Y-99554309D01*
X87800816Y-99544942D01*
X87673924Y-99301185D01*
X87624566Y-99206369D01*
X87619997Y-99196572D01*
X87473920Y-98843911D01*
X87470224Y-98833755D01*
X87469054Y-98830044D01*
X87355442Y-98469710D01*
X87352648Y-98459284D01*
X87270025Y-98086597D01*
X87268152Y-98075971D01*
X87218326Y-97697506D01*
X87217386Y-97686771D01*
X87200617Y-97302702D01*
X87200500Y-97297294D01*
X87200500Y-97200000D01*
X93383334Y-97200000D01*
X93383334Y-97647824D01*
X93389736Y-97707375D01*
X93439981Y-97842089D01*
X93526145Y-97957188D01*
X93641244Y-98043352D01*
X93775958Y-98093597D01*
X93835510Y-98100000D01*
X94408334Y-98100000D01*
X94408334Y-97200000D01*
X93383334Y-97200000D01*
X87200500Y-97200000D01*
X87200500Y-90000000D01*
X88425000Y-90000000D01*
X89425000Y-90000000D01*
X89425000Y-89000000D01*
X88877176Y-89000000D01*
X88817624Y-89006402D01*
X88682910Y-89056647D01*
X88567811Y-89142811D01*
X88481647Y-89257910D01*
X88431402Y-89392624D01*
X88425000Y-89452176D01*
X88425000Y-90000000D01*
X87200500Y-90000000D01*
X87200500Y-86837000D01*
X87217113Y-86775000D01*
X87262500Y-86729613D01*
X87324499Y-86713000D01*
X87398059Y-86712999D01*
X87503465Y-86712999D01*
X87553051Y-86723345D01*
X87594363Y-86752657D01*
X87620506Y-86796044D01*
X87674209Y-86949519D01*
X87770185Y-87102264D01*
X87897735Y-87229814D01*
X87897737Y-87229815D01*
X87897738Y-87229816D01*
X88050478Y-87325789D01*
X88220745Y-87385368D01*
X88400000Y-87405565D01*
X88579255Y-87385368D01*
X88749522Y-87325789D01*
X88902262Y-87229816D01*
X89029816Y-87102262D01*
X89125789Y-86949522D01*
X89185368Y-86779255D01*
X89205565Y-86600000D01*
X89204789Y-86593117D01*
X89184414Y-86412277D01*
X89179247Y-86380903D01*
X89187059Y-86338835D01*
X89194091Y-86319983D01*
X89200500Y-86260373D01*
X89200499Y-85531938D01*
X89214014Y-85475645D01*
X89251614Y-85431622D01*
X89305101Y-85409467D01*
X89362817Y-85414009D01*
X89412180Y-85444259D01*
X89497735Y-85529814D01*
X89497737Y-85529815D01*
X89497738Y-85529816D01*
X89650478Y-85625789D01*
X89820745Y-85685368D01*
X90000000Y-85705565D01*
X90179255Y-85685368D01*
X90349522Y-85625789D01*
X90502262Y-85529816D01*
X90629816Y-85402262D01*
X90645505Y-85377292D01*
X90691740Y-85334070D01*
X90753282Y-85319295D01*
X90814100Y-85336816D01*
G37*
%TD.AperFunction*%
%TA.AperFunction,Conductor*%
G36*
X99114059Y-101365596D02*
G01*
X99142725Y-101389122D01*
X99306811Y-101476827D01*
X99484844Y-101530833D01*
X99669997Y-101549069D01*
X99704520Y-101545669D01*
X99754823Y-101551086D01*
X99798776Y-101576144D01*
X99829061Y-101616673D01*
X99832058Y-101623101D01*
X99843407Y-101683615D01*
X99824252Y-101742128D01*
X99779314Y-101784215D01*
X99719673Y-101799500D01*
X98313741Y-101799500D01*
X98257447Y-101785985D01*
X98213425Y-101748388D01*
X98191268Y-101694902D01*
X98195808Y-101637187D01*
X98226055Y-101587824D01*
X98226060Y-101587819D01*
X98235001Y-101578877D01*
X98280907Y-101549805D01*
X98334835Y-101543153D01*
X98400000Y-101549572D01*
X98585252Y-101531326D01*
X98763385Y-101477290D01*
X98927554Y-101389540D01*
X98956729Y-101365596D01*
X99007234Y-101340689D01*
X99063550Y-101340688D01*
X99114059Y-101365596D01*
G37*
%TD.AperFunction*%
%TA.AperFunction,Conductor*%
G36*
X110596780Y-88610660D02*
G01*
X111060642Y-89074522D01*
X111071337Y-89086717D01*
X111089549Y-89110451D01*
X111105506Y-89122695D01*
X111113281Y-89128661D01*
X111113284Y-89128664D01*
X111119731Y-89133611D01*
X111119732Y-89133612D01*
X111209767Y-89202699D01*
X111298163Y-89239313D01*
X111349764Y-89260687D01*
X111462280Y-89275500D01*
X111500000Y-89280466D01*
X111529662Y-89276560D01*
X111545846Y-89275500D01*
X116760677Y-89275500D01*
X116817591Y-89289333D01*
X116861807Y-89327745D01*
X116883459Y-89382166D01*
X116877719Y-89440455D01*
X116874212Y-89450475D01*
X116874211Y-89450478D01*
X116830806Y-89574522D01*
X116814631Y-89620748D01*
X116794434Y-89800000D01*
X116814631Y-89979251D01*
X116814631Y-89979253D01*
X116814632Y-89979255D01*
X116874211Y-90149522D01*
X116893530Y-90180268D01*
X116970184Y-90302263D01*
X117013180Y-90345258D01*
X117040061Y-90385487D01*
X117049500Y-90432940D01*
X117049500Y-93689312D01*
X117035130Y-93747254D01*
X116995351Y-93791766D01*
X116939382Y-93812532D01*
X116920749Y-93814631D01*
X116920746Y-93814631D01*
X116920745Y-93814632D01*
X116750478Y-93874211D01*
X116750476Y-93874211D01*
X116750476Y-93874212D01*
X116597735Y-93970185D01*
X116470185Y-94097735D01*
X116374212Y-94250476D01*
X116374211Y-94250478D01*
X116321688Y-94400579D01*
X116314631Y-94420748D01*
X116294434Y-94600000D01*
X116314631Y-94779251D01*
X116314631Y-94779253D01*
X116314632Y-94779255D01*
X116374211Y-94949522D01*
X116374212Y-94949523D01*
X116374213Y-94949525D01*
X116394076Y-94981138D01*
X116411559Y-95027735D01*
X116409312Y-95077453D01*
X116401427Y-95093804D01*
X116403550Y-95094684D01*
X116339312Y-95249764D01*
X116323439Y-95370338D01*
X116323439Y-95370345D01*
X116319534Y-95400000D01*
X116323439Y-95429655D01*
X116324500Y-95445840D01*
X116324500Y-95675500D01*
X116307887Y-95737500D01*
X116262500Y-95782887D01*
X116200500Y-95799500D01*
X114568796Y-95799500D01*
X114509181Y-95805909D01*
X114374335Y-95856204D01*
X114257227Y-95943871D01*
X114209274Y-95965770D01*
X114156558Y-95965770D01*
X114108605Y-95943871D01*
X113992089Y-95856647D01*
X113857375Y-95806402D01*
X113797824Y-95800000D01*
X113225000Y-95800000D01*
X113225000Y-97076000D01*
X113208387Y-97138000D01*
X113163000Y-97183387D01*
X113101000Y-97200000D01*
X112849000Y-97200000D01*
X112787000Y-97183387D01*
X112741613Y-97138000D01*
X112725000Y-97076000D01*
X112725000Y-95800000D01*
X112152176Y-95800000D01*
X112092624Y-95806402D01*
X111957910Y-95856647D01*
X111842811Y-95942811D01*
X111756647Y-96057910D01*
X111706402Y-96192624D01*
X111700000Y-96252176D01*
X111700000Y-96486758D01*
X111686485Y-96543053D01*
X111648885Y-96587076D01*
X111595398Y-96609231D01*
X111537682Y-96604689D01*
X111488319Y-96574439D01*
X111211819Y-96297939D01*
X111184939Y-96257711D01*
X111175500Y-96210258D01*
X111175500Y-95507759D01*
X111194506Y-95441787D01*
X111245698Y-95396039D01*
X111313384Y-95384539D01*
X111499999Y-95405565D01*
X111499999Y-95405564D01*
X111500000Y-95405565D01*
X111679255Y-95385368D01*
X111849522Y-95325789D01*
X112002262Y-95229816D01*
X112129816Y-95102262D01*
X112225789Y-94949522D01*
X112285368Y-94779255D01*
X112299651Y-94652485D01*
X112311151Y-94612568D01*
X112335187Y-94578691D01*
X113277061Y-93636817D01*
X113317289Y-93609938D01*
X113364742Y-93600499D01*
X113797870Y-93600499D01*
X113797872Y-93600499D01*
X113857483Y-93594091D01*
X113992331Y-93543796D01*
X114107546Y-93457546D01*
X114107547Y-93457544D01*
X114109438Y-93456129D01*
X114157390Y-93434229D01*
X114210107Y-93434229D01*
X114258060Y-93456128D01*
X114374577Y-93543352D01*
X114509290Y-93593597D01*
X114568842Y-93600000D01*
X115141666Y-93600000D01*
X115141666Y-92700000D01*
X115641666Y-92700000D01*
X115641666Y-93600000D01*
X116214490Y-93600000D01*
X116274041Y-93593597D01*
X116408755Y-93543352D01*
X116523854Y-93457188D01*
X116610018Y-93342089D01*
X116660263Y-93207375D01*
X116666666Y-93147824D01*
X116666666Y-92700000D01*
X115641666Y-92700000D01*
X115141666Y-92700000D01*
X115141666Y-91300000D01*
X115641666Y-91300000D01*
X115641666Y-92200000D01*
X116666666Y-92200000D01*
X116666666Y-91752176D01*
X116660263Y-91692624D01*
X116610018Y-91557910D01*
X116523854Y-91442811D01*
X116408755Y-91356647D01*
X116274041Y-91306402D01*
X116214490Y-91300000D01*
X115641666Y-91300000D01*
X115141666Y-91300000D01*
X114568842Y-91300000D01*
X114509290Y-91306402D01*
X114374574Y-91356648D01*
X114258059Y-91443871D01*
X114210107Y-91465770D01*
X114157390Y-91465770D01*
X114109438Y-91443871D01*
X114107547Y-91442455D01*
X114107546Y-91442454D01*
X113992331Y-91356204D01*
X113857483Y-91305909D01*
X113797873Y-91299500D01*
X113797869Y-91299500D01*
X112152130Y-91299500D01*
X112092515Y-91305909D01*
X112063633Y-91316682D01*
X112020300Y-91324500D01*
X110358981Y-91324500D01*
X110301040Y-91310130D01*
X110256528Y-91270352D01*
X110235761Y-91214384D01*
X110220439Y-91078406D01*
X110216654Y-91044811D01*
X110157075Y-90874544D01*
X110061102Y-90721804D01*
X110061101Y-90721803D01*
X110061100Y-90721801D01*
X109933550Y-90594251D01*
X109845540Y-90538951D01*
X109780808Y-90498277D01*
X109610541Y-90438698D01*
X109610539Y-90438697D01*
X109610537Y-90438697D01*
X109486727Y-90424747D01*
X109439617Y-90409489D01*
X109402234Y-90377012D01*
X109392671Y-90364549D01*
X109362490Y-90341390D01*
X109362488Y-90341388D01*
X109272453Y-90272302D01*
X109272451Y-90272301D01*
X109263133Y-90268441D01*
X109263132Y-90268441D01*
X109132455Y-90214312D01*
X109011888Y-90198439D01*
X109011875Y-90198439D01*
X108982220Y-90194534D01*
X108952565Y-90198439D01*
X108936380Y-90199500D01*
X108884452Y-90199500D01*
X108828157Y-90185985D01*
X108784134Y-90148385D01*
X108761979Y-90094898D01*
X108766521Y-90037182D01*
X108796771Y-89987819D01*
X109372771Y-89411819D01*
X109958381Y-88826208D01*
X109992258Y-88802171D01*
X110032170Y-88790672D01*
X110079255Y-88785368D01*
X110249522Y-88725789D01*
X110402262Y-88629816D01*
X110421418Y-88610659D01*
X110477004Y-88578567D01*
X110541192Y-88578566D01*
X110596780Y-88610660D01*
G37*
%TD.AperFunction*%
%TA.AperFunction,Conductor*%
G36*
X93687818Y-85339010D02*
G01*
X93737181Y-85369260D01*
X93797735Y-85429814D01*
X93797737Y-85429815D01*
X93797738Y-85429816D01*
X93950478Y-85525789D01*
X94120745Y-85585368D01*
X94255186Y-85600515D01*
X94299999Y-85605565D01*
X94299999Y-85605564D01*
X94300000Y-85605565D01*
X94316783Y-85603673D01*
X94358269Y-85599000D01*
X94421739Y-85608566D01*
X94471923Y-85648586D01*
X94495373Y-85708336D01*
X94513323Y-85867639D01*
X94514632Y-85879255D01*
X94574211Y-86049522D01*
X94624663Y-86129816D01*
X94670185Y-86202264D01*
X94797735Y-86329814D01*
X94797737Y-86329815D01*
X94797738Y-86329816D01*
X94950478Y-86425789D01*
X95120745Y-86485368D01*
X95300000Y-86505565D01*
X95479255Y-86485368D01*
X95649522Y-86425789D01*
X95802262Y-86329816D01*
X95929816Y-86202262D01*
X96025789Y-86049522D01*
X96074556Y-85910152D01*
X96114283Y-85854163D01*
X96177712Y-85827890D01*
X96245398Y-85839390D01*
X96296590Y-85885138D01*
X96370184Y-86002263D01*
X96497735Y-86129814D01*
X96497737Y-86129815D01*
X96497738Y-86129816D01*
X96650478Y-86225789D01*
X96820745Y-86285368D01*
X97000000Y-86305565D01*
X97179255Y-86285368D01*
X97349522Y-86225789D01*
X97502262Y-86129816D01*
X97600187Y-86031890D01*
X97655773Y-85999797D01*
X97719960Y-85999797D01*
X97775548Y-86031891D01*
X101318179Y-89574522D01*
X101328874Y-89586717D01*
X101347086Y-89610452D01*
X101377266Y-89633610D01*
X101377266Y-89633609D01*
X101377269Y-89633612D01*
X101467305Y-89702699D01*
X101544153Y-89734530D01*
X101607301Y-89760687D01*
X101719817Y-89775500D01*
X101757537Y-89780466D01*
X101787199Y-89776560D01*
X101803383Y-89775500D01*
X102588868Y-89775500D01*
X102644140Y-89788500D01*
X102687822Y-89824774D01*
X102710757Y-89876716D01*
X102708134Y-89933435D01*
X102664243Y-90087689D01*
X102644571Y-90300000D01*
X102664243Y-90512310D01*
X102722595Y-90717390D01*
X102817631Y-90908252D01*
X102946127Y-91078406D01*
X102952114Y-91083864D01*
X102985009Y-91132852D01*
X102991538Y-91191497D01*
X102970221Y-91246520D01*
X102925887Y-91285460D01*
X102868574Y-91299500D01*
X101785464Y-91299500D01*
X101725849Y-91305909D01*
X101591003Y-91356204D01*
X101475788Y-91442454D01*
X101389538Y-91557668D01*
X101339243Y-91692516D01*
X101332124Y-91758735D01*
X101330669Y-91758578D01*
X101316221Y-91812500D01*
X101270834Y-91857887D01*
X101208834Y-91874500D01*
X96057833Y-91874500D01*
X95995833Y-91857887D01*
X95950446Y-91812500D01*
X95935997Y-91758578D01*
X95934543Y-91758735D01*
X95933833Y-91752127D01*
X95927425Y-91692517D01*
X95894406Y-91603990D01*
X95888401Y-91539541D01*
X95915693Y-91480843D01*
X95968846Y-91443897D01*
X96033375Y-91438772D01*
X96093436Y-91450000D01*
X96306561Y-91450000D01*
X96516060Y-91410837D01*
X96714795Y-91333847D01*
X96817007Y-91270560D01*
X96200001Y-90653553D01*
X96200000Y-90653553D01*
X95588930Y-91264621D01*
X95542502Y-91293877D01*
X95487995Y-91300229D01*
X95481207Y-91299500D01*
X95481204Y-91299500D01*
X93835464Y-91299500D01*
X93775850Y-91305909D01*
X93775851Y-91305909D01*
X93692831Y-91336873D01*
X93634047Y-91343724D01*
X93578780Y-91322547D01*
X93539624Y-91278166D01*
X93525500Y-91220691D01*
X93525500Y-89453373D01*
X93540142Y-89394920D01*
X93580609Y-89350271D01*
X93637346Y-89329970D01*
X93696952Y-89338812D01*
X93737227Y-89355494D01*
X93749764Y-89360687D01*
X93862280Y-89375500D01*
X93870331Y-89376560D01*
X93870345Y-89376561D01*
X93900000Y-89380465D01*
X93929655Y-89376561D01*
X93945840Y-89375500D01*
X95208052Y-89375500D01*
X95273330Y-89394073D01*
X95319052Y-89444229D01*
X95331523Y-89510941D01*
X95307006Y-89574227D01*
X95218058Y-89692011D01*
X95123062Y-89882791D01*
X95064737Y-90087780D01*
X95045073Y-90299999D01*
X95064737Y-90512219D01*
X95123062Y-90717208D01*
X95218060Y-90907990D01*
X95226834Y-90919609D01*
X95226835Y-90919609D01*
X96112318Y-90034127D01*
X96167905Y-90002033D01*
X96232093Y-90002033D01*
X96287680Y-90034127D01*
X97173163Y-90919610D01*
X97181940Y-90907988D01*
X97276937Y-90717208D01*
X97335262Y-90512219D01*
X97354926Y-90299999D01*
X97335262Y-90087780D01*
X97276937Y-89882791D01*
X97181941Y-89692011D01*
X97092994Y-89574227D01*
X97068477Y-89510941D01*
X97080948Y-89444229D01*
X97126670Y-89394073D01*
X97191948Y-89375500D01*
X98392059Y-89375500D01*
X98439512Y-89384939D01*
X98479740Y-89411819D01*
X98497735Y-89429814D01*
X98497737Y-89429815D01*
X98497738Y-89429816D01*
X98650478Y-89525789D01*
X98820745Y-89585368D01*
X99000000Y-89605565D01*
X99179255Y-89585368D01*
X99349522Y-89525789D01*
X99502262Y-89429816D01*
X99629816Y-89302262D01*
X99725789Y-89149522D01*
X99785368Y-88979255D01*
X99805565Y-88800000D01*
X99785368Y-88620745D01*
X99725789Y-88450478D01*
X99629816Y-88297738D01*
X99629815Y-88297737D01*
X99629814Y-88297735D01*
X99502264Y-88170185D01*
X99408047Y-88110985D01*
X99349522Y-88074211D01*
X99179255Y-88014632D01*
X99179253Y-88014631D01*
X99179251Y-88014631D01*
X99000000Y-87994434D01*
X98820748Y-88014631D01*
X98820745Y-88014631D01*
X98820745Y-88014632D01*
X98650478Y-88074211D01*
X98650476Y-88074211D01*
X98650476Y-88074212D01*
X98497735Y-88170185D01*
X98479740Y-88188181D01*
X98439512Y-88215061D01*
X98392059Y-88224500D01*
X94439673Y-88224500D01*
X94390086Y-88214154D01*
X94348774Y-88184841D01*
X94334654Y-88161407D01*
X94333222Y-88162308D01*
X94318773Y-88139313D01*
X94229816Y-87997738D01*
X94229815Y-87997737D01*
X94229814Y-87997735D01*
X94102264Y-87870185D01*
X94007199Y-87810452D01*
X93949522Y-87774211D01*
X93779255Y-87714632D01*
X93779251Y-87714631D01*
X93779250Y-87714631D01*
X93635616Y-87698447D01*
X93579648Y-87677680D01*
X93539870Y-87633168D01*
X93525500Y-87575227D01*
X93525500Y-85456941D01*
X93539015Y-85400646D01*
X93576615Y-85356623D01*
X93630102Y-85334468D01*
X93687818Y-85339010D01*
G37*
%TD.AperFunction*%
%TA.AperFunction,Conductor*%
G36*
X110542285Y-53984124D02*
G01*
X110594430Y-54017327D01*
X110624064Y-54071579D01*
X110667220Y-54241993D01*
X110670843Y-54256300D01*
X110764076Y-54468849D01*
X110891021Y-54663153D01*
X111048216Y-54833913D01*
X111231374Y-54976470D01*
X111435497Y-55086936D01*
X111545258Y-55124617D01*
X111655015Y-55162297D01*
X111655017Y-55162297D01*
X111655019Y-55162298D01*
X111883951Y-55200500D01*
X112116048Y-55200500D01*
X112116049Y-55200500D01*
X112344981Y-55162298D01*
X112370576Y-55153510D01*
X112438788Y-55149983D01*
X112498521Y-55183111D01*
X113738181Y-56422771D01*
X113765061Y-56462999D01*
X113774500Y-56510452D01*
X113774500Y-59775340D01*
X113755494Y-59841312D01*
X113704302Y-59887060D01*
X113636616Y-59898560D01*
X113600000Y-59894434D01*
X113420748Y-59914631D01*
X113250474Y-59974212D01*
X113237893Y-59982118D01*
X113182039Y-60000710D01*
X113123905Y-59991448D01*
X113076593Y-59956421D01*
X113050766Y-59903522D01*
X113052244Y-59844674D01*
X113080694Y-59793139D01*
X113108585Y-59762841D01*
X113235482Y-59568612D01*
X113328680Y-59356139D01*
X113385638Y-59131217D01*
X113404798Y-58900000D01*
X113385638Y-58668782D01*
X113328680Y-58443860D01*
X113235484Y-58231392D01*
X113151186Y-58102364D01*
X112000000Y-59253553D01*
X111201199Y-60052351D01*
X111231650Y-60076051D01*
X111435700Y-60186477D01*
X111655140Y-60261811D01*
X111883993Y-60300000D01*
X112116007Y-60300000D01*
X112344859Y-60261811D01*
X112564298Y-60186478D01*
X112610495Y-60161477D01*
X112678731Y-60146874D01*
X112744047Y-60171431D01*
X112785761Y-60227372D01*
X112790660Y-60296980D01*
X112757195Y-60358212D01*
X108161424Y-64953984D01*
X108105837Y-64986078D01*
X108041649Y-64986078D01*
X107986062Y-64953984D01*
X107961819Y-64929741D01*
X107934939Y-64889513D01*
X107925500Y-64842060D01*
X107925500Y-63444855D01*
X107944506Y-63378883D01*
X107946632Y-63375500D01*
X108025789Y-63249522D01*
X108085368Y-63079255D01*
X108105565Y-62900000D01*
X108085368Y-62720745D01*
X108025789Y-62550478D01*
X107929816Y-62397738D01*
X107929815Y-62397737D01*
X107929814Y-62397735D01*
X107802264Y-62270185D01*
X107700599Y-62206305D01*
X107649522Y-62174211D01*
X107479255Y-62114632D01*
X107479253Y-62114631D01*
X107479251Y-62114631D01*
X107394329Y-62105062D01*
X107341254Y-62086208D01*
X107301994Y-62045821D01*
X107284650Y-61992233D01*
X107292799Y-61936509D01*
X108485713Y-58900000D01*
X110595201Y-58900000D01*
X110614361Y-59131217D01*
X110671319Y-59356139D01*
X110764516Y-59568609D01*
X110848812Y-59697633D01*
X111646447Y-58900001D01*
X111646447Y-58900000D01*
X110848812Y-58102365D01*
X110764516Y-58231390D01*
X110671319Y-58443860D01*
X110614361Y-58668782D01*
X110595201Y-58900000D01*
X108485713Y-58900000D01*
X108938423Y-57747647D01*
X111201200Y-57747647D01*
X112000000Y-58546447D01*
X112000001Y-58546447D01*
X112798799Y-57747648D01*
X112798799Y-57747647D01*
X112768349Y-57723948D01*
X112564299Y-57613522D01*
X112344859Y-57538188D01*
X112116007Y-57500000D01*
X111883993Y-57500000D01*
X111655140Y-57538188D01*
X111435703Y-57613521D01*
X111231645Y-57723952D01*
X111201200Y-57747646D01*
X111201200Y-57747647D01*
X108938423Y-57747647D01*
X110388449Y-54056674D01*
X110424678Y-54006592D01*
X110480590Y-53980223D01*
X110542285Y-53984124D01*
G37*
%TD.AperFunction*%
%TD*%
M02*
