%TF.GenerationSoftware,KiCad,Pcbnew,8.0.5*%
%TF.CreationDate,2024-12-10T19:27:58+01:00*%
%TF.ProjectId,OpenReflowPlate,4f70656e-5265-4666-9c6f-77506c617465,rev?*%
%TF.SameCoordinates,Original*%
%TF.FileFunction,Paste,Bot*%
%TF.FilePolarity,Positive*%
%FSLAX46Y46*%
G04 Gerber Fmt 4.6, Leading zero omitted, Abs format (unit mm)*
G04 Created by KiCad (PCBNEW 8.0.5) date 2024-12-10 19:27:58*
%MOMM*%
%LPD*%
G01*
G04 APERTURE LIST*
G04 Aperture macros list*
%AMRoundRect*
0 Rectangle with rounded corners*
0 $1 Rounding radius*
0 $2 $3 $4 $5 $6 $7 $8 $9 X,Y pos of 4 corners*
0 Add a 4 corners polygon primitive as box body*
4,1,4,$2,$3,$4,$5,$6,$7,$8,$9,$2,$3,0*
0 Add four circle primitives for the rounded corners*
1,1,$1+$1,$2,$3*
1,1,$1+$1,$4,$5*
1,1,$1+$1,$6,$7*
1,1,$1+$1,$8,$9*
0 Add four rect primitives between the rounded corners*
20,1,$1+$1,$2,$3,$4,$5,0*
20,1,$1+$1,$4,$5,$6,$7,0*
20,1,$1+$1,$6,$7,$8,$9,0*
20,1,$1+$1,$8,$9,$2,$3,0*%
G04 Aperture macros list end*
%ADD10RoundRect,0.250000X0.262500X0.450000X-0.262500X0.450000X-0.262500X-0.450000X0.262500X-0.450000X0*%
%ADD11R,1.000000X1.450000*%
%ADD12R,0.600000X1.250000*%
%ADD13R,1.020000X1.470000*%
%ADD14R,1.470000X1.020000*%
%ADD15R,1.450000X1.000000*%
%ADD16R,1.250000X0.600000*%
%ADD17RoundRect,0.075000X0.700000X0.075000X-0.700000X0.075000X-0.700000X-0.075000X0.700000X-0.075000X0*%
%ADD18RoundRect,0.075000X0.075000X0.700000X-0.075000X0.700000X-0.075000X-0.700000X0.075000X-0.700000X0*%
%ADD19RoundRect,0.250000X0.450000X-0.262500X0.450000X0.262500X-0.450000X0.262500X-0.450000X-0.262500X0*%
%ADD20RoundRect,0.250000X-0.450000X0.262500X-0.450000X-0.262500X0.450000X-0.262500X0.450000X0.262500X0*%
%ADD21R,0.960000X1.390000*%
%ADD22R,1.525000X0.650000*%
G04 APERTURE END LIST*
D10*
%TO.C,R14*%
X106612500Y-94700000D03*
X104787500Y-94700000D03*
%TD*%
D11*
%TO.C,R9*%
X115736800Y-105550400D03*
X117636800Y-105550400D03*
%TD*%
%TO.C,R3*%
X137511800Y-99800400D03*
X139411800Y-99800400D03*
%TD*%
D12*
%TO.C,Q4*%
X121261800Y-103600400D03*
X119351800Y-103600400D03*
X120306800Y-101500400D03*
%TD*%
D11*
%TO.C,R1*%
X137511800Y-105800400D03*
X139411800Y-105800400D03*
%TD*%
D13*
%TO.C,C8*%
X133300000Y-122865000D03*
X131700000Y-122865000D03*
%TD*%
%TO.C,C11*%
X123000000Y-122670000D03*
X121400000Y-122670000D03*
%TD*%
D11*
%TO.C,R12*%
X119336800Y-99550400D03*
X121236800Y-99550400D03*
%TD*%
D14*
%TO.C,C4*%
X112800000Y-103400000D03*
X112800000Y-105000000D03*
%TD*%
D11*
%TO.C,R11*%
X119336800Y-105550400D03*
X121236800Y-105550400D03*
%TD*%
D15*
%TO.C,R26*%
X118850000Y-92480000D03*
X118850000Y-94380000D03*
%TD*%
%TO.C,R20*%
X116950000Y-114620000D03*
X116950000Y-116520000D03*
%TD*%
%TO.C,R19*%
X110950000Y-114620000D03*
X110950000Y-116520000D03*
%TD*%
D12*
%TO.C,Q2*%
X143006800Y-103800400D03*
X141096800Y-103800400D03*
X142051800Y-101700400D03*
%TD*%
D11*
%TO.C,R24*%
X123150000Y-120725000D03*
X121250000Y-120725000D03*
%TD*%
D16*
%TO.C,Q7*%
X120900000Y-94385000D03*
X120900000Y-92475000D03*
X123000000Y-93430000D03*
%TD*%
D17*
%TO.C,U2*%
X110875000Y-98650000D03*
X110875000Y-99150000D03*
X110875000Y-99650000D03*
X110875000Y-100150000D03*
X110875000Y-100650000D03*
X110875000Y-101150000D03*
X110875000Y-101650000D03*
X110875000Y-102150000D03*
X110875000Y-102650000D03*
X110875000Y-103150000D03*
X110875000Y-103650000D03*
X110875000Y-104150000D03*
X110875000Y-104650000D03*
X110875000Y-105150000D03*
X110875000Y-105650000D03*
X110875000Y-106150000D03*
D18*
X108950000Y-108075000D03*
X108450000Y-108075000D03*
X107950000Y-108075000D03*
X107450000Y-108075000D03*
X106950000Y-108075000D03*
X106450000Y-108075000D03*
X105950000Y-108075000D03*
X105450000Y-108075000D03*
X104950000Y-108075000D03*
X104450000Y-108075000D03*
X103950000Y-108075000D03*
X103450000Y-108075000D03*
X102950000Y-108075000D03*
X102450000Y-108075000D03*
X101950000Y-108075000D03*
X101450000Y-108075000D03*
D17*
X99525000Y-106150000D03*
X99525000Y-105650000D03*
X99525000Y-105150000D03*
X99525000Y-104650000D03*
X99525000Y-104150000D03*
X99525000Y-103650000D03*
X99525000Y-103150000D03*
X99525000Y-102650000D03*
X99525000Y-102150000D03*
X99525000Y-101650000D03*
X99525000Y-101150000D03*
X99525000Y-100650000D03*
X99525000Y-100150000D03*
X99525000Y-99650000D03*
X99525000Y-99150000D03*
X99525000Y-98650000D03*
D18*
X101450000Y-96725000D03*
X101950000Y-96725000D03*
X102450000Y-96725000D03*
X102950000Y-96725000D03*
X103450000Y-96725000D03*
X103950000Y-96725000D03*
X104450000Y-96725000D03*
X104950000Y-96725000D03*
X105450000Y-96725000D03*
X105950000Y-96725000D03*
X106450000Y-96725000D03*
X106950000Y-96725000D03*
X107450000Y-96725000D03*
X107950000Y-96725000D03*
X108450000Y-96725000D03*
X108950000Y-96725000D03*
%TD*%
D11*
%TO.C,R6*%
X141101800Y-99750400D03*
X143001800Y-99750400D03*
%TD*%
%TO.C,R5*%
X141101800Y-105750400D03*
X143001800Y-105750400D03*
%TD*%
%TO.C,R21*%
X123150000Y-118670000D03*
X121250000Y-118670000D03*
%TD*%
D19*
%TO.C,R13*%
X112900000Y-99012500D03*
X112900000Y-97187500D03*
%TD*%
D11*
%TO.C,R25*%
X117350000Y-118775000D03*
X115450000Y-118775000D03*
%TD*%
D20*
%TO.C,R7*%
X117000000Y-125557500D03*
X117000000Y-127382500D03*
%TD*%
D21*
%TO.C,LFB1*%
X135091188Y-113235000D03*
X133471188Y-113235000D03*
%TD*%
D11*
%TO.C,R17*%
X112250000Y-118770000D03*
X110350000Y-118770000D03*
%TD*%
%TO.C,R18*%
X133450000Y-118765000D03*
X131550000Y-118765000D03*
%TD*%
%TO.C,R22*%
X117350000Y-120870000D03*
X115450000Y-120870000D03*
%TD*%
D12*
%TO.C,Q1*%
X139406800Y-103850400D03*
X137496800Y-103850400D03*
X138451800Y-101750400D03*
%TD*%
D20*
%TO.C,R4*%
X111800000Y-125557500D03*
X111800000Y-127382500D03*
%TD*%
D22*
%TO.C,IC1*%
X131112000Y-111295000D03*
X131112000Y-112565000D03*
X131112000Y-113835000D03*
X131112000Y-115105000D03*
X125688000Y-115105000D03*
X125688000Y-113835000D03*
X125688000Y-112565000D03*
X125688000Y-111295000D03*
%TD*%
D14*
%TO.C,C5*%
X99000000Y-96600000D03*
X99000000Y-95000000D03*
%TD*%
D21*
%TO.C,LFB2*%
X135101188Y-115135000D03*
X133481188Y-115135000D03*
%TD*%
D20*
%TO.C,R2*%
X122300000Y-125570000D03*
X122300000Y-127395000D03*
%TD*%
D13*
%TO.C,C9*%
X112100000Y-122770000D03*
X110500000Y-122770000D03*
%TD*%
%TO.C,C1*%
X129290000Y-116900000D03*
X127690000Y-116900000D03*
%TD*%
D11*
%TO.C,R10*%
X115736800Y-99550400D03*
X117636800Y-99550400D03*
%TD*%
D15*
%TO.C,R23*%
X116050000Y-94335000D03*
X116050000Y-92435000D03*
%TD*%
D13*
%TO.C,C10*%
X117200000Y-122775000D03*
X115600000Y-122775000D03*
%TD*%
D16*
%TO.C,Q5*%
X112900000Y-116525000D03*
X112900000Y-114615000D03*
X115000000Y-115570000D03*
%TD*%
D10*
%TO.C,R8*%
X93552500Y-107980000D03*
X91727500Y-107980000D03*
%TD*%
D11*
%TO.C,R15*%
X133450000Y-120870000D03*
X131550000Y-120870000D03*
%TD*%
D12*
%TO.C,Q3*%
X117651800Y-103600400D03*
X115741800Y-103600400D03*
X116696800Y-101500400D03*
%TD*%
D13*
%TO.C,C6*%
X108100000Y-94700000D03*
X109700000Y-94700000D03*
%TD*%
%TO.C,C7*%
X96500000Y-107940000D03*
X98100000Y-107940000D03*
%TD*%
D16*
%TO.C,Q6*%
X113950000Y-92430000D03*
X113950000Y-94340000D03*
X111850000Y-93385000D03*
%TD*%
D11*
%TO.C,R16*%
X112250000Y-120770000D03*
X110350000Y-120770000D03*
%TD*%
M02*
