M48
; DRILL file {KiCad 7.0.1} date Thu Jan 25 20:06:08 2024
; FORMAT={-:-/ absolute / metric / decimal}
; #@! TF.CreationDate,2024-01-25T20:06:08+01:00
; #@! TF.GenerationSoftware,Kicad,Pcbnew,7.0.1
; #@! TF.FileFunction,MixedPlating,1,2
FMAT,2
METRIC
; #@! TA.AperFunction,Plated,PTH,ViaDrill
T1C0.300
; #@! TA.AperFunction,Plated,PTH,ComponentDrill
T2C0.800
; #@! TA.AperFunction,Plated,PTH,ComponentDrill
T3C1.000
; #@! TA.AperFunction,Plated,PTH,ComponentDrill
T4C1.067
; #@! TA.AperFunction,Plated,PTH,ComponentDrill
T5C1.200
; #@! TA.AperFunction,Plated,PTH,ComponentDrill
T6C1.300
; #@! TA.AperFunction,Plated,PTH,ComponentDrill
T7C1.520
; #@! TA.AperFunction,Plated,PTH,ComponentDrill
T8C1.900
; #@! TA.AperFunction,Plated,PTH,ViaDrill
T9C3.200
%
G90
G05
T1
X87.575Y-82.2
X88.251Y-79.5
X88.4Y-86.6
X89.3Y-81.4
X89.4Y-74.6
X89.479Y-70.279
X90.0Y-84.9
X90.475Y-79.5
X90.599Y-80.6
X91.0Y-81.4
X92.9Y-68.2
X93.0Y-70.5
X93.1Y-81.3
X93.138Y-83.358
X93.4Y-76.1
X93.4Y-80.1
X93.5Y-74.2
X93.5Y-75.0
X93.6Y-88.5
X94.3Y-77.7
X94.3Y-84.8
X94.3Y-95.4
X94.4Y-100.9
X94.8Y-79.6
X94.906Y-78.858
X95.2Y-73.4
X95.3Y-72.4
X95.3Y-85.7
X95.5Y-80.1
X96.071Y-80.929
X96.3Y-98.5
X96.4Y-69.7
X96.525Y-73.8
X96.6Y-66.7
X96.992Y-81.05
X97.0Y-85.5
X97.7Y-72.1
X98.1Y-97.6
X98.2Y-72.8
X98.3Y-83.8
X98.376Y-77.4
X98.5Y-78.2
X99.0Y-88.8
X99.0Y-97.8
X99.1Y-80.575
X99.2Y-79.7
X99.3Y-78.9
X99.5Y-101.501
X99.6Y-84.5
X99.9Y-67.2
X99.975Y-79.575
X100.2Y-84.0
X100.5Y-72.2
X100.8Y-97.2
X100.829Y-85.371
X100.9Y-89.2
X101.5Y-75.7
X101.9Y-74.9
X102.2Y-83.825
X103.0Y-85.5
X103.1Y-83.9
X103.2Y-68.7
X103.2Y-81.275
X104.2Y-85.0
X104.6Y-80.775
X104.7Y-95.7
X104.9Y-90.775
X105.3Y-75.775
X105.3Y-87.5
X105.6Y-81.7
X106.1Y-83.3
X106.3Y-89.2
X106.495Y-87.759
X106.578Y-88.504
X106.9Y-98.6
X107.024Y-95.0
X107.1Y-91.3
X107.3Y-62.9
X107.4Y-65.5
X108.5Y-77.6
X108.8Y-67.2
X109.431Y-91.224
X109.5Y-82.1
X109.9Y-88.0
X110.5Y-101.0
X110.6Y-94.2
X110.7Y-82.3
X111.1Y-92.9
X111.4Y-66.9
X111.5Y-94.6
X111.6Y-82.2
X112.8Y-81.9
X113.0Y-96.705
X113.6Y-60.7
X114.5Y-66.9
X116.0Y-101.0
X116.1Y-63.1
X116.3Y-84.1
X116.8Y-80.2
X116.9Y-87.8
X117.1Y-92.6
X117.1Y-94.6
X117.6Y-89.8
X117.6Y-95.9
X118.0Y-101.0
X118.1Y-88.0
X119.1Y-97.8
X119.8Y-82.1
X119.9Y-97.675
X120.5Y-91.5
X120.583Y-73.924
X121.3Y-89.3
X121.5Y-76.7
X121.9Y-99.8
X122.0Y-94.1
X122.3Y-95.1
X122.8Y-77.224
X123.3Y-73.5
X123.6Y-77.0
X124.6Y-76.7
X125.4Y-82.4
X125.6Y-83.5
X127.7Y-96.8
X127.8Y-94.8
X128.2Y-77.4
X131.3Y-78.0
X131.3Y-83.1
X132.0Y-94.9
X132.5Y-78.2
X133.2Y-73.0
X133.4Y-93.3
X133.8Y-91.0
T2
X96.2Y-90.3
X103.8Y-90.3
T3
X89.675Y-90.25
X89.675Y-92.75
X108.3Y-70.0
X108.3Y-85.24
X110.84Y-70.0
X110.84Y-85.24
X113.38Y-70.0
X113.38Y-85.24
X115.92Y-70.0
X115.92Y-85.24
X118.46Y-61.975
X118.46Y-70.0
X118.46Y-85.24
X119.3Y-55.225
X121.0Y-61.975
X121.0Y-70.0
X121.0Y-85.24
X124.5Y-25.825
X129.5Y-25.825
X134.7Y-55.225
T4
X95.86Y-99.965
X100.94Y-98.949
X100.94Y-100.981
T5
X112.0Y-31.0
X112.0Y-41.1
X112.0Y-53.8
X112.0Y-58.9
X128.62Y-61.975
X136.24Y-61.975
X138.0Y-89.46
X138.0Y-92.0
T6
X96.0Y-26.0
X96.0Y-33.5
X96.0Y-41.0
X96.0Y-48.5
X96.0Y-56.0
X96.0Y-63.5
X101.0Y-26.0
X101.0Y-33.5
X101.0Y-41.0
X101.0Y-48.5
X101.0Y-56.0
X101.0Y-63.5
T7
X135.55Y-72.28
X135.55Y-83.52
T8
X139.55Y-72.28
X139.55Y-83.52
T9
X90.0Y-21.0
X91.0Y-98.0
X138.0Y-21.0
X138.0Y-98.0
T0
M30
