%TF.GenerationSoftware,KiCad,Pcbnew,8.0.5*%
%TF.CreationDate,2024-12-10T19:27:58+01:00*%
%TF.ProjectId,OpenReflowPlate,4f70656e-5265-4666-9c6f-77506c617465,rev?*%
%TF.SameCoordinates,Original*%
%TF.FileFunction,Copper,L1,Top*%
%TF.FilePolarity,Positive*%
%FSLAX46Y46*%
G04 Gerber Fmt 4.6, Leading zero omitted, Abs format (unit mm)*
G04 Created by KiCad (PCBNEW 8.0.5) date 2024-12-10 19:27:58*
%MOMM*%
%LPD*%
G01*
G04 APERTURE LIST*
G04 Aperture macros list*
%AMFreePoly0*
4,1,13,0.453536,0.578536,0.455000,0.575000,0.455000,-0.575000,0.453536,-0.578536,0.450000,-0.580000,-0.150000,-0.580000,-0.153536,-0.578536,-0.155000,-0.575000,-0.155000,0.575000,-0.153536,0.578536,-0.150000,0.580000,0.450000,0.580000,0.453536,0.578536,0.453536,0.578536,$1*%
%AMFreePoly1*
4,1,13,0.153536,0.578536,0.155000,0.575000,0.155000,-0.575000,0.153536,-0.578536,0.150000,-0.580000,-0.450000,-0.580000,-0.453536,-0.578536,-0.455000,-0.575000,-0.455000,0.575000,-0.453536,0.578536,-0.450000,0.580000,0.150000,0.580000,0.153536,0.578536,0.153536,0.578536,$1*%
G04 Aperture macros list end*
%TA.AperFunction,ComponentPad*%
%ADD10R,1.800000X1.800000*%
%TD*%
%TA.AperFunction,ComponentPad*%
%ADD11C,1.800000*%
%TD*%
%TA.AperFunction,ComponentPad*%
%ADD12C,1.500000*%
%TD*%
%TA.AperFunction,ComponentPad*%
%ADD13R,1.500000X1.500000*%
%TD*%
%TA.AperFunction,SMDPad,CuDef*%
%ADD14R,1.020000X1.470000*%
%TD*%
%TA.AperFunction,SMDPad,CuDef*%
%ADD15R,1.075000X0.500000*%
%TD*%
%TA.AperFunction,SMDPad,CuDef*%
%ADD16R,1.550000X1.300000*%
%TD*%
%TA.AperFunction,ComponentPad*%
%ADD17C,1.950000*%
%TD*%
%TA.AperFunction,SMDPad,CuDef*%
%ADD18R,0.900000X1.400000*%
%TD*%
%TA.AperFunction,SMDPad,CuDef*%
%ADD19R,1.950000X0.900000*%
%TD*%
%TA.AperFunction,SMDPad,CuDef*%
%ADD20R,1.950000X3.200000*%
%TD*%
%TA.AperFunction,SMDPad,CuDef*%
%ADD21R,1.400000X0.900000*%
%TD*%
%TA.AperFunction,SMDPad,CuDef*%
%ADD22FreePoly0,270.000000*%
%TD*%
%TA.AperFunction,SMDPad,CuDef*%
%ADD23R,1.150000X0.300000*%
%TD*%
%TA.AperFunction,SMDPad,CuDef*%
%ADD24FreePoly1,270.000000*%
%TD*%
%TA.AperFunction,ComponentPad*%
%ADD25O,2.100000X1.000000*%
%TD*%
%TA.AperFunction,ComponentPad*%
%ADD26O,1.800000X1.000000*%
%TD*%
%TA.AperFunction,SMDPad,CuDef*%
%ADD27C,0.889000*%
%TD*%
%TA.AperFunction,ComponentPad*%
%ADD28C,1.550000*%
%TD*%
%TA.AperFunction,ComponentPad*%
%ADD29C,1.300000*%
%TD*%
%TA.AperFunction,ViaPad*%
%ADD30C,0.600000*%
%TD*%
%TA.AperFunction,Conductor*%
%ADD31C,0.150000*%
%TD*%
%TA.AperFunction,Conductor*%
%ADD32C,0.250000*%
%TD*%
%TA.AperFunction,Conductor*%
%ADD33C,3.000000*%
%TD*%
%TA.AperFunction,Conductor*%
%ADD34C,0.200000*%
%TD*%
G04 APERTURE END LIST*
D10*
%TO.P,K3,1,COM*%
%TO.N,DC_Out2*%
X140200000Y-90340000D03*
D11*
%TO.P,K3,2,NO*%
%TO.N,AC_Vdcin+*%
X135120000Y-90340000D03*
D12*
%TO.P,K3,3,COIL_1*%
%TO.N,Activation_out2*%
X124960000Y-90340000D03*
%TO.P,K3,4,COIL_2*%
%TO.N,GND*%
X122420000Y-90340000D03*
%TD*%
D13*
%TO.P,U1,1,e*%
%TO.N,D_e*%
X123100000Y-107960000D03*
D12*
%TO.P,U1,2,d*%
%TO.N,D_d*%
X125640000Y-107960000D03*
%TO.P,U1,3,DPX*%
%TO.N,D_dp*%
X128180000Y-107960000D03*
%TO.P,U1,4,c*%
%TO.N,D_c*%
X130720000Y-107960000D03*
%TO.P,U1,5,g*%
%TO.N,D_g*%
X133260000Y-107960000D03*
%TO.P,U1,6,CC4*%
%TO.N,CC_4*%
X135800000Y-107960000D03*
%TO.P,U1,7,b*%
%TO.N,D_b*%
X135800000Y-97800000D03*
%TO.P,U1,8,CC3*%
%TO.N,CC_3*%
X133260000Y-97800000D03*
%TO.P,U1,9,CC2*%
%TO.N,CC_2*%
X130720000Y-97800000D03*
%TO.P,U1,10,f*%
%TO.N,D_f*%
X128180000Y-97800000D03*
%TO.P,U1,11,a*%
%TO.N,D_a*%
X125640000Y-97800000D03*
%TO.P,U1,12,CC1*%
%TO.N,CC_1*%
X123100000Y-97800000D03*
%TD*%
%TO.P,PS2,1,AC_1*%
%TO.N,AC_L*%
X133770000Y-51450000D03*
%TO.P,PS2,2,AC_2*%
%TO.N,AC_N*%
X127770000Y-51450000D03*
%TO.P,PS2,3,-VO*%
%TO.N,GND*%
X139770000Y-85050000D03*
%TO.P,PS2,4,+VO*%
%TO.N,AC_Vdcin+*%
X121770000Y-85050000D03*
%TD*%
D14*
%TO.P,C2,1*%
%TO.N,+5V*%
X107600000Y-96900000D03*
%TO.P,C2,2*%
%TO.N,GND*%
X109200000Y-96900000D03*
%TD*%
D15*
%TO.P,D2,1*%
%TO.N,+5V*%
X103124000Y-100400000D03*
%TO.P,D2,2*%
%TO.N,AC_Vdcin+*%
X100800000Y-100400000D03*
%TD*%
D16*
%TO.P,S4,1,1*%
%TO.N,Net-(R22-Pad2)*%
X107625000Y-118520000D03*
%TO.P,S4,2,2*%
%TO.N,GND*%
X107625000Y-123020000D03*
%TO.P,S4,3,3*%
%TO.N,Net-(R22-Pad2)*%
X115575000Y-118520000D03*
%TO.P,S4,4,4*%
%TO.N,GND*%
X115575000Y-123020000D03*
%TD*%
D17*
%TO.P,J3,1*%
%TO.N,Net-(K1-AC_LOAD_2)*%
X103210000Y-74800000D03*
%TO.P,J3,2*%
%TO.N,AC_N*%
X103210000Y-82300000D03*
%TO.P,J3,3*%
%TO.N,AC_ground*%
X103210000Y-89800000D03*
%TO.P,J3,A1*%
%TO.N,Net-(K1-AC_LOAD_2)*%
X98210000Y-74800000D03*
%TO.P,J3,A2*%
%TO.N,AC_N*%
X98210000Y-82300000D03*
%TO.P,J3,A3*%
%TO.N,AC_ground*%
X98210000Y-89800000D03*
%TD*%
D11*
%TO.P,K1,1,AC_LOAD_1*%
%TO.N,AC_L*%
X114300000Y-56840000D03*
%TO.P,K1,2,AC_LOAD_2*%
%TO.N,Net-(K1-AC_LOAD_2)*%
X114300000Y-66940000D03*
%TO.P,K1,3,+DC_INPUT*%
%TO.N,Activation_out1*%
X114300000Y-79640000D03*
%TO.P,K1,4,_-DC_INPUT*%
%TO.N,GND*%
X114300000Y-84740000D03*
%TD*%
D18*
%TO.P,LED4,1*%
%TO.N,Net-(LED4-Pad1)*%
X93590000Y-107980000D03*
%TO.P,LED4,2*%
%TO.N,LED_LIFE*%
X91690000Y-107980000D03*
%TD*%
D19*
%TO.P,IC2,1,VIN*%
%TO.N,+5V*%
X105350000Y-99300000D03*
%TO.P,IC2,2,GND_1*%
%TO.N,GND*%
X105350000Y-101600000D03*
%TO.P,IC2,3,VOUT*%
%TO.N,+3V3*%
X105350000Y-103900000D03*
D20*
%TO.P,IC2,4,GND_2*%
%TO.N,GND*%
X111450000Y-101600000D03*
%TD*%
D15*
%TO.P,D1,1*%
%TO.N,+5V*%
X103124000Y-102700000D03*
%TO.P,D1,2*%
%TO.N,USB_Vin+*%
X100800000Y-102700000D03*
%TD*%
D16*
%TO.P,S1,1,1*%
%TO.N,Net-(R16-Pad1)*%
X97258334Y-118520000D03*
%TO.P,S1,2,2*%
%TO.N,GND*%
X97258334Y-123020000D03*
%TO.P,S1,3,3*%
%TO.N,Net-(R16-Pad1)*%
X105208334Y-118520000D03*
%TO.P,S1,4,4*%
%TO.N,GND*%
X105208334Y-123020000D03*
%TD*%
D13*
%TO.P,J2,1,1*%
%TO.N,GND*%
X91940000Y-114060000D03*
D12*
%TO.P,J2,2,2*%
%TO.N,DC_Out2*%
X91940000Y-116560000D03*
%TD*%
D10*
%TO.P,J1,1,1*%
%TO.N,Net-(J1-Pad1)*%
X140600000Y-116870000D03*
D11*
%TO.P,J1,2,2*%
%TO.N,Net-(J1-Pad2)*%
X140600000Y-114330000D03*
%TD*%
D16*
%TO.P,S2,1,1*%
%TO.N,Net-(R15-Pad2)*%
X128358334Y-118520000D03*
%TO.P,S2,2,2*%
%TO.N,GND*%
X128358334Y-123020000D03*
%TO.P,S2,3,3*%
%TO.N,Net-(R15-Pad2)*%
X136308334Y-118520000D03*
%TO.P,S2,4,4*%
%TO.N,GND*%
X136308334Y-123020000D03*
%TD*%
D21*
%TO.P,LED1,1*%
%TO.N,Net-(LED1-Pad1)*%
X122300000Y-127432500D03*
%TO.P,LED1,2*%
%TO.N,AC_Vdcin+*%
X122300000Y-125532500D03*
%TD*%
D17*
%TO.P,J4,1*%
%TO.N,AC_L*%
X103210000Y-52300000D03*
%TO.P,J4,2*%
%TO.N,AC_N*%
X103210000Y-59800000D03*
%TO.P,J4,3*%
%TO.N,AC_ground*%
X103210000Y-67300000D03*
%TO.P,J4,A1*%
%TO.N,AC_L*%
X98210000Y-52300000D03*
%TO.P,J4,A2*%
%TO.N,AC_N*%
X98210000Y-59800000D03*
%TO.P,J4,A3*%
%TO.N,AC_ground*%
X98210000Y-67300000D03*
%TD*%
D22*
%TO.P,J7,A1,GND*%
%TO.N,GND*%
X96745000Y-97720000D03*
%TO.P,J7,A4,VBUS*%
%TO.N,USB_Vin+*%
X96745000Y-98520000D03*
D23*
%TO.P,J7,A5,CC1*%
%TO.N,unconnected-(J7-CC1-PadA5)*%
X96745000Y-99820000D03*
%TO.P,J7,A6,D+1*%
%TO.N,USB_D+*%
X96745000Y-100820000D03*
%TO.P,J7,A7,D-1*%
%TO.N,USB_D-*%
X96745000Y-101320000D03*
%TO.P,J7,A8,SBU1*%
%TO.N,unconnected-(J7-SBU1-PadA8)*%
X96745000Y-102320000D03*
D24*
%TO.P,J7,A9,VBUS1*%
%TO.N,USB_Vin+*%
X96745000Y-103620000D03*
%TO.P,J7,A12,GND1*%
%TO.N,GND*%
X96745000Y-104420000D03*
D23*
%TO.P,J7,B1,GND3*%
X96745000Y-104120000D03*
%TO.P,J7,B4,VBUS3*%
%TO.N,USB_Vin+*%
X96745000Y-103320000D03*
%TO.P,J7,B5,CC2*%
%TO.N,unconnected-(J7-CC2-PadB5)*%
X96745000Y-102820000D03*
%TO.P,J7,B6,D+2*%
%TO.N,USB_D+*%
X96745000Y-101820000D03*
%TO.P,J7,B7,D-2*%
%TO.N,USB_D-*%
X96745000Y-100320000D03*
%TO.P,J7,B8,SBU2*%
%TO.N,unconnected-(J7-SBU2-PadB8)*%
X96745000Y-99320000D03*
%TO.P,J7,B9,VBUS2*%
%TO.N,USB_Vin+*%
X96745000Y-98820000D03*
%TO.P,J7,B12,GND2*%
%TO.N,GND*%
X96745000Y-98020000D03*
D25*
%TO.P,J7,S1*%
X96180000Y-96750000D03*
%TO.P,J7,S2*%
X96180000Y-105390000D03*
D26*
%TO.P,J7,S3*%
X92000000Y-96750000D03*
%TO.P,J7,S4*%
X92000000Y-105390000D03*
%TD*%
D21*
%TO.P,LED3,1*%
%TO.N,Net-(LED3-Pad1)*%
X117000000Y-127420000D03*
%TO.P,LED3,2*%
%TO.N,LED_OUT2*%
X117000000Y-125520000D03*
%TD*%
D16*
%TO.P,S3,1,1*%
%TO.N,Net-(R21-Pad2)*%
X117991666Y-118520000D03*
%TO.P,S3,2,2*%
%TO.N,GND*%
X117991666Y-123020000D03*
%TO.P,S3,3,3*%
%TO.N,Net-(R21-Pad2)*%
X125941666Y-118520000D03*
%TO.P,S3,4,4*%
%TO.N,GND*%
X125941666Y-123020000D03*
%TD*%
D27*
%TO.P,J6,1,-MCLR/VPP*%
%TO.N,+3V3*%
X99730000Y-126670000D03*
%TO.P,J6,2,VDD*%
%TO.N,SWDIO*%
X99730000Y-125400000D03*
%TO.P,J6,3,GND*%
%TO.N,reset*%
X101000000Y-126670000D03*
%TO.P,J6,4,PGD_(ICSPDAT)*%
%TO.N,SWCLK*%
X101000000Y-125400000D03*
%TO.P,J6,5,PGC_(ICSPCLK)*%
%TO.N,GND*%
X102270000Y-126670000D03*
%TO.P,J6,6,UNUSED/LVP*%
%TO.N,unconnected-(J6-UNUSED{slash}LVP-Pad6)*%
X102270000Y-125400000D03*
D28*
%TO.P,J6,7*%
%TO.N,N/C*%
X98460000Y-126035000D03*
%TO.P,J6,8*%
X103540000Y-125019000D03*
%TO.P,J6,9*%
X103540000Y-127051000D03*
%TD*%
D21*
%TO.P,LED2,1*%
%TO.N,Net-(LED2-Pad1)*%
X111800000Y-127420000D03*
%TO.P,LED2,2*%
%TO.N,LED_OUT1*%
X111800000Y-125520000D03*
%TD*%
D14*
%TO.P,C3,1*%
%TO.N,+3V3*%
X105750000Y-106100000D03*
%TO.P,C3,2*%
%TO.N,GND*%
X107350000Y-106100000D03*
%TD*%
D29*
%TO.P,LS1,1,+*%
%TO.N,Net-(LS1-+)*%
X106400000Y-116370000D03*
%TO.P,LS1,2,-*%
%TO.N,GND*%
X98800000Y-116370000D03*
%TD*%
D30*
%TO.N,GND*%
X110000000Y-97600000D03*
X106600000Y-122000000D03*
X109400000Y-100400000D03*
X113800000Y-102000000D03*
X99200000Y-119400000D03*
X116400000Y-103400000D03*
X124400000Y-124400000D03*
X130400000Y-123000000D03*
X138200000Y-104000000D03*
X108400000Y-105800000D03*
X120000000Y-103400000D03*
X99400000Y-122200000D03*
X142000000Y-104000000D03*
X105200000Y-93525000D03*
X138200000Y-110000000D03*
X114000000Y-122600000D03*
%TO.N,LED_LIFE*%
X109600000Y-108600000D03*
%TO.N,+5V*%
X108600000Y-93200000D03*
X100800000Y-111200000D03*
%TO.N,AC_Vdcin+*%
X129200000Y-111600000D03*
X114800000Y-96600000D03*
X102398395Y-99796988D03*
X110400000Y-96000000D03*
%TO.N,+3V3*%
X96800000Y-110800000D03*
X128000000Y-112400000D03*
X100400000Y-97775000D03*
X114200000Y-106600000D03*
X101600000Y-106200000D03*
X114400000Y-103800000D03*
X114000000Y-119800000D03*
X101400000Y-119000000D03*
X111200000Y-97800000D03*
X104800000Y-105000000D03*
X97325000Y-109200000D03*
X129000000Y-115000000D03*
X108800000Y-120600000D03*
X127000000Y-109000000D03*
X120000000Y-120200000D03*
X100400000Y-96400000D03*
X114200000Y-100800000D03*
X111000000Y-95000000D03*
%TO.N,SPI_CLK*%
X123200000Y-115400000D03*
X107200000Y-111600000D03*
%TO.N,SPI1_NSS*%
X108600000Y-111800000D03*
X123600000Y-113800000D03*
%TO.N,SPI_MISO*%
X119000000Y-109000000D03*
X106551807Y-109125000D03*
%TO.N,BUT_RIGHT*%
X136200000Y-110820000D03*
X102400000Y-95600000D03*
X137000000Y-120800000D03*
X117600000Y-91400000D03*
X121800000Y-91600000D03*
X110000000Y-92275000D03*
X111000000Y-91325000D03*
X131800000Y-93400000D03*
%TO.N,BUT_LEFT*%
X109200000Y-122600000D03*
X108000000Y-121200000D03*
X101000000Y-103800000D03*
X98464081Y-110978640D03*
%TO.N,BUT_BACK*%
X118325000Y-117000000D03*
X100000000Y-111000000D03*
X100000000Y-107550000D03*
X104600000Y-115400000D03*
%TO.N,BUT_ENTER*%
X101000000Y-113600000D03*
X99200000Y-111200000D03*
X122000000Y-116200000D03*
X99320897Y-107380224D03*
%TO.N,Net-(R21-Pad2)*%
X119800000Y-118400000D03*
X124125000Y-120800000D03*
%TO.N,Net-(LED1-Pad1)*%
X123800000Y-127000000D03*
%TO.N,LED_OUT1*%
X118800000Y-121400000D03*
X117000000Y-108200000D03*
X108400000Y-105000000D03*
%TO.N,Net-(LED2-Pad1)*%
X113200000Y-126600000D03*
%TO.N,Net-(LED3-Pad1)*%
X118600000Y-126800000D03*
%TO.N,LED_OUT2*%
X118325000Y-114200000D03*
X116200000Y-108600000D03*
X109000000Y-106600000D03*
X119400000Y-116800000D03*
X117600000Y-124200000D03*
%TO.N,Net-(LED4-Pad1)*%
X93800000Y-106400000D03*
%TO.N,USB_D-*%
X98200000Y-100800000D03*
%TO.N,USB_D+*%
X97720002Y-101309511D03*
%TO.N,SWDIO*%
X94800000Y-107000000D03*
X99800000Y-124600000D03*
X96000000Y-111000000D03*
%TO.N,SWCLK*%
X99000000Y-97800000D03*
X102400000Y-116400000D03*
X98000000Y-104175000D03*
X95800000Y-110000000D03*
X103200000Y-121200000D03*
X99400000Y-115200000D03*
X98000000Y-102600000D03*
%TO.N,reset*%
X100406873Y-127175000D03*
X101564124Y-110364124D03*
X102600000Y-106800000D03*
X102000000Y-111600000D03*
X95200000Y-127200000D03*
%TO.N,C_1*%
X105595761Y-109526148D03*
X137600000Y-108800000D03*
%TO.N,CC_1*%
X138200000Y-98200000D03*
%TO.N,C_2*%
X105635877Y-110225000D03*
X141200000Y-107200000D03*
%TO.N,CC_2*%
X132400000Y-96600000D03*
%TO.N,CC_3*%
X127400000Y-95600000D03*
%TO.N,C_4*%
X119800000Y-106800000D03*
X106800000Y-101400000D03*
%TO.N,CC_4*%
X136400000Y-101000000D03*
X123000000Y-100200000D03*
%TO.N,C_buzzer*%
X109200000Y-114800000D03*
X101200000Y-114600000D03*
X97800000Y-111200000D03*
X98200000Y-106400000D03*
%TO.N,C_out1*%
X101000000Y-101600000D03*
X115000000Y-93600000D03*
%TO.N,C_out2*%
X94325000Y-101200000D03*
X117600000Y-92600000D03*
X110800000Y-90600000D03*
X95600000Y-102000000D03*
%TO.N,Net-(R15-Pad2)*%
X135000000Y-119400000D03*
%TO.N,Net-(R16-Pad1)*%
X113400000Y-117800000D03*
%TO.N,Net-(R22-Pad2)*%
X115200000Y-117600000D03*
%TO.N,D_e*%
X107756278Y-98475001D03*
X124400000Y-96675000D03*
%TO.N,D_d*%
X125600000Y-100800000D03*
X106800000Y-98200000D03*
%TO.N,D_dp*%
X121200000Y-111600000D03*
X103000000Y-111000000D03*
%TO.N,D_c*%
X130000000Y-101600000D03*
X106099997Y-98200000D03*
%TO.N,D_g*%
X104200000Y-110600000D03*
X133200000Y-110800000D03*
%TO.N,D_b*%
X134200000Y-104000000D03*
X108200000Y-100600000D03*
%TO.N,D_f*%
X108400000Y-98200000D03*
%TO.N,D_a*%
X126200000Y-105000000D03*
X107686225Y-101175000D03*
%TD*%
D31*
%TO.N,LED_OUT1*%
X113325000Y-108125000D02*
X116925000Y-108125000D01*
X110150000Y-106750000D02*
X111950000Y-106750000D01*
X108400000Y-105000000D02*
X110150000Y-106750000D01*
X111950000Y-106750000D02*
X113325000Y-108125000D01*
X116925000Y-108125000D02*
X117000000Y-108200000D01*
%TO.N,LED_OUT2*%
X113400000Y-108800000D02*
X116000000Y-108800000D01*
X109540000Y-107140000D02*
X111740000Y-107140000D01*
X116000000Y-108800000D02*
X116200000Y-108600000D01*
X109000000Y-106600000D02*
X109540000Y-107140000D01*
X111740000Y-107140000D02*
X113400000Y-108800000D01*
%TO.N,D_e*%
X113900000Y-98800000D02*
X116025000Y-96675000D01*
X108081277Y-98800000D02*
X113900000Y-98800000D01*
X107756278Y-98475001D02*
X108081277Y-98800000D01*
X116025000Y-96675000D02*
X124400000Y-96675000D01*
D32*
%TO.N,DC_Out2*%
X140200000Y-88200000D02*
X140200000Y-90340000D01*
X141600000Y-86800000D02*
X140200000Y-88200000D01*
X141600000Y-84600000D02*
X141600000Y-86800000D01*
X113834009Y-83615000D02*
X140615000Y-83615000D01*
X140615000Y-83615000D02*
X141600000Y-84600000D01*
X105329009Y-92120000D02*
X113834009Y-83615000D01*
X90600000Y-96400000D02*
X94880000Y-92120000D01*
X90600000Y-115220000D02*
X90600000Y-96400000D01*
X94880000Y-92120000D02*
X105329009Y-92120000D01*
X91940000Y-116560000D02*
X90600000Y-115220000D01*
D31*
%TO.N,BUT_RIGHT*%
X104710000Y-95600000D02*
X102400000Y-95600000D01*
X108110000Y-92200000D02*
X104710000Y-95600000D01*
X110000000Y-92275000D02*
X109925000Y-92200000D01*
X109925000Y-92200000D02*
X108110000Y-92200000D01*
%TO.N,C_out1*%
X100800000Y-101600000D02*
X101000000Y-101600000D01*
X99600000Y-95000000D02*
X99600000Y-100400000D01*
X100600000Y-94000000D02*
X99600000Y-95000000D01*
X107920000Y-91800000D02*
X105720000Y-94000000D01*
X99600000Y-100400000D02*
X100800000Y-101600000D01*
X113200000Y-91800000D02*
X107920000Y-91800000D01*
X105720000Y-94000000D02*
X100600000Y-94000000D01*
X115000000Y-93600000D02*
X113200000Y-91800000D01*
D32*
%TO.N,GND*%
X114300000Y-84740000D02*
X106240000Y-92800000D01*
X106240000Y-92800000D02*
X105600000Y-92800000D01*
D31*
X125941666Y-123020000D02*
X125780000Y-123020000D01*
D32*
X96600000Y-94400000D02*
X96180000Y-94820000D01*
X96745000Y-104825000D02*
X96180000Y-105390000D01*
X109900000Y-97600000D02*
X109200000Y-96900000D01*
D31*
X114420000Y-123020000D02*
X115575000Y-123020000D01*
X98580000Y-123020000D02*
X99400000Y-122200000D01*
D32*
X113800000Y-102000000D02*
X113200000Y-102000000D01*
D31*
X96000000Y-124278334D02*
X97258334Y-123020000D01*
D32*
X109000000Y-100400000D02*
X108600000Y-100000000D01*
X109400000Y-100400000D02*
X109000000Y-100400000D01*
D31*
X130420000Y-123020000D02*
X130400000Y-123000000D01*
D32*
X113200000Y-102000000D02*
X112800000Y-101600000D01*
D31*
X102270000Y-126670000D02*
X101290000Y-127650000D01*
X125941666Y-123020000D02*
X128358334Y-123020000D01*
X107620000Y-123020000D02*
X106600000Y-122000000D01*
D32*
X99400000Y-122200000D02*
X99200000Y-122000000D01*
D31*
X96000000Y-127200000D02*
X96000000Y-124278334D01*
D32*
X105200000Y-93200000D02*
X105600000Y-92800000D01*
D31*
X101290000Y-127650000D02*
X96450000Y-127650000D01*
X114000000Y-122600000D02*
X114420000Y-123020000D01*
D32*
X105200000Y-93525000D02*
X105200000Y-93200000D01*
X107350000Y-103600000D02*
X105350000Y-101600000D01*
X97800000Y-92800000D02*
X96600000Y-94000000D01*
D31*
X130400000Y-123000000D02*
X130380000Y-123020000D01*
D32*
X108600000Y-100000000D02*
X106950000Y-100000000D01*
X108400000Y-105800000D02*
X107650000Y-105800000D01*
X111450000Y-101600000D02*
X110600000Y-101600000D01*
D31*
X125780000Y-123020000D02*
X124400000Y-124400000D01*
D32*
X110000000Y-97600000D02*
X109900000Y-97600000D01*
X107650000Y-105800000D02*
X107350000Y-106100000D01*
D31*
X105580000Y-123020000D02*
X106600000Y-122000000D01*
X138200000Y-110000000D02*
X138200000Y-104000000D01*
D32*
X106950000Y-100000000D02*
X105350000Y-101600000D01*
D31*
X130380000Y-123020000D02*
X128358334Y-123020000D01*
X116400000Y-103400000D02*
X120000000Y-103400000D01*
X105208334Y-123020000D02*
X105580000Y-123020000D01*
X142000000Y-104000000D02*
X138200000Y-104000000D01*
X96450000Y-127650000D02*
X96000000Y-127200000D01*
D32*
X96180000Y-94820000D02*
X96180000Y-96750000D01*
X92000000Y-105390000D02*
X96180000Y-105390000D01*
X92000000Y-96750000D02*
X96180000Y-96750000D01*
X110600000Y-101600000D02*
X109400000Y-100400000D01*
D31*
X136308334Y-123020000D02*
X130420000Y-123020000D01*
X97258334Y-123020000D02*
X98580000Y-123020000D01*
D32*
X96745000Y-104420000D02*
X96745000Y-104825000D01*
X96745000Y-97720000D02*
X96745000Y-97315000D01*
X96745000Y-97315000D02*
X96180000Y-96750000D01*
X96600000Y-94000000D02*
X96600000Y-94400000D01*
X107350000Y-106100000D02*
X107350000Y-103600000D01*
X112800000Y-101600000D02*
X111450000Y-101600000D01*
X105600000Y-92800000D02*
X97800000Y-92800000D01*
X99200000Y-122000000D02*
X99200000Y-119400000D01*
X92000000Y-96750000D02*
X92000000Y-105390000D01*
D31*
X107625000Y-123020000D02*
X107620000Y-123020000D01*
X117991666Y-123020000D02*
X115575000Y-123020000D01*
%TO.N,LED_LIFE*%
X101400000Y-111271752D02*
X100996752Y-111675000D01*
X101400000Y-111200000D02*
X101400000Y-111271752D01*
X109600000Y-108600000D02*
X104000000Y-108600000D01*
X95385000Y-111675000D02*
X91690000Y-107980000D01*
X104000000Y-108600000D02*
X101400000Y-111200000D01*
X100996752Y-111675000D02*
X95385000Y-111675000D01*
D32*
%TO.N,+5V*%
X104000000Y-98000000D02*
X104000000Y-97200000D01*
X107600000Y-94200000D02*
X107600000Y-96900000D01*
X108600000Y-93200000D02*
X107600000Y-94200000D01*
X104300000Y-96900000D02*
X107600000Y-96900000D01*
X105350000Y-99300000D02*
X104250000Y-100400000D01*
D31*
X107600000Y-96900000D02*
X107600000Y-97050000D01*
D32*
X105350000Y-99300000D02*
X104050000Y-98000000D01*
X100800000Y-105024000D02*
X103124000Y-102700000D01*
X104000000Y-97200000D02*
X104300000Y-96900000D01*
X104050000Y-98000000D02*
X104000000Y-98000000D01*
X104250000Y-100400000D02*
X103124000Y-100400000D01*
X103124000Y-100400000D02*
X103124000Y-102700000D01*
X100800000Y-111200000D02*
X100800000Y-105024000D01*
%TO.N,USB_Vin+*%
X95200000Y-103200000D02*
X96325000Y-103200000D01*
X93800000Y-100200000D02*
X93800000Y-101800000D01*
X93800000Y-101800000D02*
X95200000Y-103200000D01*
X100800000Y-102700000D02*
X100700000Y-102700000D01*
X99400000Y-103600000D02*
X99380000Y-103620000D01*
X95290000Y-99600000D02*
X94400000Y-99600000D01*
X99800000Y-103600000D02*
X99400000Y-103600000D01*
X94400000Y-99600000D02*
X93800000Y-100200000D01*
X96370000Y-98520000D02*
X95290000Y-99600000D01*
X100700000Y-102700000D02*
X99800000Y-103600000D01*
X99380000Y-103620000D02*
X96745000Y-103620000D01*
X96745000Y-98520000D02*
X96370000Y-98520000D01*
X96325000Y-103200000D02*
X96745000Y-103620000D01*
%TO.N,AC_Vdcin+*%
X121770000Y-85050000D02*
X129830000Y-85050000D01*
X108325000Y-92675000D02*
X108875000Y-92675000D01*
X109200000Y-93000000D02*
X110000000Y-93000000D01*
D31*
X122300000Y-124886666D02*
X126891666Y-120295000D01*
D32*
X110400000Y-93400000D02*
X110400000Y-96000000D01*
D31*
X129475000Y-111875000D02*
X129200000Y-111600000D01*
D32*
X104155025Y-96550000D02*
X104450000Y-96550000D01*
D31*
X122300000Y-125532500D02*
X122300000Y-124886666D01*
D32*
X129830000Y-85050000D02*
X135120000Y-90340000D01*
X119000000Y-86800000D02*
X119800000Y-86000000D01*
X108875000Y-92675000D02*
X109200000Y-93000000D01*
X110000000Y-93000000D02*
X110400000Y-93400000D01*
X119000000Y-92400000D02*
X119000000Y-86800000D01*
X102398395Y-99796988D02*
X101403012Y-99796988D01*
X119800000Y-86000000D02*
X120820000Y-86000000D01*
D31*
X126891666Y-120295000D02*
X126891666Y-117780086D01*
D32*
X104450000Y-96550000D02*
X108325000Y-92675000D01*
X101403012Y-99796988D02*
X100800000Y-100400000D01*
X120820000Y-86000000D02*
X121770000Y-85050000D01*
X102398395Y-99796988D02*
X102398395Y-98306630D01*
X102398395Y-98306630D02*
X104155025Y-96550000D01*
X114800000Y-96600000D02*
X119000000Y-92400000D01*
D31*
X129475000Y-115196752D02*
X129475000Y-111875000D01*
X126891666Y-117780086D02*
X129475000Y-115196752D01*
%TO.N,+3V3*%
X104800000Y-104450000D02*
X105350000Y-103900000D01*
X104800000Y-105000000D02*
X104800000Y-105150000D01*
D32*
X129000000Y-113400000D02*
X128000000Y-112400000D01*
D31*
X97325000Y-110275000D02*
X97325000Y-109200000D01*
D32*
X129000000Y-115000000D02*
X129000000Y-113400000D01*
D31*
X120000000Y-120200000D02*
X114400000Y-120200000D01*
X114000000Y-119800000D02*
X109600000Y-119800000D01*
D32*
X114200000Y-106600000D02*
X114925000Y-107325000D01*
D31*
X96800000Y-110800000D02*
X97325000Y-110275000D01*
X97800000Y-124600000D02*
X96400000Y-126000000D01*
X96400000Y-127000000D02*
X96800000Y-127400000D01*
X102800000Y-120600000D02*
X102600000Y-120600000D01*
D32*
X101700000Y-106100000D02*
X101600000Y-106200000D01*
X114925000Y-107325000D02*
X120515000Y-107325000D01*
X120515000Y-107325000D02*
X122190000Y-109000000D01*
D31*
X120600000Y-119200000D02*
X120000000Y-119800000D01*
X104800000Y-105000000D02*
X104800000Y-104450000D01*
D32*
X100400000Y-96400000D02*
X100400000Y-97775000D01*
D31*
X109600000Y-119800000D02*
X108800000Y-120600000D01*
X102800000Y-120600000D02*
X101400000Y-119200000D01*
X124400000Y-115400000D02*
X120600000Y-119200000D01*
X111200000Y-97800000D02*
X111000000Y-97600000D01*
X111000000Y-97600000D02*
X111000000Y-95000000D01*
X108800000Y-120600000D02*
X102800000Y-120600000D01*
X120000000Y-119800000D02*
X120000000Y-120200000D01*
X114400000Y-120200000D02*
X114000000Y-119800000D01*
X99000000Y-127400000D02*
X99730000Y-126670000D01*
D32*
X122190000Y-109000000D02*
X127000000Y-109000000D01*
D31*
X98600000Y-124600000D02*
X97800000Y-124600000D01*
D32*
X105750000Y-106100000D02*
X101700000Y-106100000D01*
D31*
X114400000Y-103800000D02*
X114400000Y-101000000D01*
X96400000Y-126000000D02*
X96400000Y-127000000D01*
X129000000Y-115000000D02*
X128600000Y-115400000D01*
X128600000Y-115400000D02*
X124400000Y-115400000D01*
X104800000Y-105150000D02*
X105750000Y-106100000D01*
X101400000Y-119200000D02*
X101400000Y-119000000D01*
X102600000Y-120600000D02*
X98600000Y-124600000D01*
X96800000Y-127400000D02*
X99000000Y-127400000D01*
X114400000Y-101000000D02*
X114200000Y-100800000D01*
%TO.N,SPI_CLK*%
X108400000Y-112600000D02*
X119400000Y-112600000D01*
X107400000Y-111600000D02*
X108400000Y-112600000D01*
X122200000Y-115400000D02*
X123200000Y-115400000D01*
X107200000Y-111600000D02*
X107400000Y-111600000D01*
X119400000Y-112600000D02*
X122200000Y-115400000D01*
%TO.N,SPI1_NSS*%
X122000000Y-113800000D02*
X123600000Y-113800000D01*
X119800000Y-111800000D02*
X121600000Y-113600000D01*
X108600000Y-111800000D02*
X119800000Y-111800000D01*
X121800000Y-113600000D02*
X122000000Y-113800000D01*
X121600000Y-113600000D02*
X121800000Y-113600000D01*
%TO.N,SPI_MISO*%
X118875000Y-109125000D02*
X119000000Y-109000000D01*
X106551807Y-109125000D02*
X118875000Y-109125000D01*
%TO.N,BUT_RIGHT*%
X136200000Y-111400000D02*
X137800000Y-113000000D01*
X137800000Y-120000000D02*
X137000000Y-120800000D01*
X111075000Y-91400000D02*
X111000000Y-91325000D01*
X117600000Y-91400000D02*
X111075000Y-91400000D01*
X136200000Y-110820000D02*
X136200000Y-111400000D01*
X137800000Y-113000000D02*
X137800000Y-120000000D01*
X130000000Y-91600000D02*
X131800000Y-93400000D01*
X121800000Y-91600000D02*
X130000000Y-91600000D01*
%TO.N,BUT_LEFT*%
X98400000Y-106871752D02*
X98400000Y-111000000D01*
X109200000Y-122600000D02*
X108000000Y-121400000D01*
X101000000Y-103800000D02*
X101000000Y-104271752D01*
X108000000Y-121400000D02*
X108000000Y-121200000D01*
X101000000Y-104271752D02*
X98400000Y-106871752D01*
X98442721Y-111000000D02*
X98464081Y-110978640D01*
X98400000Y-111000000D02*
X98442721Y-111000000D01*
%TO.N,BUT_BACK*%
X100000000Y-107550000D02*
X100000000Y-111000000D01*
X118400000Y-117000000D02*
X118325000Y-117000000D01*
X104600000Y-115400000D02*
X116800000Y-115400000D01*
X116800000Y-115400000D02*
X118400000Y-117000000D01*
%TO.N,BUT_ENTER*%
X119400000Y-113600000D02*
X122000000Y-116200000D01*
X99320897Y-107380224D02*
X99320897Y-111079103D01*
X101000000Y-113600000D02*
X119400000Y-113600000D01*
X99320897Y-111079103D02*
X99200000Y-111200000D01*
%TO.N,Net-(R21-Pad2)*%
X119680000Y-118520000D02*
X119800000Y-118400000D01*
X124125000Y-120800000D02*
X124125000Y-120336666D01*
X117991666Y-118520000D02*
X119680000Y-118520000D01*
X124125000Y-120336666D02*
X125941666Y-118520000D01*
D33*
%TO.N,AC_ground*%
X98210000Y-67300000D02*
X93000000Y-72510000D01*
X93000000Y-72510000D02*
X93000000Y-84590000D01*
X103210000Y-89800000D02*
X98210000Y-89800000D01*
X93000000Y-84590000D02*
X98210000Y-89800000D01*
X103210000Y-67300000D02*
X98210000Y-67300000D01*
%TO.N,Net-(K1-AC_LOAD_2)*%
X106440000Y-74800000D02*
X114300000Y-66940000D01*
X103210000Y-74800000D02*
X98210000Y-74800000D01*
X103210000Y-74800000D02*
X106440000Y-74800000D01*
D32*
%TO.N,Net-(LED1-Pad1)*%
X122732500Y-127000000D02*
X122300000Y-127432500D01*
X123800000Y-127000000D02*
X122732500Y-127000000D01*
D31*
%TO.N,LED_OUT1*%
X111800000Y-124128248D02*
X111800000Y-125520000D01*
X114528248Y-121400000D02*
X111800000Y-124128248D01*
X118800000Y-121400000D02*
X114528248Y-121400000D01*
D32*
%TO.N,Net-(LED2-Pad1)*%
X112620000Y-126600000D02*
X111800000Y-127420000D01*
X113200000Y-126600000D02*
X112620000Y-126600000D01*
%TO.N,Net-(LED3-Pad1)*%
X118600000Y-126800000D02*
X117620000Y-126800000D01*
X117620000Y-126800000D02*
X117000000Y-127420000D01*
D31*
%TO.N,LED_OUT2*%
X117600000Y-124200000D02*
X117000000Y-124800000D01*
X119400000Y-116600000D02*
X119400000Y-116800000D01*
X118325000Y-114200000D02*
X118325000Y-115525000D01*
X118325000Y-115525000D02*
X119200000Y-116400000D01*
X119200000Y-116400000D02*
X119400000Y-116600000D01*
X117000000Y-124800000D02*
X117000000Y-125520000D01*
%TO.N,Net-(LED4-Pad1)*%
X93800000Y-106400000D02*
X93590000Y-106610000D01*
X93590000Y-106610000D02*
X93590000Y-107980000D01*
D33*
%TO.N,AC_N*%
X103210000Y-82300000D02*
X98210000Y-82300000D01*
X103210000Y-59800000D02*
X98210000Y-59800000D01*
%TO.N,AC_L*%
X109760000Y-52300000D02*
X114300000Y-56840000D01*
X103210000Y-52300000D02*
X109760000Y-52300000D01*
X131960000Y-56840000D02*
X133770000Y-55030000D01*
X114300000Y-56840000D02*
X131960000Y-56840000D01*
X103210000Y-52300000D02*
X98210000Y-52300000D01*
X133770000Y-55030000D02*
X133770000Y-51450000D01*
D34*
%TO.N,USB_D-*%
X96745000Y-100320000D02*
X97720000Y-100320000D01*
X95600000Y-100690000D02*
X95970000Y-100320000D01*
X95970000Y-100320000D02*
X96745000Y-100320000D01*
X96745000Y-101320000D02*
X95920000Y-101320000D01*
X95600000Y-101000000D02*
X95600000Y-100690000D01*
X95920000Y-101320000D02*
X95600000Y-101000000D01*
X97720000Y-100320000D02*
X98200000Y-100800000D01*
%TO.N,USB_D+*%
X97720002Y-101309511D02*
X97720002Y-101020002D01*
X97520000Y-101820000D02*
X96745000Y-101820000D01*
X97520000Y-100820000D02*
X96745000Y-100820000D01*
X97720002Y-101020002D02*
X97520000Y-100820000D01*
X97720002Y-101619998D02*
X97520000Y-101820000D01*
X97720002Y-101309511D02*
X97720002Y-101619998D01*
D31*
%TO.N,SWDIO*%
X99800000Y-124600000D02*
X99800000Y-125330000D01*
X94800000Y-109800000D02*
X96000000Y-111000000D01*
X94800000Y-107000000D02*
X94800000Y-109800000D01*
X99800000Y-125330000D02*
X99730000Y-125400000D01*
%TO.N,SWCLK*%
X100600000Y-116400000D02*
X99400000Y-115200000D01*
X95800000Y-110000000D02*
X95800000Y-107600000D01*
X98000000Y-105400000D02*
X98000000Y-104175000D01*
X101000000Y-123400000D02*
X103200000Y-121200000D01*
X95800000Y-107600000D02*
X98000000Y-105400000D01*
X102400000Y-116400000D02*
X100600000Y-116400000D01*
X99000000Y-101600000D02*
X99000000Y-97800000D01*
X101000000Y-125400000D02*
X101000000Y-123400000D01*
X98000000Y-102600000D02*
X99000000Y-101600000D01*
%TO.N,reset*%
X95200000Y-118400000D02*
X95200000Y-127200000D01*
X101600000Y-110400000D02*
X101564124Y-110364124D01*
X100406873Y-127175000D02*
X100495000Y-127175000D01*
X102600000Y-106800000D02*
X102600000Y-109400000D01*
X100495000Y-127175000D02*
X101000000Y-126670000D01*
X102000000Y-111600000D02*
X95200000Y-118400000D01*
X102600000Y-109400000D02*
X101600000Y-110400000D01*
%TO.N,C_1*%
X136800000Y-109600000D02*
X137400000Y-109000000D01*
X134600000Y-109600000D02*
X136800000Y-109600000D01*
X105521909Y-109600000D02*
X134600000Y-109600000D01*
X137400000Y-109000000D02*
X137600000Y-108800000D01*
%TO.N,CC_1*%
X138200000Y-98200000D02*
X137200000Y-99200000D01*
X137200000Y-99200000D02*
X124400000Y-99200000D01*
X123100000Y-97900000D02*
X123100000Y-97800000D01*
X124400000Y-99200000D02*
X123100000Y-97900000D01*
%TO.N,C_2*%
X138000000Y-110600000D02*
X138271752Y-110600000D01*
X141200000Y-107671752D02*
X141200000Y-107200000D01*
X138271752Y-110600000D02*
X141200000Y-107671752D01*
X105635877Y-110225000D02*
X137625000Y-110225000D01*
X137625000Y-110225000D02*
X138000000Y-110600000D01*
%TO.N,CC_2*%
X132400000Y-96600000D02*
X131920000Y-96600000D01*
X131920000Y-96600000D02*
X130720000Y-97800000D01*
%TO.N,CC_3*%
X132400000Y-95600000D02*
X127400000Y-95600000D01*
X133260000Y-97800000D02*
X133260000Y-96460000D01*
X133260000Y-96460000D02*
X132400000Y-95600000D01*
%TO.N,C_4*%
X111153553Y-105600000D02*
X116800000Y-105600000D01*
X116800000Y-105600000D02*
X118600000Y-105600000D01*
X106953553Y-101400000D02*
X111153553Y-105600000D01*
X106800000Y-101400000D02*
X106953553Y-101400000D01*
X118600000Y-105600000D02*
X119800000Y-106800000D01*
%TO.N,CC_4*%
X123000000Y-100200000D02*
X135600000Y-100200000D01*
X135600000Y-100200000D02*
X136400000Y-101000000D01*
%TO.N,C_buzzer*%
X101200000Y-114600000D02*
X109000000Y-114600000D01*
X97800000Y-106800000D02*
X97800000Y-111200000D01*
X98200000Y-106400000D02*
X97800000Y-106800000D01*
X109000000Y-114600000D02*
X109200000Y-114800000D01*
%TO.N,C_out2*%
X117800000Y-90600000D02*
X118400000Y-91200000D01*
X95600000Y-102000000D02*
X94800000Y-101200000D01*
X118400000Y-91400000D02*
X118400000Y-91800000D01*
X110800000Y-90600000D02*
X117800000Y-90600000D01*
X118400000Y-91800000D02*
X117600000Y-92600000D01*
X94800000Y-101200000D02*
X94325000Y-101200000D01*
X118400000Y-91200000D02*
X118400000Y-91400000D01*
%TO.N,Net-(R15-Pad2)*%
X135880000Y-118520000D02*
X136308334Y-118520000D01*
X135000000Y-119400000D02*
X135880000Y-118520000D01*
X136308334Y-118520000D02*
X128358334Y-118520000D01*
%TO.N,Net-(R16-Pad1)*%
X97258334Y-118520000D02*
X105208334Y-118520000D01*
X105416727Y-118520000D02*
X106241727Y-117695000D01*
X113295000Y-117695000D02*
X113400000Y-117800000D01*
X106241727Y-117695000D02*
X113295000Y-117695000D01*
X105208334Y-118520000D02*
X105416727Y-118520000D01*
%TO.N,Net-(R22-Pad2)*%
X115200000Y-118145000D02*
X115575000Y-118520000D01*
X115575000Y-118520000D02*
X107625000Y-118520000D01*
X115200000Y-117600000D02*
X115200000Y-118145000D01*
%TO.N,D_d*%
X115900000Y-100800000D02*
X125600000Y-100800000D01*
X107650000Y-99050000D02*
X114150000Y-99050000D01*
X106800000Y-98200000D02*
X107650000Y-99050000D01*
X114150000Y-99050000D02*
X115900000Y-100800000D01*
%TO.N,D_dp*%
X103000000Y-111000000D02*
X103075000Y-111075000D01*
X103075000Y-111075000D02*
X120675000Y-111075000D01*
X120675000Y-111075000D02*
X121200000Y-111600000D01*
%TO.N,D_c*%
X127200000Y-101600000D02*
X130000000Y-101600000D01*
X114200000Y-99800000D02*
X115800000Y-101400000D01*
X106099997Y-98200000D02*
X107499997Y-99600000D01*
X115800000Y-101400000D02*
X127000000Y-101400000D01*
X107499997Y-99600000D02*
X113400000Y-99600000D01*
X113600000Y-99800000D02*
X114200000Y-99800000D01*
X113400000Y-99600000D02*
X113600000Y-99800000D01*
X127000000Y-101400000D02*
X127200000Y-101600000D01*
%TO.N,D_g*%
X104200000Y-110600000D02*
X104300000Y-110700000D01*
X133100000Y-110700000D02*
X133200000Y-110800000D01*
X104300000Y-110700000D02*
X133100000Y-110700000D01*
%TO.N,D_b*%
X133800000Y-104400000D02*
X134200000Y-104000000D01*
X132200000Y-104400000D02*
X133800000Y-104400000D01*
X111325000Y-104400000D02*
X132200000Y-104400000D01*
X108200000Y-101275000D02*
X111325000Y-104400000D01*
X108200000Y-100600000D02*
X108200000Y-101275000D01*
%TO.N,D_f*%
X113925000Y-98275000D02*
X116000000Y-96200000D01*
X116000000Y-96200000D02*
X126580000Y-96200000D01*
X108475000Y-98275000D02*
X113925000Y-98275000D01*
X108400000Y-98200000D02*
X108475000Y-98275000D01*
X126580000Y-96200000D02*
X128180000Y-97800000D01*
%TO.N,D_a*%
X107686225Y-101175000D02*
X111511225Y-105000000D01*
X111511225Y-105000000D02*
X126200000Y-105000000D01*
%TD*%
%TA.AperFunction,Conductor*%
%TO.N,GND*%
G36*
X92092296Y-109200184D02*
G01*
X92112938Y-109216818D01*
X95031635Y-112135515D01*
X95162865Y-112211281D01*
X95309233Y-112250500D01*
X95309234Y-112250500D01*
X100236259Y-112250500D01*
X100303298Y-112270185D01*
X100349053Y-112322989D01*
X100358997Y-112392147D01*
X100329972Y-112455703D01*
X100323941Y-112462179D01*
X96170513Y-116615606D01*
X94829194Y-117956925D01*
X94829193Y-117956925D01*
X94829194Y-117956926D01*
X94739485Y-118046635D01*
X94663719Y-118177863D01*
X94624500Y-118324234D01*
X94624500Y-126592060D01*
X94604815Y-126659099D01*
X94588181Y-126679741D01*
X94570184Y-126697737D01*
X94474211Y-126850476D01*
X94414631Y-127020745D01*
X94414630Y-127020750D01*
X94394435Y-127199996D01*
X94394435Y-127200003D01*
X94414630Y-127379249D01*
X94414631Y-127379254D01*
X94474211Y-127549523D01*
X94555899Y-127679528D01*
X94574899Y-127746765D01*
X94554531Y-127813600D01*
X94501263Y-127858814D01*
X94450905Y-127869500D01*
X94302706Y-127869500D01*
X94297297Y-127869382D01*
X93913249Y-127852614D01*
X93902473Y-127851671D01*
X93524042Y-127801849D01*
X93513389Y-127799971D01*
X93140727Y-127717354D01*
X93130278Y-127714554D01*
X92766244Y-127599775D01*
X92756078Y-127596075D01*
X92403427Y-127450002D01*
X92393623Y-127445430D01*
X92055057Y-127269183D01*
X92045689Y-127263775D01*
X91723755Y-127058681D01*
X91714894Y-127052476D01*
X91412069Y-126820110D01*
X91403782Y-126813156D01*
X91122364Y-126555284D01*
X91114715Y-126547635D01*
X90856843Y-126266217D01*
X90849889Y-126257930D01*
X90617523Y-125955105D01*
X90611318Y-125946244D01*
X90406224Y-125624310D01*
X90400816Y-125614942D01*
X90385525Y-125585568D01*
X90224566Y-125276369D01*
X90219997Y-125266572D01*
X90209541Y-125241329D01*
X90073920Y-124913911D01*
X90070224Y-124903755D01*
X89955442Y-124539710D01*
X89952648Y-124529284D01*
X89870025Y-124156597D01*
X89868152Y-124145971D01*
X89818326Y-123767506D01*
X89817386Y-123756771D01*
X89800618Y-123372702D01*
X89800500Y-123367293D01*
X89800500Y-123295935D01*
X89800489Y-123295795D01*
X89799447Y-115545214D01*
X89819123Y-115478174D01*
X89871920Y-115432412D01*
X89941078Y-115422459D01*
X90004637Y-115451475D01*
X90038008Y-115497745D01*
X90045688Y-115516286D01*
X90074564Y-115559500D01*
X90087760Y-115579249D01*
X90114143Y-115618735D01*
X90205586Y-115710178D01*
X90205608Y-115710198D01*
X90681411Y-116186001D01*
X90714896Y-116247324D01*
X90713505Y-116305774D01*
X90703794Y-116342017D01*
X90703794Y-116342020D01*
X90703793Y-116342023D01*
X90701345Y-116370000D01*
X90684723Y-116559997D01*
X90684723Y-116560002D01*
X90703793Y-116777975D01*
X90703793Y-116777979D01*
X90760422Y-116989322D01*
X90760424Y-116989326D01*
X90760425Y-116989330D01*
X90779304Y-117029816D01*
X90852897Y-117187638D01*
X90852898Y-117187639D01*
X90978402Y-117366877D01*
X91133123Y-117521598D01*
X91312361Y-117647102D01*
X91510670Y-117739575D01*
X91722023Y-117796207D01*
X91904926Y-117812208D01*
X91939998Y-117815277D01*
X91940000Y-117815277D01*
X91940002Y-117815277D01*
X91968254Y-117812805D01*
X92157977Y-117796207D01*
X92369330Y-117739575D01*
X92567639Y-117647102D01*
X92746877Y-117521598D01*
X92901598Y-117366877D01*
X93027102Y-117187639D01*
X93119575Y-116989330D01*
X93176207Y-116777977D01*
X93193325Y-116582310D01*
X93195277Y-116560002D01*
X93195277Y-116559997D01*
X93185695Y-116450476D01*
X93176207Y-116342023D01*
X93119575Y-116130670D01*
X93027102Y-115932362D01*
X93027100Y-115932359D01*
X93027099Y-115932357D01*
X92901599Y-115753124D01*
X92850737Y-115702262D01*
X92746877Y-115598402D01*
X92691322Y-115559502D01*
X92657150Y-115535574D01*
X92613525Y-115480997D01*
X92606333Y-115411499D01*
X92637855Y-115349144D01*
X92698085Y-115313731D01*
X92728274Y-115310000D01*
X92737828Y-115310000D01*
X92737844Y-115309999D01*
X92797372Y-115303598D01*
X92797379Y-115303596D01*
X92932086Y-115253354D01*
X92932093Y-115253350D01*
X93047187Y-115167190D01*
X93047190Y-115167187D01*
X93133350Y-115052093D01*
X93133354Y-115052086D01*
X93183596Y-114917379D01*
X93183598Y-114917372D01*
X93189999Y-114857844D01*
X93190000Y-114857827D01*
X93190000Y-114310000D01*
X92373012Y-114310000D01*
X92405925Y-114252993D01*
X92440000Y-114125826D01*
X92440000Y-113994174D01*
X92405925Y-113867007D01*
X92373012Y-113810000D01*
X93190000Y-113810000D01*
X93190000Y-113262172D01*
X93189999Y-113262155D01*
X93183598Y-113202627D01*
X93183596Y-113202620D01*
X93133354Y-113067913D01*
X93133350Y-113067906D01*
X93047190Y-112952812D01*
X93047187Y-112952809D01*
X92932093Y-112866649D01*
X92932086Y-112866645D01*
X92797379Y-112816403D01*
X92797372Y-112816401D01*
X92737844Y-112810000D01*
X92190000Y-112810000D01*
X92190000Y-113626988D01*
X92132993Y-113594075D01*
X92005826Y-113560000D01*
X91874174Y-113560000D01*
X91747007Y-113594075D01*
X91690000Y-113626988D01*
X91690000Y-112810000D01*
X91349500Y-112810000D01*
X91282461Y-112790315D01*
X91236706Y-112737511D01*
X91225500Y-112686000D01*
X91225500Y-109304499D01*
X91245185Y-109237460D01*
X91297989Y-109191705D01*
X91349500Y-109180499D01*
X92025257Y-109180499D01*
X92092296Y-109200184D01*
G37*
%TD.AperFunction*%
%TA.AperFunction,Conductor*%
G36*
X101689904Y-127420074D02*
G01*
X101714058Y-127435597D01*
X101742723Y-127459122D01*
X101742726Y-127459124D01*
X101906805Y-127546825D01*
X102084843Y-127600833D01*
X102084845Y-127600834D01*
X102269997Y-127619069D01*
X102304518Y-127615669D01*
X102373164Y-127628687D01*
X102423876Y-127676750D01*
X102429053Y-127686659D01*
X102432051Y-127693087D01*
X102442548Y-127762164D01*
X102414033Y-127825950D01*
X102355559Y-127864194D01*
X102319673Y-127869500D01*
X101140259Y-127869500D01*
X101073220Y-127849815D01*
X101027465Y-127797011D01*
X101017521Y-127727853D01*
X101035260Y-127679536D01*
X101036689Y-127677262D01*
X101045404Y-127663390D01*
X101097732Y-127617099D01*
X101138245Y-127605955D01*
X101185252Y-127601326D01*
X101363385Y-127547290D01*
X101403613Y-127525788D01*
X101462363Y-127494385D01*
X101527554Y-127459540D01*
X101556728Y-127435597D01*
X101621036Y-127408284D01*
X101689904Y-127420074D01*
G37*
%TD.AperFunction*%
%TA.AperFunction,Conductor*%
G36*
X113459099Y-120395185D02*
G01*
X113479740Y-120411818D01*
X113497738Y-120429816D01*
X113650478Y-120525789D01*
X113718306Y-120549523D01*
X113820745Y-120585368D01*
X113820750Y-120585369D01*
X113947512Y-120599651D01*
X114011926Y-120626717D01*
X114021310Y-120635190D01*
X114046635Y-120660515D01*
X114097758Y-120690031D01*
X114166564Y-120729756D01*
X114214779Y-120780323D01*
X114228003Y-120848930D01*
X114202035Y-120913795D01*
X114180058Y-120935513D01*
X114174884Y-120939483D01*
X111339487Y-123774880D01*
X111339485Y-123774883D01*
X111263719Y-123906111D01*
X111224500Y-124052482D01*
X111224500Y-124445500D01*
X111204815Y-124512539D01*
X111152011Y-124558294D01*
X111100502Y-124569500D01*
X111052131Y-124569500D01*
X111052123Y-124569501D01*
X110992516Y-124575908D01*
X110857671Y-124626202D01*
X110857664Y-124626206D01*
X110742455Y-124712452D01*
X110742452Y-124712455D01*
X110656206Y-124827664D01*
X110656202Y-124827671D01*
X110605908Y-124962517D01*
X110599836Y-125018999D01*
X110599501Y-125022123D01*
X110599500Y-125022135D01*
X110599500Y-126017870D01*
X110599501Y-126017876D01*
X110605908Y-126077483D01*
X110656202Y-126212328D01*
X110656206Y-126212335D01*
X110742452Y-126327544D01*
X110742453Y-126327544D01*
X110742454Y-126327546D01*
X110749343Y-126332703D01*
X110800145Y-126370734D01*
X110842015Y-126426668D01*
X110846999Y-126496360D01*
X110813513Y-126557683D01*
X110800145Y-126569266D01*
X110742452Y-126612455D01*
X110656206Y-126727664D01*
X110656202Y-126727671D01*
X110605908Y-126862517D01*
X110599501Y-126922116D01*
X110599500Y-126922127D01*
X110599500Y-127394065D01*
X110599501Y-127745500D01*
X110579817Y-127812539D01*
X110527013Y-127858294D01*
X110475501Y-127869500D01*
X104760327Y-127869500D01*
X104693288Y-127849815D01*
X104647533Y-127797011D01*
X104637589Y-127727853D01*
X104647945Y-127693096D01*
X104720389Y-127537736D01*
X104743156Y-127488913D01*
X104800920Y-127273334D01*
X104820372Y-127051000D01*
X104800920Y-126828666D01*
X104743156Y-126613087D01*
X104648835Y-126410814D01*
X104520822Y-126227993D01*
X104415510Y-126122681D01*
X104382025Y-126061358D01*
X104387009Y-125991666D01*
X104415510Y-125947319D01*
X104445893Y-125916936D01*
X104520822Y-125842007D01*
X104648835Y-125659186D01*
X104743156Y-125456913D01*
X104800920Y-125241334D01*
X104820372Y-125019000D01*
X104800920Y-124796666D01*
X104743156Y-124581087D01*
X104648835Y-124378814D01*
X104639248Y-124365122D01*
X104616921Y-124298916D01*
X104633933Y-124231149D01*
X104684881Y-124183337D01*
X104740824Y-124170000D01*
X104958334Y-124170000D01*
X105458334Y-124170000D01*
X106031162Y-124170000D01*
X106031178Y-124169999D01*
X106090706Y-124163598D01*
X106090713Y-124163596D01*
X106225420Y-124113354D01*
X106225427Y-124113350D01*
X106342356Y-124025817D01*
X106407820Y-124001399D01*
X106476093Y-124016250D01*
X106490978Y-124025817D01*
X106607906Y-124113350D01*
X106607913Y-124113354D01*
X106742620Y-124163596D01*
X106742627Y-124163598D01*
X106802155Y-124169999D01*
X106802172Y-124170000D01*
X107375000Y-124170000D01*
X107375000Y-123270000D01*
X105458334Y-123270000D01*
X105458334Y-124170000D01*
X104958334Y-124170000D01*
X104958334Y-123270000D01*
X103933334Y-123270000D01*
X103933334Y-123642299D01*
X103913649Y-123709338D01*
X103860845Y-123755093D01*
X103791687Y-123765037D01*
X103777243Y-123762074D01*
X103762345Y-123758082D01*
X103762329Y-123758079D01*
X103540001Y-123738628D01*
X103539999Y-123738628D01*
X103317670Y-123758079D01*
X103317660Y-123758081D01*
X103102094Y-123815841D01*
X103102087Y-123815843D01*
X103102087Y-123815844D01*
X102899814Y-123910165D01*
X102716993Y-124038178D01*
X102716991Y-124038179D01*
X102716988Y-124038182D01*
X102559182Y-124195988D01*
X102559179Y-124195991D01*
X102559178Y-124195993D01*
X102531574Y-124235416D01*
X102431162Y-124378817D01*
X102429277Y-124382861D01*
X102383100Y-124435296D01*
X102315905Y-124454443D01*
X102304746Y-124453850D01*
X102270000Y-124450428D01*
X102084749Y-124468673D01*
X101906610Y-124522711D01*
X101757953Y-124602170D01*
X101689550Y-124616412D01*
X101624306Y-124591412D01*
X101582936Y-124535106D01*
X101575500Y-124492812D01*
X101575500Y-123689741D01*
X101595185Y-123622702D01*
X101611814Y-123602065D01*
X102891723Y-122322155D01*
X103933334Y-122322155D01*
X103933334Y-122770000D01*
X104958334Y-122770000D01*
X104958334Y-121870000D01*
X104385489Y-121870000D01*
X104325961Y-121876401D01*
X104325954Y-121876403D01*
X104191247Y-121926645D01*
X104191240Y-121926649D01*
X104076146Y-122012809D01*
X104076143Y-122012812D01*
X103989983Y-122127906D01*
X103989979Y-122127913D01*
X103939737Y-122262620D01*
X103939735Y-122262627D01*
X103933334Y-122322155D01*
X102891723Y-122322155D01*
X103178690Y-122035188D01*
X103240011Y-122001705D01*
X103252483Y-121999651D01*
X103277210Y-121996865D01*
X103379250Y-121985369D01*
X103379253Y-121985368D01*
X103379255Y-121985368D01*
X103549522Y-121925789D01*
X103702262Y-121829816D01*
X103829816Y-121702262D01*
X103925789Y-121549522D01*
X103985368Y-121379255D01*
X103985369Y-121379249D01*
X103995919Y-121285617D01*
X104022985Y-121221203D01*
X104080580Y-121181647D01*
X104119139Y-121175500D01*
X107080861Y-121175500D01*
X107147900Y-121195185D01*
X107193655Y-121247989D01*
X107204081Y-121285617D01*
X107214630Y-121379249D01*
X107214631Y-121379254D01*
X107274212Y-121549526D01*
X107356213Y-121680028D01*
X107375214Y-121747264D01*
X107354847Y-121814099D01*
X107301579Y-121859314D01*
X107251220Y-121870000D01*
X106802155Y-121870000D01*
X106742627Y-121876401D01*
X106742620Y-121876403D01*
X106607913Y-121926645D01*
X106607911Y-121926647D01*
X106490978Y-122014183D01*
X106425514Y-122038600D01*
X106357241Y-122023749D01*
X106342356Y-122014183D01*
X106225422Y-121926647D01*
X106225420Y-121926645D01*
X106090713Y-121876403D01*
X106090706Y-121876401D01*
X106031178Y-121870000D01*
X105458334Y-121870000D01*
X105458334Y-122770000D01*
X107751000Y-122770000D01*
X107818039Y-122789685D01*
X107863794Y-122842489D01*
X107875000Y-122894000D01*
X107875000Y-124170000D01*
X108447828Y-124170000D01*
X108447844Y-124169999D01*
X108507372Y-124163598D01*
X108507379Y-124163596D01*
X108642086Y-124113354D01*
X108642093Y-124113350D01*
X108757187Y-124027190D01*
X108757190Y-124027187D01*
X108843350Y-123912093D01*
X108843354Y-123912086D01*
X108893596Y-123777379D01*
X108893598Y-123777372D01*
X108899999Y-123717844D01*
X108900000Y-123717827D01*
X108900000Y-123510519D01*
X108919685Y-123443480D01*
X108972489Y-123397725D01*
X109037883Y-123387299D01*
X109070015Y-123390919D01*
X109199997Y-123405565D01*
X109200000Y-123405565D01*
X109200004Y-123405565D01*
X109379249Y-123385369D01*
X109379252Y-123385368D01*
X109379255Y-123385368D01*
X109549522Y-123325789D01*
X109702262Y-123229816D01*
X109829816Y-123102262D01*
X109925789Y-122949522D01*
X109985368Y-122779255D01*
X109997996Y-122667180D01*
X110005565Y-122600003D01*
X110005565Y-122599996D01*
X109985369Y-122420750D01*
X109985368Y-122420745D01*
X109930040Y-122262627D01*
X109925789Y-122250478D01*
X109924855Y-122248992D01*
X109884878Y-122185368D01*
X109829816Y-122097738D01*
X109702262Y-121970184D01*
X109632977Y-121926649D01*
X109549521Y-121874210D01*
X109379249Y-121814630D01*
X109252485Y-121800347D01*
X109188071Y-121773280D01*
X109178688Y-121764808D01*
X108985452Y-121571572D01*
X108951967Y-121510249D01*
X108956951Y-121440557D01*
X108998823Y-121384624D01*
X109032179Y-121366849D01*
X109149522Y-121325789D01*
X109302262Y-121229816D01*
X109429816Y-121102262D01*
X109525789Y-120949522D01*
X109585368Y-120779255D01*
X109599651Y-120652485D01*
X109626717Y-120588072D01*
X109635170Y-120578708D01*
X109802062Y-120411816D01*
X109863385Y-120378334D01*
X109889742Y-120375500D01*
X113392060Y-120375500D01*
X113459099Y-120395185D01*
G37*
%TD.AperFunction*%
%TA.AperFunction,Conductor*%
G36*
X127650049Y-115995185D02*
G01*
X127695804Y-116047989D01*
X127705748Y-116117147D01*
X127676723Y-116180703D01*
X127670691Y-116187181D01*
X126538299Y-117319573D01*
X126524687Y-117333184D01*
X126463363Y-117366667D01*
X126437009Y-117369500D01*
X125118795Y-117369500D01*
X125118789Y-117369501D01*
X125059182Y-117375908D01*
X124924337Y-117426202D01*
X124924330Y-117426206D01*
X124809121Y-117512452D01*
X124809118Y-117512455D01*
X124722872Y-117627664D01*
X124722868Y-117627671D01*
X124672574Y-117762517D01*
X124666623Y-117817872D01*
X124666167Y-117822123D01*
X124666166Y-117822135D01*
X124666166Y-118930257D01*
X124646481Y-118997296D01*
X124629847Y-119017938D01*
X123771635Y-119876151D01*
X123664487Y-119983298D01*
X123664485Y-119983301D01*
X123588718Y-120114531D01*
X123588718Y-120114532D01*
X123564495Y-120204931D01*
X123532404Y-120260515D01*
X123495187Y-120297733D01*
X123495186Y-120297734D01*
X123399211Y-120450476D01*
X123339631Y-120620745D01*
X123339630Y-120620750D01*
X123319435Y-120799996D01*
X123319435Y-120800003D01*
X123339630Y-120979249D01*
X123339631Y-120979254D01*
X123399211Y-121149523D01*
X123449662Y-121229815D01*
X123495184Y-121302262D01*
X123622738Y-121429816D01*
X123775478Y-121525789D01*
X123906318Y-121571572D01*
X123945745Y-121585368D01*
X123945750Y-121585369D01*
X124124996Y-121605565D01*
X124125000Y-121605565D01*
X124125004Y-121605565D01*
X124304249Y-121585369D01*
X124304252Y-121585368D01*
X124304255Y-121585368D01*
X124474522Y-121525789D01*
X124544874Y-121481583D01*
X124612109Y-121462583D01*
X124678945Y-121482950D01*
X124724159Y-121536217D01*
X124733398Y-121605474D01*
X124703727Y-121668730D01*
X124698527Y-121674258D01*
X123270524Y-123102262D01*
X121946635Y-124426151D01*
X121879974Y-124492812D01*
X121839483Y-124533303D01*
X121839338Y-124533492D01*
X121839175Y-124533610D01*
X121833738Y-124539048D01*
X121832889Y-124538199D01*
X121782908Y-124574691D01*
X121740967Y-124582000D01*
X121552130Y-124582000D01*
X121552123Y-124582001D01*
X121492516Y-124588408D01*
X121357671Y-124638702D01*
X121357664Y-124638706D01*
X121242455Y-124724952D01*
X121242452Y-124724955D01*
X121156206Y-124840164D01*
X121156202Y-124840171D01*
X121105908Y-124975017D01*
X121100843Y-125022135D01*
X121099501Y-125034623D01*
X121099500Y-125034635D01*
X121099500Y-126030370D01*
X121099501Y-126030376D01*
X121105908Y-126089983D01*
X121156202Y-126224828D01*
X121156206Y-126224835D01*
X121242452Y-126340044D01*
X121242453Y-126340044D01*
X121242454Y-126340046D01*
X121255179Y-126349572D01*
X121300145Y-126383234D01*
X121342015Y-126439168D01*
X121346999Y-126508860D01*
X121313513Y-126570183D01*
X121300145Y-126581766D01*
X121242452Y-126624955D01*
X121156206Y-126740164D01*
X121156202Y-126740171D01*
X121105908Y-126875017D01*
X121099501Y-126934616D01*
X121099500Y-126934627D01*
X121099500Y-127398622D01*
X121099501Y-127745500D01*
X121079817Y-127812539D01*
X121027013Y-127858294D01*
X120975501Y-127869500D01*
X118324500Y-127869500D01*
X118257461Y-127849815D01*
X118211706Y-127797011D01*
X118200500Y-127745502D01*
X118200500Y-127714554D01*
X118200499Y-127683063D01*
X118220182Y-127616025D01*
X118272986Y-127570269D01*
X118342144Y-127560325D01*
X118365453Y-127566021D01*
X118420742Y-127585367D01*
X118420745Y-127585368D01*
X118420746Y-127585368D01*
X118420750Y-127585369D01*
X118599996Y-127605565D01*
X118600000Y-127605565D01*
X118600004Y-127605565D01*
X118779249Y-127585369D01*
X118779252Y-127585368D01*
X118779255Y-127585368D01*
X118949522Y-127525789D01*
X119102262Y-127429816D01*
X119229816Y-127302262D01*
X119325789Y-127149522D01*
X119385368Y-126979255D01*
X119388718Y-126949522D01*
X119405565Y-126800003D01*
X119405565Y-126799996D01*
X119385369Y-126620750D01*
X119385368Y-126620745D01*
X119362462Y-126555284D01*
X119325789Y-126450478D01*
X119318682Y-126439168D01*
X119256400Y-126340046D01*
X119229816Y-126297738D01*
X119102262Y-126170184D01*
X119076318Y-126153882D01*
X118949523Y-126074211D01*
X118779254Y-126014631D01*
X118779249Y-126014630D01*
X118600004Y-125994435D01*
X118599996Y-125994435D01*
X118420750Y-126014630D01*
X118420738Y-126014633D01*
X118365452Y-126033978D01*
X118295673Y-126037539D01*
X118235046Y-126002809D01*
X118202820Y-125940815D01*
X118200499Y-125916945D01*
X118200499Y-125022128D01*
X118194091Y-124962517D01*
X118160943Y-124873644D01*
X118155960Y-124803956D01*
X118189443Y-124742634D01*
X118229816Y-124702262D01*
X118325789Y-124549522D01*
X118385368Y-124379255D01*
X118385369Y-124379250D01*
X118396539Y-124280116D01*
X118423606Y-124215702D01*
X118481201Y-124176147D01*
X118519759Y-124170000D01*
X118814494Y-124170000D01*
X118814510Y-124169999D01*
X118874038Y-124163598D01*
X118874045Y-124163596D01*
X119008752Y-124113354D01*
X119008759Y-124113350D01*
X119123853Y-124027190D01*
X119123856Y-124027187D01*
X119210016Y-123912093D01*
X119210020Y-123912086D01*
X119260262Y-123777379D01*
X119260264Y-123777372D01*
X119266665Y-123717844D01*
X119266666Y-123717827D01*
X119266666Y-123270000D01*
X115825000Y-123270000D01*
X115825000Y-124170000D01*
X116397828Y-124170000D01*
X116397844Y-124169999D01*
X116457372Y-124163598D01*
X116457376Y-124163597D01*
X116505648Y-124145593D01*
X116575340Y-124140609D01*
X116636663Y-124174093D01*
X116670148Y-124235416D01*
X116665164Y-124305108D01*
X116636664Y-124349456D01*
X116539484Y-124446636D01*
X116539483Y-124446638D01*
X116504342Y-124507502D01*
X116453774Y-124555717D01*
X116396957Y-124569500D01*
X116252130Y-124569500D01*
X116252123Y-124569501D01*
X116192516Y-124575908D01*
X116057671Y-124626202D01*
X116057664Y-124626206D01*
X115942455Y-124712452D01*
X115942452Y-124712455D01*
X115856206Y-124827664D01*
X115856202Y-124827671D01*
X115805908Y-124962517D01*
X115799836Y-125018999D01*
X115799501Y-125022123D01*
X115799500Y-125022135D01*
X115799500Y-126017870D01*
X115799501Y-126017876D01*
X115805908Y-126077483D01*
X115856202Y-126212328D01*
X115856206Y-126212335D01*
X115942452Y-126327544D01*
X115942453Y-126327544D01*
X115942454Y-126327546D01*
X115949343Y-126332703D01*
X116000145Y-126370734D01*
X116042015Y-126426668D01*
X116046999Y-126496360D01*
X116013513Y-126557683D01*
X116000145Y-126569266D01*
X115942452Y-126612455D01*
X115856206Y-126727664D01*
X115856202Y-126727671D01*
X115805908Y-126862517D01*
X115799501Y-126922116D01*
X115799500Y-126922127D01*
X115799500Y-127394065D01*
X115799501Y-127745500D01*
X115779817Y-127812539D01*
X115727013Y-127858294D01*
X115675501Y-127869500D01*
X113124500Y-127869500D01*
X113057461Y-127849815D01*
X113011706Y-127797011D01*
X113000500Y-127745501D01*
X113000500Y-127640507D01*
X113000499Y-127521842D01*
X113020183Y-127454803D01*
X113072987Y-127409048D01*
X113138381Y-127398622D01*
X113190375Y-127404480D01*
X113199999Y-127405565D01*
X113200000Y-127405565D01*
X113200004Y-127405565D01*
X113379249Y-127385369D01*
X113379252Y-127385368D01*
X113379255Y-127385368D01*
X113549522Y-127325789D01*
X113702262Y-127229816D01*
X113829816Y-127102262D01*
X113925789Y-126949522D01*
X113985368Y-126779255D01*
X113989772Y-126740169D01*
X114005565Y-126600003D01*
X114005565Y-126599996D01*
X113985369Y-126420750D01*
X113985368Y-126420745D01*
X113967676Y-126370184D01*
X113925789Y-126250478D01*
X113921477Y-126243616D01*
X113865094Y-126153882D01*
X113829816Y-126097738D01*
X113702262Y-125970184D01*
X113655522Y-125940815D01*
X113549523Y-125874211D01*
X113379254Y-125814631D01*
X113379249Y-125814630D01*
X113200004Y-125794435D01*
X113199996Y-125794435D01*
X113138382Y-125801377D01*
X113069560Y-125789322D01*
X113018181Y-125741973D01*
X113000499Y-125678157D01*
X113000499Y-125022129D01*
X113000498Y-125022123D01*
X113000497Y-125022116D01*
X112994091Y-124962517D01*
X112972174Y-124903755D01*
X112943797Y-124827671D01*
X112943793Y-124827664D01*
X112857547Y-124712455D01*
X112857544Y-124712452D01*
X112742335Y-124626206D01*
X112742328Y-124626202D01*
X112607482Y-124575908D01*
X112607483Y-124575908D01*
X112547883Y-124569501D01*
X112547881Y-124569500D01*
X112547873Y-124569500D01*
X112547865Y-124569500D01*
X112499500Y-124569500D01*
X112432461Y-124549815D01*
X112386706Y-124497011D01*
X112375500Y-124445500D01*
X112375500Y-124417990D01*
X112395185Y-124350951D01*
X112411819Y-124330309D01*
X113024284Y-123717844D01*
X114300000Y-123717844D01*
X114306401Y-123777372D01*
X114306403Y-123777379D01*
X114356645Y-123912086D01*
X114356649Y-123912093D01*
X114442809Y-124027187D01*
X114442812Y-124027190D01*
X114557906Y-124113350D01*
X114557913Y-124113354D01*
X114692620Y-124163596D01*
X114692627Y-124163598D01*
X114752155Y-124169999D01*
X114752172Y-124170000D01*
X115325000Y-124170000D01*
X115325000Y-123270000D01*
X114300000Y-123270000D01*
X114300000Y-123717844D01*
X113024284Y-123717844D01*
X114088319Y-122653809D01*
X114149642Y-122620324D01*
X114219334Y-122625308D01*
X114275267Y-122667180D01*
X114299684Y-122732644D01*
X114300000Y-122741490D01*
X114300000Y-122770000D01*
X119266666Y-122770000D01*
X119266666Y-122322172D01*
X119266665Y-122322155D01*
X119260264Y-122262627D01*
X119260261Y-122262616D01*
X119233178Y-122190003D01*
X119228193Y-122120312D01*
X119261677Y-122058988D01*
X119283384Y-122041677D01*
X119302262Y-122029816D01*
X119429816Y-121902262D01*
X119525789Y-121749522D01*
X119585368Y-121579255D01*
X119588718Y-121549522D01*
X119605565Y-121400003D01*
X119605565Y-121399996D01*
X119585369Y-121220750D01*
X119585366Y-121220737D01*
X119543718Y-121101714D01*
X119540156Y-121031935D01*
X119574884Y-120971308D01*
X119636878Y-120939080D01*
X119701714Y-120943718D01*
X119820737Y-120985366D01*
X119820743Y-120985367D01*
X119820745Y-120985368D01*
X119820746Y-120985368D01*
X119820750Y-120985369D01*
X119999996Y-121005565D01*
X120000000Y-121005565D01*
X120000004Y-121005565D01*
X120179249Y-120985369D01*
X120179252Y-120985368D01*
X120179255Y-120985368D01*
X120349522Y-120925789D01*
X120502262Y-120829816D01*
X120629816Y-120702262D01*
X120725789Y-120549522D01*
X120785368Y-120379255D01*
X120785791Y-120375500D01*
X120805565Y-120200003D01*
X120805565Y-120199996D01*
X120785369Y-120020750D01*
X120785368Y-120020748D01*
X120785368Y-120020745D01*
X120761270Y-119951880D01*
X120757708Y-119882105D01*
X120790628Y-119823250D01*
X121060515Y-119553365D01*
X124602061Y-116011819D01*
X124663384Y-115978334D01*
X124689742Y-115975500D01*
X127583010Y-115975500D01*
X127650049Y-115995185D01*
G37*
%TD.AperFunction*%
%TA.AperFunction,Conductor*%
G36*
X143742539Y-79489685D02*
G01*
X143788294Y-79542489D01*
X143799500Y-79594000D01*
X143799500Y-123367293D01*
X143799382Y-123372702D01*
X143782614Y-123756750D01*
X143781671Y-123767526D01*
X143731849Y-124145957D01*
X143729971Y-124156610D01*
X143647354Y-124529272D01*
X143644554Y-124539721D01*
X143529775Y-124903755D01*
X143526075Y-124913921D01*
X143380002Y-125266572D01*
X143375430Y-125276376D01*
X143199183Y-125614942D01*
X143193775Y-125624310D01*
X142988681Y-125946244D01*
X142982476Y-125955105D01*
X142750110Y-126257930D01*
X142743156Y-126266217D01*
X142485284Y-126547635D01*
X142477635Y-126555284D01*
X142196217Y-126813156D01*
X142187930Y-126820110D01*
X141885105Y-127052476D01*
X141876244Y-127058681D01*
X141554310Y-127263775D01*
X141544942Y-127269183D01*
X141206376Y-127445430D01*
X141196572Y-127450002D01*
X140843921Y-127596075D01*
X140833755Y-127599775D01*
X140469721Y-127714554D01*
X140459272Y-127717354D01*
X140086610Y-127799971D01*
X140075957Y-127801849D01*
X139697526Y-127851671D01*
X139686750Y-127852614D01*
X139302703Y-127869382D01*
X139297294Y-127869500D01*
X124351221Y-127869500D01*
X124284182Y-127849815D01*
X124238427Y-127797011D01*
X124228483Y-127727853D01*
X124257508Y-127664297D01*
X124285248Y-127640507D01*
X124290399Y-127637269D01*
X124302262Y-127629816D01*
X124429816Y-127502262D01*
X124525789Y-127349522D01*
X124585368Y-127179255D01*
X124594043Y-127102262D01*
X124605565Y-127000003D01*
X124605565Y-126999996D01*
X124585369Y-126820750D01*
X124585368Y-126820745D01*
X124552799Y-126727669D01*
X124525789Y-126650478D01*
X124521355Y-126643422D01*
X124467482Y-126557683D01*
X124429816Y-126497738D01*
X124302262Y-126370184D01*
X124254295Y-126340044D01*
X124149523Y-126274211D01*
X123979254Y-126214631D01*
X123979249Y-126214630D01*
X123800004Y-126194435D01*
X123799996Y-126194435D01*
X123632679Y-126213286D01*
X123563857Y-126201231D01*
X123512478Y-126153882D01*
X123494854Y-126086271D01*
X123495507Y-126076810D01*
X123495787Y-126074211D01*
X123500500Y-126030373D01*
X123500499Y-125034628D01*
X123494091Y-124975017D01*
X123489429Y-124962518D01*
X123443797Y-124840171D01*
X123443795Y-124840168D01*
X123434438Y-124827669D01*
X123386850Y-124764099D01*
X123362433Y-124698636D01*
X123377284Y-124630363D01*
X123398432Y-124602112D01*
X124454985Y-123545559D01*
X124516308Y-123512075D01*
X124586000Y-123517059D01*
X124641933Y-123558931D01*
X124666350Y-123624395D01*
X124666666Y-123633241D01*
X124666666Y-123717844D01*
X124673067Y-123777372D01*
X124673069Y-123777379D01*
X124723311Y-123912086D01*
X124723315Y-123912093D01*
X124809475Y-124027187D01*
X124809478Y-124027190D01*
X124924572Y-124113350D01*
X124924579Y-124113354D01*
X125059286Y-124163596D01*
X125059293Y-124163598D01*
X125118821Y-124169999D01*
X125118838Y-124170000D01*
X125691666Y-124170000D01*
X126191666Y-124170000D01*
X126764494Y-124170000D01*
X126764510Y-124169999D01*
X126824038Y-124163598D01*
X126824045Y-124163596D01*
X126958752Y-124113354D01*
X126958754Y-124113353D01*
X127075689Y-124025816D01*
X127141153Y-124001399D01*
X127209426Y-124016250D01*
X127224311Y-124025816D01*
X127341245Y-124113353D01*
X127341247Y-124113354D01*
X127475954Y-124163596D01*
X127475961Y-124163598D01*
X127535489Y-124169999D01*
X127535506Y-124170000D01*
X128108334Y-124170000D01*
X128608334Y-124170000D01*
X129181162Y-124170000D01*
X129181178Y-124169999D01*
X129240706Y-124163598D01*
X129240713Y-124163596D01*
X129375420Y-124113354D01*
X129375427Y-124113350D01*
X129490521Y-124027190D01*
X129490524Y-124027187D01*
X129576684Y-123912093D01*
X129576688Y-123912086D01*
X129626930Y-123777379D01*
X129626932Y-123777372D01*
X129633333Y-123717844D01*
X135033334Y-123717844D01*
X135039735Y-123777372D01*
X135039737Y-123777379D01*
X135089979Y-123912086D01*
X135089983Y-123912093D01*
X135176143Y-124027187D01*
X135176146Y-124027190D01*
X135291240Y-124113350D01*
X135291247Y-124113354D01*
X135425954Y-124163596D01*
X135425961Y-124163598D01*
X135485489Y-124169999D01*
X135485506Y-124170000D01*
X136058334Y-124170000D01*
X136558334Y-124170000D01*
X137131162Y-124170000D01*
X137131178Y-124169999D01*
X137190706Y-124163598D01*
X137190713Y-124163596D01*
X137325420Y-124113354D01*
X137325427Y-124113350D01*
X137440521Y-124027190D01*
X137440524Y-124027187D01*
X137526684Y-123912093D01*
X137526688Y-123912086D01*
X137576930Y-123777379D01*
X137576932Y-123777372D01*
X137583333Y-123717844D01*
X137583334Y-123717827D01*
X137583334Y-123270000D01*
X136558334Y-123270000D01*
X136558334Y-124170000D01*
X136058334Y-124170000D01*
X136058334Y-123270000D01*
X135033334Y-123270000D01*
X135033334Y-123717844D01*
X129633333Y-123717844D01*
X129633334Y-123717827D01*
X129633334Y-123270000D01*
X128608334Y-123270000D01*
X128608334Y-124170000D01*
X128108334Y-124170000D01*
X128108334Y-123270000D01*
X126191666Y-123270000D01*
X126191666Y-124170000D01*
X125691666Y-124170000D01*
X125691666Y-122894000D01*
X125711351Y-122826961D01*
X125764155Y-122781206D01*
X125815666Y-122770000D01*
X128108334Y-122770000D01*
X128608334Y-122770000D01*
X129633334Y-122770000D01*
X129633334Y-122322172D01*
X129633333Y-122322155D01*
X135033334Y-122322155D01*
X135033334Y-122770000D01*
X136058334Y-122770000D01*
X136558334Y-122770000D01*
X137583334Y-122770000D01*
X137583334Y-122322172D01*
X137583333Y-122322155D01*
X137576932Y-122262627D01*
X137576930Y-122262620D01*
X137526688Y-122127913D01*
X137526684Y-122127906D01*
X137440524Y-122012812D01*
X137440521Y-122012809D01*
X137325427Y-121926649D01*
X137325420Y-121926645D01*
X137190713Y-121876403D01*
X137190706Y-121876401D01*
X137131178Y-121870000D01*
X136558334Y-121870000D01*
X136558334Y-122770000D01*
X136058334Y-122770000D01*
X136058334Y-121870000D01*
X135485489Y-121870000D01*
X135425961Y-121876401D01*
X135425954Y-121876403D01*
X135291247Y-121926645D01*
X135291240Y-121926649D01*
X135176146Y-122012809D01*
X135176143Y-122012812D01*
X135089983Y-122127906D01*
X135089979Y-122127913D01*
X135039737Y-122262620D01*
X135039735Y-122262627D01*
X135033334Y-122322155D01*
X129633333Y-122322155D01*
X129626932Y-122262627D01*
X129626930Y-122262620D01*
X129576688Y-122127913D01*
X129576684Y-122127906D01*
X129490524Y-122012812D01*
X129490521Y-122012809D01*
X129375427Y-121926649D01*
X129375420Y-121926645D01*
X129240713Y-121876403D01*
X129240706Y-121876401D01*
X129181178Y-121870000D01*
X128608334Y-121870000D01*
X128608334Y-122770000D01*
X128108334Y-122770000D01*
X128108334Y-121870000D01*
X127535489Y-121870000D01*
X127475961Y-121876401D01*
X127475954Y-121876403D01*
X127341247Y-121926645D01*
X127341245Y-121926646D01*
X127224311Y-122014184D01*
X127158847Y-122038601D01*
X127090574Y-122023750D01*
X127075689Y-122014184D01*
X126958754Y-121926646D01*
X126958752Y-121926645D01*
X126824045Y-121876403D01*
X126824038Y-121876401D01*
X126764510Y-121870000D01*
X126429908Y-121870000D01*
X126362869Y-121850315D01*
X126317114Y-121797511D01*
X126307170Y-121728353D01*
X126336195Y-121664797D01*
X126342227Y-121658319D01*
X126825046Y-121175500D01*
X127352180Y-120648366D01*
X127360169Y-120634530D01*
X127368133Y-120620737D01*
X127409248Y-120549522D01*
X127427947Y-120517135D01*
X127445802Y-120450500D01*
X127467166Y-120370767D01*
X127467166Y-120219234D01*
X127467166Y-119794499D01*
X127486851Y-119727460D01*
X127539655Y-119681705D01*
X127591161Y-119670499D01*
X129181206Y-119670499D01*
X129240817Y-119664091D01*
X129375665Y-119613796D01*
X129490880Y-119527546D01*
X129577130Y-119412331D01*
X129627425Y-119277483D01*
X129633834Y-119217873D01*
X129633834Y-119217845D01*
X129634012Y-119214548D01*
X129635268Y-119214615D01*
X129653519Y-119152461D01*
X129706323Y-119106706D01*
X129757834Y-119095500D01*
X134089987Y-119095500D01*
X134157026Y-119115185D01*
X134202781Y-119167989D01*
X134213207Y-119233383D01*
X134194435Y-119399996D01*
X134194435Y-119400003D01*
X134214630Y-119579249D01*
X134214631Y-119579254D01*
X134274211Y-119749523D01*
X134357566Y-119882181D01*
X134370184Y-119902262D01*
X134497738Y-120029816D01*
X134565346Y-120072297D01*
X134632562Y-120114532D01*
X134650478Y-120125789D01*
X134777352Y-120170184D01*
X134820745Y-120185368D01*
X134820750Y-120185369D01*
X134999996Y-120205565D01*
X135000000Y-120205565D01*
X135000004Y-120205565D01*
X135179249Y-120185369D01*
X135179252Y-120185368D01*
X135179255Y-120185368D01*
X135349522Y-120125789D01*
X135502262Y-120029816D01*
X135629816Y-119902262D01*
X135725789Y-119749522D01*
X135728810Y-119743249D01*
X135731008Y-119744307D01*
X135765093Y-119696776D01*
X135830044Y-119671022D01*
X135841423Y-119670499D01*
X137016258Y-119670499D01*
X137083297Y-119690184D01*
X137129052Y-119742988D01*
X137138996Y-119812146D01*
X137109971Y-119875702D01*
X137103945Y-119882173D01*
X137061886Y-119924233D01*
X137021310Y-119964809D01*
X136959986Y-119998293D01*
X136947513Y-120000347D01*
X136820750Y-120014630D01*
X136650478Y-120074210D01*
X136497737Y-120170184D01*
X136370184Y-120297737D01*
X136274211Y-120450476D01*
X136214631Y-120620745D01*
X136214630Y-120620750D01*
X136194435Y-120799996D01*
X136194435Y-120800003D01*
X136214630Y-120979249D01*
X136214631Y-120979254D01*
X136274211Y-121149523D01*
X136324662Y-121229815D01*
X136370184Y-121302262D01*
X136497738Y-121429816D01*
X136650478Y-121525789D01*
X136781318Y-121571572D01*
X136820745Y-121585368D01*
X136820750Y-121585369D01*
X136999996Y-121605565D01*
X137000000Y-121605565D01*
X137000004Y-121605565D01*
X137179249Y-121585369D01*
X137179252Y-121585368D01*
X137179255Y-121585368D01*
X137349522Y-121525789D01*
X137502262Y-121429816D01*
X137629816Y-121302262D01*
X137725789Y-121149522D01*
X137785368Y-120979255D01*
X137786264Y-120971308D01*
X137799651Y-120852486D01*
X137826717Y-120788072D01*
X137835180Y-120778698D01*
X138260515Y-120353365D01*
X138336281Y-120222135D01*
X138375500Y-120075766D01*
X138375500Y-119924233D01*
X138375500Y-114329993D01*
X139194700Y-114329993D01*
X139194700Y-114330006D01*
X139213864Y-114561297D01*
X139213866Y-114561308D01*
X139270842Y-114786300D01*
X139364075Y-114998848D01*
X139491016Y-115193147D01*
X139491019Y-115193151D01*
X139491021Y-115193153D01*
X139585803Y-115296114D01*
X139616724Y-115358767D01*
X139608864Y-115428193D01*
X139564716Y-115482348D01*
X139537906Y-115496277D01*
X139457669Y-115526203D01*
X139457664Y-115526206D01*
X139342455Y-115612452D01*
X139342452Y-115612455D01*
X139256206Y-115727664D01*
X139256202Y-115727671D01*
X139205908Y-115862517D01*
X139199501Y-115922116D01*
X139199501Y-115922123D01*
X139199500Y-115922135D01*
X139199500Y-117817870D01*
X139199501Y-117817876D01*
X139205908Y-117877483D01*
X139256202Y-118012328D01*
X139256206Y-118012335D01*
X139342452Y-118127544D01*
X139342455Y-118127547D01*
X139457664Y-118213793D01*
X139457671Y-118213797D01*
X139592517Y-118264091D01*
X139592516Y-118264091D01*
X139599444Y-118264835D01*
X139652127Y-118270500D01*
X141547872Y-118270499D01*
X141607483Y-118264091D01*
X141742331Y-118213796D01*
X141857546Y-118127546D01*
X141943796Y-118012331D01*
X141994091Y-117877483D01*
X142000500Y-117817873D01*
X142000499Y-115922128D01*
X141994091Y-115862517D01*
X141981894Y-115829816D01*
X141943797Y-115727671D01*
X141943793Y-115727664D01*
X141857547Y-115612455D01*
X141857544Y-115612452D01*
X141742335Y-115526206D01*
X141742328Y-115526202D01*
X141662094Y-115496277D01*
X141606160Y-115454406D01*
X141581743Y-115388941D01*
X141596595Y-115320668D01*
X141614190Y-115296121D01*
X141708979Y-115193153D01*
X141835924Y-114998849D01*
X141929157Y-114786300D01*
X141986134Y-114561305D01*
X141986242Y-114560000D01*
X142005300Y-114330006D01*
X142005300Y-114329993D01*
X141986135Y-114098702D01*
X141986133Y-114098691D01*
X141929157Y-113873699D01*
X141835924Y-113661151D01*
X141708983Y-113466852D01*
X141708980Y-113466849D01*
X141708979Y-113466847D01*
X141551784Y-113296087D01*
X141551779Y-113296083D01*
X141551777Y-113296081D01*
X141368634Y-113153535D01*
X141368628Y-113153531D01*
X141164504Y-113043064D01*
X141164495Y-113043061D01*
X140944984Y-112967702D01*
X140773282Y-112939050D01*
X140716049Y-112929500D01*
X140483951Y-112929500D01*
X140438164Y-112937140D01*
X140255015Y-112967702D01*
X140035504Y-113043061D01*
X140035495Y-113043064D01*
X139831371Y-113153531D01*
X139831365Y-113153535D01*
X139648222Y-113296081D01*
X139648219Y-113296084D01*
X139491016Y-113466852D01*
X139364075Y-113661151D01*
X139270842Y-113873699D01*
X139213866Y-114098691D01*
X139213864Y-114098702D01*
X139194700Y-114329993D01*
X138375500Y-114329993D01*
X138375500Y-112924234D01*
X138336281Y-112777865D01*
X138260515Y-112646635D01*
X138153365Y-112539485D01*
X136940768Y-111326888D01*
X136907283Y-111265565D01*
X136912267Y-111195873D01*
X136923460Y-111173228D01*
X136925789Y-111169522D01*
X136985368Y-110999255D01*
X136985369Y-110999250D01*
X136995356Y-110910616D01*
X137022423Y-110846202D01*
X137080018Y-110806647D01*
X137118576Y-110800500D01*
X137335258Y-110800500D01*
X137402297Y-110820185D01*
X137422939Y-110836819D01*
X137646635Y-111060515D01*
X137777865Y-111136281D01*
X137924233Y-111175500D01*
X137924234Y-111175500D01*
X137924235Y-111175500D01*
X138347516Y-111175500D01*
X138347518Y-111175500D01*
X138493887Y-111136281D01*
X138625117Y-111060515D01*
X141660515Y-108025117D01*
X141736281Y-107893887D01*
X141763585Y-107791985D01*
X141795680Y-107736397D01*
X141811193Y-107720885D01*
X141829816Y-107702262D01*
X141925789Y-107549522D01*
X141985368Y-107379255D01*
X141989466Y-107342887D01*
X142005565Y-107200003D01*
X142005565Y-107199996D01*
X141985369Y-107020750D01*
X141985368Y-107020745D01*
X141954782Y-106933335D01*
X141925789Y-106850478D01*
X141925174Y-106849500D01*
X141881191Y-106779501D01*
X141829816Y-106697738D01*
X141702262Y-106570184D01*
X141668774Y-106549142D01*
X141549523Y-106474211D01*
X141379254Y-106414631D01*
X141379249Y-106414630D01*
X141200004Y-106394435D01*
X141199996Y-106394435D01*
X141020750Y-106414630D01*
X141020745Y-106414631D01*
X140850476Y-106474211D01*
X140697737Y-106570184D01*
X140570184Y-106697737D01*
X140474211Y-106850476D01*
X140414631Y-107020745D01*
X140414630Y-107020750D01*
X140394435Y-107199996D01*
X140394435Y-107200003D01*
X140414630Y-107379249D01*
X140414632Y-107379257D01*
X140457326Y-107501270D01*
X140460887Y-107571049D01*
X140427965Y-107629905D01*
X138223556Y-109834314D01*
X138162233Y-109867799D01*
X138092541Y-109862815D01*
X138048194Y-109834314D01*
X137978367Y-109764487D01*
X137978365Y-109764485D01*
X137943021Y-109744079D01*
X137894805Y-109693512D01*
X137881583Y-109624905D01*
X137907551Y-109560040D01*
X137944284Y-109530541D01*
X137943626Y-109529494D01*
X137979660Y-109506851D01*
X138102262Y-109429816D01*
X138229816Y-109302262D01*
X138325789Y-109149522D01*
X138385368Y-108979255D01*
X138389359Y-108943834D01*
X138405565Y-108800003D01*
X138405565Y-108799996D01*
X138385369Y-108620750D01*
X138385368Y-108620745D01*
X138351784Y-108524767D01*
X138325789Y-108450478D01*
X138307106Y-108420745D01*
X138271970Y-108364825D01*
X138229816Y-108297738D01*
X138102262Y-108170184D01*
X138053405Y-108139485D01*
X137949523Y-108074211D01*
X137779254Y-108014631D01*
X137779249Y-108014630D01*
X137600004Y-107994435D01*
X137599996Y-107994435D01*
X137420750Y-108014630D01*
X137420745Y-108014631D01*
X137250473Y-108074212D01*
X137244585Y-108077912D01*
X137177347Y-108096907D01*
X137110513Y-108076536D01*
X137065303Y-108023265D01*
X137055647Y-107965414D01*
X137055277Y-107965414D01*
X137055277Y-107963195D01*
X137055093Y-107962096D01*
X137055277Y-107960000D01*
X137036207Y-107742023D01*
X136984626Y-107549522D01*
X136979577Y-107530677D01*
X136979576Y-107530676D01*
X136979575Y-107530670D01*
X136887102Y-107332362D01*
X136887100Y-107332359D01*
X136887099Y-107332357D01*
X136761599Y-107153124D01*
X136685803Y-107077328D01*
X136606877Y-106998402D01*
X136441885Y-106882873D01*
X136427638Y-106872897D01*
X136320019Y-106822714D01*
X136229330Y-106780425D01*
X136229326Y-106780424D01*
X136229322Y-106780422D01*
X136017977Y-106723793D01*
X135800002Y-106704723D01*
X135799998Y-106704723D01*
X135672151Y-106715908D01*
X135582023Y-106723793D01*
X135582020Y-106723793D01*
X135370677Y-106780422D01*
X135370668Y-106780426D01*
X135172361Y-106872898D01*
X135172357Y-106872900D01*
X134993121Y-106998402D01*
X134838402Y-107153121D01*
X134712900Y-107332357D01*
X134712898Y-107332361D01*
X134642382Y-107483583D01*
X134596209Y-107536022D01*
X134529016Y-107555174D01*
X134462135Y-107534958D01*
X134417618Y-107483583D01*
X134380745Y-107404509D01*
X134347102Y-107332362D01*
X134347100Y-107332359D01*
X134347099Y-107332357D01*
X134221599Y-107153124D01*
X134145803Y-107077328D01*
X134066877Y-106998402D01*
X133901885Y-106882873D01*
X133887638Y-106872897D01*
X133780019Y-106822714D01*
X133689330Y-106780425D01*
X133689326Y-106780424D01*
X133689322Y-106780422D01*
X133477977Y-106723793D01*
X133260002Y-106704723D01*
X133259998Y-106704723D01*
X133132151Y-106715908D01*
X133042023Y-106723793D01*
X133042020Y-106723793D01*
X132830677Y-106780422D01*
X132830668Y-106780426D01*
X132632361Y-106872898D01*
X132632357Y-106872900D01*
X132453121Y-106998402D01*
X132298402Y-107153121D01*
X132172900Y-107332357D01*
X132172898Y-107332361D01*
X132102382Y-107483583D01*
X132056209Y-107536022D01*
X131989016Y-107555174D01*
X131922135Y-107534958D01*
X131877618Y-107483583D01*
X131840745Y-107404509D01*
X131807102Y-107332362D01*
X131807100Y-107332359D01*
X131807099Y-107332357D01*
X131681599Y-107153124D01*
X131605803Y-107077328D01*
X131526877Y-106998402D01*
X131361885Y-106882873D01*
X131347638Y-106872897D01*
X131240019Y-106822714D01*
X131149330Y-106780425D01*
X131149326Y-106780424D01*
X131149322Y-106780422D01*
X130937977Y-106723793D01*
X130720002Y-106704723D01*
X130719998Y-106704723D01*
X130592151Y-106715908D01*
X130502023Y-106723793D01*
X130502020Y-106723793D01*
X130290677Y-106780422D01*
X130290668Y-106780426D01*
X130092361Y-106872898D01*
X130092357Y-106872900D01*
X129913121Y-106998402D01*
X129758402Y-107153121D01*
X129632900Y-107332357D01*
X129632898Y-107332361D01*
X129562382Y-107483583D01*
X129516209Y-107536022D01*
X129449016Y-107555174D01*
X129382135Y-107534958D01*
X129337618Y-107483583D01*
X129300745Y-107404509D01*
X129267102Y-107332362D01*
X129267100Y-107332359D01*
X129267099Y-107332357D01*
X129141599Y-107153124D01*
X129065803Y-107077328D01*
X128986877Y-106998402D01*
X128821885Y-106882873D01*
X128807638Y-106872897D01*
X128700019Y-106822714D01*
X128609330Y-106780425D01*
X128609326Y-106780424D01*
X128609322Y-106780422D01*
X128397977Y-106723793D01*
X128180002Y-106704723D01*
X128179998Y-106704723D01*
X128052151Y-106715908D01*
X127962023Y-106723793D01*
X127962020Y-106723793D01*
X127750677Y-106780422D01*
X127750668Y-106780426D01*
X127552361Y-106872898D01*
X127552357Y-106872900D01*
X127373121Y-106998402D01*
X127218402Y-107153121D01*
X127092900Y-107332357D01*
X127092898Y-107332361D01*
X127022382Y-107483583D01*
X126976209Y-107536022D01*
X126909016Y-107555174D01*
X126842135Y-107534958D01*
X126797618Y-107483583D01*
X126760745Y-107404509D01*
X126727102Y-107332362D01*
X126727100Y-107332359D01*
X126727099Y-107332357D01*
X126601599Y-107153124D01*
X126525803Y-107077328D01*
X126446877Y-106998402D01*
X126281885Y-106882873D01*
X126267638Y-106872897D01*
X126160019Y-106822714D01*
X126069330Y-106780425D01*
X126069326Y-106780424D01*
X126069322Y-106780422D01*
X125857977Y-106723793D01*
X125640002Y-106704723D01*
X125639998Y-106704723D01*
X125512151Y-106715908D01*
X125422023Y-106723793D01*
X125422020Y-106723793D01*
X125210677Y-106780422D01*
X125210668Y-106780426D01*
X125012361Y-106872898D01*
X125012357Y-106872900D01*
X124833121Y-106998402D01*
X124678402Y-107153121D01*
X124576074Y-107299262D01*
X124521497Y-107342887D01*
X124451999Y-107350081D01*
X124389644Y-107318558D01*
X124354230Y-107258328D01*
X124350499Y-107228139D01*
X124350499Y-107162129D01*
X124350498Y-107162123D01*
X124350497Y-107162116D01*
X124344091Y-107102517D01*
X124334697Y-107077331D01*
X124293797Y-106967671D01*
X124293793Y-106967664D01*
X124207547Y-106852455D01*
X124207544Y-106852452D01*
X124092335Y-106766206D01*
X124092328Y-106766202D01*
X123957482Y-106715908D01*
X123957483Y-106715908D01*
X123897883Y-106709501D01*
X123897881Y-106709500D01*
X123897873Y-106709500D01*
X123897864Y-106709500D01*
X122302129Y-106709500D01*
X122302123Y-106709501D01*
X122242516Y-106715908D01*
X122107671Y-106766202D01*
X122107664Y-106766206D01*
X121992455Y-106852452D01*
X121992452Y-106852455D01*
X121906206Y-106967664D01*
X121906202Y-106967671D01*
X121855908Y-107102517D01*
X121853528Y-107124659D01*
X121849501Y-107162123D01*
X121849500Y-107162135D01*
X121849500Y-107475547D01*
X121829815Y-107542586D01*
X121777011Y-107588341D01*
X121707853Y-107598285D01*
X121644297Y-107569260D01*
X121637819Y-107563228D01*
X121007928Y-106933338D01*
X121007925Y-106933334D01*
X121007925Y-106933335D01*
X121000859Y-106926269D01*
X121000858Y-106926267D01*
X120913733Y-106839142D01*
X120913729Y-106839139D01*
X120913728Y-106839138D01*
X120862224Y-106804724D01*
X120862222Y-106804723D01*
X120811290Y-106770690D01*
X120811286Y-106770688D01*
X120800460Y-106766204D01*
X120730792Y-106737347D01*
X120697452Y-106723537D01*
X120697448Y-106723536D01*
X120697444Y-106723535D01*
X120683432Y-106720748D01*
X120621521Y-106688364D01*
X120586947Y-106627648D01*
X120586730Y-106626715D01*
X120585368Y-106620749D01*
X120585368Y-106620745D01*
X120525789Y-106450478D01*
X120429816Y-106297738D01*
X120302262Y-106170184D01*
X120173579Y-106089327D01*
X120149521Y-106074210D01*
X119979249Y-106014630D01*
X119852485Y-106000347D01*
X119788071Y-105973280D01*
X119778688Y-105964808D01*
X119601061Y-105787181D01*
X119567576Y-105725858D01*
X119572560Y-105656166D01*
X119614432Y-105600233D01*
X119679896Y-105575816D01*
X119688742Y-105575500D01*
X125592060Y-105575500D01*
X125659099Y-105595185D01*
X125679741Y-105611819D01*
X125697738Y-105629816D01*
X125850478Y-105725789D01*
X125961279Y-105764560D01*
X126020745Y-105785368D01*
X126020750Y-105785369D01*
X126199996Y-105805565D01*
X126200000Y-105805565D01*
X126200004Y-105805565D01*
X126379249Y-105785369D01*
X126379252Y-105785368D01*
X126379255Y-105785368D01*
X126549522Y-105725789D01*
X126702262Y-105629816D01*
X126829816Y-105502262D01*
X126925789Y-105349522D01*
X126985368Y-105179255D01*
X126987573Y-105159685D01*
X126995919Y-105085617D01*
X127022985Y-105021203D01*
X127080580Y-104981647D01*
X127119139Y-104975500D01*
X133875764Y-104975500D01*
X133875766Y-104975500D01*
X134022135Y-104936281D01*
X134153365Y-104860515D01*
X134178687Y-104835192D01*
X134240008Y-104801706D01*
X134252487Y-104799651D01*
X134379250Y-104785369D01*
X134379253Y-104785368D01*
X134379255Y-104785368D01*
X134549522Y-104725789D01*
X134702262Y-104629816D01*
X134829816Y-104502262D01*
X134925789Y-104349522D01*
X134985368Y-104179255D01*
X134985369Y-104179249D01*
X135005565Y-104000003D01*
X135005565Y-103999996D01*
X134985369Y-103820750D01*
X134985368Y-103820745D01*
X134957623Y-103741454D01*
X134925789Y-103650478D01*
X134907106Y-103620745D01*
X134829815Y-103497737D01*
X134702262Y-103370184D01*
X134549523Y-103274211D01*
X134379254Y-103214631D01*
X134379249Y-103214630D01*
X134200004Y-103194435D01*
X134199996Y-103194435D01*
X134020750Y-103214630D01*
X134020745Y-103214631D01*
X133850476Y-103274211D01*
X133697737Y-103370184D01*
X133570184Y-103497737D01*
X133474210Y-103650478D01*
X133442377Y-103741454D01*
X133401655Y-103798230D01*
X133336702Y-103823978D01*
X133325335Y-103824500D01*
X115319139Y-103824500D01*
X115252100Y-103804815D01*
X115206345Y-103752011D01*
X115195919Y-103714383D01*
X115185369Y-103620750D01*
X115185368Y-103620745D01*
X115142326Y-103497738D01*
X115125789Y-103450478D01*
X115120520Y-103442093D01*
X115075337Y-103370184D01*
X115029816Y-103297738D01*
X115011819Y-103279741D01*
X114978334Y-103218418D01*
X114975500Y-103192060D01*
X114975500Y-101688742D01*
X114995185Y-101621703D01*
X115047989Y-101575948D01*
X115117147Y-101566004D01*
X115180703Y-101595029D01*
X115187181Y-101601061D01*
X115339485Y-101753365D01*
X115446635Y-101860515D01*
X115577865Y-101936281D01*
X115724234Y-101975500D01*
X126710258Y-101975500D01*
X126777297Y-101995185D01*
X126797939Y-102011819D01*
X126846635Y-102060515D01*
X126977865Y-102136281D01*
X127124234Y-102175500D01*
X127275767Y-102175500D01*
X129392060Y-102175500D01*
X129459099Y-102195185D01*
X129479741Y-102211819D01*
X129497738Y-102229816D01*
X129650478Y-102325789D01*
X129698284Y-102342517D01*
X129820745Y-102385368D01*
X129820750Y-102385369D01*
X129999996Y-102405565D01*
X130000000Y-102405565D01*
X130000004Y-102405565D01*
X130179249Y-102385369D01*
X130179252Y-102385368D01*
X130179255Y-102385368D01*
X130349522Y-102325789D01*
X130502262Y-102229816D01*
X130629816Y-102102262D01*
X130725789Y-101949522D01*
X130785368Y-101779255D01*
X130791392Y-101725789D01*
X130805565Y-101600003D01*
X130805565Y-101599996D01*
X130785369Y-101420750D01*
X130785368Y-101420745D01*
X130774393Y-101389380D01*
X130725789Y-101250478D01*
X130707106Y-101220745D01*
X130660257Y-101146185D01*
X130629816Y-101097738D01*
X130519259Y-100987181D01*
X130485774Y-100925858D01*
X130490758Y-100856166D01*
X130532630Y-100800233D01*
X130598094Y-100775816D01*
X130606940Y-100775500D01*
X135310258Y-100775500D01*
X135377297Y-100795185D01*
X135397939Y-100811819D01*
X135564808Y-100978688D01*
X135598293Y-101040011D01*
X135600347Y-101052485D01*
X135614630Y-101179249D01*
X135674210Y-101349521D01*
X135719565Y-101421702D01*
X135770184Y-101502262D01*
X135897738Y-101629816D01*
X136050478Y-101725789D01*
X136129286Y-101753365D01*
X136220745Y-101785368D01*
X136220750Y-101785369D01*
X136399996Y-101805565D01*
X136400000Y-101805565D01*
X136400004Y-101805565D01*
X136579249Y-101785369D01*
X136579252Y-101785368D01*
X136579255Y-101785368D01*
X136749522Y-101725789D01*
X136902262Y-101629816D01*
X137029816Y-101502262D01*
X137125789Y-101349522D01*
X137185368Y-101179255D01*
X137186846Y-101166137D01*
X137205565Y-101000003D01*
X137205565Y-100999996D01*
X137185369Y-100820750D01*
X137185368Y-100820745D01*
X137142370Y-100697864D01*
X137125789Y-100650478D01*
X137110802Y-100626627D01*
X137061146Y-100547599D01*
X137029816Y-100497738D01*
X136902262Y-100370184D01*
X136822888Y-100320310D01*
X136749521Y-100274210D01*
X136579249Y-100214630D01*
X136452485Y-100200347D01*
X136388071Y-100173280D01*
X136378688Y-100164808D01*
X136201061Y-99987181D01*
X136167576Y-99925858D01*
X136172560Y-99856166D01*
X136214432Y-99800233D01*
X136279896Y-99775816D01*
X136288742Y-99775500D01*
X137275764Y-99775500D01*
X137275766Y-99775500D01*
X137422135Y-99736281D01*
X137553365Y-99660515D01*
X138178690Y-99035188D01*
X138240011Y-99001705D01*
X138252483Y-98999651D01*
X138277210Y-98996865D01*
X138379250Y-98985369D01*
X138379253Y-98985368D01*
X138379255Y-98985368D01*
X138549522Y-98925789D01*
X138702262Y-98829816D01*
X138829816Y-98702262D01*
X138925789Y-98549522D01*
X138985368Y-98379255D01*
X138991463Y-98325163D01*
X139005565Y-98200003D01*
X139005565Y-98199996D01*
X138985369Y-98020750D01*
X138985368Y-98020745D01*
X138940661Y-97892981D01*
X138925789Y-97850478D01*
X138907123Y-97820772D01*
X138878360Y-97774996D01*
X138829816Y-97697738D01*
X138702262Y-97570184D01*
X138670510Y-97550233D01*
X138549523Y-97474211D01*
X138379254Y-97414631D01*
X138379249Y-97414630D01*
X138200004Y-97394435D01*
X138199996Y-97394435D01*
X138020750Y-97414630D01*
X138020745Y-97414631D01*
X137850476Y-97474211D01*
X137697737Y-97570184D01*
X137570184Y-97697737D01*
X137474210Y-97850478D01*
X137414630Y-98020750D01*
X137400347Y-98147513D01*
X137373280Y-98211927D01*
X137364808Y-98221310D01*
X137147251Y-98438867D01*
X137085928Y-98472352D01*
X137016236Y-98467368D01*
X136960303Y-98425496D01*
X136935886Y-98360032D01*
X136947188Y-98298783D01*
X136979575Y-98229330D01*
X137036207Y-98017977D01*
X137055277Y-97800000D01*
X137053089Y-97774996D01*
X137047882Y-97715472D01*
X137036207Y-97582023D01*
X136985330Y-97392147D01*
X136979577Y-97370677D01*
X136979576Y-97370676D01*
X136979575Y-97370670D01*
X136887102Y-97172362D01*
X136887100Y-97172359D01*
X136887099Y-97172357D01*
X136761599Y-96993124D01*
X136695986Y-96927511D01*
X136606877Y-96838402D01*
X136446049Y-96725789D01*
X136427638Y-96712897D01*
X136312247Y-96659090D01*
X136229330Y-96620425D01*
X136229326Y-96620424D01*
X136229322Y-96620422D01*
X136017977Y-96563793D01*
X135800002Y-96544723D01*
X135799998Y-96544723D01*
X135667053Y-96556354D01*
X135582023Y-96563793D01*
X135582020Y-96563793D01*
X135370677Y-96620422D01*
X135370670Y-96620424D01*
X135370670Y-96620425D01*
X135350531Y-96629816D01*
X135172361Y-96712898D01*
X135172357Y-96712900D01*
X134993121Y-96838402D01*
X134838402Y-96993121D01*
X134712900Y-97172357D01*
X134712898Y-97172361D01*
X134642382Y-97323583D01*
X134596209Y-97376022D01*
X134529016Y-97395174D01*
X134462135Y-97374958D01*
X134417618Y-97323583D01*
X134384860Y-97253334D01*
X134347102Y-97172362D01*
X134347100Y-97172359D01*
X134347099Y-97172357D01*
X134221599Y-96993124D01*
X134155986Y-96927511D01*
X134066877Y-96838402D01*
X134016038Y-96802804D01*
X133888376Y-96713413D01*
X133844751Y-96658836D01*
X133835500Y-96611839D01*
X133835500Y-96384236D01*
X133835500Y-96384234D01*
X133796281Y-96237865D01*
X133720515Y-96106635D01*
X133613365Y-95999485D01*
X132753365Y-95139485D01*
X132664686Y-95088286D01*
X132622136Y-95063719D01*
X132548950Y-95044109D01*
X132475766Y-95024500D01*
X132475765Y-95024500D01*
X128007940Y-95024500D01*
X127940901Y-95004815D01*
X127920259Y-94988181D01*
X127902262Y-94970184D01*
X127749523Y-94874211D01*
X127579254Y-94814631D01*
X127579249Y-94814630D01*
X127400004Y-94794435D01*
X127399996Y-94794435D01*
X127220750Y-94814630D01*
X127220745Y-94814631D01*
X127050476Y-94874211D01*
X126897737Y-94970184D01*
X126770184Y-95097737D01*
X126674211Y-95250476D01*
X126614631Y-95420745D01*
X126614630Y-95420750D01*
X126604081Y-95514383D01*
X126577015Y-95578797D01*
X126519420Y-95618353D01*
X126480861Y-95624500D01*
X116959452Y-95624500D01*
X116892413Y-95604815D01*
X116846658Y-95552011D01*
X116836714Y-95482853D01*
X116865739Y-95419297D01*
X116871771Y-95412819D01*
X117497409Y-94787181D01*
X119398729Y-92885860D01*
X119398733Y-92885858D01*
X119485858Y-92798733D01*
X119554311Y-92696286D01*
X119554312Y-92696285D01*
X119591768Y-92605857D01*
X119601463Y-92582452D01*
X119614138Y-92518730D01*
X119619345Y-92492552D01*
X119619345Y-92492549D01*
X119625500Y-92461607D01*
X119625500Y-92338393D01*
X119625500Y-91599996D01*
X120994435Y-91599996D01*
X120994435Y-91600003D01*
X121014630Y-91779249D01*
X121014631Y-91779254D01*
X121074211Y-91949523D01*
X121136082Y-92047989D01*
X121170184Y-92102262D01*
X121297738Y-92229816D01*
X121450478Y-92325789D01*
X121592544Y-92375500D01*
X121620745Y-92385368D01*
X121620750Y-92385369D01*
X121799996Y-92405565D01*
X121800000Y-92405565D01*
X121800004Y-92405565D01*
X121979249Y-92385369D01*
X121979252Y-92385368D01*
X121979255Y-92385368D01*
X122149522Y-92325789D01*
X122302262Y-92229816D01*
X122320259Y-92211819D01*
X122381582Y-92178334D01*
X122407940Y-92175500D01*
X129710258Y-92175500D01*
X129777297Y-92195185D01*
X129797939Y-92211819D01*
X130964808Y-93378688D01*
X130998293Y-93440011D01*
X131000347Y-93452485D01*
X131014630Y-93579249D01*
X131074210Y-93749521D01*
X131124662Y-93829815D01*
X131170184Y-93902262D01*
X131297738Y-94029816D01*
X131450478Y-94125789D01*
X131612969Y-94182647D01*
X131620745Y-94185368D01*
X131620750Y-94185369D01*
X131799996Y-94205565D01*
X131800000Y-94205565D01*
X131800004Y-94205565D01*
X131979249Y-94185369D01*
X131979252Y-94185368D01*
X131979255Y-94185368D01*
X132149522Y-94125789D01*
X132302262Y-94029816D01*
X132429816Y-93902262D01*
X132525789Y-93749522D01*
X132585368Y-93579255D01*
X132585432Y-93578688D01*
X132605565Y-93400003D01*
X132605565Y-93399996D01*
X132585369Y-93220750D01*
X132585368Y-93220745D01*
X132542326Y-93097738D01*
X132525789Y-93050478D01*
X132429816Y-92897738D01*
X132302262Y-92770184D01*
X132200709Y-92706374D01*
X132149521Y-92674210D01*
X131979249Y-92614630D01*
X131852485Y-92600347D01*
X131788071Y-92573280D01*
X131778688Y-92564808D01*
X130353367Y-91139487D01*
X130353365Y-91139485D01*
X130255276Y-91082853D01*
X130222136Y-91063719D01*
X130113191Y-91034528D01*
X130075766Y-91024500D01*
X130075765Y-91024500D01*
X126215228Y-91024500D01*
X126148189Y-91004815D01*
X126102434Y-90952011D01*
X126092490Y-90882853D01*
X126102846Y-90848095D01*
X126122510Y-90805925D01*
X126139575Y-90769330D01*
X126196207Y-90557977D01*
X126213473Y-90360620D01*
X126215277Y-90340002D01*
X126215277Y-90339997D01*
X126207445Y-90250476D01*
X126196207Y-90122023D01*
X126153158Y-89961361D01*
X126139577Y-89910677D01*
X126139576Y-89910676D01*
X126139575Y-89910670D01*
X126047102Y-89712362D01*
X126047099Y-89712358D01*
X126047099Y-89712357D01*
X125921599Y-89533124D01*
X125865322Y-89476847D01*
X125766877Y-89378402D01*
X125628978Y-89281844D01*
X125587638Y-89252897D01*
X125469189Y-89197664D01*
X125389330Y-89160425D01*
X125389326Y-89160424D01*
X125389322Y-89160422D01*
X125177977Y-89103793D01*
X124960002Y-89084723D01*
X124959998Y-89084723D01*
X124814682Y-89097436D01*
X124742023Y-89103793D01*
X124742020Y-89103793D01*
X124530677Y-89160422D01*
X124530668Y-89160426D01*
X124332361Y-89252898D01*
X124332357Y-89252900D01*
X124153121Y-89378402D01*
X123998402Y-89533121D01*
X123872900Y-89712357D01*
X123872900Y-89712358D01*
X123872898Y-89712361D01*
X123872898Y-89712362D01*
X123860197Y-89739597D01*
X123802105Y-89864176D01*
X123755932Y-89916615D01*
X123688738Y-89935766D01*
X123621857Y-89915550D01*
X123577341Y-89864175D01*
X123506667Y-89712614D01*
X123506666Y-89712612D01*
X123463124Y-89650428D01*
X123463124Y-89650427D01*
X122902962Y-90210589D01*
X122885925Y-90147007D01*
X122820099Y-90032993D01*
X122727007Y-89939901D01*
X122612993Y-89874075D01*
X122549409Y-89857037D01*
X123109571Y-89296874D01*
X123047387Y-89253333D01*
X122849159Y-89160898D01*
X122849150Y-89160894D01*
X122637894Y-89104289D01*
X122637884Y-89104287D01*
X122420001Y-89085225D01*
X122419999Y-89085225D01*
X122202115Y-89104287D01*
X122202105Y-89104289D01*
X121990849Y-89160894D01*
X121990840Y-89160898D01*
X121792613Y-89253333D01*
X121730428Y-89296874D01*
X122290591Y-89857037D01*
X122227007Y-89874075D01*
X122112993Y-89939901D01*
X122019901Y-90032993D01*
X121954075Y-90147007D01*
X121937037Y-90210591D01*
X121376874Y-89650428D01*
X121333333Y-89712613D01*
X121240898Y-89910840D01*
X121240894Y-89910849D01*
X121184289Y-90122105D01*
X121184287Y-90122115D01*
X121165225Y-90339999D01*
X121165225Y-90340000D01*
X121184287Y-90557884D01*
X121184289Y-90557894D01*
X121240894Y-90769150D01*
X121240899Y-90769164D01*
X121286208Y-90866329D01*
X121296700Y-90935406D01*
X121268180Y-90999190D01*
X121261508Y-91006414D01*
X121170183Y-91097739D01*
X121074211Y-91250476D01*
X121014631Y-91420745D01*
X121014630Y-91420750D01*
X120994435Y-91599996D01*
X119625500Y-91599996D01*
X119625500Y-87110452D01*
X119645185Y-87043413D01*
X119661819Y-87022771D01*
X120022771Y-86661819D01*
X120084094Y-86628334D01*
X120110452Y-86625500D01*
X120881608Y-86625500D01*
X120881608Y-86625499D01*
X120957018Y-86610500D01*
X120957019Y-86610500D01*
X120972301Y-86607460D01*
X121002452Y-86601463D01*
X121002457Y-86601460D01*
X121002460Y-86601460D01*
X121035787Y-86587654D01*
X121035786Y-86587654D01*
X121035792Y-86587652D01*
X121116286Y-86554312D01*
X121171656Y-86517314D01*
X121171657Y-86517314D01*
X121213212Y-86489547D01*
X121218733Y-86485858D01*
X121305858Y-86398733D01*
X121305859Y-86398730D01*
X121312925Y-86391665D01*
X121312928Y-86391661D01*
X121396002Y-86308586D01*
X121457323Y-86275103D01*
X121515774Y-86276493D01*
X121552023Y-86286207D01*
X121707720Y-86299828D01*
X121769998Y-86305277D01*
X121770000Y-86305277D01*
X121770002Y-86305277D01*
X121798254Y-86302805D01*
X121987977Y-86286207D01*
X122199330Y-86229575D01*
X122397639Y-86137102D01*
X122576877Y-86011598D01*
X122731598Y-85856877D01*
X122821575Y-85728375D01*
X122876151Y-85684752D01*
X122923149Y-85675500D01*
X129519548Y-85675500D01*
X129586587Y-85695185D01*
X129607229Y-85711819D01*
X133738650Y-89843240D01*
X133772135Y-89904563D01*
X133771175Y-89961361D01*
X133733866Y-90108690D01*
X133733864Y-90108702D01*
X133714700Y-90339993D01*
X133714700Y-90340006D01*
X133733864Y-90571297D01*
X133733866Y-90571308D01*
X133790842Y-90796300D01*
X133884075Y-91008848D01*
X134011016Y-91203147D01*
X134011019Y-91203151D01*
X134011021Y-91203153D01*
X134168216Y-91373913D01*
X134168219Y-91373915D01*
X134168222Y-91373918D01*
X134351365Y-91516464D01*
X134351371Y-91516468D01*
X134351374Y-91516470D01*
X134555497Y-91626936D01*
X134669487Y-91666068D01*
X134775015Y-91702297D01*
X134775017Y-91702297D01*
X134775019Y-91702298D01*
X135003951Y-91740500D01*
X135003952Y-91740500D01*
X135236048Y-91740500D01*
X135236049Y-91740500D01*
X135464981Y-91702298D01*
X135684503Y-91626936D01*
X135888626Y-91516470D01*
X136071784Y-91373913D01*
X136228979Y-91203153D01*
X136355924Y-91008849D01*
X136449157Y-90796300D01*
X136506134Y-90571305D01*
X136506135Y-90571297D01*
X136525300Y-90340006D01*
X136525300Y-90339993D01*
X136506135Y-90108702D01*
X136506133Y-90108691D01*
X136449157Y-89883699D01*
X136355924Y-89671151D01*
X136228983Y-89476852D01*
X136228980Y-89476849D01*
X136228979Y-89476847D01*
X136071784Y-89306087D01*
X136071779Y-89306083D01*
X136071777Y-89306081D01*
X135888634Y-89163535D01*
X135888628Y-89163531D01*
X135684504Y-89053064D01*
X135684495Y-89053061D01*
X135464984Y-88977702D01*
X135274450Y-88945908D01*
X135236049Y-88939500D01*
X135003951Y-88939500D01*
X134965795Y-88945867D01*
X134775014Y-88977702D01*
X134749419Y-88986489D01*
X134679620Y-88989637D01*
X134621478Y-88956888D01*
X130320198Y-84655608D01*
X130320178Y-84655586D01*
X130228735Y-84564143D01*
X130205267Y-84548462D01*
X130158963Y-84517523D01*
X130158964Y-84517523D01*
X130158962Y-84517521D01*
X130126289Y-84495690D01*
X130126288Y-84495689D01*
X130126286Y-84495688D01*
X130086143Y-84479060D01*
X130031742Y-84435221D01*
X130009676Y-84368927D01*
X130026955Y-84301228D01*
X130078091Y-84253617D01*
X130133597Y-84240500D01*
X138573702Y-84240500D01*
X138640741Y-84260185D01*
X138686496Y-84312989D01*
X138696440Y-84382147D01*
X138684339Y-84417109D01*
X138685621Y-84417707D01*
X138590898Y-84620840D01*
X138590894Y-84620849D01*
X138534289Y-84832105D01*
X138534287Y-84832115D01*
X138515225Y-85049999D01*
X138515225Y-85050000D01*
X138534287Y-85267884D01*
X138534289Y-85267894D01*
X138590894Y-85479150D01*
X138590898Y-85479159D01*
X138683333Y-85677387D01*
X138726874Y-85739571D01*
X139287037Y-85179408D01*
X139304075Y-85242993D01*
X139369901Y-85357007D01*
X139462993Y-85450099D01*
X139577007Y-85515925D01*
X139640590Y-85532962D01*
X139080427Y-86093124D01*
X139142612Y-86136666D01*
X139340840Y-86229101D01*
X139340849Y-86229105D01*
X139552105Y-86285710D01*
X139552115Y-86285712D01*
X139769999Y-86304775D01*
X139770001Y-86304775D01*
X139987884Y-86285712D01*
X139987894Y-86285710D01*
X140199150Y-86229105D01*
X140199164Y-86229100D01*
X140397383Y-86136669D01*
X140397385Y-86136668D01*
X140459571Y-86093124D01*
X139899410Y-85532962D01*
X139962993Y-85515925D01*
X140077007Y-85450099D01*
X140170099Y-85357007D01*
X140235925Y-85242993D01*
X140252962Y-85179408D01*
X140813124Y-85739570D01*
X140839693Y-85737246D01*
X140908193Y-85751013D01*
X140958376Y-85799628D01*
X140974500Y-85860774D01*
X140974500Y-86489547D01*
X140954815Y-86556586D01*
X140938181Y-86577228D01*
X140367906Y-87147503D01*
X139801270Y-87714139D01*
X139801267Y-87714142D01*
X139757703Y-87757705D01*
X139714140Y-87801268D01*
X139692453Y-87833727D01*
X139692451Y-87833730D01*
X139645687Y-87903714D01*
X139645685Y-87903718D01*
X139612347Y-87984207D01*
X139606823Y-87997543D01*
X139598537Y-88017545D01*
X139598535Y-88017553D01*
X139574500Y-88138389D01*
X139574500Y-88815500D01*
X139554815Y-88882539D01*
X139502011Y-88928294D01*
X139450501Y-88939500D01*
X139252130Y-88939500D01*
X139252123Y-88939501D01*
X139192516Y-88945908D01*
X139057671Y-88996202D01*
X139057664Y-88996206D01*
X138942455Y-89082452D01*
X138942452Y-89082455D01*
X138856206Y-89197664D01*
X138856202Y-89197671D01*
X138805908Y-89332517D01*
X138799501Y-89392116D01*
X138799501Y-89392123D01*
X138799500Y-89392135D01*
X138799500Y-91287870D01*
X138799501Y-91287876D01*
X138805908Y-91347483D01*
X138856202Y-91482328D01*
X138856206Y-91482335D01*
X138942452Y-91597544D01*
X138942455Y-91597547D01*
X139057664Y-91683793D01*
X139057671Y-91683797D01*
X139192517Y-91734091D01*
X139192516Y-91734091D01*
X139199444Y-91734835D01*
X139252127Y-91740500D01*
X141147872Y-91740499D01*
X141207483Y-91734091D01*
X141342331Y-91683796D01*
X141457546Y-91597546D01*
X141543796Y-91482331D01*
X141594091Y-91347483D01*
X141600500Y-91287873D01*
X141600499Y-89392128D01*
X141594091Y-89332517D01*
X141584233Y-89306087D01*
X141543797Y-89197671D01*
X141543793Y-89197664D01*
X141457547Y-89082455D01*
X141457544Y-89082452D01*
X141342335Y-88996206D01*
X141342328Y-88996202D01*
X141207482Y-88945908D01*
X141207483Y-88945908D01*
X141147883Y-88939501D01*
X141147881Y-88939500D01*
X141147873Y-88939500D01*
X141147865Y-88939500D01*
X140949500Y-88939500D01*
X140882461Y-88919815D01*
X140836706Y-88867011D01*
X140825500Y-88815500D01*
X140825500Y-88510451D01*
X140845185Y-88443412D01*
X140861814Y-88422774D01*
X141998729Y-87285860D01*
X141998733Y-87285858D01*
X142085858Y-87198733D01*
X142120084Y-87147509D01*
X142154312Y-87096286D01*
X142201463Y-86982451D01*
X142225500Y-86861607D01*
X142225500Y-86738393D01*
X142225500Y-84538394D01*
X142218975Y-84505592D01*
X142202846Y-84424500D01*
X142201463Y-84417548D01*
X142154311Y-84303714D01*
X142154309Y-84303711D01*
X142154307Y-84303707D01*
X142085859Y-84201268D01*
X142065480Y-84180889D01*
X141998733Y-84114142D01*
X141998732Y-84114141D01*
X141107927Y-83223337D01*
X141107925Y-83223334D01*
X141107925Y-83223335D01*
X141100858Y-83216268D01*
X141100858Y-83216267D01*
X141013733Y-83129142D01*
X141013732Y-83129141D01*
X141013731Y-83129140D01*
X140962509Y-83094915D01*
X140911287Y-83060689D01*
X140911286Y-83060688D01*
X140911283Y-83060686D01*
X140911280Y-83060685D01*
X140830792Y-83027347D01*
X140797453Y-83013537D01*
X140787427Y-83011543D01*
X140737029Y-83001518D01*
X140676610Y-82989500D01*
X140676607Y-82989500D01*
X140676606Y-82989500D01*
X113895615Y-82989500D01*
X113772402Y-82989500D01*
X113772398Y-82989500D01*
X113711980Y-83001518D01*
X113668752Y-83010116D01*
X113651555Y-83013537D01*
X113564733Y-83049501D01*
X113564732Y-83049501D01*
X113537727Y-83060686D01*
X113537725Y-83060687D01*
X113435274Y-83129142D01*
X111759485Y-84804931D01*
X111698162Y-84838416D01*
X111628470Y-84833432D01*
X111572537Y-84791560D01*
X111548120Y-84726096D01*
X111556389Y-84671916D01*
X113120744Y-80689922D01*
X113163576Y-80634727D01*
X113229454Y-80611448D01*
X113297459Y-80627481D01*
X113327384Y-80651284D01*
X113348206Y-80673903D01*
X113348209Y-80673905D01*
X113348216Y-80673913D01*
X113531374Y-80816470D01*
X113735497Y-80926936D01*
X113849487Y-80966068D01*
X113955015Y-81002297D01*
X113955017Y-81002297D01*
X113955019Y-81002298D01*
X114183951Y-81040500D01*
X114183952Y-81040500D01*
X114416048Y-81040500D01*
X114416049Y-81040500D01*
X114644981Y-81002298D01*
X114864503Y-80926936D01*
X115068626Y-80816470D01*
X115251784Y-80673913D01*
X115408979Y-80503153D01*
X115535924Y-80308849D01*
X115629157Y-80096300D01*
X115686134Y-79871305D01*
X115705300Y-79640000D01*
X115702337Y-79604238D01*
X115716420Y-79535802D01*
X115765266Y-79485844D01*
X115825914Y-79470000D01*
X143675500Y-79470000D01*
X143742539Y-79489685D01*
G37*
%TD.AperFunction*%
%TA.AperFunction,Conductor*%
G36*
X95980703Y-123796561D02*
G01*
X96015682Y-123846941D01*
X96039979Y-123912086D01*
X96039983Y-123912093D01*
X96126143Y-124027187D01*
X96126146Y-124027190D01*
X96241240Y-124113350D01*
X96241247Y-124113354D01*
X96375954Y-124163596D01*
X96375961Y-124163598D01*
X96435489Y-124169999D01*
X96435506Y-124170000D01*
X97116758Y-124170000D01*
X97183797Y-124189685D01*
X97229552Y-124242489D01*
X97239496Y-124311647D01*
X97210471Y-124375203D01*
X97204439Y-124381681D01*
X95987181Y-125598939D01*
X95925858Y-125632424D01*
X95856166Y-125627440D01*
X95800233Y-125585568D01*
X95775816Y-125520104D01*
X95775500Y-125511258D01*
X95775500Y-123890274D01*
X95795185Y-123823235D01*
X95847989Y-123777480D01*
X95917147Y-123767536D01*
X95980703Y-123796561D01*
G37*
%TD.AperFunction*%
%TA.AperFunction,Conductor*%
G36*
X100564382Y-119115185D02*
G01*
X100610137Y-119167989D01*
X100614385Y-119178546D01*
X100614631Y-119179250D01*
X100614632Y-119179255D01*
X100651857Y-119285639D01*
X100674210Y-119349521D01*
X100770034Y-119502024D01*
X100770184Y-119502262D01*
X100897738Y-119629816D01*
X100947130Y-119660851D01*
X101050477Y-119725789D01*
X101095124Y-119741411D01*
X101118259Y-119749506D01*
X101164987Y-119778867D01*
X101798438Y-120412318D01*
X101831923Y-120473641D01*
X101826939Y-120543333D01*
X101798438Y-120587680D01*
X98745015Y-123641104D01*
X98683692Y-123674589D01*
X98614000Y-123669605D01*
X98558067Y-123627733D01*
X98533650Y-123562269D01*
X98533334Y-123553423D01*
X98533334Y-123270000D01*
X97132334Y-123270000D01*
X97065295Y-123250315D01*
X97019540Y-123197511D01*
X97008334Y-123146000D01*
X97008334Y-122770000D01*
X97508334Y-122770000D01*
X98533334Y-122770000D01*
X98533334Y-122322172D01*
X98533333Y-122322155D01*
X98526932Y-122262627D01*
X98526930Y-122262620D01*
X98476688Y-122127913D01*
X98476684Y-122127906D01*
X98390524Y-122012812D01*
X98390521Y-122012809D01*
X98275427Y-121926649D01*
X98275420Y-121926645D01*
X98140713Y-121876403D01*
X98140706Y-121876401D01*
X98081178Y-121870000D01*
X97508334Y-121870000D01*
X97508334Y-122770000D01*
X97008334Y-122770000D01*
X97008334Y-121870000D01*
X96435489Y-121870000D01*
X96375961Y-121876401D01*
X96375954Y-121876403D01*
X96241247Y-121926645D01*
X96241240Y-121926649D01*
X96126146Y-122012809D01*
X96126143Y-122012812D01*
X96039983Y-122127906D01*
X96039979Y-122127913D01*
X96015682Y-122193058D01*
X95973810Y-122248992D01*
X95908346Y-122273409D01*
X95840073Y-122258557D01*
X95790668Y-122209152D01*
X95775500Y-122149725D01*
X95775500Y-119391703D01*
X95795185Y-119324664D01*
X95847989Y-119278909D01*
X95917147Y-119268965D01*
X95980703Y-119297990D01*
X96015682Y-119348370D01*
X96039536Y-119412328D01*
X96039540Y-119412335D01*
X96125786Y-119527544D01*
X96125789Y-119527547D01*
X96240998Y-119613793D01*
X96241005Y-119613797D01*
X96375851Y-119664091D01*
X96375850Y-119664091D01*
X96382778Y-119664835D01*
X96435461Y-119670500D01*
X98081206Y-119670499D01*
X98140817Y-119664091D01*
X98275665Y-119613796D01*
X98390880Y-119527546D01*
X98477130Y-119412331D01*
X98527425Y-119277483D01*
X98533834Y-119217873D01*
X98533834Y-119217845D01*
X98534012Y-119214548D01*
X98535268Y-119214615D01*
X98553519Y-119152461D01*
X98606323Y-119106706D01*
X98657834Y-119095500D01*
X100497343Y-119095500D01*
X100564382Y-119115185D01*
G37*
%TD.AperFunction*%
%TA.AperFunction,Conductor*%
G36*
X100384234Y-114132158D02*
G01*
X100428581Y-114160659D01*
X100430571Y-114162649D01*
X100464056Y-114223972D01*
X100459932Y-114291285D01*
X100414631Y-114420745D01*
X100414630Y-114420750D01*
X100394435Y-114599996D01*
X100394435Y-114600003D01*
X100414630Y-114779249D01*
X100414631Y-114779254D01*
X100474211Y-114949523D01*
X100570184Y-115102262D01*
X100697738Y-115229816D01*
X100765695Y-115272516D01*
X100847533Y-115323939D01*
X100850478Y-115325789D01*
X100959430Y-115363913D01*
X101020745Y-115385368D01*
X101020750Y-115385369D01*
X101199996Y-115405565D01*
X101200000Y-115405565D01*
X101200004Y-115405565D01*
X101379249Y-115385369D01*
X101379252Y-115385368D01*
X101379255Y-115385368D01*
X101549522Y-115325789D01*
X101702262Y-115229816D01*
X101720259Y-115211819D01*
X101781582Y-115178334D01*
X101807940Y-115175500D01*
X103680974Y-115175500D01*
X103748013Y-115195185D01*
X103793768Y-115247989D01*
X103804194Y-115313384D01*
X103794435Y-115399997D01*
X103794435Y-115400003D01*
X103814630Y-115579249D01*
X103814631Y-115579254D01*
X103874211Y-115749523D01*
X103967341Y-115897737D01*
X103970184Y-115902262D01*
X104097738Y-116029816D01*
X104151451Y-116063566D01*
X104248257Y-116124394D01*
X104250478Y-116125789D01*
X104341646Y-116157690D01*
X104420745Y-116185368D01*
X104420750Y-116185369D01*
X104599996Y-116205565D01*
X104600000Y-116205565D01*
X104600004Y-116205565D01*
X104779249Y-116185369D01*
X104779252Y-116185368D01*
X104779255Y-116185368D01*
X104949522Y-116125789D01*
X104951743Y-116124394D01*
X105029354Y-116075627D01*
X105074228Y-116047430D01*
X105141464Y-116028430D01*
X105208299Y-116048797D01*
X105253514Y-116102065D01*
X105263671Y-116163865D01*
X105247163Y-116342023D01*
X105244571Y-116370000D01*
X105264244Y-116582310D01*
X105319916Y-116777975D01*
X105322596Y-116787392D01*
X105322596Y-116787394D01*
X105417632Y-116978253D01*
X105546127Y-117148406D01*
X105552114Y-117153864D01*
X105588394Y-117213576D01*
X105586632Y-117283424D01*
X105547388Y-117341231D01*
X105483121Y-117368644D01*
X105468574Y-117369500D01*
X104385463Y-117369500D01*
X104385457Y-117369501D01*
X104325850Y-117375908D01*
X104191005Y-117426202D01*
X104190998Y-117426206D01*
X104075789Y-117512452D01*
X104075786Y-117512455D01*
X103989540Y-117627664D01*
X103989536Y-117627671D01*
X103939242Y-117762517D01*
X103933291Y-117817872D01*
X103932835Y-117822123D01*
X103932656Y-117825452D01*
X103931399Y-117825384D01*
X103913149Y-117887539D01*
X103860345Y-117933294D01*
X103808834Y-117944500D01*
X98657833Y-117944500D01*
X98590794Y-117924815D01*
X98545039Y-117872011D01*
X98534896Y-117825388D01*
X98534234Y-117825423D01*
X98534188Y-117825429D01*
X98534187Y-117825426D01*
X98534010Y-117825436D01*
X98533833Y-117822135D01*
X98533833Y-117822128D01*
X98527425Y-117762517D01*
X98518867Y-117739573D01*
X98494408Y-117673994D01*
X98489424Y-117604303D01*
X98522909Y-117542980D01*
X98584232Y-117509495D01*
X98633375Y-117508772D01*
X98693439Y-117520000D01*
X98906561Y-117520000D01*
X99116058Y-117480837D01*
X99116063Y-117480836D01*
X99314791Y-117403849D01*
X99314798Y-117403846D01*
X99417006Y-117340560D01*
X99417006Y-117340559D01*
X98846448Y-116770000D01*
X98852661Y-116770000D01*
X98954394Y-116742741D01*
X99045606Y-116690080D01*
X99120080Y-116615606D01*
X99172741Y-116524394D01*
X99200000Y-116422661D01*
X99200000Y-116416447D01*
X99773162Y-116989609D01*
X99773163Y-116989609D01*
X99781940Y-116977988D01*
X99781942Y-116977985D01*
X99876933Y-116787216D01*
X99876940Y-116787199D01*
X99884843Y-116759420D01*
X99922120Y-116700326D01*
X99985429Y-116670766D01*
X100054669Y-116680126D01*
X100091791Y-116705670D01*
X100135144Y-116749023D01*
X100135154Y-116749034D01*
X100139484Y-116753364D01*
X100139485Y-116753365D01*
X100246635Y-116860515D01*
X100377865Y-116936281D01*
X100524233Y-116975500D01*
X100524234Y-116975500D01*
X101792060Y-116975500D01*
X101859099Y-116995185D01*
X101879741Y-117011819D01*
X101897738Y-117029816D01*
X101925104Y-117047011D01*
X102005833Y-117097737D01*
X102050478Y-117125789D01*
X102203258Y-117179249D01*
X102220745Y-117185368D01*
X102220750Y-117185369D01*
X102399996Y-117205565D01*
X102400000Y-117205565D01*
X102400004Y-117205565D01*
X102579249Y-117185369D01*
X102579252Y-117185368D01*
X102579255Y-117185368D01*
X102749522Y-117125789D01*
X102902262Y-117029816D01*
X103029816Y-116902262D01*
X103125789Y-116749522D01*
X103185368Y-116579255D01*
X103185369Y-116579249D01*
X103205565Y-116400003D01*
X103205565Y-116399996D01*
X103185369Y-116220750D01*
X103185368Y-116220745D01*
X103173623Y-116187181D01*
X103125789Y-116050478D01*
X103125438Y-116049920D01*
X103056047Y-115939485D01*
X103029816Y-115897738D01*
X102902262Y-115770184D01*
X102834592Y-115727664D01*
X102749523Y-115674211D01*
X102579254Y-115614631D01*
X102579249Y-115614630D01*
X102400004Y-115594435D01*
X102399996Y-115594435D01*
X102220750Y-115614630D01*
X102220745Y-115614631D01*
X102050476Y-115674211D01*
X101897737Y-115770184D01*
X101879741Y-115788181D01*
X101818418Y-115821666D01*
X101792060Y-115824500D01*
X100889741Y-115824500D01*
X100822702Y-115804815D01*
X100802060Y-115788181D01*
X100235190Y-115221310D01*
X100201705Y-115159987D01*
X100199651Y-115147512D01*
X100185369Y-115020750D01*
X100185368Y-115020745D01*
X100159418Y-114946584D01*
X100125789Y-114850478D01*
X100107106Y-114820745D01*
X100063918Y-114752011D01*
X100029816Y-114697738D01*
X99960659Y-114628581D01*
X99927174Y-114567258D01*
X99932158Y-114497566D01*
X99960659Y-114453219D01*
X100253219Y-114160659D01*
X100314542Y-114127174D01*
X100384234Y-114132158D01*
G37*
%TD.AperFunction*%
%TA.AperFunction,Conductor*%
G36*
X98400000Y-116422661D02*
G01*
X98427259Y-116524394D01*
X98479920Y-116615606D01*
X98554394Y-116690080D01*
X98645606Y-116742741D01*
X98747339Y-116770000D01*
X98753553Y-116770000D01*
X98188929Y-117334621D01*
X98127606Y-117368106D01*
X98087999Y-117370230D01*
X98081213Y-117369500D01*
X98081207Y-117369500D01*
X97343741Y-117369500D01*
X97276702Y-117349815D01*
X97230947Y-117297011D01*
X97221003Y-117227853D01*
X97250028Y-117164297D01*
X97256045Y-117157833D01*
X97569162Y-116844716D01*
X97630480Y-116811235D01*
X97700171Y-116816219D01*
X97756105Y-116858090D01*
X97767838Y-116877129D01*
X97818061Y-116977991D01*
X97818064Y-116977996D01*
X97826836Y-116989610D01*
X98400000Y-116416446D01*
X98400000Y-116422661D01*
G37*
%TD.AperFunction*%
%TA.AperFunction,Conductor*%
G36*
X106961095Y-99882081D02*
G01*
X106989350Y-99903233D01*
X107039482Y-99953365D01*
X107146632Y-100060515D01*
X107277862Y-100136281D01*
X107364826Y-100159582D01*
X107424486Y-100195947D01*
X107455015Y-100258794D01*
X107449774Y-100320310D01*
X107433877Y-100365743D01*
X107393156Y-100422520D01*
X107357795Y-100441830D01*
X107336700Y-100449212D01*
X107183959Y-100545186D01*
X107134545Y-100594600D01*
X107073222Y-100628084D01*
X107005913Y-100623960D01*
X106979255Y-100614632D01*
X106979251Y-100614631D01*
X106979247Y-100614630D01*
X106800004Y-100594435D01*
X106799996Y-100594435D01*
X106620746Y-100614631D01*
X106620745Y-100614631D01*
X106507761Y-100654165D01*
X106438299Y-100657801D01*
X106432377Y-100656402D01*
X106372844Y-100650000D01*
X105600000Y-100650000D01*
X105600000Y-102550000D01*
X106372828Y-102550000D01*
X106372844Y-102549999D01*
X106432372Y-102543598D01*
X106432379Y-102543596D01*
X106567086Y-102493354D01*
X106567093Y-102493350D01*
X106682187Y-102407190D01*
X106682190Y-102407187D01*
X106768351Y-102292092D01*
X106772479Y-102281024D01*
X106814348Y-102225088D01*
X106879811Y-102200668D01*
X106948085Y-102215517D01*
X106976344Y-102236671D01*
X108772022Y-104032349D01*
X108805507Y-104093672D01*
X108800523Y-104163364D01*
X108758651Y-104219297D01*
X108693187Y-104243714D01*
X108643387Y-104237072D01*
X108579257Y-104214632D01*
X108579249Y-104214630D01*
X108400004Y-104194435D01*
X108399996Y-104194435D01*
X108220750Y-104214630D01*
X108220745Y-104214631D01*
X108050476Y-104274211D01*
X107897737Y-104370184D01*
X107770184Y-104497737D01*
X107674210Y-104650478D01*
X107614629Y-104820751D01*
X107613817Y-104824311D01*
X107612637Y-104826445D01*
X107612332Y-104827318D01*
X107612183Y-104827266D01*
X107600000Y-104849309D01*
X107600000Y-104943647D01*
X107599220Y-104957531D01*
X107594435Y-104999998D01*
X107594435Y-105000002D01*
X107599220Y-105042468D01*
X107600000Y-105056352D01*
X107600000Y-107335000D01*
X107907828Y-107335000D01*
X107907844Y-107334999D01*
X107967372Y-107328598D01*
X107967379Y-107328596D01*
X108102086Y-107278354D01*
X108102093Y-107278350D01*
X108217186Y-107192190D01*
X108235428Y-107167824D01*
X108291362Y-107125953D01*
X108361054Y-107120969D01*
X108422376Y-107154454D01*
X108497738Y-107229816D01*
X108543115Y-107258328D01*
X108608260Y-107299262D01*
X108650478Y-107325789D01*
X108719901Y-107350081D01*
X108820745Y-107385368D01*
X108820750Y-107385369D01*
X108947512Y-107399651D01*
X109011926Y-107426717D01*
X109021310Y-107435190D01*
X109079485Y-107493365D01*
X109186635Y-107600515D01*
X109271800Y-107649685D01*
X109320015Y-107700252D01*
X109333237Y-107768860D01*
X109307269Y-107833724D01*
X109256265Y-107870176D01*
X109256753Y-107871188D01*
X109250917Y-107873998D01*
X109250760Y-107874111D01*
X109250481Y-107874208D01*
X109097737Y-107970184D01*
X109079741Y-107988181D01*
X109018418Y-108021666D01*
X108992060Y-108024500D01*
X103924233Y-108024500D01*
X103807547Y-108055765D01*
X103807546Y-108055766D01*
X103777865Y-108063719D01*
X103777864Y-108063719D01*
X103777862Y-108063720D01*
X103646635Y-108139485D01*
X103646632Y-108139487D01*
X103387181Y-108398939D01*
X103325858Y-108432424D01*
X103256166Y-108427440D01*
X103200233Y-108385568D01*
X103175816Y-108320104D01*
X103175500Y-108311258D01*
X103175500Y-107407940D01*
X103195185Y-107340901D01*
X103211819Y-107320259D01*
X103213520Y-107318558D01*
X103229816Y-107302262D01*
X103325789Y-107149522D01*
X103385368Y-106979255D01*
X103386048Y-106973226D01*
X103401552Y-106835617D01*
X103428618Y-106771203D01*
X103486213Y-106731648D01*
X103524772Y-106725500D01*
X104615501Y-106725500D01*
X104682540Y-106745185D01*
X104728295Y-106797989D01*
X104739501Y-106849500D01*
X104739501Y-106882876D01*
X104745908Y-106942483D01*
X104796202Y-107077328D01*
X104796206Y-107077335D01*
X104882452Y-107192544D01*
X104882455Y-107192547D01*
X104997664Y-107278793D01*
X104997671Y-107278797D01*
X105132517Y-107329091D01*
X105132516Y-107329091D01*
X105139444Y-107329835D01*
X105192127Y-107335500D01*
X106307872Y-107335499D01*
X106367483Y-107329091D01*
X106502331Y-107278796D01*
X106502335Y-107278792D01*
X106507380Y-107276911D01*
X106577071Y-107271927D01*
X106594048Y-107276911D01*
X106732623Y-107328597D01*
X106732627Y-107328598D01*
X106792155Y-107334999D01*
X106792172Y-107335000D01*
X107100000Y-107335000D01*
X107100000Y-104865000D01*
X106812398Y-104865000D01*
X106745359Y-104845315D01*
X106699604Y-104792511D01*
X106689660Y-104723353D01*
X106713132Y-104666689D01*
X106768793Y-104592335D01*
X106768792Y-104592335D01*
X106768796Y-104592331D01*
X106819091Y-104457483D01*
X106825500Y-104397873D01*
X106825499Y-103402128D01*
X106819091Y-103342517D01*
X106805985Y-103307379D01*
X106768797Y-103207671D01*
X106768793Y-103207664D01*
X106682547Y-103092455D01*
X106682544Y-103092452D01*
X106567335Y-103006206D01*
X106567328Y-103006202D01*
X106432482Y-102955908D01*
X106432483Y-102955908D01*
X106372883Y-102949501D01*
X106372881Y-102949500D01*
X106372873Y-102949500D01*
X106372864Y-102949500D01*
X104327129Y-102949500D01*
X104327121Y-102949501D01*
X104299251Y-102952497D01*
X104230491Y-102940089D01*
X104179355Y-102892478D01*
X104161999Y-102829207D01*
X104161999Y-102670288D01*
X104181684Y-102603249D01*
X104234488Y-102557494D01*
X104299256Y-102546999D01*
X104327158Y-102549999D01*
X104327172Y-102550000D01*
X105100000Y-102550000D01*
X105100000Y-100650000D01*
X105079975Y-100629975D01*
X105046490Y-100568652D01*
X105051474Y-100498960D01*
X105079971Y-100454617D01*
X105247773Y-100286815D01*
X105309094Y-100253333D01*
X105335452Y-100250499D01*
X106372871Y-100250499D01*
X106372872Y-100250499D01*
X106432483Y-100244091D01*
X106567331Y-100193796D01*
X106682546Y-100107546D01*
X106768796Y-99992331D01*
X106773062Y-99980892D01*
X106785487Y-99947581D01*
X106827358Y-99891647D01*
X106892822Y-99867230D01*
X106961095Y-99882081D01*
G37*
%TD.AperFunction*%
%TA.AperFunction,Conductor*%
G36*
X100083797Y-93489685D02*
G01*
X100129552Y-93542489D01*
X100139496Y-93611647D01*
X100110471Y-93675203D01*
X100104439Y-93681681D01*
X99139487Y-94646632D01*
X99139485Y-94646635D01*
X99063719Y-94777863D01*
X99024500Y-94924234D01*
X99024500Y-96880861D01*
X99004815Y-96947900D01*
X98952011Y-96993655D01*
X98914383Y-97004081D01*
X98820750Y-97014630D01*
X98820745Y-97014631D01*
X98650476Y-97074211D01*
X98497737Y-97170184D01*
X98370184Y-97297737D01*
X98274211Y-97450476D01*
X98214631Y-97620745D01*
X98214630Y-97620750D01*
X98194435Y-97799996D01*
X98194435Y-97800003D01*
X98214630Y-97979249D01*
X98214631Y-97979254D01*
X98274211Y-98149523D01*
X98370184Y-98302262D01*
X98388181Y-98320259D01*
X98421666Y-98381582D01*
X98424500Y-98407940D01*
X98424500Y-99875901D01*
X98404815Y-99942940D01*
X98352011Y-99988695D01*
X98282853Y-99998639D01*
X98219297Y-99969614D01*
X98212819Y-99963582D01*
X98200523Y-99951286D01*
X98200520Y-99951284D01*
X98088717Y-99839481D01*
X98088716Y-99839480D01*
X97989938Y-99782451D01*
X97989937Y-99782450D01*
X97975971Y-99774387D01*
X97951785Y-99760423D01*
X97951782Y-99760422D01*
X97951779Y-99760420D01*
X97912404Y-99749870D01*
X97852744Y-99713505D01*
X97822216Y-99650658D01*
X97820499Y-99630096D01*
X97820499Y-99622128D01*
X97820498Y-99622111D01*
X97816320Y-99583253D01*
X97816320Y-99556747D01*
X97820500Y-99517873D01*
X97820499Y-99122128D01*
X97819224Y-99110268D01*
X97819774Y-99079369D01*
X97835500Y-98970000D01*
X97835500Y-98370000D01*
X97835153Y-98363536D01*
X97833096Y-98325163D01*
X97832603Y-98315959D01*
X97826812Y-98293271D01*
X97824222Y-98244957D01*
X97834999Y-98169999D01*
X97823756Y-98157023D01*
X97800909Y-98150315D01*
X97759116Y-98105427D01*
X97742303Y-98074636D01*
X97644261Y-97969329D01*
X97644260Y-97969328D01*
X97644259Y-97969327D01*
X97644259Y-97969326D01*
X97520525Y-97895910D01*
X97513452Y-97892981D01*
X97513431Y-97892973D01*
X97462417Y-97874976D01*
X97427807Y-97870000D01*
X97427807Y-97869999D01*
X97320000Y-97854500D01*
X96861201Y-97854500D01*
X96794162Y-97834815D01*
X96748407Y-97782011D01*
X96737201Y-97730500D01*
X96737201Y-97694000D01*
X96756886Y-97626961D01*
X96809690Y-97581206D01*
X96861201Y-97570000D01*
X97835000Y-97570000D01*
X97835000Y-97569999D01*
X97832106Y-97516011D01*
X97796557Y-97376740D01*
X97793628Y-97369669D01*
X97741893Y-97274923D01*
X97694505Y-97224023D01*
X97663231Y-97161543D01*
X97670700Y-97092075D01*
X97691569Y-97041691D01*
X97699862Y-97000000D01*
X96896988Y-97000000D01*
X96914205Y-96990060D01*
X96970060Y-96934205D01*
X97009556Y-96865796D01*
X97030000Y-96789496D01*
X97030000Y-96710504D01*
X97009556Y-96634204D01*
X96970060Y-96565795D01*
X96914205Y-96509940D01*
X96896988Y-96500000D01*
X97699862Y-96500000D01*
X97691569Y-96458309D01*
X97691569Y-96458307D01*
X97616192Y-96276328D01*
X97616185Y-96276315D01*
X97506751Y-96112537D01*
X97506748Y-96112533D01*
X97367466Y-95973251D01*
X97367462Y-95973248D01*
X97203684Y-95863814D01*
X97203671Y-95863807D01*
X97021693Y-95788430D01*
X97021681Y-95788427D01*
X96837010Y-95751694D01*
X96775099Y-95719309D01*
X96740525Y-95658594D01*
X96739053Y-95645969D01*
X96737201Y-95644117D01*
X95599721Y-95644117D01*
X95595792Y-95648045D01*
X95580036Y-95701706D01*
X95527232Y-95747461D01*
X95499912Y-95756284D01*
X95338318Y-95788427D01*
X95338306Y-95788430D01*
X95156328Y-95863807D01*
X95156315Y-95863814D01*
X94992537Y-95973248D01*
X94992533Y-95973251D01*
X94853251Y-96112533D01*
X94853248Y-96112537D01*
X94743814Y-96276315D01*
X94743807Y-96276328D01*
X94668430Y-96458307D01*
X94668430Y-96458309D01*
X94660138Y-96500000D01*
X95463012Y-96500000D01*
X95445795Y-96509940D01*
X95389940Y-96565795D01*
X95350444Y-96634204D01*
X95330000Y-96710504D01*
X95330000Y-96789496D01*
X95350444Y-96865796D01*
X95389940Y-96934205D01*
X95445795Y-96990060D01*
X95463012Y-97000000D01*
X94660138Y-97000000D01*
X94668430Y-97041690D01*
X94668430Y-97041692D01*
X94743807Y-97223671D01*
X94743814Y-97223684D01*
X94853248Y-97387462D01*
X94853251Y-97387466D01*
X94992533Y-97526748D01*
X94992537Y-97526751D01*
X95156315Y-97636185D01*
X95156328Y-97636192D01*
X95264197Y-97680872D01*
X95318601Y-97724712D01*
X95340666Y-97791006D01*
X95323387Y-97858706D01*
X95304430Y-97883110D01*
X95299508Y-97888032D01*
X95299504Y-97888037D01*
X95236905Y-97996463D01*
X95230399Y-98020745D01*
X95204500Y-98117399D01*
X95204500Y-98242601D01*
X95223040Y-98311792D01*
X95236905Y-98363536D01*
X95299504Y-98471962D01*
X95299506Y-98471965D01*
X95328793Y-98501252D01*
X95362278Y-98562575D01*
X95357294Y-98632267D01*
X95328794Y-98676614D01*
X95282571Y-98722838D01*
X95067227Y-98938182D01*
X95005907Y-98971666D01*
X94979548Y-98974500D01*
X94338393Y-98974500D01*
X94321475Y-98977865D01*
X94321474Y-98977864D01*
X94217555Y-98998535D01*
X94217548Y-98998537D01*
X94199871Y-99005859D01*
X94199870Y-99005858D01*
X94103718Y-99045685D01*
X94103714Y-99045687D01*
X94089363Y-99055277D01*
X94060878Y-99074311D01*
X94001268Y-99114140D01*
X93957705Y-99157703D01*
X93914142Y-99201267D01*
X93914139Y-99201270D01*
X93401270Y-99714139D01*
X93401267Y-99714142D01*
X93379129Y-99736280D01*
X93314140Y-99801268D01*
X93296583Y-99827545D01*
X93245689Y-99903712D01*
X93245685Y-99903719D01*
X93218025Y-99970499D01*
X93198538Y-100017544D01*
X93198535Y-100017556D01*
X93189990Y-100060514D01*
X93189991Y-100060515D01*
X93177317Y-100124234D01*
X93174500Y-100138394D01*
X93174500Y-101738393D01*
X93174500Y-101861607D01*
X93181949Y-101899057D01*
X93193257Y-101955909D01*
X93198537Y-101982453D01*
X93198538Y-101982455D01*
X93211063Y-102012691D01*
X93211064Y-102012695D01*
X93245686Y-102096283D01*
X93245688Y-102096287D01*
X93249681Y-102102262D01*
X93262953Y-102122124D01*
X93262954Y-102122127D01*
X93262955Y-102122127D01*
X93314141Y-102198732D01*
X93314144Y-102198736D01*
X93405586Y-102290178D01*
X93405608Y-102290198D01*
X94711016Y-103595606D01*
X94711045Y-103595637D01*
X94801264Y-103685856D01*
X94801267Y-103685858D01*
X94852490Y-103720084D01*
X94903714Y-103754312D01*
X94984207Y-103787652D01*
X95017548Y-103801463D01*
X95066692Y-103811238D01*
X95104693Y-103818796D01*
X95166602Y-103851180D01*
X95201176Y-103911896D01*
X95204500Y-103940413D01*
X95204500Y-104022601D01*
X95236905Y-104143536D01*
X95296880Y-104247418D01*
X95299504Y-104251962D01*
X95299506Y-104251965D01*
X95304426Y-104256885D01*
X95337911Y-104318208D01*
X95332927Y-104387900D01*
X95291055Y-104443833D01*
X95264198Y-104459127D01*
X95156325Y-104503809D01*
X95156315Y-104503814D01*
X94992537Y-104613248D01*
X94992533Y-104613251D01*
X94853251Y-104752533D01*
X94853248Y-104752537D01*
X94743814Y-104916315D01*
X94743807Y-104916328D01*
X94668430Y-105098307D01*
X94668430Y-105098309D01*
X94660138Y-105140000D01*
X95463012Y-105140000D01*
X95445795Y-105149940D01*
X95389940Y-105205795D01*
X95350444Y-105274204D01*
X95330000Y-105350504D01*
X95330000Y-105429496D01*
X95350444Y-105505796D01*
X95389940Y-105574205D01*
X95445795Y-105630060D01*
X95463012Y-105640000D01*
X94660138Y-105640000D01*
X94668430Y-105681690D01*
X94668430Y-105681692D01*
X94743807Y-105863671D01*
X94743814Y-105863684D01*
X94840145Y-106007852D01*
X94861023Y-106074529D01*
X94842539Y-106141910D01*
X94790560Y-106188600D01*
X94750927Y-106199963D01*
X94682917Y-106207626D01*
X94614095Y-106195572D01*
X94562715Y-106148223D01*
X94551991Y-106125360D01*
X94551099Y-106122812D01*
X94525789Y-106050478D01*
X94429816Y-105897738D01*
X94302262Y-105770184D01*
X94149523Y-105674211D01*
X93979254Y-105614631D01*
X93979249Y-105614630D01*
X93800004Y-105594435D01*
X93799996Y-105594435D01*
X93620750Y-105614630D01*
X93620742Y-105614632D01*
X93491477Y-105659864D01*
X93421698Y-105663425D01*
X93380805Y-105640000D01*
X92661201Y-105640000D01*
X92594162Y-105620315D01*
X92594063Y-105620201D01*
X92640060Y-105574205D01*
X92679556Y-105505796D01*
X92700000Y-105429496D01*
X92700000Y-105350504D01*
X92679556Y-105274204D01*
X92640060Y-105205795D01*
X92596714Y-105162449D01*
X92609690Y-105151206D01*
X92661201Y-105140000D01*
X93369862Y-105140000D01*
X93361569Y-105098309D01*
X93361569Y-105098307D01*
X93286192Y-104916328D01*
X93286185Y-104916315D01*
X93176751Y-104752537D01*
X93176748Y-104752533D01*
X93037466Y-104613251D01*
X93037462Y-104613248D01*
X92873684Y-104503814D01*
X92873671Y-104503807D01*
X92691693Y-104428430D01*
X92691683Y-104428427D01*
X92637009Y-104417552D01*
X92575099Y-104385167D01*
X92540524Y-104324451D01*
X92537201Y-104295935D01*
X92537201Y-104244117D01*
X91399721Y-104244117D01*
X91349500Y-104244117D01*
X91282461Y-104224432D01*
X91236706Y-104171628D01*
X91225500Y-104120117D01*
X91225500Y-98019141D01*
X91245185Y-97952102D01*
X91297989Y-97906347D01*
X91349500Y-97895141D01*
X92537201Y-97895141D01*
X92537201Y-97844064D01*
X92556886Y-97777025D01*
X92609690Y-97731270D01*
X92637011Y-97722446D01*
X92691689Y-97711570D01*
X92691690Y-97711570D01*
X92873671Y-97636192D01*
X92873684Y-97636185D01*
X93037462Y-97526751D01*
X93037466Y-97526748D01*
X93176748Y-97387466D01*
X93176751Y-97387462D01*
X93286185Y-97223684D01*
X93286192Y-97223671D01*
X93361569Y-97041692D01*
X93361569Y-97041690D01*
X93369862Y-97000000D01*
X92661201Y-97000000D01*
X92594162Y-96980315D01*
X92594063Y-96980201D01*
X92640060Y-96934205D01*
X92679556Y-96865796D01*
X92700000Y-96789496D01*
X92700000Y-96710504D01*
X92679556Y-96634204D01*
X92640060Y-96565795D01*
X92596714Y-96522449D01*
X92609690Y-96511206D01*
X92661201Y-96500000D01*
X93369862Y-96500000D01*
X93361569Y-96458309D01*
X93361569Y-96458307D01*
X93286192Y-96276328D01*
X93286185Y-96276315D01*
X93176751Y-96112537D01*
X93176748Y-96112533D01*
X93037466Y-95973251D01*
X93037462Y-95973248D01*
X92873684Y-95863814D01*
X92873671Y-95863807D01*
X92691693Y-95788430D01*
X92691683Y-95788427D01*
X92637009Y-95777552D01*
X92575099Y-95745167D01*
X92540524Y-95684451D01*
X92537201Y-95655935D01*
X92537201Y-95644117D01*
X92536106Y-95643022D01*
X92472796Y-95624432D01*
X92427041Y-95571628D01*
X92417097Y-95502470D01*
X92446122Y-95438914D01*
X92452154Y-95432436D01*
X94378271Y-93506319D01*
X94439594Y-93472834D01*
X94465952Y-93470000D01*
X100016758Y-93470000D01*
X100083797Y-93489685D01*
G37*
%TD.AperFunction*%
%TA.AperFunction,Conductor*%
G36*
X109918039Y-100195185D02*
G01*
X109963794Y-100247989D01*
X109975000Y-100299500D01*
X109975000Y-101350000D01*
X112925000Y-101350000D01*
X112925000Y-100299500D01*
X112944685Y-100232461D01*
X112997489Y-100186706D01*
X113049000Y-100175500D01*
X113110258Y-100175500D01*
X113177297Y-100195185D01*
X113197939Y-100211819D01*
X113246635Y-100260515D01*
X113350203Y-100320310D01*
X113377865Y-100336281D01*
X113385369Y-100339389D01*
X113384378Y-100341781D01*
X113433042Y-100371429D01*
X113463584Y-100434270D01*
X113458347Y-100495812D01*
X113414632Y-100620742D01*
X113414630Y-100620750D01*
X113394435Y-100799996D01*
X113394435Y-100800003D01*
X113414630Y-100979249D01*
X113414631Y-100979254D01*
X113474211Y-101149523D01*
X113537646Y-101250478D01*
X113570184Y-101302262D01*
X113697738Y-101429816D01*
X113766473Y-101473005D01*
X113812763Y-101525337D01*
X113824500Y-101577997D01*
X113824500Y-103192060D01*
X113804815Y-103259099D01*
X113788181Y-103279741D01*
X113770184Y-103297737D01*
X113674211Y-103450476D01*
X113614631Y-103620745D01*
X113614630Y-103620750D01*
X113604081Y-103714383D01*
X113577015Y-103778797D01*
X113519420Y-103818353D01*
X113480861Y-103824500D01*
X112797664Y-103824500D01*
X112730625Y-103804815D01*
X112684870Y-103752011D01*
X112674926Y-103682853D01*
X112703951Y-103619297D01*
X112723353Y-103601233D01*
X112782190Y-103557186D01*
X112868350Y-103442093D01*
X112868354Y-103442086D01*
X112918596Y-103307379D01*
X112918598Y-103307372D01*
X112924999Y-103247844D01*
X112925000Y-103247827D01*
X112925000Y-101850000D01*
X109975000Y-101850000D01*
X109975000Y-101936758D01*
X109955315Y-102003797D01*
X109902511Y-102049552D01*
X109833353Y-102059496D01*
X109769797Y-102030471D01*
X109763319Y-102024439D01*
X108904110Y-101165230D01*
X108870625Y-101103907D01*
X108875609Y-101034215D01*
X108886798Y-101011576D01*
X108925788Y-100949524D01*
X108934069Y-100925858D01*
X108985368Y-100779255D01*
X108985369Y-100779249D01*
X109005565Y-100600003D01*
X109005565Y-100599996D01*
X108985369Y-100420750D01*
X108985366Y-100420737D01*
X108957274Y-100340455D01*
X108953712Y-100270676D01*
X108988440Y-100210049D01*
X109050434Y-100177821D01*
X109074315Y-100175500D01*
X109851000Y-100175500D01*
X109918039Y-100195185D01*
G37*
%TD.AperFunction*%
%TA.AperFunction,Conductor*%
G36*
X109717539Y-93645185D02*
G01*
X109763294Y-93697989D01*
X109774500Y-93749500D01*
X109774500Y-95455145D01*
X109755494Y-95521116D01*
X109705929Y-95600000D01*
X109701548Y-95606972D01*
X109649214Y-95653263D01*
X109596554Y-95665000D01*
X109450000Y-95665000D01*
X109450000Y-97026000D01*
X109430315Y-97093039D01*
X109377511Y-97138794D01*
X109326000Y-97150000D01*
X109074000Y-97150000D01*
X109006961Y-97130315D01*
X108961206Y-97077511D01*
X108950000Y-97026000D01*
X108950000Y-95665000D01*
X108642155Y-95665000D01*
X108582627Y-95671401D01*
X108582617Y-95671403D01*
X108444045Y-95723087D01*
X108374354Y-95728071D01*
X108357380Y-95723087D01*
X108306167Y-95703986D01*
X108250233Y-95662115D01*
X108225816Y-95596651D01*
X108225500Y-95587804D01*
X108225500Y-94510452D01*
X108245185Y-94443413D01*
X108261819Y-94422771D01*
X108454775Y-94229815D01*
X108658380Y-94026209D01*
X108719701Y-93992726D01*
X108732158Y-93990674D01*
X108779255Y-93985368D01*
X108949522Y-93925789D01*
X109102262Y-93829816D01*
X109229816Y-93702262D01*
X109241587Y-93683527D01*
X109293922Y-93637237D01*
X109346581Y-93625500D01*
X109650500Y-93625500D01*
X109717539Y-93645185D01*
G37*
%TD.AperFunction*%
%TA.AperFunction,Conductor*%
G36*
X120640161Y-84260185D02*
G01*
X120685916Y-84312989D01*
X120695860Y-84382147D01*
X120683856Y-84416836D01*
X120685186Y-84417456D01*
X120682898Y-84422360D01*
X120682898Y-84422362D01*
X120638523Y-84517525D01*
X120590426Y-84620668D01*
X120590422Y-84620677D01*
X120533793Y-84832020D01*
X120533793Y-84832023D01*
X120514723Y-85050000D01*
X120530857Y-85234419D01*
X120531319Y-85239693D01*
X120517552Y-85308193D01*
X120468937Y-85358376D01*
X120407791Y-85374500D01*
X119738389Y-85374500D01*
X119677971Y-85386518D01*
X119617548Y-85398537D01*
X119617546Y-85398537D01*
X119617545Y-85398538D01*
X119617543Y-85398538D01*
X119588666Y-85410500D01*
X119503715Y-85445686D01*
X119493627Y-85452428D01*
X119493626Y-85452429D01*
X119401268Y-85514140D01*
X119377777Y-85537632D01*
X119314142Y-85601267D01*
X119314139Y-85601270D01*
X118601270Y-86314139D01*
X118601267Y-86314142D01*
X118557704Y-86357704D01*
X118514142Y-86401266D01*
X118492789Y-86433224D01*
X118492788Y-86433225D01*
X118445690Y-86503709D01*
X118445688Y-86503713D01*
X118445688Y-86503714D01*
X118424730Y-86554312D01*
X118398538Y-86617544D01*
X118398535Y-86617556D01*
X118374500Y-86738389D01*
X118374500Y-90061258D01*
X118354815Y-90128297D01*
X118302011Y-90174052D01*
X118232853Y-90183996D01*
X118169297Y-90154971D01*
X118162819Y-90148939D01*
X118153367Y-90139487D01*
X118153365Y-90139485D01*
X118081056Y-90097737D01*
X118022136Y-90063719D01*
X117948950Y-90044109D01*
X117875766Y-90024500D01*
X117875765Y-90024500D01*
X111407940Y-90024500D01*
X111340901Y-90004815D01*
X111320259Y-89988181D01*
X111302262Y-89970184D01*
X111149523Y-89874211D01*
X110979254Y-89814631D01*
X110979249Y-89814630D01*
X110800004Y-89794435D01*
X110799996Y-89794435D01*
X110620750Y-89814630D01*
X110620745Y-89814631D01*
X110450476Y-89874211D01*
X110297737Y-89970184D01*
X110170184Y-90097737D01*
X110074211Y-90250476D01*
X110014631Y-90420745D01*
X110014630Y-90420750D01*
X109994435Y-90599996D01*
X109994435Y-90600003D01*
X110014630Y-90779249D01*
X110014631Y-90779254D01*
X110074211Y-90949522D01*
X110127624Y-91034528D01*
X110146624Y-91101764D01*
X110126256Y-91168600D01*
X110072989Y-91213814D01*
X110022630Y-91224500D01*
X109164101Y-91224500D01*
X109097062Y-91204815D01*
X109051307Y-91152011D01*
X109041363Y-91082853D01*
X109048688Y-91055159D01*
X109402333Y-90154971D01*
X110184692Y-88163510D01*
X110212416Y-88121182D01*
X112901411Y-85432187D01*
X112962731Y-85398705D01*
X113032423Y-85403689D01*
X113088356Y-85445561D01*
X113092898Y-85452050D01*
X113148811Y-85537632D01*
X113735386Y-84951057D01*
X113740889Y-84971591D01*
X113819881Y-85108408D01*
X113931592Y-85220119D01*
X114068409Y-85299111D01*
X114088940Y-85304612D01*
X113501201Y-85892351D01*
X113531649Y-85916050D01*
X113735697Y-86026476D01*
X113735706Y-86026479D01*
X113955139Y-86101811D01*
X114183993Y-86140000D01*
X114416007Y-86140000D01*
X114644860Y-86101811D01*
X114864293Y-86026479D01*
X114864301Y-86026476D01*
X115068355Y-85916047D01*
X115098797Y-85892351D01*
X115098798Y-85892350D01*
X114511060Y-85304612D01*
X114531591Y-85299111D01*
X114668408Y-85220119D01*
X114780119Y-85108408D01*
X114859111Y-84971591D01*
X114864612Y-84951059D01*
X115451186Y-85537633D01*
X115535482Y-85408611D01*
X115628682Y-85196135D01*
X115685638Y-84971218D01*
X115704798Y-84740005D01*
X115704798Y-84739994D01*
X115685638Y-84508781D01*
X115656810Y-84394940D01*
X115659435Y-84325120D01*
X115699391Y-84267803D01*
X115763992Y-84241186D01*
X115777016Y-84240500D01*
X120573122Y-84240500D01*
X120640161Y-84260185D01*
G37*
%TD.AperFunction*%
%TD*%
M02*
