%TF.GenerationSoftware,KiCad,Pcbnew,8.0.5*%
%TF.CreationDate,2024-12-10T19:27:58+01:00*%
%TF.ProjectId,OpenReflowPlate,4f70656e-5265-4666-9c6f-77506c617465,rev?*%
%TF.SameCoordinates,Original*%
%TF.FileFunction,Soldermask,Top*%
%TF.FilePolarity,Negative*%
%FSLAX46Y46*%
G04 Gerber Fmt 4.6, Leading zero omitted, Abs format (unit mm)*
G04 Created by KiCad (PCBNEW 8.0.5) date 2024-12-10 19:27:58*
%MOMM*%
%LPD*%
G01*
G04 APERTURE LIST*
G04 Aperture macros list*
%AMRoundRect*
0 Rectangle with rounded corners*
0 $1 Rounding radius*
0 $2 $3 $4 $5 $6 $7 $8 $9 X,Y pos of 4 corners*
0 Add a 4 corners polygon primitive as box body*
4,1,4,$2,$3,$4,$5,$6,$7,$8,$9,$2,$3,0*
0 Add four circle primitives for the rounded corners*
1,1,$1+$1,$2,$3*
1,1,$1+$1,$4,$5*
1,1,$1+$1,$6,$7*
1,1,$1+$1,$8,$9*
0 Add four rect primitives between the rounded corners*
20,1,$1+$1,$2,$3,$4,$5,0*
20,1,$1+$1,$4,$5,$6,$7,0*
20,1,$1+$1,$6,$7,$8,$9,0*
20,1,$1+$1,$8,$9,$2,$3,0*%
G04 Aperture macros list end*
%ADD10C,0.010000*%
%ADD11R,1.800000X1.800000*%
%ADD12C,1.800000*%
%ADD13C,1.500000*%
%ADD14R,1.500000X1.500000*%
%ADD15R,1.020000X1.470000*%
%ADD16R,1.075000X0.500000*%
%ADD17R,1.550000X1.300000*%
%ADD18C,1.950000*%
%ADD19R,0.900000X1.400000*%
%ADD20R,1.950000X0.900000*%
%ADD21R,1.950000X3.200000*%
%ADD22R,1.400000X0.900000*%
%ADD23C,0.650000*%
%ADD24RoundRect,0.102000X-0.575000X0.150000X-0.575000X-0.150000X0.575000X-0.150000X0.575000X0.150000X0*%
%ADD25O,2.304000X1.204000*%
%ADD26O,2.004000X1.204000*%
%ADD27C,0.889000*%
%ADD28C,1.550000*%
%ADD29C,1.300000*%
G04 APERTURE END LIST*
D10*
%TO.C,J7*%
X97420000Y-98270000D02*
X96070000Y-98270000D01*
X96070000Y-97470000D01*
X97420000Y-97470000D01*
X97420000Y-98270000D01*
G36*
X97420000Y-98270000D02*
G01*
X96070000Y-98270000D01*
X96070000Y-97470000D01*
X97420000Y-97470000D01*
X97420000Y-98270000D01*
G37*
X97420000Y-99070000D02*
X96070000Y-99070000D01*
X96070000Y-98270000D01*
X97420000Y-98270000D01*
X97420000Y-99070000D01*
G36*
X97420000Y-99070000D02*
G01*
X96070000Y-99070000D01*
X96070000Y-98270000D01*
X97420000Y-98270000D01*
X97420000Y-99070000D01*
G37*
X97420000Y-103870000D02*
X96070000Y-103870000D01*
X96070000Y-103070000D01*
X97420000Y-103070000D01*
X97420000Y-103870000D01*
G36*
X97420000Y-103870000D02*
G01*
X96070000Y-103870000D01*
X96070000Y-103070000D01*
X97420000Y-103070000D01*
X97420000Y-103870000D01*
G37*
X97420000Y-104670000D02*
X96070000Y-104670000D01*
X96070000Y-103870000D01*
X97420000Y-103870000D01*
X97420000Y-104670000D01*
G36*
X97420000Y-104670000D02*
G01*
X96070000Y-104670000D01*
X96070000Y-103870000D01*
X97420000Y-103870000D01*
X97420000Y-104670000D01*
G37*
%TD*%
D11*
%TO.C,K3*%
X140200000Y-90340000D03*
D12*
X135120000Y-90340000D03*
D13*
X124960000Y-90340000D03*
X122420000Y-90340000D03*
%TD*%
D14*
%TO.C,U1*%
X123100000Y-107960000D03*
D13*
X125640000Y-107960000D03*
X128180000Y-107960000D03*
X130720000Y-107960000D03*
X133260000Y-107960000D03*
X135800000Y-107960000D03*
X135800000Y-97800000D03*
X133260000Y-97800000D03*
X130720000Y-97800000D03*
X128180000Y-97800000D03*
X125640000Y-97800000D03*
X123100000Y-97800000D03*
%TD*%
%TO.C,PS2*%
X133770000Y-51450000D03*
X127770000Y-51450000D03*
X139770000Y-85050000D03*
X121770000Y-85050000D03*
%TD*%
D15*
%TO.C,C2*%
X107600000Y-96900000D03*
X109200000Y-96900000D03*
%TD*%
D16*
%TO.C,D2*%
X103124000Y-100400000D03*
X100800000Y-100400000D03*
%TD*%
D17*
%TO.C,S4*%
X107625000Y-118520000D03*
X107625000Y-123020000D03*
X115575000Y-118520000D03*
X115575000Y-123020000D03*
%TD*%
D18*
%TO.C,J3*%
X103210000Y-74800000D03*
X103210000Y-82300000D03*
X103210000Y-89800000D03*
X98210000Y-74800000D03*
X98210000Y-82300000D03*
X98210000Y-89800000D03*
%TD*%
D12*
%TO.C,K1*%
X114300000Y-56840000D03*
X114300000Y-66940000D03*
X114300000Y-79640000D03*
X114300000Y-84740000D03*
%TD*%
D19*
%TO.C,LED4*%
X93590000Y-107980000D03*
X91690000Y-107980000D03*
%TD*%
D20*
%TO.C,IC2*%
X105350000Y-99300000D03*
X105350000Y-101600000D03*
X105350000Y-103900000D03*
D21*
X111450000Y-101600000D03*
%TD*%
D16*
%TO.C,D1*%
X103124000Y-102700000D03*
X100800000Y-102700000D03*
%TD*%
D17*
%TO.C,S1*%
X97258334Y-118520000D03*
X97258334Y-123020000D03*
X105208334Y-118520000D03*
X105208334Y-123020000D03*
%TD*%
D14*
%TO.C,J2*%
X91940000Y-114060000D03*
D13*
X91940000Y-116560000D03*
%TD*%
D11*
%TO.C,J1*%
X140600000Y-116870000D03*
D12*
X140600000Y-114330000D03*
%TD*%
D17*
%TO.C,S2*%
X128358334Y-118520000D03*
X128358334Y-123020000D03*
X136308334Y-118520000D03*
X136308334Y-123020000D03*
%TD*%
D22*
%TO.C,LED1*%
X122300000Y-127432500D03*
X122300000Y-125532500D03*
%TD*%
D18*
%TO.C,J4*%
X103210000Y-52300000D03*
X103210000Y-59800000D03*
X103210000Y-67300000D03*
X98210000Y-52300000D03*
X98210000Y-59800000D03*
X98210000Y-67300000D03*
%TD*%
D23*
%TO.C,J7*%
X95680000Y-98180000D03*
X95680000Y-103960000D03*
D24*
X96745000Y-99820000D03*
X96745000Y-100820000D03*
X96745000Y-101320000D03*
X96745000Y-102320000D03*
X96745000Y-102820000D03*
X96745000Y-101820000D03*
X96745000Y-100320000D03*
X96745000Y-99320000D03*
D25*
X96180000Y-96750000D03*
X96180000Y-105390000D03*
D26*
X92000000Y-96750000D03*
X92000000Y-105390000D03*
%TD*%
D22*
%TO.C,LED3*%
X117000000Y-127420000D03*
X117000000Y-125520000D03*
%TD*%
D17*
%TO.C,S3*%
X117991666Y-118520000D03*
X117991666Y-123020000D03*
X125941666Y-118520000D03*
X125941666Y-123020000D03*
%TD*%
D27*
%TO.C,J6*%
X99730000Y-126670000D03*
X99730000Y-125400000D03*
X101000000Y-126670000D03*
X101000000Y-125400000D03*
X102270000Y-126670000D03*
X102270000Y-125400000D03*
D28*
X98460000Y-126035000D03*
X103540000Y-125019000D03*
X103540000Y-127051000D03*
%TD*%
D22*
%TO.C,LED2*%
X111800000Y-127420000D03*
X111800000Y-125520000D03*
%TD*%
D15*
%TO.C,C3*%
X105750000Y-106100000D03*
X107350000Y-106100000D03*
%TD*%
D29*
%TO.C,LS1*%
X106400000Y-116370000D03*
X98800000Y-116370000D03*
%TD*%
M02*
