%TF.GenerationSoftware,KiCad,Pcbnew,8.0.5*%
%TF.CreationDate,2024-12-10T19:27:58+01:00*%
%TF.ProjectId,OpenReflowPlate,4f70656e-5265-4666-9c6f-77506c617465,rev?*%
%TF.SameCoordinates,Original*%
%TF.FileFunction,Paste,Top*%
%TF.FilePolarity,Positive*%
%FSLAX46Y46*%
G04 Gerber Fmt 4.6, Leading zero omitted, Abs format (unit mm)*
G04 Created by KiCad (PCBNEW 8.0.5) date 2024-12-10 19:27:58*
%MOMM*%
%LPD*%
G01*
G04 APERTURE LIST*
%ADD10C,0.010000*%
%ADD11R,1.020000X1.470000*%
%ADD12R,1.075000X0.500000*%
%ADD13R,1.550000X1.300000*%
%ADD14R,0.900000X1.400000*%
%ADD15R,1.950000X0.900000*%
%ADD16R,1.950000X3.200000*%
%ADD17R,1.400000X0.900000*%
%ADD18R,1.150000X0.300000*%
%ADD19C,0.889000*%
G04 APERTURE END LIST*
D10*
%TO.C,J7*%
X97320000Y-98170000D02*
X96170000Y-98170000D01*
X96170000Y-97570000D01*
X97320000Y-97570000D01*
X97320000Y-98170000D01*
G36*
X97320000Y-98170000D02*
G01*
X96170000Y-98170000D01*
X96170000Y-97570000D01*
X97320000Y-97570000D01*
X97320000Y-98170000D01*
G37*
X97320000Y-98970000D02*
X96170000Y-98970000D01*
X96170000Y-98370000D01*
X97320000Y-98370000D01*
X97320000Y-98970000D01*
G36*
X97320000Y-98970000D02*
G01*
X96170000Y-98970000D01*
X96170000Y-98370000D01*
X97320000Y-98370000D01*
X97320000Y-98970000D01*
G37*
X97320000Y-103770000D02*
X96170000Y-103770000D01*
X96170000Y-103170000D01*
X97320000Y-103170000D01*
X97320000Y-103770000D01*
G36*
X97320000Y-103770000D02*
G01*
X96170000Y-103770000D01*
X96170000Y-103170000D01*
X97320000Y-103170000D01*
X97320000Y-103770000D01*
G37*
X97320000Y-104570000D02*
X96170000Y-104570000D01*
X96170000Y-103970000D01*
X97320000Y-103970000D01*
X97320000Y-104570000D01*
G36*
X97320000Y-104570000D02*
G01*
X96170000Y-104570000D01*
X96170000Y-103970000D01*
X97320000Y-103970000D01*
X97320000Y-104570000D01*
G37*
%TD*%
D11*
%TO.C,C2*%
X107600000Y-96900000D03*
X109200000Y-96900000D03*
%TD*%
D12*
%TO.C,D2*%
X103124000Y-100400000D03*
X100800000Y-100400000D03*
%TD*%
D13*
%TO.C,S4*%
X107625000Y-118520000D03*
X107625000Y-123020000D03*
X115575000Y-118520000D03*
X115575000Y-123020000D03*
%TD*%
D14*
%TO.C,LED4*%
X93590000Y-107980000D03*
X91690000Y-107980000D03*
%TD*%
D15*
%TO.C,IC2*%
X105350000Y-99300000D03*
X105350000Y-101600000D03*
X105350000Y-103900000D03*
D16*
X111450000Y-101600000D03*
%TD*%
D12*
%TO.C,D1*%
X103124000Y-102700000D03*
X100800000Y-102700000D03*
%TD*%
D13*
%TO.C,S1*%
X97258334Y-118520000D03*
X97258334Y-123020000D03*
X105208334Y-118520000D03*
X105208334Y-123020000D03*
%TD*%
%TO.C,S2*%
X128358334Y-118520000D03*
X128358334Y-123020000D03*
X136308334Y-118520000D03*
X136308334Y-123020000D03*
%TD*%
D17*
%TO.C,LED1*%
X122300000Y-127432500D03*
X122300000Y-125532500D03*
%TD*%
D18*
%TO.C,J7*%
X96745000Y-99820000D03*
X96745000Y-100820000D03*
X96745000Y-101320000D03*
X96745000Y-102320000D03*
X96745000Y-102820000D03*
X96745000Y-101820000D03*
X96745000Y-100320000D03*
X96745000Y-99320000D03*
%TD*%
D17*
%TO.C,LED3*%
X117000000Y-127420000D03*
X117000000Y-125520000D03*
%TD*%
D13*
%TO.C,S3*%
X117991666Y-118520000D03*
X117991666Y-123020000D03*
X125941666Y-118520000D03*
X125941666Y-123020000D03*
%TD*%
D19*
%TO.C,J6*%
X99730000Y-126670000D03*
X99730000Y-125400000D03*
X101000000Y-126670000D03*
X101000000Y-125400000D03*
X102270000Y-126670000D03*
X102270000Y-125400000D03*
%TD*%
D17*
%TO.C,LED2*%
X111800000Y-127420000D03*
X111800000Y-125520000D03*
%TD*%
D11*
%TO.C,C3*%
X105750000Y-106100000D03*
X107350000Y-106100000D03*
%TD*%
M02*
