%TF.GenerationSoftware,KiCad,Pcbnew,8.0.5*%
%TF.CreationDate,2024-12-10T19:27:58+01:00*%
%TF.ProjectId,OpenReflowPlate,4f70656e-5265-4666-9c6f-77506c617465,rev?*%
%TF.SameCoordinates,Original*%
%TF.FileFunction,Legend,Top*%
%TF.FilePolarity,Positive*%
%FSLAX46Y46*%
G04 Gerber Fmt 4.6, Leading zero omitted, Abs format (unit mm)*
G04 Created by KiCad (PCBNEW 8.0.5) date 2024-12-10 19:27:58*
%MOMM*%
%LPD*%
G01*
G04 APERTURE LIST*
%ADD10C,0.150000*%
%ADD11C,0.250000*%
%ADD12C,0.254000*%
%ADD13C,0.200000*%
%ADD14C,0.100000*%
%ADD15C,0.120000*%
%ADD16C,0.400000*%
G04 APERTURE END LIST*
D10*
X90346779Y-89746009D02*
X90680112Y-89746009D01*
X90822969Y-90269819D02*
X90346779Y-90269819D01*
X90346779Y-90269819D02*
X90346779Y-89269819D01*
X90346779Y-89269819D02*
X90822969Y-89269819D01*
X91680112Y-90269819D02*
X91680112Y-89746009D01*
X91680112Y-89746009D02*
X91632493Y-89650771D01*
X91632493Y-89650771D02*
X91537255Y-89603152D01*
X91537255Y-89603152D02*
X91346779Y-89603152D01*
X91346779Y-89603152D02*
X91251541Y-89650771D01*
X91680112Y-90222200D02*
X91584874Y-90269819D01*
X91584874Y-90269819D02*
X91346779Y-90269819D01*
X91346779Y-90269819D02*
X91251541Y-90222200D01*
X91251541Y-90222200D02*
X91203922Y-90126961D01*
X91203922Y-90126961D02*
X91203922Y-90031723D01*
X91203922Y-90031723D02*
X91251541Y-89936485D01*
X91251541Y-89936485D02*
X91346779Y-89888866D01*
X91346779Y-89888866D02*
X91584874Y-89888866D01*
X91584874Y-89888866D02*
X91680112Y-89841247D01*
X92156303Y-90269819D02*
X92156303Y-89603152D01*
X92156303Y-89793628D02*
X92203922Y-89698390D01*
X92203922Y-89698390D02*
X92251541Y-89650771D01*
X92251541Y-89650771D02*
X92346779Y-89603152D01*
X92346779Y-89603152D02*
X92442017Y-89603152D01*
X92632494Y-89603152D02*
X93013446Y-89603152D01*
X92775351Y-89269819D02*
X92775351Y-90126961D01*
X92775351Y-90126961D02*
X92822970Y-90222200D01*
X92822970Y-90222200D02*
X92918208Y-90269819D01*
X92918208Y-90269819D02*
X93013446Y-90269819D01*
X93346780Y-90269819D02*
X93346780Y-89269819D01*
X93775351Y-90269819D02*
X93775351Y-89746009D01*
X93775351Y-89746009D02*
X93727732Y-89650771D01*
X93727732Y-89650771D02*
X93632494Y-89603152D01*
X93632494Y-89603152D02*
X93489637Y-89603152D01*
X93489637Y-89603152D02*
X93394399Y-89650771D01*
X93394399Y-89650771D02*
X93346780Y-89698390D01*
X105136779Y-45319819D02*
X105136779Y-44319819D01*
X105565350Y-45319819D02*
X105565350Y-44796009D01*
X105565350Y-44796009D02*
X105517731Y-44700771D01*
X105517731Y-44700771D02*
X105422493Y-44653152D01*
X105422493Y-44653152D02*
X105279636Y-44653152D01*
X105279636Y-44653152D02*
X105184398Y-44700771D01*
X105184398Y-44700771D02*
X105136779Y-44748390D01*
X105898684Y-44653152D02*
X106279636Y-44653152D01*
X106041541Y-44319819D02*
X106041541Y-45176961D01*
X106041541Y-45176961D02*
X106089160Y-45272200D01*
X106089160Y-45272200D02*
X106184398Y-45319819D01*
X106184398Y-45319819D02*
X106279636Y-45319819D01*
X106470113Y-44653152D02*
X106851065Y-44653152D01*
X106612970Y-44319819D02*
X106612970Y-45176961D01*
X106612970Y-45176961D02*
X106660589Y-45272200D01*
X106660589Y-45272200D02*
X106755827Y-45319819D01*
X106755827Y-45319819D02*
X106851065Y-45319819D01*
X107184399Y-44653152D02*
X107184399Y-45653152D01*
X107184399Y-44700771D02*
X107279637Y-44653152D01*
X107279637Y-44653152D02*
X107470113Y-44653152D01*
X107470113Y-44653152D02*
X107565351Y-44700771D01*
X107565351Y-44700771D02*
X107612970Y-44748390D01*
X107612970Y-44748390D02*
X107660589Y-44843628D01*
X107660589Y-44843628D02*
X107660589Y-45129342D01*
X107660589Y-45129342D02*
X107612970Y-45224580D01*
X107612970Y-45224580D02*
X107565351Y-45272200D01*
X107565351Y-45272200D02*
X107470113Y-45319819D01*
X107470113Y-45319819D02*
X107279637Y-45319819D01*
X107279637Y-45319819D02*
X107184399Y-45272200D01*
X108041542Y-45272200D02*
X108136780Y-45319819D01*
X108136780Y-45319819D02*
X108327256Y-45319819D01*
X108327256Y-45319819D02*
X108422494Y-45272200D01*
X108422494Y-45272200D02*
X108470113Y-45176961D01*
X108470113Y-45176961D02*
X108470113Y-45129342D01*
X108470113Y-45129342D02*
X108422494Y-45034104D01*
X108422494Y-45034104D02*
X108327256Y-44986485D01*
X108327256Y-44986485D02*
X108184399Y-44986485D01*
X108184399Y-44986485D02*
X108089161Y-44938866D01*
X108089161Y-44938866D02*
X108041542Y-44843628D01*
X108041542Y-44843628D02*
X108041542Y-44796009D01*
X108041542Y-44796009D02*
X108089161Y-44700771D01*
X108089161Y-44700771D02*
X108184399Y-44653152D01*
X108184399Y-44653152D02*
X108327256Y-44653152D01*
X108327256Y-44653152D02*
X108422494Y-44700771D01*
X108898685Y-45224580D02*
X108946304Y-45272200D01*
X108946304Y-45272200D02*
X108898685Y-45319819D01*
X108898685Y-45319819D02*
X108851066Y-45272200D01*
X108851066Y-45272200D02*
X108898685Y-45224580D01*
X108898685Y-45224580D02*
X108898685Y-45319819D01*
X108898685Y-44700771D02*
X108946304Y-44748390D01*
X108946304Y-44748390D02*
X108898685Y-44796009D01*
X108898685Y-44796009D02*
X108851066Y-44748390D01*
X108851066Y-44748390D02*
X108898685Y-44700771D01*
X108898685Y-44700771D02*
X108898685Y-44796009D01*
X110089160Y-44272200D02*
X109232018Y-45557914D01*
X111136779Y-44272200D02*
X110279637Y-45557914D01*
X111374875Y-44653152D02*
X111565351Y-45319819D01*
X111565351Y-45319819D02*
X111755827Y-44843628D01*
X111755827Y-44843628D02*
X111946303Y-45319819D01*
X111946303Y-45319819D02*
X112136779Y-44653152D01*
X112422494Y-44653152D02*
X112612970Y-45319819D01*
X112612970Y-45319819D02*
X112803446Y-44843628D01*
X112803446Y-44843628D02*
X112993922Y-45319819D01*
X112993922Y-45319819D02*
X113184398Y-44653152D01*
X113470113Y-44653152D02*
X113660589Y-45319819D01*
X113660589Y-45319819D02*
X113851065Y-44843628D01*
X113851065Y-44843628D02*
X114041541Y-45319819D01*
X114041541Y-45319819D02*
X114232017Y-44653152D01*
X114612970Y-45224580D02*
X114660589Y-45272200D01*
X114660589Y-45272200D02*
X114612970Y-45319819D01*
X114612970Y-45319819D02*
X114565351Y-45272200D01*
X114565351Y-45272200D02*
X114612970Y-45224580D01*
X114612970Y-45224580D02*
X114612970Y-45319819D01*
X115089160Y-45319819D02*
X115089160Y-44653152D01*
X115089160Y-44748390D02*
X115136779Y-44700771D01*
X115136779Y-44700771D02*
X115232017Y-44653152D01*
X115232017Y-44653152D02*
X115374874Y-44653152D01*
X115374874Y-44653152D02*
X115470112Y-44700771D01*
X115470112Y-44700771D02*
X115517731Y-44796009D01*
X115517731Y-44796009D02*
X115517731Y-45319819D01*
X115517731Y-44796009D02*
X115565350Y-44700771D01*
X115565350Y-44700771D02*
X115660588Y-44653152D01*
X115660588Y-44653152D02*
X115803445Y-44653152D01*
X115803445Y-44653152D02*
X115898684Y-44700771D01*
X115898684Y-44700771D02*
X115946303Y-44796009D01*
X115946303Y-44796009D02*
X115946303Y-45319819D01*
X116851064Y-45319819D02*
X116851064Y-44796009D01*
X116851064Y-44796009D02*
X116803445Y-44700771D01*
X116803445Y-44700771D02*
X116708207Y-44653152D01*
X116708207Y-44653152D02*
X116517731Y-44653152D01*
X116517731Y-44653152D02*
X116422493Y-44700771D01*
X116851064Y-45272200D02*
X116755826Y-45319819D01*
X116755826Y-45319819D02*
X116517731Y-45319819D01*
X116517731Y-45319819D02*
X116422493Y-45272200D01*
X116422493Y-45272200D02*
X116374874Y-45176961D01*
X116374874Y-45176961D02*
X116374874Y-45081723D01*
X116374874Y-45081723D02*
X116422493Y-44986485D01*
X116422493Y-44986485D02*
X116517731Y-44938866D01*
X116517731Y-44938866D02*
X116755826Y-44938866D01*
X116755826Y-44938866D02*
X116851064Y-44891247D01*
X117327255Y-45319819D02*
X117327255Y-44319819D01*
X117422493Y-44938866D02*
X117708207Y-45319819D01*
X117708207Y-44653152D02*
X117327255Y-45034104D01*
X118136779Y-45319819D02*
X118136779Y-44653152D01*
X118136779Y-44319819D02*
X118089160Y-44367438D01*
X118089160Y-44367438D02*
X118136779Y-44415057D01*
X118136779Y-44415057D02*
X118184398Y-44367438D01*
X118184398Y-44367438D02*
X118136779Y-44319819D01*
X118136779Y-44319819D02*
X118136779Y-44415057D01*
X118612969Y-44653152D02*
X118612969Y-45319819D01*
X118612969Y-44748390D02*
X118660588Y-44700771D01*
X118660588Y-44700771D02*
X118755826Y-44653152D01*
X118755826Y-44653152D02*
X118898683Y-44653152D01*
X118898683Y-44653152D02*
X118993921Y-44700771D01*
X118993921Y-44700771D02*
X119041540Y-44796009D01*
X119041540Y-44796009D02*
X119041540Y-45319819D01*
X119946302Y-44653152D02*
X119946302Y-45462676D01*
X119946302Y-45462676D02*
X119898683Y-45557914D01*
X119898683Y-45557914D02*
X119851064Y-45605533D01*
X119851064Y-45605533D02*
X119755826Y-45653152D01*
X119755826Y-45653152D02*
X119612969Y-45653152D01*
X119612969Y-45653152D02*
X119517731Y-45605533D01*
X119946302Y-45272200D02*
X119851064Y-45319819D01*
X119851064Y-45319819D02*
X119660588Y-45319819D01*
X119660588Y-45319819D02*
X119565350Y-45272200D01*
X119565350Y-45272200D02*
X119517731Y-45224580D01*
X119517731Y-45224580D02*
X119470112Y-45129342D01*
X119470112Y-45129342D02*
X119470112Y-44843628D01*
X119470112Y-44843628D02*
X119517731Y-44748390D01*
X119517731Y-44748390D02*
X119565350Y-44700771D01*
X119565350Y-44700771D02*
X119660588Y-44653152D01*
X119660588Y-44653152D02*
X119851064Y-44653152D01*
X119851064Y-44653152D02*
X119946302Y-44700771D01*
X120851064Y-45319819D02*
X120851064Y-44319819D01*
X120851064Y-45272200D02*
X120755826Y-45319819D01*
X120755826Y-45319819D02*
X120565350Y-45319819D01*
X120565350Y-45319819D02*
X120470112Y-45272200D01*
X120470112Y-45272200D02*
X120422493Y-45224580D01*
X120422493Y-45224580D02*
X120374874Y-45129342D01*
X120374874Y-45129342D02*
X120374874Y-44843628D01*
X120374874Y-44843628D02*
X120422493Y-44748390D01*
X120422493Y-44748390D02*
X120470112Y-44700771D01*
X120470112Y-44700771D02*
X120565350Y-44653152D01*
X120565350Y-44653152D02*
X120755826Y-44653152D01*
X120755826Y-44653152D02*
X120851064Y-44700771D01*
X121708207Y-45272200D02*
X121612969Y-45319819D01*
X121612969Y-45319819D02*
X121422493Y-45319819D01*
X121422493Y-45319819D02*
X121327255Y-45272200D01*
X121327255Y-45272200D02*
X121279636Y-45176961D01*
X121279636Y-45176961D02*
X121279636Y-44796009D01*
X121279636Y-44796009D02*
X121327255Y-44700771D01*
X121327255Y-44700771D02*
X121422493Y-44653152D01*
X121422493Y-44653152D02*
X121612969Y-44653152D01*
X121612969Y-44653152D02*
X121708207Y-44700771D01*
X121708207Y-44700771D02*
X121755826Y-44796009D01*
X121755826Y-44796009D02*
X121755826Y-44891247D01*
X121755826Y-44891247D02*
X121279636Y-44986485D01*
X122089160Y-44653152D02*
X122327255Y-45319819D01*
X122327255Y-45319819D02*
X122565350Y-44653152D01*
X122946303Y-45319819D02*
X122946303Y-44653152D01*
X122946303Y-44319819D02*
X122898684Y-44367438D01*
X122898684Y-44367438D02*
X122946303Y-44415057D01*
X122946303Y-44415057D02*
X122993922Y-44367438D01*
X122993922Y-44367438D02*
X122946303Y-44319819D01*
X122946303Y-44319819D02*
X122946303Y-44415057D01*
X123851064Y-45272200D02*
X123755826Y-45319819D01*
X123755826Y-45319819D02*
X123565350Y-45319819D01*
X123565350Y-45319819D02*
X123470112Y-45272200D01*
X123470112Y-45272200D02*
X123422493Y-45224580D01*
X123422493Y-45224580D02*
X123374874Y-45129342D01*
X123374874Y-45129342D02*
X123374874Y-44843628D01*
X123374874Y-44843628D02*
X123422493Y-44748390D01*
X123422493Y-44748390D02*
X123470112Y-44700771D01*
X123470112Y-44700771D02*
X123565350Y-44653152D01*
X123565350Y-44653152D02*
X123755826Y-44653152D01*
X123755826Y-44653152D02*
X123851064Y-44700771D01*
X124660588Y-45272200D02*
X124565350Y-45319819D01*
X124565350Y-45319819D02*
X124374874Y-45319819D01*
X124374874Y-45319819D02*
X124279636Y-45272200D01*
X124279636Y-45272200D02*
X124232017Y-45176961D01*
X124232017Y-45176961D02*
X124232017Y-44796009D01*
X124232017Y-44796009D02*
X124279636Y-44700771D01*
X124279636Y-44700771D02*
X124374874Y-44653152D01*
X124374874Y-44653152D02*
X124565350Y-44653152D01*
X124565350Y-44653152D02*
X124660588Y-44700771D01*
X124660588Y-44700771D02*
X124708207Y-44796009D01*
X124708207Y-44796009D02*
X124708207Y-44891247D01*
X124708207Y-44891247D02*
X124232017Y-44986485D01*
X125089160Y-45272200D02*
X125184398Y-45319819D01*
X125184398Y-45319819D02*
X125374874Y-45319819D01*
X125374874Y-45319819D02*
X125470112Y-45272200D01*
X125470112Y-45272200D02*
X125517731Y-45176961D01*
X125517731Y-45176961D02*
X125517731Y-45129342D01*
X125517731Y-45129342D02*
X125470112Y-45034104D01*
X125470112Y-45034104D02*
X125374874Y-44986485D01*
X125374874Y-44986485D02*
X125232017Y-44986485D01*
X125232017Y-44986485D02*
X125136779Y-44938866D01*
X125136779Y-44938866D02*
X125089160Y-44843628D01*
X125089160Y-44843628D02*
X125089160Y-44796009D01*
X125089160Y-44796009D02*
X125136779Y-44700771D01*
X125136779Y-44700771D02*
X125232017Y-44653152D01*
X125232017Y-44653152D02*
X125374874Y-44653152D01*
X125374874Y-44653152D02*
X125470112Y-44700771D01*
X125946303Y-45224580D02*
X125993922Y-45272200D01*
X125993922Y-45272200D02*
X125946303Y-45319819D01*
X125946303Y-45319819D02*
X125898684Y-45272200D01*
X125898684Y-45272200D02*
X125946303Y-45224580D01*
X125946303Y-45224580D02*
X125946303Y-45319819D01*
X126851064Y-45272200D02*
X126755826Y-45319819D01*
X126755826Y-45319819D02*
X126565350Y-45319819D01*
X126565350Y-45319819D02*
X126470112Y-45272200D01*
X126470112Y-45272200D02*
X126422493Y-45224580D01*
X126422493Y-45224580D02*
X126374874Y-45129342D01*
X126374874Y-45129342D02*
X126374874Y-44843628D01*
X126374874Y-44843628D02*
X126422493Y-44748390D01*
X126422493Y-44748390D02*
X126470112Y-44700771D01*
X126470112Y-44700771D02*
X126565350Y-44653152D01*
X126565350Y-44653152D02*
X126755826Y-44653152D01*
X126755826Y-44653152D02*
X126851064Y-44700771D01*
X127422493Y-45319819D02*
X127327255Y-45272200D01*
X127327255Y-45272200D02*
X127279636Y-45224580D01*
X127279636Y-45224580D02*
X127232017Y-45129342D01*
X127232017Y-45129342D02*
X127232017Y-44843628D01*
X127232017Y-44843628D02*
X127279636Y-44748390D01*
X127279636Y-44748390D02*
X127327255Y-44700771D01*
X127327255Y-44700771D02*
X127422493Y-44653152D01*
X127422493Y-44653152D02*
X127565350Y-44653152D01*
X127565350Y-44653152D02*
X127660588Y-44700771D01*
X127660588Y-44700771D02*
X127708207Y-44748390D01*
X127708207Y-44748390D02*
X127755826Y-44843628D01*
X127755826Y-44843628D02*
X127755826Y-45129342D01*
X127755826Y-45129342D02*
X127708207Y-45224580D01*
X127708207Y-45224580D02*
X127660588Y-45272200D01*
X127660588Y-45272200D02*
X127565350Y-45319819D01*
X127565350Y-45319819D02*
X127422493Y-45319819D01*
X128184398Y-45319819D02*
X128184398Y-44653152D01*
X128184398Y-44748390D02*
X128232017Y-44700771D01*
X128232017Y-44700771D02*
X128327255Y-44653152D01*
X128327255Y-44653152D02*
X128470112Y-44653152D01*
X128470112Y-44653152D02*
X128565350Y-44700771D01*
X128565350Y-44700771D02*
X128612969Y-44796009D01*
X128612969Y-44796009D02*
X128612969Y-45319819D01*
X128612969Y-44796009D02*
X128660588Y-44700771D01*
X128660588Y-44700771D02*
X128755826Y-44653152D01*
X128755826Y-44653152D02*
X128898683Y-44653152D01*
X128898683Y-44653152D02*
X128993922Y-44700771D01*
X128993922Y-44700771D02*
X129041541Y-44796009D01*
X129041541Y-44796009D02*
X129041541Y-45319819D01*
X110570112Y-116616009D02*
X110712969Y-116663628D01*
X110712969Y-116663628D02*
X110760588Y-116711247D01*
X110760588Y-116711247D02*
X110808207Y-116806485D01*
X110808207Y-116806485D02*
X110808207Y-116949342D01*
X110808207Y-116949342D02*
X110760588Y-117044580D01*
X110760588Y-117044580D02*
X110712969Y-117092200D01*
X110712969Y-117092200D02*
X110617731Y-117139819D01*
X110617731Y-117139819D02*
X110236779Y-117139819D01*
X110236779Y-117139819D02*
X110236779Y-116139819D01*
X110236779Y-116139819D02*
X110570112Y-116139819D01*
X110570112Y-116139819D02*
X110665350Y-116187438D01*
X110665350Y-116187438D02*
X110712969Y-116235057D01*
X110712969Y-116235057D02*
X110760588Y-116330295D01*
X110760588Y-116330295D02*
X110760588Y-116425533D01*
X110760588Y-116425533D02*
X110712969Y-116520771D01*
X110712969Y-116520771D02*
X110665350Y-116568390D01*
X110665350Y-116568390D02*
X110570112Y-116616009D01*
X110570112Y-116616009D02*
X110236779Y-116616009D01*
X111665350Y-117139819D02*
X111665350Y-116616009D01*
X111665350Y-116616009D02*
X111617731Y-116520771D01*
X111617731Y-116520771D02*
X111522493Y-116473152D01*
X111522493Y-116473152D02*
X111332017Y-116473152D01*
X111332017Y-116473152D02*
X111236779Y-116520771D01*
X111665350Y-117092200D02*
X111570112Y-117139819D01*
X111570112Y-117139819D02*
X111332017Y-117139819D01*
X111332017Y-117139819D02*
X111236779Y-117092200D01*
X111236779Y-117092200D02*
X111189160Y-116996961D01*
X111189160Y-116996961D02*
X111189160Y-116901723D01*
X111189160Y-116901723D02*
X111236779Y-116806485D01*
X111236779Y-116806485D02*
X111332017Y-116758866D01*
X111332017Y-116758866D02*
X111570112Y-116758866D01*
X111570112Y-116758866D02*
X111665350Y-116711247D01*
X112570112Y-117092200D02*
X112474874Y-117139819D01*
X112474874Y-117139819D02*
X112284398Y-117139819D01*
X112284398Y-117139819D02*
X112189160Y-117092200D01*
X112189160Y-117092200D02*
X112141541Y-117044580D01*
X112141541Y-117044580D02*
X112093922Y-116949342D01*
X112093922Y-116949342D02*
X112093922Y-116663628D01*
X112093922Y-116663628D02*
X112141541Y-116568390D01*
X112141541Y-116568390D02*
X112189160Y-116520771D01*
X112189160Y-116520771D02*
X112284398Y-116473152D01*
X112284398Y-116473152D02*
X112474874Y-116473152D01*
X112474874Y-116473152D02*
X112570112Y-116520771D01*
X112998684Y-117139819D02*
X112998684Y-116139819D01*
X113093922Y-116758866D02*
X113379636Y-117139819D01*
X113379636Y-116473152D02*
X112998684Y-116854104D01*
D11*
X89996571Y-57161615D02*
X91496571Y-57161615D01*
X89996571Y-57875901D02*
X91496571Y-57875901D01*
X91496571Y-57875901D02*
X89996571Y-58733044D01*
X89996571Y-58733044D02*
X91496571Y-58733044D01*
X89996571Y-59447330D02*
X91496571Y-59447330D01*
X91496571Y-59447330D02*
X91496571Y-60018759D01*
X91496571Y-60018759D02*
X91425142Y-60161616D01*
X91425142Y-60161616D02*
X91353714Y-60233045D01*
X91353714Y-60233045D02*
X91210857Y-60304473D01*
X91210857Y-60304473D02*
X90996571Y-60304473D01*
X90996571Y-60304473D02*
X90853714Y-60233045D01*
X90853714Y-60233045D02*
X90782285Y-60161616D01*
X90782285Y-60161616D02*
X90710857Y-60018759D01*
X90710857Y-60018759D02*
X90710857Y-59447330D01*
X91496571Y-60947330D02*
X90282285Y-60947330D01*
X90282285Y-60947330D02*
X90139428Y-61018759D01*
X90139428Y-61018759D02*
X90068000Y-61090188D01*
X90068000Y-61090188D02*
X89996571Y-61233045D01*
X89996571Y-61233045D02*
X89996571Y-61518759D01*
X89996571Y-61518759D02*
X90068000Y-61661616D01*
X90068000Y-61661616D02*
X90139428Y-61733045D01*
X90139428Y-61733045D02*
X90282285Y-61804473D01*
X90282285Y-61804473D02*
X91496571Y-61804473D01*
X91496571Y-62304474D02*
X91496571Y-63161617D01*
X89996571Y-62733045D02*
X91496571Y-62733045D01*
D10*
X91870112Y-119746009D02*
X91536779Y-119746009D01*
X91536779Y-120269819D02*
X91536779Y-119269819D01*
X91536779Y-119269819D02*
X92012969Y-119269819D01*
X92822493Y-120269819D02*
X92822493Y-119746009D01*
X92822493Y-119746009D02*
X92774874Y-119650771D01*
X92774874Y-119650771D02*
X92679636Y-119603152D01*
X92679636Y-119603152D02*
X92489160Y-119603152D01*
X92489160Y-119603152D02*
X92393922Y-119650771D01*
X92822493Y-120222200D02*
X92727255Y-120269819D01*
X92727255Y-120269819D02*
X92489160Y-120269819D01*
X92489160Y-120269819D02*
X92393922Y-120222200D01*
X92393922Y-120222200D02*
X92346303Y-120126961D01*
X92346303Y-120126961D02*
X92346303Y-120031723D01*
X92346303Y-120031723D02*
X92393922Y-119936485D01*
X92393922Y-119936485D02*
X92489160Y-119888866D01*
X92489160Y-119888866D02*
X92727255Y-119888866D01*
X92727255Y-119888866D02*
X92822493Y-119841247D01*
X93298684Y-119603152D02*
X93298684Y-120269819D01*
X93298684Y-119698390D02*
X93346303Y-119650771D01*
X93346303Y-119650771D02*
X93441541Y-119603152D01*
X93441541Y-119603152D02*
X93584398Y-119603152D01*
X93584398Y-119603152D02*
X93679636Y-119650771D01*
X93679636Y-119650771D02*
X93727255Y-119746009D01*
X93727255Y-119746009D02*
X93727255Y-120269819D01*
X91137255Y-74369819D02*
X91327731Y-74369819D01*
X91327731Y-74369819D02*
X91422969Y-74417438D01*
X91422969Y-74417438D02*
X91518207Y-74512676D01*
X91518207Y-74512676D02*
X91565826Y-74703152D01*
X91565826Y-74703152D02*
X91565826Y-75036485D01*
X91565826Y-75036485D02*
X91518207Y-75226961D01*
X91518207Y-75226961D02*
X91422969Y-75322200D01*
X91422969Y-75322200D02*
X91327731Y-75369819D01*
X91327731Y-75369819D02*
X91137255Y-75369819D01*
X91137255Y-75369819D02*
X91042017Y-75322200D01*
X91042017Y-75322200D02*
X90946779Y-75226961D01*
X90946779Y-75226961D02*
X90899160Y-75036485D01*
X90899160Y-75036485D02*
X90899160Y-74703152D01*
X90899160Y-74703152D02*
X90946779Y-74512676D01*
X90946779Y-74512676D02*
X91042017Y-74417438D01*
X91042017Y-74417438D02*
X91137255Y-74369819D01*
X92422969Y-74703152D02*
X92422969Y-75369819D01*
X91994398Y-74703152D02*
X91994398Y-75226961D01*
X91994398Y-75226961D02*
X92042017Y-75322200D01*
X92042017Y-75322200D02*
X92137255Y-75369819D01*
X92137255Y-75369819D02*
X92280112Y-75369819D01*
X92280112Y-75369819D02*
X92375350Y-75322200D01*
X92375350Y-75322200D02*
X92422969Y-75274580D01*
X92756303Y-74703152D02*
X93137255Y-74703152D01*
X92899160Y-74369819D02*
X92899160Y-75226961D01*
X92899160Y-75226961D02*
X92946779Y-75322200D01*
X92946779Y-75322200D02*
X93042017Y-75369819D01*
X93042017Y-75369819D02*
X93137255Y-75369819D01*
X123693922Y-113939819D02*
X124265350Y-113939819D01*
X123979636Y-114939819D02*
X123979636Y-113939819D01*
X124598684Y-114939819D02*
X124598684Y-113939819D01*
X125027255Y-114939819D02*
X125027255Y-114416009D01*
X125027255Y-114416009D02*
X124979636Y-114320771D01*
X124979636Y-114320771D02*
X124884398Y-114273152D01*
X124884398Y-114273152D02*
X124741541Y-114273152D01*
X124741541Y-114273152D02*
X124646303Y-114320771D01*
X124646303Y-114320771D02*
X124598684Y-114368390D01*
X125884398Y-114892200D02*
X125789160Y-114939819D01*
X125789160Y-114939819D02*
X125598684Y-114939819D01*
X125598684Y-114939819D02*
X125503446Y-114892200D01*
X125503446Y-114892200D02*
X125455827Y-114796961D01*
X125455827Y-114796961D02*
X125455827Y-114416009D01*
X125455827Y-114416009D02*
X125503446Y-114320771D01*
X125503446Y-114320771D02*
X125598684Y-114273152D01*
X125598684Y-114273152D02*
X125789160Y-114273152D01*
X125789160Y-114273152D02*
X125884398Y-114320771D01*
X125884398Y-114320771D02*
X125932017Y-114416009D01*
X125932017Y-114416009D02*
X125932017Y-114511247D01*
X125932017Y-114511247D02*
X125455827Y-114606485D01*
X126360589Y-114939819D02*
X126360589Y-114273152D01*
X126360589Y-114463628D02*
X126408208Y-114368390D01*
X126408208Y-114368390D02*
X126455827Y-114320771D01*
X126455827Y-114320771D02*
X126551065Y-114273152D01*
X126551065Y-114273152D02*
X126646303Y-114273152D01*
X126979637Y-114939819D02*
X126979637Y-114273152D01*
X126979637Y-114368390D02*
X127027256Y-114320771D01*
X127027256Y-114320771D02*
X127122494Y-114273152D01*
X127122494Y-114273152D02*
X127265351Y-114273152D01*
X127265351Y-114273152D02*
X127360589Y-114320771D01*
X127360589Y-114320771D02*
X127408208Y-114416009D01*
X127408208Y-114416009D02*
X127408208Y-114939819D01*
X127408208Y-114416009D02*
X127455827Y-114320771D01*
X127455827Y-114320771D02*
X127551065Y-114273152D01*
X127551065Y-114273152D02*
X127693922Y-114273152D01*
X127693922Y-114273152D02*
X127789161Y-114320771D01*
X127789161Y-114320771D02*
X127836780Y-114416009D01*
X127836780Y-114416009D02*
X127836780Y-114939819D01*
X128455827Y-114939819D02*
X128360589Y-114892200D01*
X128360589Y-114892200D02*
X128312970Y-114844580D01*
X128312970Y-114844580D02*
X128265351Y-114749342D01*
X128265351Y-114749342D02*
X128265351Y-114463628D01*
X128265351Y-114463628D02*
X128312970Y-114368390D01*
X128312970Y-114368390D02*
X128360589Y-114320771D01*
X128360589Y-114320771D02*
X128455827Y-114273152D01*
X128455827Y-114273152D02*
X128598684Y-114273152D01*
X128598684Y-114273152D02*
X128693922Y-114320771D01*
X128693922Y-114320771D02*
X128741541Y-114368390D01*
X128741541Y-114368390D02*
X128789160Y-114463628D01*
X128789160Y-114463628D02*
X128789160Y-114749342D01*
X128789160Y-114749342D02*
X128741541Y-114844580D01*
X128741541Y-114844580D02*
X128693922Y-114892200D01*
X128693922Y-114892200D02*
X128598684Y-114939819D01*
X128598684Y-114939819D02*
X128455827Y-114939819D01*
X129789160Y-114844580D02*
X129741541Y-114892200D01*
X129741541Y-114892200D02*
X129598684Y-114939819D01*
X129598684Y-114939819D02*
X129503446Y-114939819D01*
X129503446Y-114939819D02*
X129360589Y-114892200D01*
X129360589Y-114892200D02*
X129265351Y-114796961D01*
X129265351Y-114796961D02*
X129217732Y-114701723D01*
X129217732Y-114701723D02*
X129170113Y-114511247D01*
X129170113Y-114511247D02*
X129170113Y-114368390D01*
X129170113Y-114368390D02*
X129217732Y-114177914D01*
X129217732Y-114177914D02*
X129265351Y-114082676D01*
X129265351Y-114082676D02*
X129360589Y-113987438D01*
X129360589Y-113987438D02*
X129503446Y-113939819D01*
X129503446Y-113939819D02*
X129598684Y-113939819D01*
X129598684Y-113939819D02*
X129741541Y-113987438D01*
X129741541Y-113987438D02*
X129789160Y-114035057D01*
X130360589Y-114939819D02*
X130265351Y-114892200D01*
X130265351Y-114892200D02*
X130217732Y-114844580D01*
X130217732Y-114844580D02*
X130170113Y-114749342D01*
X130170113Y-114749342D02*
X130170113Y-114463628D01*
X130170113Y-114463628D02*
X130217732Y-114368390D01*
X130217732Y-114368390D02*
X130265351Y-114320771D01*
X130265351Y-114320771D02*
X130360589Y-114273152D01*
X130360589Y-114273152D02*
X130503446Y-114273152D01*
X130503446Y-114273152D02*
X130598684Y-114320771D01*
X130598684Y-114320771D02*
X130646303Y-114368390D01*
X130646303Y-114368390D02*
X130693922Y-114463628D01*
X130693922Y-114463628D02*
X130693922Y-114749342D01*
X130693922Y-114749342D02*
X130646303Y-114844580D01*
X130646303Y-114844580D02*
X130598684Y-114892200D01*
X130598684Y-114892200D02*
X130503446Y-114939819D01*
X130503446Y-114939819D02*
X130360589Y-114939819D01*
X131551065Y-114273152D02*
X131551065Y-114939819D01*
X131122494Y-114273152D02*
X131122494Y-114796961D01*
X131122494Y-114796961D02*
X131170113Y-114892200D01*
X131170113Y-114892200D02*
X131265351Y-114939819D01*
X131265351Y-114939819D02*
X131408208Y-114939819D01*
X131408208Y-114939819D02*
X131503446Y-114892200D01*
X131503446Y-114892200D02*
X131551065Y-114844580D01*
X132027256Y-114273152D02*
X132027256Y-115273152D01*
X132027256Y-114320771D02*
X132122494Y-114273152D01*
X132122494Y-114273152D02*
X132312970Y-114273152D01*
X132312970Y-114273152D02*
X132408208Y-114320771D01*
X132408208Y-114320771D02*
X132455827Y-114368390D01*
X132455827Y-114368390D02*
X132503446Y-114463628D01*
X132503446Y-114463628D02*
X132503446Y-114749342D01*
X132503446Y-114749342D02*
X132455827Y-114844580D01*
X132455827Y-114844580D02*
X132408208Y-114892200D01*
X132408208Y-114892200D02*
X132312970Y-114939819D01*
X132312970Y-114939819D02*
X132122494Y-114939819D01*
X132122494Y-114939819D02*
X132027256Y-114892200D01*
X133074875Y-114939819D02*
X132979637Y-114892200D01*
X132979637Y-114892200D02*
X132932018Y-114796961D01*
X132932018Y-114796961D02*
X132932018Y-113939819D01*
X133836780Y-114892200D02*
X133741542Y-114939819D01*
X133741542Y-114939819D02*
X133551066Y-114939819D01*
X133551066Y-114939819D02*
X133455828Y-114892200D01*
X133455828Y-114892200D02*
X133408209Y-114796961D01*
X133408209Y-114796961D02*
X133408209Y-114416009D01*
X133408209Y-114416009D02*
X133455828Y-114320771D01*
X133455828Y-114320771D02*
X133551066Y-114273152D01*
X133551066Y-114273152D02*
X133741542Y-114273152D01*
X133741542Y-114273152D02*
X133836780Y-114320771D01*
X133836780Y-114320771D02*
X133884399Y-114416009D01*
X133884399Y-114416009D02*
X133884399Y-114511247D01*
X133884399Y-114511247D02*
X133408209Y-114606485D01*
X135074876Y-114558866D02*
X135836781Y-114558866D01*
X136312971Y-114273152D02*
X137074876Y-114558866D01*
X137074876Y-114558866D02*
X136312971Y-114844580D01*
X124484104Y-127157030D02*
X124484104Y-126680840D01*
X124769819Y-127252268D02*
X123769819Y-126918935D01*
X123769819Y-126918935D02*
X124769819Y-126585602D01*
X124674580Y-125680840D02*
X124722200Y-125728459D01*
X124722200Y-125728459D02*
X124769819Y-125871316D01*
X124769819Y-125871316D02*
X124769819Y-125966554D01*
X124769819Y-125966554D02*
X124722200Y-126109411D01*
X124722200Y-126109411D02*
X124626961Y-126204649D01*
X124626961Y-126204649D02*
X124531723Y-126252268D01*
X124531723Y-126252268D02*
X124341247Y-126299887D01*
X124341247Y-126299887D02*
X124198390Y-126299887D01*
X124198390Y-126299887D02*
X124007914Y-126252268D01*
X124007914Y-126252268D02*
X123912676Y-126204649D01*
X123912676Y-126204649D02*
X123817438Y-126109411D01*
X123817438Y-126109411D02*
X123769819Y-125966554D01*
X123769819Y-125966554D02*
X123769819Y-125871316D01*
X123769819Y-125871316D02*
X123817438Y-125728459D01*
X123817438Y-125728459D02*
X123865057Y-125680840D01*
X93046779Y-82769819D02*
X93046779Y-81769819D01*
X93046779Y-81769819D02*
X93618207Y-82769819D01*
X93618207Y-82769819D02*
X93618207Y-81769819D01*
X91442969Y-52889819D02*
X90966779Y-52889819D01*
X90966779Y-52889819D02*
X90966779Y-51889819D01*
X91776303Y-52889819D02*
X91776303Y-52223152D01*
X91776303Y-51889819D02*
X91728684Y-51937438D01*
X91728684Y-51937438D02*
X91776303Y-51985057D01*
X91776303Y-51985057D02*
X91823922Y-51937438D01*
X91823922Y-51937438D02*
X91776303Y-51889819D01*
X91776303Y-51889819D02*
X91776303Y-51985057D01*
X92157255Y-52223152D02*
X92395350Y-52889819D01*
X92395350Y-52889819D02*
X92633445Y-52223152D01*
X93395350Y-52842200D02*
X93300112Y-52889819D01*
X93300112Y-52889819D02*
X93109636Y-52889819D01*
X93109636Y-52889819D02*
X93014398Y-52842200D01*
X93014398Y-52842200D02*
X92966779Y-52746961D01*
X92966779Y-52746961D02*
X92966779Y-52366009D01*
X92966779Y-52366009D02*
X93014398Y-52270771D01*
X93014398Y-52270771D02*
X93109636Y-52223152D01*
X93109636Y-52223152D02*
X93300112Y-52223152D01*
X93300112Y-52223152D02*
X93395350Y-52270771D01*
X93395350Y-52270771D02*
X93442969Y-52366009D01*
X93442969Y-52366009D02*
X93442969Y-52461247D01*
X93442969Y-52461247D02*
X92966779Y-52556485D01*
X92566779Y-60209819D02*
X92566779Y-59209819D01*
X92566779Y-59209819D02*
X93138207Y-60209819D01*
X93138207Y-60209819D02*
X93138207Y-59209819D01*
D11*
X99217330Y-46903428D02*
X99503044Y-46903428D01*
X99503044Y-46903428D02*
X99645901Y-46974857D01*
X99645901Y-46974857D02*
X99788758Y-47117714D01*
X99788758Y-47117714D02*
X99860187Y-47403428D01*
X99860187Y-47403428D02*
X99860187Y-47903428D01*
X99860187Y-47903428D02*
X99788758Y-48189142D01*
X99788758Y-48189142D02*
X99645901Y-48332000D01*
X99645901Y-48332000D02*
X99503044Y-48403428D01*
X99503044Y-48403428D02*
X99217330Y-48403428D01*
X99217330Y-48403428D02*
X99074473Y-48332000D01*
X99074473Y-48332000D02*
X98931615Y-48189142D01*
X98931615Y-48189142D02*
X98860187Y-47903428D01*
X98860187Y-47903428D02*
X98860187Y-47403428D01*
X98860187Y-47403428D02*
X98931615Y-47117714D01*
X98931615Y-47117714D02*
X99074473Y-46974857D01*
X99074473Y-46974857D02*
X99217330Y-46903428D01*
X100503044Y-47403428D02*
X100503044Y-48903428D01*
X100503044Y-47474857D02*
X100645902Y-47403428D01*
X100645902Y-47403428D02*
X100931616Y-47403428D01*
X100931616Y-47403428D02*
X101074473Y-47474857D01*
X101074473Y-47474857D02*
X101145902Y-47546285D01*
X101145902Y-47546285D02*
X101217330Y-47689142D01*
X101217330Y-47689142D02*
X101217330Y-48117714D01*
X101217330Y-48117714D02*
X101145902Y-48260571D01*
X101145902Y-48260571D02*
X101074473Y-48332000D01*
X101074473Y-48332000D02*
X100931616Y-48403428D01*
X100931616Y-48403428D02*
X100645902Y-48403428D01*
X100645902Y-48403428D02*
X100503044Y-48332000D01*
X102431616Y-48332000D02*
X102288759Y-48403428D01*
X102288759Y-48403428D02*
X102003045Y-48403428D01*
X102003045Y-48403428D02*
X101860187Y-48332000D01*
X101860187Y-48332000D02*
X101788759Y-48189142D01*
X101788759Y-48189142D02*
X101788759Y-47617714D01*
X101788759Y-47617714D02*
X101860187Y-47474857D01*
X101860187Y-47474857D02*
X102003045Y-47403428D01*
X102003045Y-47403428D02*
X102288759Y-47403428D01*
X102288759Y-47403428D02*
X102431616Y-47474857D01*
X102431616Y-47474857D02*
X102503045Y-47617714D01*
X102503045Y-47617714D02*
X102503045Y-47760571D01*
X102503045Y-47760571D02*
X101788759Y-47903428D01*
X103145901Y-47403428D02*
X103145901Y-48403428D01*
X103145901Y-47546285D02*
X103217330Y-47474857D01*
X103217330Y-47474857D02*
X103360187Y-47403428D01*
X103360187Y-47403428D02*
X103574473Y-47403428D01*
X103574473Y-47403428D02*
X103717330Y-47474857D01*
X103717330Y-47474857D02*
X103788759Y-47617714D01*
X103788759Y-47617714D02*
X103788759Y-48403428D01*
X105360187Y-48403428D02*
X104860187Y-47689142D01*
X104503044Y-48403428D02*
X104503044Y-46903428D01*
X104503044Y-46903428D02*
X105074473Y-46903428D01*
X105074473Y-46903428D02*
X105217330Y-46974857D01*
X105217330Y-46974857D02*
X105288759Y-47046285D01*
X105288759Y-47046285D02*
X105360187Y-47189142D01*
X105360187Y-47189142D02*
X105360187Y-47403428D01*
X105360187Y-47403428D02*
X105288759Y-47546285D01*
X105288759Y-47546285D02*
X105217330Y-47617714D01*
X105217330Y-47617714D02*
X105074473Y-47689142D01*
X105074473Y-47689142D02*
X104503044Y-47689142D01*
X106574473Y-48332000D02*
X106431616Y-48403428D01*
X106431616Y-48403428D02*
X106145902Y-48403428D01*
X106145902Y-48403428D02*
X106003044Y-48332000D01*
X106003044Y-48332000D02*
X105931616Y-48189142D01*
X105931616Y-48189142D02*
X105931616Y-47617714D01*
X105931616Y-47617714D02*
X106003044Y-47474857D01*
X106003044Y-47474857D02*
X106145902Y-47403428D01*
X106145902Y-47403428D02*
X106431616Y-47403428D01*
X106431616Y-47403428D02*
X106574473Y-47474857D01*
X106574473Y-47474857D02*
X106645902Y-47617714D01*
X106645902Y-47617714D02*
X106645902Y-47760571D01*
X106645902Y-47760571D02*
X105931616Y-47903428D01*
X107074473Y-47403428D02*
X107645901Y-47403428D01*
X107288758Y-48403428D02*
X107288758Y-47117714D01*
X107288758Y-47117714D02*
X107360187Y-46974857D01*
X107360187Y-46974857D02*
X107503044Y-46903428D01*
X107503044Y-46903428D02*
X107645901Y-46903428D01*
X108360187Y-48403428D02*
X108217330Y-48332000D01*
X108217330Y-48332000D02*
X108145901Y-48189142D01*
X108145901Y-48189142D02*
X108145901Y-46903428D01*
X109145901Y-48403428D02*
X109003044Y-48332000D01*
X109003044Y-48332000D02*
X108931615Y-48260571D01*
X108931615Y-48260571D02*
X108860187Y-48117714D01*
X108860187Y-48117714D02*
X108860187Y-47689142D01*
X108860187Y-47689142D02*
X108931615Y-47546285D01*
X108931615Y-47546285D02*
X109003044Y-47474857D01*
X109003044Y-47474857D02*
X109145901Y-47403428D01*
X109145901Y-47403428D02*
X109360187Y-47403428D01*
X109360187Y-47403428D02*
X109503044Y-47474857D01*
X109503044Y-47474857D02*
X109574473Y-47546285D01*
X109574473Y-47546285D02*
X109645901Y-47689142D01*
X109645901Y-47689142D02*
X109645901Y-48117714D01*
X109645901Y-48117714D02*
X109574473Y-48260571D01*
X109574473Y-48260571D02*
X109503044Y-48332000D01*
X109503044Y-48332000D02*
X109360187Y-48403428D01*
X109360187Y-48403428D02*
X109145901Y-48403428D01*
X110145901Y-47403428D02*
X110431616Y-48403428D01*
X110431616Y-48403428D02*
X110717330Y-47689142D01*
X110717330Y-47689142D02*
X111003044Y-48403428D01*
X111003044Y-48403428D02*
X111288758Y-47403428D01*
X111860187Y-48403428D02*
X111860187Y-46903428D01*
X111860187Y-46903428D02*
X112431616Y-46903428D01*
X112431616Y-46903428D02*
X112574473Y-46974857D01*
X112574473Y-46974857D02*
X112645902Y-47046285D01*
X112645902Y-47046285D02*
X112717330Y-47189142D01*
X112717330Y-47189142D02*
X112717330Y-47403428D01*
X112717330Y-47403428D02*
X112645902Y-47546285D01*
X112645902Y-47546285D02*
X112574473Y-47617714D01*
X112574473Y-47617714D02*
X112431616Y-47689142D01*
X112431616Y-47689142D02*
X111860187Y-47689142D01*
X113574473Y-48403428D02*
X113431616Y-48332000D01*
X113431616Y-48332000D02*
X113360187Y-48189142D01*
X113360187Y-48189142D02*
X113360187Y-46903428D01*
X114788759Y-48403428D02*
X114788759Y-47617714D01*
X114788759Y-47617714D02*
X114717330Y-47474857D01*
X114717330Y-47474857D02*
X114574473Y-47403428D01*
X114574473Y-47403428D02*
X114288759Y-47403428D01*
X114288759Y-47403428D02*
X114145901Y-47474857D01*
X114788759Y-48332000D02*
X114645901Y-48403428D01*
X114645901Y-48403428D02*
X114288759Y-48403428D01*
X114288759Y-48403428D02*
X114145901Y-48332000D01*
X114145901Y-48332000D02*
X114074473Y-48189142D01*
X114074473Y-48189142D02*
X114074473Y-48046285D01*
X114074473Y-48046285D02*
X114145901Y-47903428D01*
X114145901Y-47903428D02*
X114288759Y-47832000D01*
X114288759Y-47832000D02*
X114645901Y-47832000D01*
X114645901Y-47832000D02*
X114788759Y-47760571D01*
X115288759Y-47403428D02*
X115860187Y-47403428D01*
X115503044Y-46903428D02*
X115503044Y-48189142D01*
X115503044Y-48189142D02*
X115574473Y-48332000D01*
X115574473Y-48332000D02*
X115717330Y-48403428D01*
X115717330Y-48403428D02*
X115860187Y-48403428D01*
X116931616Y-48332000D02*
X116788759Y-48403428D01*
X116788759Y-48403428D02*
X116503045Y-48403428D01*
X116503045Y-48403428D02*
X116360187Y-48332000D01*
X116360187Y-48332000D02*
X116288759Y-48189142D01*
X116288759Y-48189142D02*
X116288759Y-47617714D01*
X116288759Y-47617714D02*
X116360187Y-47474857D01*
X116360187Y-47474857D02*
X116503045Y-47403428D01*
X116503045Y-47403428D02*
X116788759Y-47403428D01*
X116788759Y-47403428D02*
X116931616Y-47474857D01*
X116931616Y-47474857D02*
X117003045Y-47617714D01*
X117003045Y-47617714D02*
X117003045Y-47760571D01*
X117003045Y-47760571D02*
X116288759Y-47903428D01*
X118788758Y-48403428D02*
X118788758Y-47403428D01*
X118788758Y-47689142D02*
X118860187Y-47546285D01*
X118860187Y-47546285D02*
X118931616Y-47474857D01*
X118931616Y-47474857D02*
X119074473Y-47403428D01*
X119074473Y-47403428D02*
X119217330Y-47403428D01*
X120288758Y-48332000D02*
X120145901Y-48403428D01*
X120145901Y-48403428D02*
X119860187Y-48403428D01*
X119860187Y-48403428D02*
X119717329Y-48332000D01*
X119717329Y-48332000D02*
X119645901Y-48189142D01*
X119645901Y-48189142D02*
X119645901Y-47617714D01*
X119645901Y-47617714D02*
X119717329Y-47474857D01*
X119717329Y-47474857D02*
X119860187Y-47403428D01*
X119860187Y-47403428D02*
X120145901Y-47403428D01*
X120145901Y-47403428D02*
X120288758Y-47474857D01*
X120288758Y-47474857D02*
X120360187Y-47617714D01*
X120360187Y-47617714D02*
X120360187Y-47760571D01*
X120360187Y-47760571D02*
X119645901Y-47903428D01*
X120860186Y-47403428D02*
X121217329Y-48403428D01*
X121217329Y-48403428D02*
X121574472Y-47403428D01*
X124074472Y-48403428D02*
X123217329Y-48403428D01*
X123645900Y-48403428D02*
X123645900Y-46903428D01*
X123645900Y-46903428D02*
X123503043Y-47117714D01*
X123503043Y-47117714D02*
X123360186Y-47260571D01*
X123360186Y-47260571D02*
X123217329Y-47332000D01*
X125860185Y-47832000D02*
X127003043Y-47832000D01*
X128788757Y-47046285D02*
X128860185Y-46974857D01*
X128860185Y-46974857D02*
X129003043Y-46903428D01*
X129003043Y-46903428D02*
X129360185Y-46903428D01*
X129360185Y-46903428D02*
X129503043Y-46974857D01*
X129503043Y-46974857D02*
X129574471Y-47046285D01*
X129574471Y-47046285D02*
X129645900Y-47189142D01*
X129645900Y-47189142D02*
X129645900Y-47332000D01*
X129645900Y-47332000D02*
X129574471Y-47546285D01*
X129574471Y-47546285D02*
X128717328Y-48403428D01*
X128717328Y-48403428D02*
X129645900Y-48403428D01*
X130574471Y-46903428D02*
X130717328Y-46903428D01*
X130717328Y-46903428D02*
X130860185Y-46974857D01*
X130860185Y-46974857D02*
X130931614Y-47046285D01*
X130931614Y-47046285D02*
X131003042Y-47189142D01*
X131003042Y-47189142D02*
X131074471Y-47474857D01*
X131074471Y-47474857D02*
X131074471Y-47832000D01*
X131074471Y-47832000D02*
X131003042Y-48117714D01*
X131003042Y-48117714D02*
X130931614Y-48260571D01*
X130931614Y-48260571D02*
X130860185Y-48332000D01*
X130860185Y-48332000D02*
X130717328Y-48403428D01*
X130717328Y-48403428D02*
X130574471Y-48403428D01*
X130574471Y-48403428D02*
X130431614Y-48332000D01*
X130431614Y-48332000D02*
X130360185Y-48260571D01*
X130360185Y-48260571D02*
X130288756Y-48117714D01*
X130288756Y-48117714D02*
X130217328Y-47832000D01*
X130217328Y-47832000D02*
X130217328Y-47474857D01*
X130217328Y-47474857D02*
X130288756Y-47189142D01*
X130288756Y-47189142D02*
X130360185Y-47046285D01*
X130360185Y-47046285D02*
X130431614Y-46974857D01*
X130431614Y-46974857D02*
X130574471Y-46903428D01*
X131645899Y-47046285D02*
X131717327Y-46974857D01*
X131717327Y-46974857D02*
X131860185Y-46903428D01*
X131860185Y-46903428D02*
X132217327Y-46903428D01*
X132217327Y-46903428D02*
X132360185Y-46974857D01*
X132360185Y-46974857D02*
X132431613Y-47046285D01*
X132431613Y-47046285D02*
X132503042Y-47189142D01*
X132503042Y-47189142D02*
X132503042Y-47332000D01*
X132503042Y-47332000D02*
X132431613Y-47546285D01*
X132431613Y-47546285D02*
X131574470Y-48403428D01*
X131574470Y-48403428D02*
X132503042Y-48403428D01*
X133788756Y-47403428D02*
X133788756Y-48403428D01*
X133431613Y-46832000D02*
X133074470Y-47903428D01*
X133074470Y-47903428D02*
X134003041Y-47903428D01*
D10*
X92252969Y-110519819D02*
X91776779Y-110519819D01*
X91776779Y-110519819D02*
X91776779Y-109519819D01*
X92586303Y-110519819D02*
X92586303Y-109853152D01*
X92586303Y-109519819D02*
X92538684Y-109567438D01*
X92538684Y-109567438D02*
X92586303Y-109615057D01*
X92586303Y-109615057D02*
X92633922Y-109567438D01*
X92633922Y-109567438D02*
X92586303Y-109519819D01*
X92586303Y-109519819D02*
X92586303Y-109615057D01*
X92919636Y-109853152D02*
X93300588Y-109853152D01*
X93062493Y-110519819D02*
X93062493Y-109662676D01*
X93062493Y-109662676D02*
X93110112Y-109567438D01*
X93110112Y-109567438D02*
X93205350Y-109519819D01*
X93205350Y-109519819D02*
X93300588Y-109519819D01*
X94014874Y-110472200D02*
X93919636Y-110519819D01*
X93919636Y-110519819D02*
X93729160Y-110519819D01*
X93729160Y-110519819D02*
X93633922Y-110472200D01*
X93633922Y-110472200D02*
X93586303Y-110376961D01*
X93586303Y-110376961D02*
X93586303Y-109996009D01*
X93586303Y-109996009D02*
X93633922Y-109900771D01*
X93633922Y-109900771D02*
X93729160Y-109853152D01*
X93729160Y-109853152D02*
X93919636Y-109853152D01*
X93919636Y-109853152D02*
X94014874Y-109900771D01*
X94014874Y-109900771D02*
X94062493Y-109996009D01*
X94062493Y-109996009D02*
X94062493Y-110091247D01*
X94062493Y-110091247D02*
X93586303Y-110186485D01*
X131308207Y-117139819D02*
X130974874Y-116663628D01*
X130736779Y-117139819D02*
X130736779Y-116139819D01*
X130736779Y-116139819D02*
X131117731Y-116139819D01*
X131117731Y-116139819D02*
X131212969Y-116187438D01*
X131212969Y-116187438D02*
X131260588Y-116235057D01*
X131260588Y-116235057D02*
X131308207Y-116330295D01*
X131308207Y-116330295D02*
X131308207Y-116473152D01*
X131308207Y-116473152D02*
X131260588Y-116568390D01*
X131260588Y-116568390D02*
X131212969Y-116616009D01*
X131212969Y-116616009D02*
X131117731Y-116663628D01*
X131117731Y-116663628D02*
X130736779Y-116663628D01*
X131736779Y-117139819D02*
X131736779Y-116473152D01*
X131736779Y-116139819D02*
X131689160Y-116187438D01*
X131689160Y-116187438D02*
X131736779Y-116235057D01*
X131736779Y-116235057D02*
X131784398Y-116187438D01*
X131784398Y-116187438D02*
X131736779Y-116139819D01*
X131736779Y-116139819D02*
X131736779Y-116235057D01*
X132641540Y-116473152D02*
X132641540Y-117282676D01*
X132641540Y-117282676D02*
X132593921Y-117377914D01*
X132593921Y-117377914D02*
X132546302Y-117425533D01*
X132546302Y-117425533D02*
X132451064Y-117473152D01*
X132451064Y-117473152D02*
X132308207Y-117473152D01*
X132308207Y-117473152D02*
X132212969Y-117425533D01*
X132641540Y-117092200D02*
X132546302Y-117139819D01*
X132546302Y-117139819D02*
X132355826Y-117139819D01*
X132355826Y-117139819D02*
X132260588Y-117092200D01*
X132260588Y-117092200D02*
X132212969Y-117044580D01*
X132212969Y-117044580D02*
X132165350Y-116949342D01*
X132165350Y-116949342D02*
X132165350Y-116663628D01*
X132165350Y-116663628D02*
X132212969Y-116568390D01*
X132212969Y-116568390D02*
X132260588Y-116520771D01*
X132260588Y-116520771D02*
X132355826Y-116473152D01*
X132355826Y-116473152D02*
X132546302Y-116473152D01*
X132546302Y-116473152D02*
X132641540Y-116520771D01*
X133117731Y-117139819D02*
X133117731Y-116139819D01*
X133546302Y-117139819D02*
X133546302Y-116616009D01*
X133546302Y-116616009D02*
X133498683Y-116520771D01*
X133498683Y-116520771D02*
X133403445Y-116473152D01*
X133403445Y-116473152D02*
X133260588Y-116473152D01*
X133260588Y-116473152D02*
X133165350Y-116520771D01*
X133165350Y-116520771D02*
X133117731Y-116568390D01*
X133879636Y-116473152D02*
X134260588Y-116473152D01*
X134022493Y-116139819D02*
X134022493Y-116996961D01*
X134022493Y-116996961D02*
X134070112Y-117092200D01*
X134070112Y-117092200D02*
X134165350Y-117139819D01*
X134165350Y-117139819D02*
X134260588Y-117139819D01*
X120536779Y-116616009D02*
X120870112Y-116616009D01*
X121012969Y-117139819D02*
X120536779Y-117139819D01*
X120536779Y-117139819D02*
X120536779Y-116139819D01*
X120536779Y-116139819D02*
X121012969Y-116139819D01*
X121441541Y-116473152D02*
X121441541Y-117139819D01*
X121441541Y-116568390D02*
X121489160Y-116520771D01*
X121489160Y-116520771D02*
X121584398Y-116473152D01*
X121584398Y-116473152D02*
X121727255Y-116473152D01*
X121727255Y-116473152D02*
X121822493Y-116520771D01*
X121822493Y-116520771D02*
X121870112Y-116616009D01*
X121870112Y-116616009D02*
X121870112Y-117139819D01*
X122203446Y-116473152D02*
X122584398Y-116473152D01*
X122346303Y-116139819D02*
X122346303Y-116996961D01*
X122346303Y-116996961D02*
X122393922Y-117092200D01*
X122393922Y-117092200D02*
X122489160Y-117139819D01*
X122489160Y-117139819D02*
X122584398Y-117139819D01*
X123298684Y-117092200D02*
X123203446Y-117139819D01*
X123203446Y-117139819D02*
X123012970Y-117139819D01*
X123012970Y-117139819D02*
X122917732Y-117092200D01*
X122917732Y-117092200D02*
X122870113Y-116996961D01*
X122870113Y-116996961D02*
X122870113Y-116616009D01*
X122870113Y-116616009D02*
X122917732Y-116520771D01*
X122917732Y-116520771D02*
X123012970Y-116473152D01*
X123012970Y-116473152D02*
X123203446Y-116473152D01*
X123203446Y-116473152D02*
X123298684Y-116520771D01*
X123298684Y-116520771D02*
X123346303Y-116616009D01*
X123346303Y-116616009D02*
X123346303Y-116711247D01*
X123346303Y-116711247D02*
X122870113Y-116806485D01*
X123774875Y-117139819D02*
X123774875Y-116473152D01*
X123774875Y-116663628D02*
X123822494Y-116568390D01*
X123822494Y-116568390D02*
X123870113Y-116520771D01*
X123870113Y-116520771D02*
X123965351Y-116473152D01*
X123965351Y-116473152D02*
X124060589Y-116473152D01*
D11*
X92006571Y-79207330D02*
X92006571Y-79493044D01*
X92006571Y-79493044D02*
X91935142Y-79635901D01*
X91935142Y-79635901D02*
X91792285Y-79778758D01*
X91792285Y-79778758D02*
X91506571Y-79850187D01*
X91506571Y-79850187D02*
X91006571Y-79850187D01*
X91006571Y-79850187D02*
X90720857Y-79778758D01*
X90720857Y-79778758D02*
X90578000Y-79635901D01*
X90578000Y-79635901D02*
X90506571Y-79493044D01*
X90506571Y-79493044D02*
X90506571Y-79207330D01*
X90506571Y-79207330D02*
X90578000Y-79064473D01*
X90578000Y-79064473D02*
X90720857Y-78921615D01*
X90720857Y-78921615D02*
X91006571Y-78850187D01*
X91006571Y-78850187D02*
X91506571Y-78850187D01*
X91506571Y-78850187D02*
X91792285Y-78921615D01*
X91792285Y-78921615D02*
X91935142Y-79064473D01*
X91935142Y-79064473D02*
X92006571Y-79207330D01*
X92006571Y-80493044D02*
X90792285Y-80493044D01*
X90792285Y-80493044D02*
X90649428Y-80564473D01*
X90649428Y-80564473D02*
X90578000Y-80635902D01*
X90578000Y-80635902D02*
X90506571Y-80778759D01*
X90506571Y-80778759D02*
X90506571Y-81064473D01*
X90506571Y-81064473D02*
X90578000Y-81207330D01*
X90578000Y-81207330D02*
X90649428Y-81278759D01*
X90649428Y-81278759D02*
X90792285Y-81350187D01*
X90792285Y-81350187D02*
X92006571Y-81350187D01*
X92006571Y-81850188D02*
X92006571Y-82707331D01*
X90506571Y-82278759D02*
X92006571Y-82278759D01*
X90506571Y-83207330D02*
X92006571Y-83207330D01*
X92006571Y-83207330D02*
X92006571Y-83778759D01*
X92006571Y-83778759D02*
X91935142Y-83921616D01*
X91935142Y-83921616D02*
X91863714Y-83993045D01*
X91863714Y-83993045D02*
X91720857Y-84064473D01*
X91720857Y-84064473D02*
X91506571Y-84064473D01*
X91506571Y-84064473D02*
X91363714Y-83993045D01*
X91363714Y-83993045D02*
X91292285Y-83921616D01*
X91292285Y-83921616D02*
X91220857Y-83778759D01*
X91220857Y-83778759D02*
X91220857Y-83207330D01*
X92006571Y-84707330D02*
X90792285Y-84707330D01*
X90792285Y-84707330D02*
X90649428Y-84778759D01*
X90649428Y-84778759D02*
X90578000Y-84850188D01*
X90578000Y-84850188D02*
X90506571Y-84993045D01*
X90506571Y-84993045D02*
X90506571Y-85278759D01*
X90506571Y-85278759D02*
X90578000Y-85421616D01*
X90578000Y-85421616D02*
X90649428Y-85493045D01*
X90649428Y-85493045D02*
X90792285Y-85564473D01*
X90792285Y-85564473D02*
X92006571Y-85564473D01*
X92006571Y-86064474D02*
X92006571Y-86921617D01*
X90506571Y-86493045D02*
X92006571Y-86493045D01*
D10*
X119084104Y-127514173D02*
X119084104Y-127037983D01*
X119369819Y-127609411D02*
X118369819Y-127276078D01*
X118369819Y-127276078D02*
X119369819Y-126942745D01*
X118703152Y-126180840D02*
X119369819Y-126180840D01*
X118703152Y-126609411D02*
X119226961Y-126609411D01*
X119226961Y-126609411D02*
X119322200Y-126561792D01*
X119322200Y-126561792D02*
X119369819Y-126466554D01*
X119369819Y-126466554D02*
X119369819Y-126323697D01*
X119369819Y-126323697D02*
X119322200Y-126228459D01*
X119322200Y-126228459D02*
X119274580Y-126180840D01*
X119369819Y-125799887D02*
X118703152Y-125276078D01*
X118703152Y-125799887D02*
X119369819Y-125276078D01*
X111122969Y-98109819D02*
X110646779Y-98109819D01*
X110646779Y-98109819D02*
X110646779Y-97109819D01*
X111456303Y-98109819D02*
X111456303Y-97109819D01*
X111456303Y-97109819D02*
X111694398Y-97109819D01*
X111694398Y-97109819D02*
X111837255Y-97157438D01*
X111837255Y-97157438D02*
X111932493Y-97252676D01*
X111932493Y-97252676D02*
X111980112Y-97347914D01*
X111980112Y-97347914D02*
X112027731Y-97538390D01*
X112027731Y-97538390D02*
X112027731Y-97681247D01*
X112027731Y-97681247D02*
X111980112Y-97871723D01*
X111980112Y-97871723D02*
X111932493Y-97966961D01*
X111932493Y-97966961D02*
X111837255Y-98062200D01*
X111837255Y-98062200D02*
X111694398Y-98109819D01*
X111694398Y-98109819D02*
X111456303Y-98109819D01*
X112646779Y-97109819D02*
X112837255Y-97109819D01*
X112837255Y-97109819D02*
X112932493Y-97157438D01*
X112932493Y-97157438D02*
X113027731Y-97252676D01*
X113027731Y-97252676D02*
X113075350Y-97443152D01*
X113075350Y-97443152D02*
X113075350Y-97776485D01*
X113075350Y-97776485D02*
X113027731Y-97966961D01*
X113027731Y-97966961D02*
X112932493Y-98062200D01*
X112932493Y-98062200D02*
X112837255Y-98109819D01*
X112837255Y-98109819D02*
X112646779Y-98109819D01*
X112646779Y-98109819D02*
X112551541Y-98062200D01*
X112551541Y-98062200D02*
X112456303Y-97966961D01*
X112456303Y-97966961D02*
X112408684Y-97776485D01*
X112408684Y-97776485D02*
X112408684Y-97443152D01*
X112408684Y-97443152D02*
X112456303Y-97252676D01*
X112456303Y-97252676D02*
X112551541Y-97157438D01*
X112551541Y-97157438D02*
X112646779Y-97109819D01*
X100712969Y-117139819D02*
X100236779Y-117139819D01*
X100236779Y-117139819D02*
X100236779Y-116139819D01*
X101427255Y-117092200D02*
X101332017Y-117139819D01*
X101332017Y-117139819D02*
X101141541Y-117139819D01*
X101141541Y-117139819D02*
X101046303Y-117092200D01*
X101046303Y-117092200D02*
X100998684Y-116996961D01*
X100998684Y-116996961D02*
X100998684Y-116616009D01*
X100998684Y-116616009D02*
X101046303Y-116520771D01*
X101046303Y-116520771D02*
X101141541Y-116473152D01*
X101141541Y-116473152D02*
X101332017Y-116473152D01*
X101332017Y-116473152D02*
X101427255Y-116520771D01*
X101427255Y-116520771D02*
X101474874Y-116616009D01*
X101474874Y-116616009D02*
X101474874Y-116711247D01*
X101474874Y-116711247D02*
X100998684Y-116806485D01*
X101760589Y-116473152D02*
X102141541Y-116473152D01*
X101903446Y-117139819D02*
X101903446Y-116282676D01*
X101903446Y-116282676D02*
X101951065Y-116187438D01*
X101951065Y-116187438D02*
X102046303Y-116139819D01*
X102046303Y-116139819D02*
X102141541Y-116139819D01*
X102332018Y-116473152D02*
X102712970Y-116473152D01*
X102474875Y-116139819D02*
X102474875Y-116996961D01*
X102474875Y-116996961D02*
X102522494Y-117092200D01*
X102522494Y-117092200D02*
X102617732Y-117139819D01*
X102617732Y-117139819D02*
X102712970Y-117139819D01*
X90146779Y-67246009D02*
X90480112Y-67246009D01*
X90622969Y-67769819D02*
X90146779Y-67769819D01*
X90146779Y-67769819D02*
X90146779Y-66769819D01*
X90146779Y-66769819D02*
X90622969Y-66769819D01*
X91480112Y-67769819D02*
X91480112Y-67246009D01*
X91480112Y-67246009D02*
X91432493Y-67150771D01*
X91432493Y-67150771D02*
X91337255Y-67103152D01*
X91337255Y-67103152D02*
X91146779Y-67103152D01*
X91146779Y-67103152D02*
X91051541Y-67150771D01*
X91480112Y-67722200D02*
X91384874Y-67769819D01*
X91384874Y-67769819D02*
X91146779Y-67769819D01*
X91146779Y-67769819D02*
X91051541Y-67722200D01*
X91051541Y-67722200D02*
X91003922Y-67626961D01*
X91003922Y-67626961D02*
X91003922Y-67531723D01*
X91003922Y-67531723D02*
X91051541Y-67436485D01*
X91051541Y-67436485D02*
X91146779Y-67388866D01*
X91146779Y-67388866D02*
X91384874Y-67388866D01*
X91384874Y-67388866D02*
X91480112Y-67341247D01*
X91956303Y-67769819D02*
X91956303Y-67103152D01*
X91956303Y-67293628D02*
X92003922Y-67198390D01*
X92003922Y-67198390D02*
X92051541Y-67150771D01*
X92051541Y-67150771D02*
X92146779Y-67103152D01*
X92146779Y-67103152D02*
X92242017Y-67103152D01*
X92432494Y-67103152D02*
X92813446Y-67103152D01*
X92575351Y-66769819D02*
X92575351Y-67626961D01*
X92575351Y-67626961D02*
X92622970Y-67722200D01*
X92622970Y-67722200D02*
X92718208Y-67769819D01*
X92718208Y-67769819D02*
X92813446Y-67769819D01*
X93146780Y-67769819D02*
X93146780Y-66769819D01*
X93575351Y-67769819D02*
X93575351Y-67246009D01*
X93575351Y-67246009D02*
X93527732Y-67150771D01*
X93527732Y-67150771D02*
X93432494Y-67103152D01*
X93432494Y-67103152D02*
X93289637Y-67103152D01*
X93289637Y-67103152D02*
X93194399Y-67150771D01*
X93194399Y-67150771D02*
X93146780Y-67198390D01*
X114122200Y-127680839D02*
X114169819Y-127537982D01*
X114169819Y-127537982D02*
X114169819Y-127299887D01*
X114169819Y-127299887D02*
X114122200Y-127204649D01*
X114122200Y-127204649D02*
X114074580Y-127157030D01*
X114074580Y-127157030D02*
X113979342Y-127109411D01*
X113979342Y-127109411D02*
X113884104Y-127109411D01*
X113884104Y-127109411D02*
X113788866Y-127157030D01*
X113788866Y-127157030D02*
X113741247Y-127204649D01*
X113741247Y-127204649D02*
X113693628Y-127299887D01*
X113693628Y-127299887D02*
X113646009Y-127490363D01*
X113646009Y-127490363D02*
X113598390Y-127585601D01*
X113598390Y-127585601D02*
X113550771Y-127633220D01*
X113550771Y-127633220D02*
X113455533Y-127680839D01*
X113455533Y-127680839D02*
X113360295Y-127680839D01*
X113360295Y-127680839D02*
X113265057Y-127633220D01*
X113265057Y-127633220D02*
X113217438Y-127585601D01*
X113217438Y-127585601D02*
X113169819Y-127490363D01*
X113169819Y-127490363D02*
X113169819Y-127252268D01*
X113169819Y-127252268D02*
X113217438Y-127109411D01*
X114122200Y-126728458D02*
X114169819Y-126585601D01*
X114169819Y-126585601D02*
X114169819Y-126347506D01*
X114169819Y-126347506D02*
X114122200Y-126252268D01*
X114122200Y-126252268D02*
X114074580Y-126204649D01*
X114074580Y-126204649D02*
X113979342Y-126157030D01*
X113979342Y-126157030D02*
X113884104Y-126157030D01*
X113884104Y-126157030D02*
X113788866Y-126204649D01*
X113788866Y-126204649D02*
X113741247Y-126252268D01*
X113741247Y-126252268D02*
X113693628Y-126347506D01*
X113693628Y-126347506D02*
X113646009Y-126537982D01*
X113646009Y-126537982D02*
X113598390Y-126633220D01*
X113598390Y-126633220D02*
X113550771Y-126680839D01*
X113550771Y-126680839D02*
X113455533Y-126728458D01*
X113455533Y-126728458D02*
X113360295Y-126728458D01*
X113360295Y-126728458D02*
X113265057Y-126680839D01*
X113265057Y-126680839D02*
X113217438Y-126633220D01*
X113217438Y-126633220D02*
X113169819Y-126537982D01*
X113169819Y-126537982D02*
X113169819Y-126299887D01*
X113169819Y-126299887D02*
X113217438Y-126157030D01*
X114169819Y-125157030D02*
X113693628Y-125490363D01*
X114169819Y-125728458D02*
X113169819Y-125728458D01*
X113169819Y-125728458D02*
X113169819Y-125347506D01*
X113169819Y-125347506D02*
X113217438Y-125252268D01*
X113217438Y-125252268D02*
X113265057Y-125204649D01*
X113265057Y-125204649D02*
X113360295Y-125157030D01*
X113360295Y-125157030D02*
X113503152Y-125157030D01*
X113503152Y-125157030D02*
X113598390Y-125204649D01*
X113598390Y-125204649D02*
X113646009Y-125252268D01*
X113646009Y-125252268D02*
X113693628Y-125347506D01*
X113693628Y-125347506D02*
X113693628Y-125728458D01*
D12*
X130512618Y-92514318D02*
X130512618Y-91244318D01*
X131238333Y-92514318D02*
X130694047Y-91788603D01*
X131238333Y-91244318D02*
X130512618Y-91970032D01*
X131661666Y-91244318D02*
X132447857Y-91244318D01*
X132447857Y-91244318D02*
X132024523Y-91728127D01*
X132024523Y-91728127D02*
X132205952Y-91728127D01*
X132205952Y-91728127D02*
X132326904Y-91788603D01*
X132326904Y-91788603D02*
X132387380Y-91849080D01*
X132387380Y-91849080D02*
X132447857Y-91970032D01*
X132447857Y-91970032D02*
X132447857Y-92272413D01*
X132447857Y-92272413D02*
X132387380Y-92393365D01*
X132387380Y-92393365D02*
X132326904Y-92453842D01*
X132326904Y-92453842D02*
X132205952Y-92514318D01*
X132205952Y-92514318D02*
X131843095Y-92514318D01*
X131843095Y-92514318D02*
X131722142Y-92453842D01*
X131722142Y-92453842D02*
X131661666Y-92393365D01*
X131344318Y-69492143D02*
X130074318Y-69492143D01*
X130074318Y-69492143D02*
X130074318Y-69008333D01*
X130074318Y-69008333D02*
X130134794Y-68887381D01*
X130134794Y-68887381D02*
X130195270Y-68826904D01*
X130195270Y-68826904D02*
X130316222Y-68766428D01*
X130316222Y-68766428D02*
X130497651Y-68766428D01*
X130497651Y-68766428D02*
X130618603Y-68826904D01*
X130618603Y-68826904D02*
X130679080Y-68887381D01*
X130679080Y-68887381D02*
X130739556Y-69008333D01*
X130739556Y-69008333D02*
X130739556Y-69492143D01*
X131283842Y-68282619D02*
X131344318Y-68101190D01*
X131344318Y-68101190D02*
X131344318Y-67798809D01*
X131344318Y-67798809D02*
X131283842Y-67677857D01*
X131283842Y-67677857D02*
X131223365Y-67617381D01*
X131223365Y-67617381D02*
X131102413Y-67556904D01*
X131102413Y-67556904D02*
X130981461Y-67556904D01*
X130981461Y-67556904D02*
X130860508Y-67617381D01*
X130860508Y-67617381D02*
X130800032Y-67677857D01*
X130800032Y-67677857D02*
X130739556Y-67798809D01*
X130739556Y-67798809D02*
X130679080Y-68040714D01*
X130679080Y-68040714D02*
X130618603Y-68161666D01*
X130618603Y-68161666D02*
X130558127Y-68222143D01*
X130558127Y-68222143D02*
X130437175Y-68282619D01*
X130437175Y-68282619D02*
X130316222Y-68282619D01*
X130316222Y-68282619D02*
X130195270Y-68222143D01*
X130195270Y-68222143D02*
X130134794Y-68161666D01*
X130134794Y-68161666D02*
X130074318Y-68040714D01*
X130074318Y-68040714D02*
X130074318Y-67738333D01*
X130074318Y-67738333D02*
X130134794Y-67556904D01*
X130195270Y-67073095D02*
X130134794Y-67012619D01*
X130134794Y-67012619D02*
X130074318Y-66891666D01*
X130074318Y-66891666D02*
X130074318Y-66589285D01*
X130074318Y-66589285D02*
X130134794Y-66468333D01*
X130134794Y-66468333D02*
X130195270Y-66407857D01*
X130195270Y-66407857D02*
X130316222Y-66347380D01*
X130316222Y-66347380D02*
X130437175Y-66347380D01*
X130437175Y-66347380D02*
X130618603Y-66407857D01*
X130618603Y-66407857D02*
X131344318Y-67133571D01*
X131344318Y-67133571D02*
X131344318Y-66347380D01*
D10*
X108233333Y-95759580D02*
X108185714Y-95807200D01*
X108185714Y-95807200D02*
X108042857Y-95854819D01*
X108042857Y-95854819D02*
X107947619Y-95854819D01*
X107947619Y-95854819D02*
X107804762Y-95807200D01*
X107804762Y-95807200D02*
X107709524Y-95711961D01*
X107709524Y-95711961D02*
X107661905Y-95616723D01*
X107661905Y-95616723D02*
X107614286Y-95426247D01*
X107614286Y-95426247D02*
X107614286Y-95283390D01*
X107614286Y-95283390D02*
X107661905Y-95092914D01*
X107661905Y-95092914D02*
X107709524Y-94997676D01*
X107709524Y-94997676D02*
X107804762Y-94902438D01*
X107804762Y-94902438D02*
X107947619Y-94854819D01*
X107947619Y-94854819D02*
X108042857Y-94854819D01*
X108042857Y-94854819D02*
X108185714Y-94902438D01*
X108185714Y-94902438D02*
X108233333Y-94950057D01*
X108614286Y-94950057D02*
X108661905Y-94902438D01*
X108661905Y-94902438D02*
X108757143Y-94854819D01*
X108757143Y-94854819D02*
X108995238Y-94854819D01*
X108995238Y-94854819D02*
X109090476Y-94902438D01*
X109090476Y-94902438D02*
X109138095Y-94950057D01*
X109138095Y-94950057D02*
X109185714Y-95045295D01*
X109185714Y-95045295D02*
X109185714Y-95140533D01*
X109185714Y-95140533D02*
X109138095Y-95283390D01*
X109138095Y-95283390D02*
X108566667Y-95854819D01*
X108566667Y-95854819D02*
X109185714Y-95854819D01*
X101323905Y-99254819D02*
X101323905Y-98254819D01*
X101323905Y-98254819D02*
X101562000Y-98254819D01*
X101562000Y-98254819D02*
X101704857Y-98302438D01*
X101704857Y-98302438D02*
X101800095Y-98397676D01*
X101800095Y-98397676D02*
X101847714Y-98492914D01*
X101847714Y-98492914D02*
X101895333Y-98683390D01*
X101895333Y-98683390D02*
X101895333Y-98826247D01*
X101895333Y-98826247D02*
X101847714Y-99016723D01*
X101847714Y-99016723D02*
X101800095Y-99111961D01*
X101800095Y-99111961D02*
X101704857Y-99207200D01*
X101704857Y-99207200D02*
X101562000Y-99254819D01*
X101562000Y-99254819D02*
X101323905Y-99254819D01*
X102276286Y-98350057D02*
X102323905Y-98302438D01*
X102323905Y-98302438D02*
X102419143Y-98254819D01*
X102419143Y-98254819D02*
X102657238Y-98254819D01*
X102657238Y-98254819D02*
X102752476Y-98302438D01*
X102752476Y-98302438D02*
X102800095Y-98350057D01*
X102800095Y-98350057D02*
X102847714Y-98445295D01*
X102847714Y-98445295D02*
X102847714Y-98540533D01*
X102847714Y-98540533D02*
X102800095Y-98683390D01*
X102800095Y-98683390D02*
X102228667Y-99254819D01*
X102228667Y-99254819D02*
X102847714Y-99254819D01*
X112017234Y-121182200D02*
X111874377Y-121229819D01*
X111874377Y-121229819D02*
X111636282Y-121229819D01*
X111636282Y-121229819D02*
X111541044Y-121182200D01*
X111541044Y-121182200D02*
X111493425Y-121134580D01*
X111493425Y-121134580D02*
X111445806Y-121039342D01*
X111445806Y-121039342D02*
X111445806Y-120944104D01*
X111445806Y-120944104D02*
X111493425Y-120848866D01*
X111493425Y-120848866D02*
X111541044Y-120801247D01*
X111541044Y-120801247D02*
X111636282Y-120753628D01*
X111636282Y-120753628D02*
X111826758Y-120706009D01*
X111826758Y-120706009D02*
X111921996Y-120658390D01*
X111921996Y-120658390D02*
X111969615Y-120610771D01*
X111969615Y-120610771D02*
X112017234Y-120515533D01*
X112017234Y-120515533D02*
X112017234Y-120420295D01*
X112017234Y-120420295D02*
X111969615Y-120325057D01*
X111969615Y-120325057D02*
X111921996Y-120277438D01*
X111921996Y-120277438D02*
X111826758Y-120229819D01*
X111826758Y-120229819D02*
X111588663Y-120229819D01*
X111588663Y-120229819D02*
X111445806Y-120277438D01*
X110588663Y-120563152D02*
X110588663Y-121229819D01*
X110826758Y-120182200D02*
X111064853Y-120896485D01*
X111064853Y-120896485D02*
X110445806Y-120896485D01*
X107423810Y-102054819D02*
X107423810Y-101054819D01*
X108471428Y-101959580D02*
X108423809Y-102007200D01*
X108423809Y-102007200D02*
X108280952Y-102054819D01*
X108280952Y-102054819D02*
X108185714Y-102054819D01*
X108185714Y-102054819D02*
X108042857Y-102007200D01*
X108042857Y-102007200D02*
X107947619Y-101911961D01*
X107947619Y-101911961D02*
X107900000Y-101816723D01*
X107900000Y-101816723D02*
X107852381Y-101626247D01*
X107852381Y-101626247D02*
X107852381Y-101483390D01*
X107852381Y-101483390D02*
X107900000Y-101292914D01*
X107900000Y-101292914D02*
X107947619Y-101197676D01*
X107947619Y-101197676D02*
X108042857Y-101102438D01*
X108042857Y-101102438D02*
X108185714Y-101054819D01*
X108185714Y-101054819D02*
X108280952Y-101054819D01*
X108280952Y-101054819D02*
X108423809Y-101102438D01*
X108423809Y-101102438D02*
X108471428Y-101150057D01*
X108852381Y-101150057D02*
X108900000Y-101102438D01*
X108900000Y-101102438D02*
X108995238Y-101054819D01*
X108995238Y-101054819D02*
X109233333Y-101054819D01*
X109233333Y-101054819D02*
X109328571Y-101102438D01*
X109328571Y-101102438D02*
X109376190Y-101150057D01*
X109376190Y-101150057D02*
X109423809Y-101245295D01*
X109423809Y-101245295D02*
X109423809Y-101340533D01*
X109423809Y-101340533D02*
X109376190Y-101483390D01*
X109376190Y-101483390D02*
X108804762Y-102054819D01*
X108804762Y-102054819D02*
X109423809Y-102054819D01*
X99823905Y-104654819D02*
X99823905Y-103654819D01*
X99823905Y-103654819D02*
X100062000Y-103654819D01*
X100062000Y-103654819D02*
X100204857Y-103702438D01*
X100204857Y-103702438D02*
X100300095Y-103797676D01*
X100300095Y-103797676D02*
X100347714Y-103892914D01*
X100347714Y-103892914D02*
X100395333Y-104083390D01*
X100395333Y-104083390D02*
X100395333Y-104226247D01*
X100395333Y-104226247D02*
X100347714Y-104416723D01*
X100347714Y-104416723D02*
X100300095Y-104511961D01*
X100300095Y-104511961D02*
X100204857Y-104607200D01*
X100204857Y-104607200D02*
X100062000Y-104654819D01*
X100062000Y-104654819D02*
X99823905Y-104654819D01*
X101347714Y-104654819D02*
X100776286Y-104654819D01*
X101062000Y-104654819D02*
X101062000Y-103654819D01*
X101062000Y-103654819D02*
X100966762Y-103797676D01*
X100966762Y-103797676D02*
X100871524Y-103892914D01*
X100871524Y-103892914D02*
X100776286Y-103940533D01*
X101650568Y-121182200D02*
X101507711Y-121229819D01*
X101507711Y-121229819D02*
X101269616Y-121229819D01*
X101269616Y-121229819D02*
X101174378Y-121182200D01*
X101174378Y-121182200D02*
X101126759Y-121134580D01*
X101126759Y-121134580D02*
X101079140Y-121039342D01*
X101079140Y-121039342D02*
X101079140Y-120944104D01*
X101079140Y-120944104D02*
X101126759Y-120848866D01*
X101126759Y-120848866D02*
X101174378Y-120801247D01*
X101174378Y-120801247D02*
X101269616Y-120753628D01*
X101269616Y-120753628D02*
X101460092Y-120706009D01*
X101460092Y-120706009D02*
X101555330Y-120658390D01*
X101555330Y-120658390D02*
X101602949Y-120610771D01*
X101602949Y-120610771D02*
X101650568Y-120515533D01*
X101650568Y-120515533D02*
X101650568Y-120420295D01*
X101650568Y-120420295D02*
X101602949Y-120325057D01*
X101602949Y-120325057D02*
X101555330Y-120277438D01*
X101555330Y-120277438D02*
X101460092Y-120229819D01*
X101460092Y-120229819D02*
X101221997Y-120229819D01*
X101221997Y-120229819D02*
X101079140Y-120277438D01*
X100126759Y-121229819D02*
X100698187Y-121229819D01*
X100412473Y-121229819D02*
X100412473Y-120229819D01*
X100412473Y-120229819D02*
X100507711Y-120372676D01*
X100507711Y-120372676D02*
X100602949Y-120467914D01*
X100602949Y-120467914D02*
X100698187Y-120515533D01*
X131738095Y-121077200D02*
X131880952Y-121124819D01*
X131880952Y-121124819D02*
X132119047Y-121124819D01*
X132119047Y-121124819D02*
X132214285Y-121077200D01*
X132214285Y-121077200D02*
X132261904Y-121029580D01*
X132261904Y-121029580D02*
X132309523Y-120934342D01*
X132309523Y-120934342D02*
X132309523Y-120839104D01*
X132309523Y-120839104D02*
X132261904Y-120743866D01*
X132261904Y-120743866D02*
X132214285Y-120696247D01*
X132214285Y-120696247D02*
X132119047Y-120648628D01*
X132119047Y-120648628D02*
X131928571Y-120601009D01*
X131928571Y-120601009D02*
X131833333Y-120553390D01*
X131833333Y-120553390D02*
X131785714Y-120505771D01*
X131785714Y-120505771D02*
X131738095Y-120410533D01*
X131738095Y-120410533D02*
X131738095Y-120315295D01*
X131738095Y-120315295D02*
X131785714Y-120220057D01*
X131785714Y-120220057D02*
X131833333Y-120172438D01*
X131833333Y-120172438D02*
X131928571Y-120124819D01*
X131928571Y-120124819D02*
X132166666Y-120124819D01*
X132166666Y-120124819D02*
X132309523Y-120172438D01*
X132690476Y-120220057D02*
X132738095Y-120172438D01*
X132738095Y-120172438D02*
X132833333Y-120124819D01*
X132833333Y-120124819D02*
X133071428Y-120124819D01*
X133071428Y-120124819D02*
X133166666Y-120172438D01*
X133166666Y-120172438D02*
X133214285Y-120220057D01*
X133214285Y-120220057D02*
X133261904Y-120315295D01*
X133261904Y-120315295D02*
X133261904Y-120410533D01*
X133261904Y-120410533D02*
X133214285Y-120553390D01*
X133214285Y-120553390D02*
X132642857Y-121124819D01*
X132642857Y-121124819D02*
X133261904Y-121124819D01*
X93854819Y-101203333D02*
X94569104Y-101203333D01*
X94569104Y-101203333D02*
X94711961Y-101250952D01*
X94711961Y-101250952D02*
X94807200Y-101346190D01*
X94807200Y-101346190D02*
X94854819Y-101489047D01*
X94854819Y-101489047D02*
X94854819Y-101584285D01*
X93854819Y-100822380D02*
X93854819Y-100155714D01*
X93854819Y-100155714D02*
X94854819Y-100584285D01*
X121238095Y-121277200D02*
X121380952Y-121324819D01*
X121380952Y-121324819D02*
X121619047Y-121324819D01*
X121619047Y-121324819D02*
X121714285Y-121277200D01*
X121714285Y-121277200D02*
X121761904Y-121229580D01*
X121761904Y-121229580D02*
X121809523Y-121134342D01*
X121809523Y-121134342D02*
X121809523Y-121039104D01*
X121809523Y-121039104D02*
X121761904Y-120943866D01*
X121761904Y-120943866D02*
X121714285Y-120896247D01*
X121714285Y-120896247D02*
X121619047Y-120848628D01*
X121619047Y-120848628D02*
X121428571Y-120801009D01*
X121428571Y-120801009D02*
X121333333Y-120753390D01*
X121333333Y-120753390D02*
X121285714Y-120705771D01*
X121285714Y-120705771D02*
X121238095Y-120610533D01*
X121238095Y-120610533D02*
X121238095Y-120515295D01*
X121238095Y-120515295D02*
X121285714Y-120420057D01*
X121285714Y-120420057D02*
X121333333Y-120372438D01*
X121333333Y-120372438D02*
X121428571Y-120324819D01*
X121428571Y-120324819D02*
X121666666Y-120324819D01*
X121666666Y-120324819D02*
X121809523Y-120372438D01*
X122142857Y-120324819D02*
X122761904Y-120324819D01*
X122761904Y-120324819D02*
X122428571Y-120705771D01*
X122428571Y-120705771D02*
X122571428Y-120705771D01*
X122571428Y-120705771D02*
X122666666Y-120753390D01*
X122666666Y-120753390D02*
X122714285Y-120801009D01*
X122714285Y-120801009D02*
X122761904Y-120896247D01*
X122761904Y-120896247D02*
X122761904Y-121134342D01*
X122761904Y-121134342D02*
X122714285Y-121229580D01*
X122714285Y-121229580D02*
X122666666Y-121277200D01*
X122666666Y-121277200D02*
X122571428Y-121324819D01*
X122571428Y-121324819D02*
X122285714Y-121324819D01*
X122285714Y-121324819D02*
X122190476Y-121277200D01*
X122190476Y-121277200D02*
X122142857Y-121229580D01*
X106383333Y-107859580D02*
X106335714Y-107907200D01*
X106335714Y-107907200D02*
X106192857Y-107954819D01*
X106192857Y-107954819D02*
X106097619Y-107954819D01*
X106097619Y-107954819D02*
X105954762Y-107907200D01*
X105954762Y-107907200D02*
X105859524Y-107811961D01*
X105859524Y-107811961D02*
X105811905Y-107716723D01*
X105811905Y-107716723D02*
X105764286Y-107526247D01*
X105764286Y-107526247D02*
X105764286Y-107383390D01*
X105764286Y-107383390D02*
X105811905Y-107192914D01*
X105811905Y-107192914D02*
X105859524Y-107097676D01*
X105859524Y-107097676D02*
X105954762Y-107002438D01*
X105954762Y-107002438D02*
X106097619Y-106954819D01*
X106097619Y-106954819D02*
X106192857Y-106954819D01*
X106192857Y-106954819D02*
X106335714Y-107002438D01*
X106335714Y-107002438D02*
X106383333Y-107050057D01*
X106716667Y-106954819D02*
X107335714Y-106954819D01*
X107335714Y-106954819D02*
X107002381Y-107335771D01*
X107002381Y-107335771D02*
X107145238Y-107335771D01*
X107145238Y-107335771D02*
X107240476Y-107383390D01*
X107240476Y-107383390D02*
X107288095Y-107431009D01*
X107288095Y-107431009D02*
X107335714Y-107526247D01*
X107335714Y-107526247D02*
X107335714Y-107764342D01*
X107335714Y-107764342D02*
X107288095Y-107859580D01*
X107288095Y-107859580D02*
X107240476Y-107907200D01*
X107240476Y-107907200D02*
X107145238Y-107954819D01*
X107145238Y-107954819D02*
X106859524Y-107954819D01*
X106859524Y-107954819D02*
X106764286Y-107907200D01*
X106764286Y-107907200D02*
X106716667Y-107859580D01*
D13*
%TO.C,K3*%
X121450000Y-94440000D02*
X121450000Y-91140000D01*
X125800000Y-89440000D02*
X134200000Y-89440000D01*
X138800000Y-89440000D02*
X136200000Y-89440000D01*
X141450000Y-89440000D02*
X141450000Y-94440000D01*
X141450000Y-94440000D02*
X121450000Y-94440000D01*
D14*
X142000000Y-90340000D02*
X142000000Y-90340000D01*
X142100000Y-90340000D02*
X142100000Y-90340000D01*
X142000000Y-90340000D02*
G75*
G02*
X142100000Y-90340000I50000J0D01*
G01*
X142100000Y-90340000D02*
G75*
G02*
X142000000Y-90340000I-50000J0D01*
G01*
D15*
%TO.C,U1*%
X115600000Y-109720000D02*
X115600000Y-96020000D01*
X115600000Y-109720000D02*
X143290000Y-109720000D01*
X143290000Y-96020000D02*
X115600000Y-96020000D01*
X143290000Y-109720000D02*
X143290000Y-96020000D01*
D14*
%TO.C,PS2*%
X119270000Y-49250000D02*
X142270000Y-49250000D01*
X119270000Y-87250000D02*
X119270000Y-49250000D01*
D13*
X133670000Y-48750000D02*
X133670000Y-48750000D01*
X133870000Y-48750000D02*
X133870000Y-48750000D01*
D14*
X142270000Y-49250000D02*
X142270000Y-87250000D01*
X142270000Y-87250000D02*
X119270000Y-87250000D01*
D13*
X133670000Y-48750000D02*
G75*
G02*
X133870000Y-48750000I100000J0D01*
G01*
X133870000Y-48750000D02*
G75*
G02*
X133670000Y-48750000I-100000J0D01*
G01*
%TO.C,D2*%
X101112000Y-99750000D02*
X102812000Y-99750000D01*
X101112000Y-101050000D02*
X103662000Y-101050000D01*
D12*
%TO.C,S4*%
X108500000Y-117670000D02*
X114700000Y-117670000D01*
X108500000Y-119387330D02*
X108500000Y-122177000D01*
X108500000Y-123870000D02*
X114700000Y-123870000D01*
X114700000Y-119373000D02*
X114700000Y-122134330D01*
X106361130Y-117560670D02*
G75*
G02*
X106208870Y-117560670I-76130J0D01*
G01*
X106208870Y-117560670D02*
G75*
G02*
X106361130Y-117560670I76130J0D01*
G01*
D13*
%TO.C,J3*%
X94110000Y-71700000D02*
X106810000Y-71700000D01*
X94110000Y-91900000D02*
X94110000Y-71700000D01*
X94610000Y-91900000D02*
X94110000Y-91900000D01*
X94610000Y-92900000D02*
X94610000Y-91900000D01*
X95160000Y-92900000D02*
X94610000Y-92900000D01*
X95160000Y-93400000D02*
X95160000Y-92900000D01*
X97460000Y-92900000D02*
X97460000Y-93400000D01*
X97460000Y-93400000D02*
X95160000Y-93400000D01*
X103960000Y-92900000D02*
X97460000Y-92900000D01*
X103960000Y-93400000D02*
X103960000Y-92900000D01*
X106260000Y-92900000D02*
X106260000Y-93400000D01*
X106260000Y-93400000D02*
X103960000Y-93400000D01*
X106810000Y-71700000D02*
X106810000Y-92900000D01*
X106810000Y-92900000D02*
X106260000Y-92900000D01*
D16*
X104910000Y-73450000D02*
G75*
G02*
X104710000Y-73450000I-100000J0D01*
G01*
X104710000Y-73450000D02*
G75*
G02*
X104910000Y-73450000I100000J0D01*
G01*
D13*
%TO.C,K1*%
X109200000Y-49240000D02*
X116840000Y-49240000D01*
X109200000Y-92340000D02*
X109200000Y-49240000D01*
X116840000Y-49240000D02*
X116840000Y-92340000D01*
X116840000Y-92340000D02*
X109200000Y-92340000D01*
D14*
X117300000Y-56840000D02*
X117300000Y-56840000D01*
X117400000Y-56840000D02*
X117400000Y-56840000D01*
X117300000Y-56840000D02*
G75*
G02*
X117400000Y-56840000I50000J0D01*
G01*
X117400000Y-56840000D02*
G75*
G02*
X117300000Y-56840000I-50000J0D01*
G01*
D13*
%TO.C,LED4*%
X91690000Y-109030000D02*
X94390000Y-109030000D01*
X94390000Y-106930000D02*
X91690000Y-106930000D01*
X94390000Y-109030000D02*
X94390000Y-106930000D01*
%TO.C,IC2*%
X106325000Y-98500000D02*
X104375000Y-98500000D01*
X106675000Y-98350000D02*
X106675000Y-104850000D01*
X106675000Y-104850000D02*
X110125000Y-104850000D01*
X110125000Y-98350000D02*
X106675000Y-98350000D01*
X110125000Y-104850000D02*
X110125000Y-98350000D01*
%TO.C,D1*%
X101112000Y-102050000D02*
X102812000Y-102050000D01*
X101112000Y-103350000D02*
X103662000Y-103350000D01*
D12*
%TO.C,S1*%
X98133334Y-117670000D02*
X104333334Y-117670000D01*
X98133334Y-119387330D02*
X98133334Y-122177000D01*
X98133334Y-123870000D02*
X104333334Y-123870000D01*
X104333334Y-119373000D02*
X104333334Y-122134330D01*
X95994464Y-117560670D02*
G75*
G02*
X95842204Y-117560670I-76130J0D01*
G01*
X95842204Y-117560670D02*
G75*
G02*
X95994464Y-117560670I76130J0D01*
G01*
D14*
%TO.C,J2*%
X88940000Y-114060000D02*
X88940000Y-114060000D01*
X89040000Y-114060000D02*
X89040000Y-114060000D01*
D13*
X89590000Y-111610000D02*
X95340000Y-111610000D01*
X89590000Y-119010000D02*
X89590000Y-111610000D01*
X95340000Y-111610000D02*
X95340000Y-119010000D01*
X95340000Y-119010000D02*
X89590000Y-119010000D01*
D14*
X88940000Y-114060000D02*
G75*
G02*
X89040000Y-114060000I50000J0D01*
G01*
X89040000Y-114060000D02*
G75*
G02*
X88940000Y-114060000I-50000J0D01*
G01*
%TO.C,J1*%
X137350000Y-112830000D02*
X143850000Y-112830000D01*
X137350000Y-118370000D02*
X137350000Y-112830000D01*
X143850000Y-112830000D02*
X143850000Y-118370000D01*
X143850000Y-118370000D02*
X137350000Y-118370000D01*
D12*
%TO.C,S2*%
X129233334Y-117670000D02*
X135433334Y-117670000D01*
X129233334Y-119387330D02*
X129233334Y-122177000D01*
X129233334Y-123870000D02*
X135433334Y-123870000D01*
X135433334Y-119373000D02*
X135433334Y-122134330D01*
X127094464Y-117560670D02*
G75*
G02*
X126942204Y-117560670I-76130J0D01*
G01*
X126942204Y-117560670D02*
G75*
G02*
X127094464Y-117560670I76130J0D01*
G01*
D13*
%TO.C,LED1*%
X121250000Y-125532500D02*
X121250000Y-128232500D01*
X121250000Y-128232500D02*
X123350000Y-128232500D01*
X123350000Y-128232500D02*
X123350000Y-125532500D01*
%TO.C,J4*%
X94110000Y-49200000D02*
X106810000Y-49200000D01*
X94110000Y-69400000D02*
X94110000Y-49200000D01*
X94610000Y-69400000D02*
X94110000Y-69400000D01*
X94610000Y-70400000D02*
X94610000Y-69400000D01*
X95160000Y-70400000D02*
X94610000Y-70400000D01*
X95160000Y-70900000D02*
X95160000Y-70400000D01*
X97460000Y-70400000D02*
X97460000Y-70900000D01*
X97460000Y-70900000D02*
X95160000Y-70900000D01*
X103960000Y-70400000D02*
X97460000Y-70400000D01*
X103960000Y-70900000D02*
X103960000Y-70400000D01*
X106260000Y-70400000D02*
X106260000Y-70900000D01*
X106260000Y-70900000D02*
X103960000Y-70900000D01*
X106810000Y-49200000D02*
X106810000Y-70400000D01*
X106810000Y-70400000D02*
X106260000Y-70400000D01*
D16*
X104910000Y-50950000D02*
G75*
G02*
X104710000Y-50950000I-100000J0D01*
G01*
X104710000Y-50950000D02*
G75*
G02*
X104910000Y-50950000I100000J0D01*
G01*
D13*
%TO.C,J7*%
X89300000Y-96500000D02*
X89300000Y-105640000D01*
X89300000Y-105640000D02*
X90680000Y-105640000D01*
X90680000Y-96500000D02*
X89300000Y-96500000D01*
X93280000Y-105640000D02*
X94780000Y-105640000D01*
X94780000Y-96500000D02*
X93280000Y-96500000D01*
%TO.C,LED3*%
X115950000Y-125520000D02*
X115950000Y-128220000D01*
X115950000Y-128220000D02*
X118050000Y-128220000D01*
X118050000Y-128220000D02*
X118050000Y-125520000D01*
D12*
%TO.C,S3*%
X118866666Y-117670000D02*
X125066666Y-117670000D01*
X118866666Y-119387330D02*
X118866666Y-122177000D01*
X118866666Y-123870000D02*
X125066666Y-123870000D01*
X125066666Y-119373000D02*
X125066666Y-122134330D01*
X116727796Y-117560670D02*
G75*
G02*
X116575536Y-117560670I-76130J0D01*
G01*
X116575536Y-117560670D02*
G75*
G02*
X116727796Y-117560670I76130J0D01*
G01*
D13*
%TO.C,J6*%
X99766000Y-127549000D02*
G75*
G02*
X99640000Y-127549000I-63000J0D01*
G01*
X99640000Y-127549000D02*
G75*
G02*
X99766000Y-127549000I63000J0D01*
G01*
%TO.C,LED2*%
X110750000Y-125520000D02*
X110750000Y-128220000D01*
X110750000Y-128220000D02*
X112850000Y-128220000D01*
X112850000Y-128220000D02*
X112850000Y-125520000D01*
%TD*%
M02*
